<svg width="227" height="422" viewBox="0 0 227 422" fill="none" xmlns="http://www.w3.org/2000/svg">
<ellipse cx="39.2798" cy="10.9581" rx="39.2798" ry="10.9581" transform="matrix(0.998329 0.0577916 -0.0577768 0.99833 66.0664 100.562)" fill="#28D0D9"/>
<path d="M81.8398 113.886C84.403 113.545 86.6792 111.663 88.9208 110.542" stroke="#7FDBE0" stroke-width="5" stroke-linecap="round"/>
<path d="M98.3613 115.853C101.24 114.722 103.602 112.54 106.426 111.329" stroke="#7FDBE0" stroke-width="5" stroke-linecap="round"/>
<path d="M116.458 117.23C117.914 115.927 120.064 115.033 121.736 114.007C122.454 113.566 123.134 112.973 123.932 112.706" stroke="#7FDBE0" stroke-width="5" stroke-linecap="round"/>
<path d="M55.9971 401.849C55.9971 409.599 73.0825 407.625 77.6637 407.625C80.4559 407.625 83.1845 407.529 85.9273 406.983C90.0999 406.153 93.3242 403.874 97.1637 402.353C99.1892 401.551 101.038 401.965 103.16 402.262C108.759 403.045 114.686 402.925 120.14 404.324C124.125 405.347 128.078 405.15 132.183 405.15C136.831 405.15 139.079 404.921 143.218 402.72C144.605 401.982 148.603 399.803 145.586 398.457C141.147 396.476 135.19 397.006 130.394 396.646C119.871 395.856 109.402 394.01 98.8265 394.01C96.7111 394.01 93.7588 393.339 92.4021 394.858C91.1539 396.256 88.5357 396.362 86.7839 396.577C83.1778 397.02 79.5618 397.41 75.9506 397.815C73.1509 398.129 70.3929 398.549 67.6114 398.938C63.8608 399.463 60.2654 400.611 56.4506 400.611" stroke="#2C89FB" stroke-width="9.52076" stroke-linecap="round"/>
<path d="M48.8449 136.87C48.7327 136.847 48.6262 136.819 48.5251 136.785C48.6039 136.978 48.6843 137.192 48.7662 137.428C49.7524 140.275 50.6801 143.143 51.5436 146.035C51.6509 146.101 51.7576 146.161 51.8633 146.215C52.347 146.462 52.2288 146.972 51.9657 147.468C52.0653 147.812 52.1641 148.155 52.2619 148.499C52.3587 148.839 52.4837 149.45 52.6021 150.02C52.677 149.996 52.7521 149.972 52.8272 149.947C53.1316 149.846 52.9819 150.922 52.9761 151.158C52.9621 151.725 52.7906 150.925 52.6021 150.02C51.9631 150.218 51.3347 150.351 50.7536 150.353C49.6019 150.359 48.6358 149.853 48.1406 148.328C47.7132 147.012 47.2187 145.783 46.8721 144.431C46.6729 143.653 46.8308 142.954 46.4714 142.234C45.8422 140.975 43.6066 144.389 42.7053 143.471C42.106 142.861 41.5801 141.407 40.9228 140.663C40.4959 140.18 39.5708 139.338 38.8362 138.683C38.5624 140.387 37.9659 141.909 37.0861 143.491C37.5708 144.37 37.7468 145.17 37.1252 145.818C36.1464 146.838 35.3033 147.992 34.3181 149.002C34.2148 149.108 32.9907 150.141 33.0099 150.019C33.3553 147.83 35.8336 145.661 36.8812 143.852C36.9511 143.732 37.0194 143.611 37.0861 143.491C36.1954 141.876 34.2624 139.993 34.3228 138.288C34.3856 136.514 38.1368 138.297 38.1481 138.073C37.7788 137.747 37.6417 137.624 38.0018 137.915C38.104 137.998 38.1494 138.048 38.1481 138.073C38.3312 138.235 38.5713 138.447 38.8362 138.683C38.9309 138.093 38.987 137.481 39.0029 136.838C39.0564 134.663 39.9789 132.43 40.6234 130.388C41.4285 127.838 42.0342 125.756 43.552 123.586C44.8726 121.697 47.0366 119.789 48.8746 118.504C53.3661 115.365 57.6041 111.83 61.812 108.258C64.4826 105.99 67.7356 104.349 70.7365 102.67C72.9447 101.434 75.3528 100.57 77.6359 99.5163C79.7313 98.5494 81.9933 97.1107 84.2665 96.7234C87.4645 96.1785 90.4551 94.3141 93.6925 93.8593C96.5355 93.4598 99.629 94.278 102.372 94.93C102.44 94.9461 104.831 95.3858 104.793 95.5668C104.704 95.9861 101.38 96.5112 101.179 96.5624C96.2615 97.8096 81.7765 102.629 86.6865 101.348C91.3863 100.123 95.7778 98.9207 100.68 98.999C106.368 99.0898 111.143 100.095 116.474 102.046C117 102.239 117.553 102.538 116.64 102.54C113.726 102.549 110.826 102.706 107.923 103.008C102.079 103.616 96.2588 104.689 90.6352 106.553C89.904 106.796 87.9115 107.743 88.6708 107.834C90.0992 108.006 91.637 107.747 93.0463 107.575C97.0547 107.085 101.04 106.439 105.028 105.788C106.443 105.557 107.835 105.245 109.231 104.95C109.234 104.949 109.237 104.948 109.24 104.947C109.79 104.765 111.504 104.496 110.937 104.604C110.367 104.712 109.798 104.83 109.231 104.95C103.134 106.972 97.5112 110.333 92.0871 113.901C92.8043 113.905 93.5647 113.937 94.0102 113.948C103.912 114.192 113.798 114.5 122.406 120.349C122.413 120.354 125.844 122.758 125.127 123.32C124.702 123.652 123.589 123.511 122.746 123.351C128.43 125.75 133.68 129.177 137.466 134.101C137.587 134.259 139.211 136.03 139.163 136.399C139.12 136.739 138.537 136.263 138.244 136.132C135.814 135.041 133.427 133.815 131.037 132.631C121.557 127.933 112.226 123.201 102.558 119.139C99.8257 118.805 97.0991 118.592 94.3461 118.447C94.4777 118.569 94.6626 118.69 94.7689 118.759C96.5921 119.944 98.53 120.865 100.492 121.727C101.128 121.701 101.762 121.695 102.395 121.711C103.513 121.738 102.456 121.767 101.905 121.839C101.613 121.876 101.323 121.918 101.032 121.963C105.125 123.738 109.287 125.339 112.701 128.611C117.074 132.802 120.976 137.863 124.604 142.977C126.849 145.385 128.223 147.775 129.879 150.654C131.216 152.979 128.491 148.577 128.281 148.271C127.083 146.522 125.86 144.746 124.604 142.977C124.412 142.771 124.214 142.565 124.009 142.359C122.86 141.204 121.615 140.194 120.304 139.294C121.276 140.242 122.208 141.288 123.204 142.041C125.746 143.962 117.566 139.231 114.697 137.949C111.915 136.705 109.059 135.706 106.341 134.297C105.375 133.797 103.88 133.249 103.274 132.193C102.909 131.556 104.307 132.002 104.399 132.028C106.205 132.536 107.95 133.288 109.694 133.995C113.326 135.467 117.022 137.04 120.304 139.294C119.924 138.923 119.538 138.568 119.14 138.251C116.381 136.053 113.301 134.453 110.223 132.854L110.081 132.78C102.922 129.06 94.0075 129.502 86.2341 130.286C85.7234 130.338 83.046 130.543 83.1264 130.507C83.2579 130.449 83.3928 130.396 83.5303 130.346C79.8065 130.817 77.7881 131.119 80.5719 130.689C87.3531 129.644 94.0282 127.86 100.837 126.92C102.073 126.75 103.311 126.604 104.551 126.487C105.528 126.394 102.593 126.439 101.613 126.414C94.3153 126.235 87.1366 126.849 79.8998 127.712C76.8884 130.314 73.9283 132.984 71.0517 135.754C72.5907 134.979 74.1261 134.192 75.6649 133.402C76.3019 133.075 76.9994 132.772 77.681 132.437C79.247 131.382 80.5082 130.565 79.5825 131.295C79.0134 131.743 78.355 132.106 77.681 132.437C76.5037 133.23 75.154 134.159 74.4319 134.666C71.5557 136.688 68.9931 139.185 66.5271 141.713C65.3461 142.924 68.7278 139.112 69.9494 137.949C70.4601 137.463 72.9669 135.348 70.8996 136.958C67.6624 139.479 64.4152 142.653 61.7156 145.828C59.0784 148.93 63.6572 143.338 64.1117 142.843C66.356 140.399 68.6754 138.043 71.0517 135.754C68.2049 137.188 65.3459 138.583 62.4305 139.881C60.8801 140.571 57.733 142.788 55.9494 142.538C55.5606 142.483 56.2594 141.74 56.5289 141.432C57.9516 139.806 59.7184 138.526 61.407 137.249C62.0758 136.744 62.7459 136.239 63.4175 135.736C62.7569 136.066 62.0916 136.385 61.4208 136.69C58.6214 137.965 61.2221 136.478 65.276 134.352C67.704 132.554 70.1513 130.782 72.6208 129.059C72.9053 128.861 75.3078 127.333 75.1154 127.354C70.2074 127.892 65.0413 131.359 60.7481 133.665C59.1209 134.539 54.3262 137.269 55.7831 136.096C55.8472 136.045 55.9116 135.994 55.9762 135.943C55.4447 136.203 54.9099 136.453 54.3716 136.691C53.0073 137.297 51.8389 137.585 51.9514 136.514C50.9074 136.91 49.858 137.077 48.8449 136.87Z" fill="#F879C6"/>
<path d="M86.8709 116.291C84.2196 116.226 81.5683 116.161 78.9171 116.095C78.7959 116.092 77.078 116.148 77.3643 115.83C79.1376 113.861 82.7392 112.867 85.0016 111.732C86.7067 110.877 88.4357 109.993 90.1947 109.271C90.3421 109.211 90.6568 108.973 90.6526 109.142C90.6348 109.868 89.3401 109.477 88.6906 109.671C84.2271 111.009 79.9488 112.976 75.6665 114.861C73.4032 115.857 71.1493 116.89 68.8385 117.754C68.3332 117.943 66.8717 118.502 67.2703 118.118C67.5617 117.836 69.0884 116.888 69.1202 116.869C73.4835 114.259 78.0109 111.955 82.4881 109.589C85.2331 108.138 90.0237 105.646 92.9389 104.021C93.736 103.577 98.0867 101.138 93.6363 102.744C91.7367 103.429 71.6541 111.622 73.2519 113.979C74.9729 116.519 86.009 105.063 86.9135 102.683C87.7892 100.38 80.9888 102.474 80.4829 102.63C75.9395 104.034 71.4743 106.347 67.4616 109.026C64.722 110.856 62.022 112.998 59.6082 115.305C58.9506 115.934 56.802 117.703 56.9848 118.949C57.1689 120.204 62.0623 118.055 62.1729 118.01C67.5265 115.813 72.4868 112.472 77.1447 108.915C77.7011 108.49 82.7973 105.187 82.7565 103.963C82.711 102.6 73.4957 105.608 72.9163 105.837C66.2114 108.489 57.9786 112.611 53.4623 118.862C52.101 120.746 51.0246 122.837 50.4651 125.156C50.3547 125.613 49.5497 128.462 50.2782 128.789C51.8157 129.48 54.6335 127.423 55.7715 126.668C59.5257 124.179 63.0983 121.144 66.1751 117.741C67.5825 116.184 69.6046 114.101 70.0878 111.872C70.579 109.606 66.1982 111.946 65.8258 112.135C62.2649 113.941 59.1771 116.542 56.197 119.279C53.5884 121.675 50.7104 124.17 48.8205 127.302C47.6314 129.272 45.1227 136.112 48.8449 136.87C52.6024 137.635 56.8603 133.266 59.479 131.115C65.0668 126.524 70.2223 121.446 74.9598 115.858C76.9411 113.521 80.5103 110.3 81.5239 107.186C81.7982 106.343 80.2826 107.168 80.2736 107.173C78.0378 108.429 76.0266 110.379 74.0946 112.076C68.8944 116.644 63.7947 121.382 59.1039 126.558C56.7072 129.202 53.7497 132.107 52.2565 135.52C51.301 137.703 52.687 137.439 54.3716 136.691C61.585 133.492 68.1868 128.296 74.293 123.153C77.438 120.504 80.5284 117.71 83.3539 114.665C84.8536 113.049 82.0523 114.573 81.711 114.765C74.5347 118.799 67.7303 123.755 60.8311 128.314C55.7113 131.698 71.0362 121.328 76.6367 118.995C79.3618 117.86 82.2705 116.96 85.1468 116.389C85.8996 116.239 86.9969 116.047 85.8174 116.86C77.8721 122.337 69.523 127.156 61.3985 132.316C59.5207 133.509 57.5368 134.685 55.7831 136.096C54.3262 137.269 59.1209 134.539 60.7481 133.665C65.0413 131.359 70.2074 127.892 75.1154 127.354C75.3078 127.333 72.9053 128.861 72.6208 129.059C68.8342 131.701 65.0997 134.458 61.407 137.249C59.7184 138.526 57.9516 139.806 56.5289 141.432C56.2594 141.74 55.5606 142.483 55.9494 142.538C57.733 142.788 60.8801 140.571 62.4305 139.881C66.9219 137.881 71.2797 135.653 75.6649 133.402C76.9317 132.752 78.4379 132.196 79.5825 131.295C81.2043 130.017 76.1144 133.484 74.4319 134.666C71.5557 136.688 68.9931 139.185 66.5271 141.713C65.3461 142.924 68.7278 139.112 69.9494 137.949C70.4601 137.463 72.9669 135.348 70.8996 136.958C67.6624 139.479 64.4152 142.653 61.7156 145.828C59.0784 148.93 63.6572 143.338 64.1117 142.843C69.3562 137.132 75.0106 131.897 80.8438 126.9C82.1136 125.813 83.3512 124.604 84.7397 123.69C85.7991 122.993 82.7753 124.583 82.7686 124.586C75.5479 128.358 68.8214 133.32 61.4208 136.69C55.7258 139.283 72.3802 130.446 78.1516 128.058C85.6841 124.942 94.1933 121.509 102.395 121.711C103.513 121.738 102.456 121.767 101.905 121.839C97.533 122.406 93.304 123.799 89.0599 125.021C85.3427 126.092 74.025 128.441 77.8453 127.963C85.7802 126.973 93.6253 126.218 101.613 126.414C102.593 126.439 105.528 126.394 104.551 126.487C103.311 126.604 102.073 126.75 100.837 126.92C94.0282 127.86 87.3531 129.644 80.5719 130.689C74.1013 131.687 93.5757 128.735 100.107 128.896C104.121 128.995 92.0494 128.935 88.0715 129.545C86.5109 129.784 84.609 129.853 83.1264 130.507C83.046 130.543 85.7234 130.338 86.2341 130.286C94.0075 129.502 102.922 129.06 110.081 132.78C113.206 134.403 116.339 136.019 119.14 138.251C120.557 139.38 121.819 140.994 123.204 142.041C125.746 143.962 117.566 139.231 114.697 137.949C111.915 136.705 109.059 135.706 106.341 134.297C105.375 133.797 103.88 133.249 103.274 132.193C102.909 131.556 104.307 132.002 104.399 132.028C106.205 132.536 107.95 133.288 109.694 133.995C114.777 136.055 119.986 138.313 124.009 142.359C126.616 144.98 128.082 147.529 129.879 150.654C131.216 152.979 128.491 148.577 128.281 148.271C123.619 141.47 118.587 134.252 112.701 128.611C107.496 123.623 100.554 122.519 94.7689 118.759C94.5068 118.589 93.7669 118.099 94.5259 118.071C98.8209 117.913 103.2 118.377 107.43 119.088C118.047 120.874 130.347 124.842 137.466 134.101C137.587 134.259 139.211 136.03 139.163 136.399C139.12 136.739 138.537 136.263 138.244 136.132C135.814 135.041 133.427 133.815 131.037 132.631C119.079 126.705 107.359 120.725 94.8992 116.104C93.4714 115.574 91.8355 115.1 90.4924 114.334C89.4529 113.74 92.8324 113.919 94.0102 113.948C103.912 114.192 113.798 114.5 122.406 120.349C122.413 120.354 125.844 122.758 125.127 123.32C124.482 123.825 122.248 123.237 121.785 123.15C118.083 122.454 114.447 121.387 110.772 120.553C102.874 118.76 95.2768 118.387 87.2465 118.189C84.2842 118.116 90.5965 114.888 90.8896 114.693C96.6866 110.835 102.69 107.118 109.24 104.947C109.79 104.765 111.504 104.496 110.937 104.604C108.964 104.978 107.019 105.463 105.028 105.788C101.04 106.439 97.0547 107.085 93.0463 107.575C91.637 107.747 90.0992 108.006 88.6708 107.834C87.9115 107.743 89.904 106.796 90.6352 106.553C96.2588 104.689 102.079 103.616 107.923 103.008C110.826 102.706 113.726 102.549 116.64 102.54C117.553 102.538 117 102.239 116.474 102.046C111.143 100.095 106.368 99.0898 100.68 98.999C95.7778 98.9207 91.3863 100.123 86.6865 101.348C81.7765 102.629 96.2615 97.8096 101.179 96.5624C101.38 96.5112 104.704 95.9861 104.793 95.5668C104.831 95.3858 102.44 94.9461 102.372 94.93C99.629 94.278 96.5355 93.4598 93.6925 93.8593C90.4551 94.3141 87.4645 96.1785 84.2665 96.7234C81.9933 97.1107 79.7313 98.5494 77.6359 99.5163C75.3528 100.57 72.9447 101.434 70.7366 102.67C67.7356 104.349 64.4826 105.99 61.812 108.258C57.6041 111.83 53.3661 115.365 48.8746 118.504C47.0366 119.789 44.8726 121.697 43.552 123.586C42.0342 125.756 41.4285 127.838 40.6234 130.388C39.9789 132.43 39.0564 134.663 39.0029 136.838C38.9378 139.482 38.1929 141.587 36.8812 143.852C35.8336 145.661 33.3553 147.83 33.0099 150.019C32.9907 150.141 34.2148 149.108 34.3181 149.002C35.3033 147.992 36.1464 146.838 37.1252 145.818C38.8893 143.979 34.2295 140.921 34.3228 138.288C34.3926 136.316 39.02 138.739 38.0018 137.915C36.9681 137.079 40.0315 139.655 40.9228 140.663C41.5801 141.407 42.106 142.861 42.7053 143.471C43.6066 144.389 45.8422 140.975 46.4714 142.234C46.8308 142.954 46.6729 143.653 46.8721 144.431C47.2187 145.783 47.7132 147.012 48.1406 148.328C48.915 150.712 50.8405 150.606 52.8272 149.947C53.1316 149.846 52.9819 150.922 52.9761 151.158C52.9533 152.081 52.5128 149.381 52.2619 148.499C51.2011 144.769 50.0319 141.082 48.7662 137.428C47.0597 132.502 46.0076 137.423 46.8858 139.918C47.6246 142.017 49.9091 145.22 51.8633 146.215C52.7359 146.66 51.6495 147.965 51.2875 148.493C48.2302 152.952 58.6102 154.233 60.7381 156.641C62.3786 158.497 53.1757 159.25 52.486 159.192C49.5236 158.942 46.4987 157.528 43.6641 156.649C41.7097 156.042 39.6227 156.108 37.7326 155.453C36.1854 154.917 34.1121 155.296 32.8375 156.365C31.6625 157.35 30.4401 159.081 30.626 156.468C30.7372 154.904 32.7539 152.951 34.103 152.46C36.8977 151.444 39.9687 151.435 42.8995 151.417C43.892 151.411 43.0842 151.753 42.5555 152.196C41.6084 152.99 40.427 153.419 39.4535 154.166" stroke="#7FDBE0" stroke-width="8.55886" stroke-linecap="round"/>
<path d="M68.1607 161.8C66.1274 161.75 64.1003 161.758 62.0755 161.77C62.6101 159.852 63.9114 159.968 65.6911 159.85C68.2593 159.68 70.8129 159.778 73.3772 159.707C76.3062 159.625 79.1966 159.553 82.1338 159.625C83.5158 159.659 82.8205 163.764 82.7505 164.923C82.7093 165.605 81.4676 164.001 81.025 163.761C80.1529 163.289 78.7397 163.264 77.765 162.911C74.6683 161.791 71.3869 161.879 68.1607 161.8Z" fill="#F879C6"/>
<path d="M31.1253 159.944C37.0362 160.089 42.7464 160.635 48.6169 161.319C55.1493 162.08 61.6236 161.639 68.1607 161.8C71.3869 161.879 74.6683 161.791 77.765 162.911C78.7397 163.264 80.1529 163.289 81.025 163.761C81.4676 164.001 82.7094 165.605 82.7505 164.923C82.8205 163.764 83.5158 159.659 82.1338 159.625C79.1966 159.553 76.3062 159.625 73.3772 159.707C70.8129 159.778 68.2593 159.68 65.6911 159.85C63.9053 159.968 62.6012 159.851 62.0701 161.79C61.9826 162.109 61.2308 163.89 61.5588 164.086C63.2998 165.131 66.1478 165.489 68.1164 165.577C70.9371 165.704 73.767 165.716 76.5897 165.786" stroke="#7FDBE0" stroke-width="8.55886" stroke-linecap="round"/>
<path d="M114.523 110.382C115.295 110.443 116.15 110.59 116.69 111.042C116.731 111.077 117.175 111.555 117.033 111.61C116.509 111.812 115.432 111.084 114.523 110.382C113.931 109.926 113.41 109.481 113.159 109.311C111.339 108.08 109.364 106.993 107.865 105.297C107.188 104.531 106.551 103.452 106.508 102.36C106.451 100.917 109.089 101.44 109.795 101.444C112.829 101.46 115.923 101.434 118.984 101.623C116.092 100.95 113.196 100.397 110.276 99.7242C110.233 99.7143 104.476 97.5912 106.473 97.1817C107.976 96.8737 109.593 96.8837 111.184 96.9793C110.709 96.8398 110.237 96.6954 109.77 96.5457C106.697 95.5605 110.006 95.4495 111.225 95.4795C120.859 95.7166 130.908 98.3214 137.394 106.371C137.589 106.542 137.781 106.717 137.971 106.895C138.936 107.8 139.861 108.773 140.75 109.796C143.024 111.031 145.164 112.395 146.951 113.836C150.653 116.823 152.941 121.49 155.67 125.593C156.06 126.179 156.77 127.102 156.75 127.893C156.747 128.038 156.583 127.667 156.499 127.555C155.941 126.806 155.294 126.141 154.716 125.412C154.147 124.693 153.504 123.919 152.873 123.113C155.82 128.408 160.097 136.368 162.034 140.25C162.13 140.444 162.225 140.639 162.319 140.834C161.979 139.588 161.86 138.796 162.459 139.473C162.899 139.972 162.967 141.826 163.132 142.464C163.174 142.625 163.216 142.787 163.258 142.948C164.288 145.445 165.088 148.013 165.838 150.664C165.935 151.009 166.05 151.507 166.171 152.059C166.683 153.196 167.175 154.406 167.149 155.454C167.117 156.759 166.607 154.056 166.171 152.059C165.839 151.321 165.499 150.615 165.286 150.003C164.482 147.694 163.872 145.322 163.258 142.948C162.965 142.238 162.653 141.533 162.319 140.834C162.716 142.289 163.416 144.362 163.628 145.432C164.754 151.12 165.401 156.524 165.258 162.334C165.203 164.571 164.174 163.873 162.205 163.641C157.751 163.117 153.224 162.318 148.743 162.208C146.015 162.141 145.147 165.948 142.435 165.928C139.392 165.906 127.852 165.935 134.342 156.676C132.875 154.377 131.369 151.913 130.562 149.236C130.094 147.682 130.497 147.463 131.668 147.748C130.79 146.28 129.826 144.879 128.885 143.457C126.377 139.666 123.942 135.742 122.46 131.335C122.344 130.991 121.004 127.633 122.218 127.935C123.269 128.197 124.265 128.975 125.117 129.616C125.588 129.971 126.057 130.332 126.522 130.698C124.628 125.843 122.451 121.125 120.265 116.416C119.739 115.645 119.313 114.837 119.169 114.056C118.703 113.05 118.238 112.043 117.778 111.034C117.587 110.615 115.082 105.085 116.948 108.477C118.687 111.639 120.62 114.681 122.62 117.671C122.863 117.946 123.031 118.139 123.075 118.196C124.512 120.026 126.778 123.145 129.023 126.322C130.996 128.314 133.007 130.263 134.976 132.238C135.83 133.093 136.677 133.966 137.524 134.844C137.322 134.133 137.177 133.42 137.109 132.71C137.014 131.729 137.695 132.001 138.497 132.622C134.618 127.581 130.579 122.671 126.329 117.996C126.123 117.77 121.713 113.518 124.157 115.144C127.903 117.635 131.671 120.088 135.409 122.593C138.473 124.646 141.499 126.76 144.522 128.877C144.467 128.698 144.413 128.52 144.363 128.34C143.821 126.425 146.473 130.04 146.67 130.286C146.727 130.357 146.783 130.428 146.84 130.499C148.185 131.44 149.532 132.379 150.884 133.311C151.549 133.77 149.001 130.994 148.881 130.866C144.378 126.039 139.56 121.519 134.783 117.015C130.953 113.404 127.087 109.576 122.855 106.468C122.092 105.977 120.389 104.725 121.951 105.819C122.254 106.031 122.555 106.248 122.855 106.468C122.957 106.534 123.042 106.586 123.1 106.617C126.661 108.515 130.149 110.543 133.607 112.648C138.078 115.369 142.609 118.352 146.232 122.334C146.93 123.101 145.917 121.752 145.782 121.484C145.044 120.006 144.275 118.551 143.569 117.056C142.291 114.352 140.885 111.549 139.277 109.022C139.137 108.951 138.997 108.88 138.856 108.81C138.891 108.85 138.926 108.891 138.961 108.931C139.841 109.956 137.049 108.723 136.824 108.634C134.671 107.776 132.681 106.505 130.6 105.472C130.26 105.303 129.075 104.833 130.216 105.218C132.929 106.132 135.95 107.361 138.856 108.81C137.209 106.914 135.355 105.253 133.6 103.478C133.346 103.303 133.093 103.129 132.838 102.956C132.179 102.506 131.274 102.013 130.966 101.178C130.964 101.175 133.172 103.042 133.462 103.338C133.508 103.385 133.554 103.431 133.6 103.478C134.906 104.38 136.192 105.314 137.394 106.371C130.908 98.3214 120.859 95.7166 111.225 95.4795C110.006 95.4495 106.697 95.5605 109.77 96.5457C110.237 96.6954 110.709 96.8398 111.184 96.9793C112.123 97.0358 113.053 97.1222 113.944 97.1907C114.601 97.2411 119.163 97.3896 119.39 98.3392C119.474 98.6897 115.509 98.1248 115.255 98.0625C113.906 97.7329 112.533 97.3756 111.184 96.9793C109.593 96.8837 107.976 96.8737 106.473 97.1817C104.476 97.5912 110.233 99.7143 110.276 99.7242C113.196 100.397 116.092 100.95 118.984 101.623C120.552 101.72 122.111 101.873 123.65 102.117C123.966 102.168 127.531 102.657 127.746 103.285C127.858 103.61 123.052 102.675 122.938 102.642C121.62 102.262 120.303 101.93 118.984 101.623C115.923 101.434 112.829 101.46 109.795 101.444C109.089 101.44 106.451 100.917 106.508 102.36C106.551 103.452 107.188 104.531 107.865 105.297C109.364 106.993 111.339 108.08 113.159 109.311C113.41 109.481 113.931 109.926 114.523 110.382Z" fill="#F879C6"/>
<path d="M105.44 110.135C108.198 110.203 110.961 110.228 113.718 110.339C114.617 110.375 115.95 110.423 116.69 111.042C116.731 111.077 117.175 111.555 117.033 111.61C116.169 111.943 113.797 109.743 113.159 109.311C111.339 108.08 109.364 106.993 107.865 105.297C107.188 104.531 106.551 103.452 106.508 102.36C106.451 100.917 109.089 101.44 109.795 101.444C114.382 101.468 119.107 101.397 123.65 102.117C123.966 102.168 127.531 102.657 127.746 103.285C127.858 103.61 123.052 102.675 122.938 102.642C118.727 101.429 114.526 100.704 110.276 99.7242C110.233 99.7143 104.476 97.5912 106.473 97.1817C108.863 96.6918 111.544 97.0063 113.944 97.1907C114.601 97.2411 119.163 97.3896 119.39 98.3392C119.474 98.6897 115.509 98.1248 115.255 98.0625C113.431 97.6168 111.562 97.1205 109.77 96.5457C106.697 95.5605 110.006 95.4495 111.225 95.4795C121.577 95.7343 132.408 98.7227 138.782 108.262C140.599 110.98 142.162 114.078 143.569 117.056C144.275 118.551 145.044 120.006 145.782 121.484C145.917 121.752 146.93 123.101 146.232 122.334C142.609 118.352 138.078 115.369 133.607 112.648C130.149 110.543 126.661 108.515 123.1 106.617C122.606 106.353 120.18 104.579 121.951 105.819C126.539 109.033 130.682 113.149 134.783 117.015C139.56 121.519 144.378 126.039 148.881 130.866C149.001 130.994 151.549 133.77 150.884 133.311C145.718 129.75 140.62 126.085 135.409 122.593C131.671 120.088 127.903 117.635 124.157 115.144C121.713 113.518 126.123 117.77 126.329 117.996C131.639 123.837 136.62 130.045 141.37 136.418C142.513 137.951 143.669 139.478 144.765 141.05C144.923 141.277 145.643 142.294 145.828 142.72C145.893 142.868 145.512 142.672 145.393 142.569C141.733 139.407 138.407 135.677 134.976 132.238C130.774 128.025 126.382 123.928 122.577 119.286C121.488 117.957 119.367 115.795 119.138 113.848C119.126 113.749 122.839 117.895 123.075 118.196C127.476 123.8 139.642 141.492 135.211 135.917C132.578 132.603 130.27 128.852 127.869 125.346C124.103 119.844 120.188 114.368 116.948 108.477C115.082 105.085 117.587 110.615 117.778 111.034C120.863 117.795 124.141 124.47 126.81 131.442C128.597 136.11 130.07 140.871 131.413 145.706C131.614 146.43 131.803 147.169 132.058 147.873C132.066 147.896 132.523 149.08 132.483 149.073C132.103 149.013 132.047 148.393 131.842 148.043C130.919 146.467 129.889 144.974 128.885 143.457C126.377 139.666 123.942 135.742 122.46 131.335C122.344 130.991 121.004 127.633 122.218 127.935C123.269 128.197 124.265 128.975 125.117 129.616C128.629 132.258 131.965 135.231 135.135 138.329C139.529 142.622 151.359 156.979 147.38 152.239C145.227 149.673 143.499 146.586 141.842 143.636C140.056 140.457 137.48 136.54 137.109 132.71C136.893 130.483 140.676 134.711 140.792 134.83C144.575 138.66 147.97 142.945 151.338 147.194C152.212 148.296 153.051 149.424 153.903 150.545C154.097 150.801 154.635 151.454 154.652 151.123C154.702 150.152 153.551 148.442 153.207 147.782C151.437 144.381 149.801 140.942 148.232 137.427C146.916 134.478 145.254 131.492 144.363 128.34C143.821 126.425 146.473 130.04 146.67 130.286C150.895 135.574 154.777 141.29 158.142 147.256C162.589 155.142 150.558 130.704 146.947 122.334C145.924 119.963 144.84 117.676 143.658 115.397C142.567 113.293 146.454 119.009 146.507 119.087C149.859 123.996 153.318 128.899 156.24 134.125C156.638 134.838 158.543 138.017 158.517 137.96C156.014 132.484 152.526 127.315 149.418 122.238C146.146 116.892 142.496 111.137 137.971 106.895C136.381 105.404 134.616 104.168 132.838 102.956C132.179 102.506 131.274 102.013 130.966 101.178C130.964 101.175 133.172 103.042 133.462 103.338C135.295 105.205 137.246 106.935 138.961 108.931C139.841 109.956 137.049 108.723 136.824 108.634C134.671 107.776 132.681 106.505 130.6 105.472C130.26 105.303 129.075 104.833 130.216 105.218C135.7 107.066 142.447 110.202 146.951 113.836C150.653 116.823 152.941 121.49 155.67 125.593C156.06 126.179 156.77 127.102 156.75 127.893C156.747 128.038 156.583 127.667 156.499 127.555C155.941 126.806 155.294 126.141 154.716 125.412C153.302 123.626 151.432 121.499 150.43 119.394C146.997 112.181 158.472 133.11 162.034 140.25C163.699 143.587 164.815 147.048 165.838 150.664C166.288 152.256 167.108 157.12 167.149 155.454C167.192 153.728 165.827 151.559 165.286 150.003C164.427 147.536 163.79 144.999 163.132 142.464C162.967 141.826 162.899 139.972 162.459 139.473C161.161 138.004 163.235 143.447 163.628 145.432C164.754 151.12 165.401 156.524 165.258 162.334C165.203 164.571 164.174 163.873 162.205 163.641C157.751 163.117 153.224 162.318 148.743 162.208C146.015 162.141 145.147 165.948 142.435 165.928C139.392 165.906 127.852 165.935 134.342 156.676C132.875 154.377 131.369 151.913 130.562 149.236C130.029 147.465 130.627 147.428 132.203 147.895C137.233 149.382 142.841 152.816 146.485 156.94C149.556 160.415 140.209 149.891 138.32 145.544C137.532 143.732 140.477 148.801 141.479 150.484C142.706 152.546 143.879 154.685 144.796 156.933C145.39 158.389 142.855 154.539 141.863 153.362C138.895 149.844 135.818 146.42 132.679 143.078C128.837 138.988 139.016 152.513 142.439 157.015C142.694 157.35 143.82 159.533 144.407 159.547C144.631 159.553 144.972 153.614 145.019 153.16C145.15 151.887 144.851 148.258 145.814 147.233C146.547 146.453 149.076 150.247 149.306 150.537C151.01 152.685 152.655 154.904 154.31 157.097C155.064 158.097 155.197 158.525 155.129 156.803C155.009 153.755 154.666 150.679 154.233 147.667C154.19 147.363 153.992 145.181 154.032 145.283C154.339 146.05 156.781 150.397 156.803 149.497" stroke="#7FDBE0" stroke-width="8.55886" stroke-linecap="round"/>
<path d="M167.479 161.202C161.836 161.063 147.252 160.983 141.605 161.213C134.78 161.492 127.826 164.008 121.033 165.555C118.049 166.235 115.017 167.351 112.06 168.468C111.162 168.807 110.231 168.793 109.326 168.697C108.673 168.628 109.088 165.467 109.006 164.534C108.958 163.986 108.528 161.163 109.077 161.006C111.384 160.347 113.948 161.093 116.268 161.15C119.464 161.229 122.659 158.401 125.901 157.826C127.359 157.567 128.897 156.168 130.3 155.295C131.539 154.524 132.166 154.491 131.452 152.026C130.542 148.886 128.901 146.819 127.697 144.216" stroke="#7FDBE0" stroke-width="8.55886" stroke-linecap="round"/>
<path d="M57.0173 141.374C56.954 143.95 56.8906 146.525 56.8272 149.101C56.8132 149.67 56.4304 151.638 57.0479 152.01C58.419 152.837 59.1362 150.183 59.6337 149.24C62.5015 143.802 66.2389 139.589 70.4205 135.302C74.9846 130.623 79.4791 125.999 84.4289 121.793C89.3515 117.611 94.4967 113.92 100.704 112.538" stroke="#7FDBE0" stroke-width="8.55886" stroke-linecap="round"/>
<path d="M159.312 154.598C159.275 156.073 159.269 157.166 159.799 158.545C160.204 159.599 160.029 156.915 159.992 156.661C159.845 155.66 159.602 154.674 159.627 153.661" stroke="#7FDBE0" stroke-width="8.55886" stroke-linecap="round"/>
<path d="M192.323 165.534C192.178 165.528 192.031 165.524 191.884 165.52C188.058 165.426 184.329 166.07 180.525 166.091C178.341 166.102 176.103 166.141 173.991 166.559C173.706 166.616 172.837 167.034 172.819 166.467C172.786 165.476 174.664 165.274 175.356 165.114C178.023 164.496 180.594 164.393 183.316 164.46C185.82 164.521 188.66 164.224 191.06 165.06C191.415 165.183 191.857 165.341 192.323 165.534C193.472 166.008 194.767 166.693 195.264 167.586C195.801 168.551 188.858 169.343 188.31 169.429C186.333 169.739 184.339 170.105 182.338 170.433C179.759 170.855 177.167 171.215 174.585 171.31C174.505 171.313 173.257 171.369 174.307 171.288C176.308 171.134 178.293 170.812 180.29 170.617C180.973 170.55 181.655 170.488 182.338 170.433C184.339 170.105 186.333 169.739 188.31 169.429C188.858 169.343 195.801 168.551 195.264 167.586C194.767 166.693 193.472 166.008 192.323 165.534Z" fill="#F879C6"/>
<path d="M174.459 167.641C174.314 168.816 173.7 170.265 173.255 171.356C172.545 173.096 171.383 173.99 173.451 174.697C178.161 176.308 183.128 176.836 188.037 177.385C196.448 178.326 204.874 175.595 213.231 174.826C214.162 174.741 215.455 174.647 216.292 174.178C217.856 173.3 214.976 171.78 214.392 171.598C210.427 170.356 206.636 168.52 202.673 167.344C198.981 166.248 195.728 165.615 191.884 165.52C188.058 165.426 184.329 166.07 180.525 166.091C178.341 166.102 176.103 166.141 173.991 166.559C173.706 166.616 172.837 167.034 172.819 166.467C172.786 165.476 174.664 165.274 175.356 165.114C178.023 164.496 180.594 164.393 183.316 164.46C185.82 164.521 188.66 164.224 191.06 165.06C192.29 165.487 194.565 166.33 195.264 167.586C195.801 168.551 188.858 169.343 188.31 169.429C183.786 170.138 179.17 171.14 174.585 171.31C174.505 171.313 173.257 171.369 174.307 171.288C176.308 171.134 178.293 170.812 180.29 170.617C187.63 169.897 194.954 169.845 202.314 170.026C208.19 170.17 190.56 170.586 184.684 170.442C182.813 170.395 186.02 170.586 186.348 170.624C188.289 170.849 190.232 170.861 192.184 170.909" stroke="#7FDBE0" stroke-width="8.55886" stroke-linecap="round"/>
<path d="M92.7716 163.363C93.9534 163.392 101.659 163.938 101.693 162.592C101.736 160.826 103.408 159.66 100.87 159.598C98.7457 159.545 96.6033 159.776 94.5303 159.725" stroke="#F0F0F1" stroke-width="8.55886" stroke-linecap="round"/>
<path d="M70.3077 149.214C71.9358 149.254 73.9214 148.301 75.3557 147.575C76.7572 146.867 78.0958 145.84 79.4075 144.969C81.0588 143.872 82.9532 143.4 84.8093 142.773C91.1374 140.635 98.0605 138.923 104.774 140.432C107.386 141.019 110.894 141.477 113.149 143.03C115.202 144.444 117.274 145.79 119.161 147.442C120.864 148.934 116.767 147.854 116.185 147.778C110.404 147.025 104.634 146.167 98.8391 145.447C95.9012 145.082 92.8411 145.236 89.8817 145.164C87.1395 145.096 84.6376 145.986 81.9457 146.085C81.4141 146.105 79.0845 150.147 80.7056 150.187C86.1639 150.321 89.6348 146.3 95.0624 146.928C98.8265 147.363 102.547 148.024 106.347 148.118C109.016 148.184 111.805 148.381 114.408 149.024C115.252 149.233 120.667 149.029 120.639 150.169" stroke="#FF7D7D" stroke-width="8.55886" stroke-linecap="round"/>
<path d="M34.3027 165.325C38.5924 165.431 40.9345 167.441 44.6003 169.324C46.2846 170.189 47.9936 170.503 49.7025 171.227C51.2958 171.902 52.8986 172.58 54.6543 172.624C58.1514 172.71 61.6735 172.463 65.1316 171.969C65.9481 171.852 70.2199 171.788 70.2387 171.025" stroke="#FF7D7D" stroke-width="8.55886" stroke-linecap="round"/>
<path d="M82.2109 172.715C86.8146 172.829 91.2224 173.073 95.7536 173.836C98.6173 174.318 101.926 173.399 104.707 174.261C109.069 175.611 113.872 175.334 118.195 174.467C118.667 174.372 119.245 174.477 119.725 174.489C121.061 174.521 120.609 174.408 119.516 174.798C114.746 176.502 109.396 178.766 104.26 178.64C100.977 178.559 98.0871 177.072 94.7795 176.99C92.3967 176.932 90.0785 177.111 87.9731 175.973" stroke="#FF7D7D" stroke-width="8.55886" stroke-linecap="round"/>
<path d="M146.998 175.603C146.527 175.424 146.047 175.272 145.56 175.137C146.908 174.229 149.406 173.971 150.881 173.574C152.793 173.06 154.758 172.769 156.663 172.238C158.89 171.617 161.464 171.2 163.574 170.268C165.203 169.548 162.647 171.121 162.231 171.462C160.03 173.266 157.9 174.723 155.336 175.95C152.561 177.278 149.78 176.661 146.998 175.603Z" fill="#FF7D7D"/>
<path d="M132.321 172.834C134.42 172.886 136.711 172.639 138.691 173.4C141.377 174.433 144.341 174.593 146.998 175.603C149.78 176.661 152.561 177.278 155.336 175.95C157.9 174.723 160.03 173.266 162.231 171.462C162.647 171.121 165.203 169.548 163.574 170.268C161.464 171.2 158.89 171.617 156.663 172.238C154.758 172.769 152.793 173.06 150.881 173.574C149.293 174.002 146.521 174.267 145.273 175.356C144.744 175.818 138.528 177.208 138.022 177.621C137.788 177.812 148.025 180.018 143.352 176.788" stroke="#FF7D7D" stroke-width="8.55886" stroke-linecap="round"/>
<path d="M159.85 184.559C159.76 188.186 158.844 191.508 158.755 195.137C158.711 196.927 162.327 195.369 163.266 195.185C165.078 194.831 166.242 193.99 167.772 192.967C169.201 192.012 168.309 190.725 168.075 189.434C167.682 187.262 165.122 186.388 163.283 186.343C161.524 186.299 161.301 185.29 161.788 187.439C161.984 188.303 162.082 191.071 162.741 191.427" stroke="#F8DFD4" stroke-width="8.55886" stroke-linecap="round"/>
<path d="M41.5477 187.311C38.2174 187.229 34.3868 187.549 34.2039 191.819C34.0148 196.235 39.238 195.75 42.2809 195.825C43.7139 195.861 41.5874 193.604 41.3999 193.317C41.1955 193.006 39.2909 190.335 40.2277 190.708C41.8287 191.346 41.8739 192.873 42.0256 190.501C42.064 189.901 43.0311 192.006 43.1279 192.18C43.5126 192.871 44.1224 193.493 44.4387 194.179" stroke="#F8DFD4" stroke-width="8.55886" stroke-linecap="round"/>
<path d="M142.348 208.97C140.177 211.021 137.715 212.943 135.086 214.653C135.921 214.593 136.756 214.549 137.592 214.525C137.956 214.514 138.864 214.404 139.276 214.598C139.601 214.751 136.772 215.539 136.63 215.562C135.344 215.771 134.051 215.945 132.755 216.088C128.325 216.579 123.842 216.715 119.347 216.69C118.556 216.997 117.758 217.257 116.952 217.455C112.42 218.571 107.213 218.75 102.63 217.938C102.528 217.92 101.776 217.733 100.88 217.485C97.6904 217.241 94.5519 216.539 91.892 214.854C91.0661 215.338 89.9024 216.145 90.2047 215.56C90.3634 215.252 90.9295 214.89 91.4837 214.585C90.9101 214.191 90.3607 213.749 89.8401 213.253C88.4264 211.905 87.4467 210.104 86.5268 208.383C85.7366 206.905 87.8799 207.484 88.7799 207.507C90.6027 207.551 92.4337 207.571 94.2635 207.621C93.5243 207.138 92.7977 206.634 92.085 206.108C90.088 206.587 88.0875 207.047 86.081 207.472C85.9285 207.505 84.6014 207.861 85.4276 207.392C87.0454 206.474 88.6904 205.601 90.3519 204.765C89.9158 204.409 89.4856 204.046 89.0615 203.673C88.4483 203.134 86.293 201.351 85.1002 199.545C84.3428 199.718 83.5862 199.892 82.8302 200.065C80.1182 200.686 82.7612 200.043 83.9786 199.692C84.3204 199.593 84.6623 199.495 85.0042 199.397C84.3361 198.337 84.0234 197.281 84.5727 196.476C84.8694 196.042 87.0584 197.045 87.2721 197.121C88.1083 197.42 88.9409 197.732 89.7692 198.057C95.7721 196.404 101.794 194.88 107.872 193.532C98.63 190.976 89.1307 188.949 79.6663 188.112C83.59 189.007 87.3685 190.451 90.8123 192.774C92.0646 193.618 89.6632 193.335 89.3328 193.284C84.9905 192.607 80.6386 191.14 76.3994 189.976C74.4867 189.451 72.2728 189.04 70.55 187.969C69.4262 187.27 73.1746 187.723 74.4873 187.776C76.2113 187.846 77.9382 187.959 79.6663 188.112C75.2646 187.107 70.6802 186.793 66.1804 186.704C64.9712 186.68 62.2948 186.033 62.5746 188.013C62.9469 190.648 64.2869 193.207 65.5431 195.478C66.6111 197.408 67.7698 199.242 68.995 201.021C68.1978 199.066 67.7214 197.001 67.712 194.856C67.7087 194.101 67.3842 192.524 68.4257 193.122C69.9919 194.022 71.2853 195.31 72.5855 196.567C74.3474 198.27 77.0325 201.173 79.7546 204.213C78.7851 202.346 77.8102 200.482 76.8106 198.631C75.9054 196.955 75.1249 195.213 74.2902 193.502C73.9763 192.949 73.6702 192.392 73.3732 191.83C72.677 190.514 72.2236 189.593 73.1823 191.343C73.5706 192.053 73.9353 192.775 74.2902 193.502C76.7561 197.848 79.7054 201.954 82.5272 206.035C83.635 207.637 84.7368 209.491 85.9154 211.241C89.1576 215.018 90.9531 217.26 88.5112 214.618C87.5904 213.622 86.7343 212.457 85.9154 211.241C84.1423 209.175 81.9366 206.65 79.7546 204.213C81.087 206.778 82.4092 209.349 83.7717 211.899C83.9217 212.179 85.2163 215.159 84.9895 215.046C83.5805 214.344 82.4836 213.18 81.2837 212.175C78.7449 210.047 76.1532 208.014 73.6687 205.817C72.4137 204.707 71.1905 203.574 69.9846 202.428C71.483 204.515 73.0662 206.54 74.6933 208.574L74.6991 208.581C74.8547 208.773 78.013 212.673 76.5303 211.286C73.7165 208.655 70.9932 205.431 69.3353 201.808C66.2627 198.862 63.286 195.841 60.1599 192.919C58.0059 190.906 55.8558 188.802 53.436 187.13C52.5687 186.53 53.4914 186.769 54.4835 186.416C56.2616 185.785 58.1612 185.744 59.9309 185.104C64.5145 183.447 68.1009 181.547 72.0893 178.687C72.9812 178.047 73.8555 177.01 74.5629 178.362C74.8931 178.993 76.3611 179.707 76.9548 180.092C80.799 182.582 84.6077 184.962 88.8555 186.684C94.4398 188.948 99.8663 189.211 105.797 188.836C111.998 188.444 114.492 187.063 120.179 184.217C118.539 182.728 126.806 181.978 127.548 182.635C129.873 184.694 132.091 185.241 135.224 186.185C138.88 187.286 145.45 187.795 149.219 188.31C150.189 188.443 149.25 191.03 149.218 192.363C149.15 195.093 148.489 198.178 147.361 201.071C147.456 201.037 147.552 201.003 147.648 200.969C147.943 200.867 148.377 200.705 147.881 201.007C147.668 201.137 147.453 201.262 147.236 201.384C146.046 204.333 144.371 207.058 142.348 208.97Z" fill="#F879C6"/>
<path d="M48.5828 183.957C48.5659 184.644 48.6078 184.491 49.1383 185.481C51.5482 189.98 54.1995 194.368 56.8968 198.688C59.3797 202.664 62.2312 205.436 65.3718 208.778C68.6687 212.287 72.2016 215.158 76.6415 216.913C78.3361 217.583 80.1942 217.989 81.9749 218.33C84.3137 218.778 86.5253 219.608 88.826 220.218C92.8416 221.282 96.8524 221.516 100.956 221.914C107.928 222.591 115.388 222.799 122.145 220.765C129.381 218.587 136.814 214.201 142.348 208.97C146.416 205.124 149.079 197.988 149.218 192.363C149.25 191.03 150.189 188.443 149.219 188.31C145.45 187.795 138.88 187.286 135.224 186.185C132.091 185.241 129.873 184.694 127.548 182.635C126.806 181.978 118.539 182.728 120.179 184.217C114.492 187.063 111.998 188.444 105.797 188.836C99.8663 189.211 94.4398 188.948 88.8555 186.684C84.6077 184.962 80.799 182.582 76.9548 180.092C76.3611 179.707 74.8931 178.993 74.5629 178.362C73.8555 177.01 72.9812 178.047 72.0893 178.687C68.1009 181.547 64.5145 183.447 59.9309 185.104C58.1612 185.744 56.2616 185.785 54.4835 186.416C53.4914 186.769 52.5687 186.53 53.436 187.13C55.8558 188.802 58.0059 190.906 60.1599 192.919C64.7269 197.188 68.9748 201.667 73.6687 205.817C76.1532 208.014 78.7449 210.047 81.2837 212.175C82.4836 213.18 83.5805 214.344 84.9895 215.046C85.2163 215.159 83.9217 212.179 83.7717 211.899C81.4177 207.494 79.1838 203.026 76.8106 198.631C75.5205 196.243 74.4837 193.72 73.1823 191.343C72.2236 189.593 72.677 190.514 73.3732 191.83C76.0031 196.803 79.3462 201.434 82.5272 206.035C84.4049 208.751 86.2653 212.189 88.5112 214.618C93.9545 220.506 78.3419 202.131 72.5855 196.567C71.2853 195.31 69.9919 194.022 68.4257 193.122C67.3842 192.524 67.7087 194.101 67.712 194.856C67.7403 201.326 72.0189 207.068 76.5303 211.286C78.0468 212.705 74.7085 208.593 74.6933 208.574C71.3364 204.377 68.1658 200.219 65.5431 195.478C64.2869 193.207 62.9469 190.648 62.5746 188.013C62.2948 186.033 64.9712 186.68 66.1804 186.704C74.6914 186.873 83.5053 187.846 90.8123 192.774C92.0646 193.618 89.6632 193.335 89.3328 193.284C84.9905 192.607 80.6386 191.14 76.3994 189.976C74.4867 189.451 72.2728 189.04 70.55 187.969C69.4262 187.27 73.1746 187.723 74.4873 187.776C89.0989 188.365 103.922 192.093 117.874 196.509C119.747 197.102 117.114 196.924 116.631 196.912C109.082 196.726 101.56 196.75 94.0593 197.803C90.2822 198.333 86.5495 199.213 82.8302 200.065C80.1182 200.686 82.7612 200.043 83.9786 199.692C93.202 197.028 102.443 194.633 111.835 192.68C117.717 191.458 123.679 190.509 129.539 189.196C129.784 189.141 132.831 189.146 132.585 189.194C131.005 189.502 127.051 189.889 125.545 190.415C115.034 194.085 104.531 198.06 94.4202 202.793C91.3763 204.217 88.3572 205.729 85.4276 207.392C84.6014 207.861 85.9285 207.505 86.081 207.472C92.5201 206.109 98.8972 204.381 105.296 202.835C116.15 200.213 127.021 197.662 137.77 194.604C139.755 194.04 141.759 193.474 143.699 192.758C143.835 192.707 144.192 192.475 144.049 192.493C142.937 192.637 141.456 193.074 140.517 193.354C126.538 197.526 113.112 203.794 99.9957 210.225C97.5206 211.439 95.0275 212.652 92.6151 213.996C92.1902 214.233 90.4987 214.99 90.2047 215.56C89.8363 216.273 91.6449 214.918 92.3662 214.601C95.962 213.016 99.574 211.486 103.216 210.015C115.983 204.858 128.954 200.128 141.461 194.309C141.589 194.25 146.394 191.773 144.933 192.724C138.387 196.984 131.379 200.561 124.697 204.598C121.037 206.809 117.072 208.993 113.784 211.786C112.319 213.029 117.564 211.248 119.367 210.638C127.304 207.952 135.356 205.581 143.221 202.676C144.703 202.129 146.156 201.487 147.648 200.969C147.943 200.867 148.377 200.705 147.881 201.007C147.113 201.475 146.311 201.882 145.524 202.315C139.916 205.399 134.393 208.645 128.782 211.721C125.051 213.766 121.096 216.436 116.952 217.455C112.42 218.571 107.213 218.75 102.63 217.938C102.302 217.88 95.337 216.091 98.2586 216.128C110.932 216.288 124.048 217.606 136.63 215.562C136.772 215.539 139.601 214.751 139.276 214.598C138.864 214.404 137.956 214.514 137.592 214.525C134.667 214.609 131.752 214.942 128.85 215.306C121.992 216.166 115.151 217.116 108.244 217.466C102.069 217.779 94.7016 217.889 89.8401 213.253C88.4264 211.905 87.4467 210.104 86.5268 208.383C85.7366 206.905 87.8799 207.484 88.7799 207.507C94.7341 207.653 100.776 207.527 106.578 209.102C108.388 209.593 113.572 211.773 111.934 210.84C108.573 208.927 105.558 206.287 102.249 204.255C97.5284 201.356 92.4678 198.975 87.2721 197.121C87.0584 197.045 84.8694 196.042 84.5727 196.476C83.0621 198.688 88.0715 202.803 89.0615 203.673C94.0664 208.07 99.9326 211.254 106.193 213.302C107.081 213.592 114.355 216.321 112.635 212.786C109.989 207.344 102.537 204.45 97.3765 202.512C94.4399 201.409 91.3731 200.786 88.3567 199.976" stroke="#FFEFE8" stroke-width="8.55886" stroke-linecap="round"/>
<path d="M74.7431 194.782C76.8302 194.834 76.257 196.888 77.6678 197.77C80.0345 199.249 81.9705 197.068 81.6868 194.6C81.5581 193.48 78.054 193.751 77.2706 193.814C75.855 193.929 75.0063 194.828 74.2049 193.415C72.4004 190.231 71.3199 186.931 71.4092 183.305" stroke="#FFEFE8" stroke-width="8.55886" stroke-linecap="round"/>
<path d="M89.959 232.406C89.9505 232.75 89.7174 234.55 90.0581 234.658C91.3662 235.074 93.1398 234.467 94.4975 234.5C96.3046 234.544 98.1117 234.589 99.9189 234.633" stroke="#F8DFD4" stroke-width="8.55886" stroke-linecap="round"/>
<path d="M101.014 246.117C101.696 246.522 102.417 246.854 103.159 247.142C103.891 247.239 104.624 247.344 105.366 247.45L105.386 247.452C108.779 247.936 112.457 248.159 114.184 251.697C115.57 254.536 113.597 254.188 111.156 254.172C107.455 254.148 103.75 255.176 100.085 255.599C96.1963 256.048 92.4814 256.828 88.5425 256.731C85.6134 256.659 82.686 256.87 79.7465 256.798L76.4873 256.717C76.3551 256.714 75.7617 256.822 75.9482 256.641C77.1574 255.469 78.4584 254.488 79.8176 253.603C81.8932 252.251 84.1044 251.122 86.331 249.879C88.4366 248.703 90.2989 247.924 92.5526 247.026C94.1918 246.374 96.2625 245.108 98.0567 245.069C99.4038 245.04 99.8771 245.444 101.014 246.117Z" fill="#F879C6"/>
<path d="M94.1024 244.972C91.3382 244.904 89.8645 245.066 87.6394 246.953C86.3698 248.029 85.2883 249.247 84.1082 250.39C82.841 251.619 81.0795 252.15 79.8892 253.512C79.0728 254.447 81.6118 254.016 82.1181 254.008C85.2054 253.956 88.3153 253.423 91.3964 253.182C94.3423 252.951 97.3693 252.827 100.325 252.757C102.554 252.703 104.664 251.787 106.886 251.801C108.461 251.81 110.038 251.878 111.613 251.917C112.864 251.948 114.787 252.322 112.981 250.959C109.547 248.369 104.725 248.317 101.014 246.117C99.8771 245.444 99.4038 245.04 98.0567 245.069C96.2625 245.108 94.1918 246.374 92.5526 247.026C90.2989 247.924 88.4366 248.703 86.331 249.879C82.6465 251.936 79.0041 253.679 75.9482 256.641C75.7617 256.822 76.3551 256.714 76.4873 256.717C77.5737 256.744 78.6601 256.771 79.7465 256.798C82.686 256.87 85.6134 256.659 88.5425 256.731C92.4814 256.828 96.1963 256.048 100.085 255.599C103.75 255.176 107.455 254.148 111.156 254.172C113.597 254.188 115.57 254.536 114.184 251.697C112.457 248.159 108.779 247.936 105.386 247.452C103.635 247.203 101.934 246.96 100.178 246.805C99.4475 246.74 98.0407 246.658 97.6959 245.91" stroke="#FBF9BC" stroke-width="8.55886" stroke-linecap="round"/>
<path d="M73.4361 270.74C73.7042 270.09 73.8649 269.429 73.9623 268.758C73.0423 268.511 72.1175 268.306 71.1954 268.214C70.0978 268.104 71.0997 268.196 71.551 268.207C72.3871 268.228 73.2143 268.2 74.0355 268.138C78.4555 267.805 82.6996 266.468 87.1957 266.184C92.4378 265.854 97.6144 266.205 102.867 265.579C106.987 265.087 111.162 264.412 115.321 264.469C116.73 264.488 121.763 263.546 121.959 266.049C122.1 267.847 123.05 269.921 123.615 271.613C124.154 273.224 124.283 274.896 124.7 276.533C124.942 277.486 123.039 277.356 122.389 277.452C117.963 278.105 113.562 279.12 109.122 279.612C107.508 279.79 105.984 279.818 104.357 279.778C103.191 279.749 102.186 280.291 101.022 280.262C99.5694 280.226 98.422 279.897 96.8501 280.222C91.7828 281.271 86.0431 281.107 80.9402 280.46C78.3657 280.134 75.6836 280.152 73.1383 279.702C72.5794 279.603 70.6427 279.555 70.2305 279.158C69.846 278.788 70.6838 276.1 70.8725 275.68C71.6326 273.992 72.7256 272.461 73.4361 270.74Z" fill="#F879C6"/>
<path d="M74.1369 264.872C74.0876 266.874 74.2128 268.858 73.4361 270.74C72.7256 272.461 71.6326 273.992 70.8725 275.68C70.6838 276.1 69.846 278.788 70.2305 279.158C70.6427 279.555 72.5794 279.603 73.1383 279.702C75.6836 280.152 78.3657 280.134 80.9402 280.46C86.0431 281.107 91.7828 281.271 96.8501 280.222C98.422 279.897 99.5694 280.226 101.022 280.262C102.186 280.291 103.191 279.749 104.357 279.778C105.984 279.818 107.508 279.79 109.122 279.612C113.562 279.12 117.963 278.105 122.389 277.452C123.039 277.356 124.942 277.486 124.7 276.533C124.283 274.896 124.154 273.224 123.615 271.613C123.05 269.921 122.1 267.847 121.959 266.049C121.763 263.546 116.73 264.488 115.321 264.469C111.162 264.412 106.987 265.087 102.867 265.579C97.6144 266.205 92.4378 265.854 87.1957 266.184C81.8643 266.52 76.8872 268.338 71.551 268.207C71.0997 268.196 70.0978 268.104 71.1954 268.214C73.3793 268.433 75.5785 269.28 77.6932 269.837C82.1352 271.008 86.5008 271.683 91.069 272.086C95.5432 272.482 100.247 273.027 104.687 272.012C105.5 271.827 106.092 271.34 104.891 271.293C101.039 271.144 97.1794 271.134 93.3288 271.324C88.2903 271.571 83.29 272.191 78.2978 272.905C78.1176 272.931 74.9984 273.302 75.0829 273.534C75.3078 274.15 79.2336 275.01 79.7573 275.144C85.5097 276.619 91.813 276.451 97.6999 276.467C98.3528 276.468 111.967 276.415 111.991 275.434C112.011 274.605 109.707 274.209 109.815 273.397C109.966 272.277 114.282 271.273 115.261 271.297C115.574 271.305 117.275 272.173 117.192 271.974C116.413 270.106 116.738 270.847 117.927 271.614" stroke="#FFDB55" stroke-width="8.55886" stroke-linecap="round"/>
<path d="M68.5077 301.525L68.7352 292.28C68.2818 292.119 68.0646 291.97 68.7435 291.944C68.8738 291.939 69.0371 291.939 69.2381 291.944L73.3468 292.045C74.1875 292.066 75.5973 292.381 76.4068 292.057C76.7268 291.929 75.8459 291.638 75.5236 291.516C74.2476 291.035 72.9536 290.568 71.6119 290.319C71.3861 290.277 71.1581 290.226 70.9291 290.176C69.498 290.014 68.6601 289.905 69.6884 289.972C70.1013 289.999 70.5169 290.086 70.9291 290.176C72.6439 290.369 75.2104 290.638 76.4385 290.768C84.6437 291.635 93.4556 293.087 101.715 291.752C104.336 291.328 106.891 290.6 109.499 290.102C112.95 289.444 116.015 288.309 119.381 287.356C121.199 286.841 122.746 285.767 124.491 285.09C125.813 284.577 125.465 285.802 125.172 286.835L125.158 286.884C124.939 287.656 124.681 288.421 124.391 289.18C125.664 289.199 126.783 289.413 126.64 290.115C126.39 291.34 125.929 292.524 125.455 293.674C124.841 295.159 124.716 296.706 124.353 298.257C123.73 300.917 123.041 303.588 121.965 306.098C121.625 306.889 121.234 307.874 120.75 308.787C121.355 308.633 121.937 308.536 122.461 308.549C123.276 308.569 121.923 308.861 120.588 309.082C119.96 310.193 119.181 311.147 118.171 311.433C115.498 312.19 112.826 312.999 110.046 313.121C107.356 313.24 104.678 313.204 101.993 313.143C98.4458 314.125 94.8745 314.951 91.2704 314.862C87.2973 314.764 83.6959 314.224 79.8254 313.29C77.0374 312.618 74.3294 311.687 71.5516 310.978C70.3767 310.678 69.2327 310.694 68.7447 309.477C67.821 307.173 68.4482 303.941 68.5077 301.525Z" fill="#F879C6"/>
<path d="M68.7577 291.366C68.6744 294.752 68.591 298.138 68.5077 301.525C68.4482 303.941 67.821 307.173 68.7447 309.477C69.2327 310.694 70.3767 310.678 71.5516 310.978C74.3294 311.687 77.0374 312.618 79.8254 313.29C83.6959 314.224 87.2973 314.764 91.2704 314.862C98.3227 315.036 105.249 311.707 112.118 310.56C114.39 310.181 116.624 309.514 118.918 309.311C120.121 309.205 123.667 308.579 122.461 308.549C120.694 308.505 118.258 309.717 116.534 310.118C112.984 310.944 109.361 311.339 105.777 311.978C104.232 312.253 102.664 312.373 101.125 312.619C100.613 312.7 98.1952 313.05 100 313.094C103.355 313.177 106.69 313.269 110.046 313.121C112.826 312.999 115.498 312.19 118.171 311.433C120.082 310.892 121.167 307.958 121.965 306.098C123.041 303.588 123.73 300.917 124.353 298.257C124.716 296.706 124.841 295.159 125.455 293.674C125.929 292.524 126.39 291.34 126.64 290.115C126.939 288.65 121.745 289.312 121.108 289.428C118.781 289.853 116.599 290.92 114.26 291.352C111.701 291.826 109.111 292.1 106.536 292.453C103.62 292.852 100.779 293.671 97.8718 294.065C94.4044 294.535 90.7789 294.61 87.2859 294.638C84.4778 294.661 81.6592 294.515 78.8518 294.446C75.745 294.37 72.9848 293.449 70.0242 292.656C69.2754 292.455 67.0752 291.891 69.2381 291.944C70.6076 291.978 71.9772 292.011 73.3468 292.045C74.1875 292.066 75.5973 292.381 76.4068 292.057C76.7268 291.929 75.8459 291.638 75.5236 291.516C74.2476 291.035 72.9536 290.568 71.6119 290.319C70.9798 290.201 70.3307 290.014 69.6884 289.972C67.4279 289.824 74.1855 290.53 76.4385 290.768C84.6437 291.635 93.4556 293.087 101.715 291.752C104.336 291.328 106.891 290.6 109.499 290.102C112.95 289.444 116.015 288.309 119.381 287.356C121.199 286.841 122.746 285.767 124.491 285.09C125.834 284.569 125.454 285.841 125.158 286.884C123.727 291.93 120.61 296.711 117.884 301.103C117.194 302.215 116.316 303.304 115.76 304.497C115.313 305.456 115.85 302.375 115.993 301.324C116.319 298.932 116.861 296.572 117.925 294.401C118.29 293.658 119.635 291.581 119.122 292.227C114.912 297.542 109.31 302.111 104.377 306.703C103.968 307.084 99.8265 311.105 102.321 308.588C104.42 306.471 106.602 304.44 108.734 302.357C108.904 302.191 111.633 299.712 111.556 299.5C110.985 297.935 95.1113 306.802 93.643 307.635C91.8211 308.669 89.9132 309.598 88.1272 310.694C88.1243 310.695 87.6261 311.153 87.8141 310.859C88.2733 310.14 88.9241 309.515 89.5307 308.934C92.0009 306.571 94.6958 304.494 97.4481 302.489C98.5484 301.687 101.938 299.606 100.618 299.907C97.8062 300.55 94.8628 302.354 92.2897 303.589C88.5488 305.384 84.9542 307.49 81.2073 309.264C80.0421 309.816 79.854 309.597 80.715 308.544C82.7692 306.032 85.5941 304.215 88.1934 302.355C90.4198 300.762 88.9748 301.796 90.8684 300.423C91.252 300.145 92.4408 299.794 92.0173 299.586C90.2417 298.71 86.4169 300.648 84.8979 301.236C82.0031 302.355 79.0769 303.402 76.1921 304.546C76.1778 304.552 74.0014 305.638 74.0122 305.201C74.0258 304.649 75.8123 303.022 75.3736 302.638C74.2167 301.625 71.2139 303.091 69.804 302.233C69.2909 301.921 69.3131 301.195 69.3634 300.664C69.4442 299.814 71.0396 300.202 71.5383 300.214C77.382 300.358 83.0577 300.954 88.6123 302.916C93.1331 304.513 97.1688 305.366 101.994 304.929C105.778 304.587 109.369 303.978 113.174 304.072C113.406 304.077 115.681 304.022 114.897 304.397" stroke="#FBF9BC" stroke-width="8.55886" stroke-linecap="round"/>
<path d="M102.535 297.86C105.098 297.924 106.723 297.953 108.965 296.603" stroke="#FBF9BC" stroke-width="8.55886" stroke-linecap="round"/>
<path d="M61.3942 273.905C61.2535 279.619 61.1129 285.333 60.9723 291.047C60.8909 294.354 60.2912 298.236 60.8535 301.524C61.2238 303.69 61.5991 305.877 61.9297 308.034C62.0231 308.643 62.2637 310.454 61.9388 310.803C60.8469 311.979 57.4013 311.478 55.8645 311.441C53.7148 311.388 51.9793 311.613 50.1895 310.294C48.6074 309.127 48.196 307.369 48.1138 305.459C48.0535 304.059 47.8887 302.673 47.9233 301.269C47.9784 299.03 48.611 297.297 49.4018 295.2C50.5982 292.027 52.2286 288.937 53.3729 285.824C53.7933 284.681 55.0236 283.478 55.9963 282.852C56.5952 282.467 57.4684 280.596 57.2725 282.49C56.9095 286.002 55.1614 289.683 53.9695 292.983C52.973 295.742 52.4343 298.843 52.3618 301.787C52.3095 303.913 53.7032 307.606 55.9234 308.421C56.2654 308.546 56.5707 300.331 56.5958 299.311C56.6286 297.979 56.6613 296.648 56.6941 295.316" stroke="#FBF9BC" stroke-width="8.55886" stroke-linecap="round"/>
<path d="M55.879 314.62C56.0201 314.771 54.1178 315.305 54.1132 315.494" stroke="#FBF9BC" stroke-width="8.55886" stroke-linecap="round"/>
<path d="M40.0624 315.583C39.9968 318.245 37.4631 321.559 41.2798 322.631C42.7637 323.048 44.1048 320.848 43.8451 319.5C43.7009 318.752 42.2238 318.484 41.9527 317.896" stroke="#F8DFD4" stroke-width="8.55886" stroke-linecap="round"/>
<path d="M149.548 303.093C149.877 304.117 150.007 305.298 149.882 306.434C151.421 306.327 151.079 303.694 151.12 302.015C151.207 298.484 150.17 294.774 148.873 291.574C148.324 290.218 147.321 288.836 146.339 287.766C144.046 285.268 142.163 282.395 139.855 279.928C138.694 278.686 137.303 277.519 135.888 276.589C135.772 276.512 134.168 275.335 134.45 275.987C134.983 277.217 136.207 278.071 136.874 279.225C137.637 280.544 138.36 281.961 138.843 283.396C138.986 283.823 139.27 284.626 139.515 284.955C140.019 285.63 140.71 287.013 140.88 287.899C141.157 289.338 142.18 290.29 143.19 291.371C146.07 294.45 148.256 299.069 149.548 303.093Z" fill="#F879C6"/>
<path d="M131.051 269.672C131.022 270.825 130.994 271.978 130.966 273.131C130.909 275.447 131.91 277.937 132.524 280.156C133.699 284.404 134.305 288.544 134.094 292.972C133.865 297.783 132.815 302.472 132.352 307.249C132.334 307.432 132.248 308.009 132.391 308.163C132.775 308.573 134.972 308.289 135.386 308.299C137.595 308.354 139.877 308.634 141.875 309.655C143.981 310.731 146.023 311.745 148.014 310.168C150.016 308.582 150.299 305.431 149.548 303.093C148.256 299.069 146.07 294.45 143.19 291.371C142.18 290.29 141.157 289.338 140.88 287.899C140.71 287.013 140.019 285.63 139.515 284.955C139.27 284.626 138.986 283.823 138.843 283.396C138.36 281.961 137.637 280.544 136.874 279.225C136.207 278.071 134.983 277.217 134.45 275.987C134.168 275.335 135.772 276.512 135.888 276.589C137.303 277.519 138.694 278.686 139.855 279.928C142.163 282.395 144.046 285.268 146.339 287.766C147.321 288.836 148.324 290.218 148.873 291.574C150.17 294.774 151.207 298.484 151.12 302.015C151.068 304.118 151.618 307.719 148.318 305.974C145.678 304.578 143.624 301.558 141.948 299.161C140.504 297.097 139.163 294.906 138.184 292.57C138.125 292.429 137.397 290.352 137.634 291.675C137.923 293.284 138.558 294.915 139.015 296.477C139.579 298.401 140.021 300.336 140.526 302.273C140.657 302.774 140.928 303.485 140.762 304.026C140.598 304.558 137.462 302.551 137.092 302.425C135.012 301.717 139.908 306.711 142.101 306.765" stroke="#FBF9BC" stroke-width="8.55886" stroke-linecap="round"/>
<path d="M160.94 310.061C160.88 312.501 160.98 316.859 157.436 316.772" stroke="#F8DFD4" stroke-width="8.55886" stroke-linecap="round"/>
<path d="M94.2026 355.018C94.0661 354.701 93.8566 354.344 93.7055 354.009C93.0948 352.657 92.0549 350.741 92.092 349.233C92.1358 347.455 92.2529 345.791 92.5439 344.126C92.1605 344.098 91.7831 344.053 91.4177 343.976C91.1388 343.918 91.8058 343.604 92.714 343.247C92.8619 342.552 93.0432 341.853 93.2649 341.142C93.7098 339.716 94.8715 338.346 95.1616 336.925C95.2823 336.333 95.0264 336.903 94.8325 337.105C93.8212 338.158 92.8636 339.277 91.8929 340.369C89.9134 342.596 88.3808 344.769 87.4022 347.623C87.0763 348.573 86.9025 349.585 86.5119 350.512C85.9752 351.785 86.5134 347.832 86.7133 346.364L86.7242 346.284C87.1469 343.177 90.2227 334.258 89.2038 337.219C88.8503 338.246 85.0743 345.799 83.7832 345.205C83.2381 344.954 82.778 343.82 82.4518 342.355C81.825 342.039 81.2147 341.665 80.6284 341.256C80.5081 341.399 80.3837 341.535 80.2555 341.665C80.991 343.106 81.6004 344.618 81.9524 346.12C82.2223 347.271 82.2543 348.61 80.7941 348.593C77.6616 348.556 74.9477 346.067 73.1569 343.653C72.3423 342.555 70.8714 340.291 71.2831 338.776C71.6193 337.539 74.4395 337.863 75.5935 337.97C75.6041 337.517 75.6392 337.091 75.6923 336.722C74.2068 335.013 72.661 332.739 73.1306 330.906C73.7272 328.578 79.2852 329.033 80.8875 329.099C81.3209 329.117 81.7525 329.142 82.1823 329.176C81.1643 328.802 80.2668 328.449 79.597 328.154C78.9801 327.882 70.9402 323.264 74.7649 323.535C75.91 323.616 76.9868 323.785 78.0326 324.089C76.6879 323.577 75.3332 323.09 74.0177 322.494C73.6354 322.32 73.3362 322.201 73.1457 322.13C72.8163 322.025 72.8489 322.019 73.1457 322.13C73.3158 322.183 73.5824 322.263 73.959 322.366C82.5552 324.721 91.8506 325.478 100.742 325.575C106.459 325.637 112.474 323.776 117.889 322.189C119.835 321.619 121.821 320.528 123.811 320.21C124.613 320.082 124.704 326.237 124.773 326.937C125.374 332.965 126.181 338.969 126.802 344.989C126.82 345.16 126.766 345.454 126.656 345.839C127.582 347.611 127.83 348.344 126.961 346.692C126.842 346.466 126.723 346.24 126.604 346.014C125.677 349.025 121.815 356.727 120.529 357.483C116.871 359.636 112.816 361.385 108.519 361.279C107.311 361.249 111.783 355.62 110.576 355.557C109.179 355.484 107.937 354.824 106.565 354.609C106.398 354.583 106.157 354.554 105.892 354.514C102.87 355.169 99.8377 355.595 96.6619 355.718C96.4518 355.727 94.9274 355.882 94.3384 355.589C94.1116 355.476 94.0235 355.297 94.2026 355.018Z" fill="#F879C6"/>
<path d="M69.0949 322.813C69.0268 325.581 68.9586 328.349 68.8905 331.117C68.8204 333.964 68.2947 337.235 68.9495 340.025C69.6374 342.955 71.3395 346.024 73.196 348.343C75.2398 350.896 77.9768 351.995 80.9622 353.066C85.0611 354.536 89.1902 355.881 93.5332 355.988C94.9823 356.023 94.1218 354.931 93.7055 354.009C93.0948 352.657 92.0549 350.741 92.092 349.233C92.1617 346.401 92.4174 343.859 93.2649 341.142C93.7098 339.716 94.8715 338.346 95.1616 336.925C95.2823 336.333 95.0264 336.903 94.8325 337.105C93.8212 338.158 92.8636 339.277 91.8929 340.369C89.9134 342.596 88.3808 344.769 87.4022 347.623C87.0763 348.573 86.9025 349.585 86.5119 350.512C85.9651 351.809 86.534 347.682 86.7242 346.284C87.1469 343.177 90.2227 334.258 89.2038 337.219C88.8503 338.246 85.0743 345.799 83.7832 345.205C82.0044 344.386 81.131 334.168 82.8606 333.711C83.1978 333.622 82.5702 337.5 82.5155 337.683C82.0114 339.372 80.8364 341.51 79.2919 342.435C75.7062 344.582 75.2991 338.929 75.7288 336.493C75.9255 335.378 78.1348 338.114 78.1758 338.174C79.7618 340.514 81.2996 343.336 81.9524 346.12C82.2223 347.271 82.2543 348.61 80.7941 348.593C77.6616 348.556 74.9477 346.067 73.1569 343.653C72.3423 342.555 70.8714 340.291 71.2831 338.776C71.6496 337.428 74.9682 337.934 75.8619 337.992C79.1012 338.199 82.373 339.5 84.6847 341.859C84.9399 342.12 86.5432 343.422 85.5913 343.329C82.5036 343.028 79.5074 340.602 77.3795 338.501C75.8621 337.003 72.4637 333.509 73.1306 330.906C73.7272 328.578 79.2852 329.033 80.8875 329.099C85.0187 329.268 88.9957 330.169 92.7167 332.018C96.8073 334.051 83.7746 329.995 79.597 328.154C78.9801 327.882 70.9402 323.264 74.7649 323.535C76.7594 323.677 78.5466 324.083 80.3236 325.009C81.0941 325.411 81.4052 325.507 80.3691 325.042C78.2842 324.107 76.1017 323.439 74.0177 322.494C72.732 321.911 72.3852 321.935 73.959 322.366C82.5552 324.721 91.8506 325.478 100.742 325.575C106.459 325.637 112.474 323.776 117.889 322.189C119.835 321.619 121.821 320.528 123.811 320.21C124.613 320.082 124.704 326.237 124.773 326.937C125.374 332.965 126.181 338.969 126.802 344.989C126.952 346.44 122.016 356.608 120.529 357.483C116.871 359.636 112.816 361.385 108.519 361.279C107.311 361.249 111.783 355.62 110.576 355.557C109.179 355.484 107.937 354.824 106.565 354.609C106.032 354.525 104.742 354.418 104.34 353.988C103.892 353.509 105.637 354.02 106.286 354.036C108.062 354.079 110.079 354.775 111.843 354.33C114.111 353.757 116.45 352.486 118.515 351.394C119.175 351.045 121.27 350.324 120.532 350.421C117.38 350.835 114.176 352.275 111.145 353.164C106.324 354.577 101.672 355.523 96.6619 355.718C96.3513 355.731 93.168 356.063 94.3816 354.797C96.0006 353.107 99.1571 352.306 101.231 351.551C104.258 350.449 107.354 349.551 110.437 348.63C110.757 348.535 117.388 346.738 117.35 346.597C117.203 346.05 116.257 346.367 115.703 346.305C111.731 345.862 107.765 345.357 103.789 344.942C101.111 344.662 98.4267 344.391 95.7396 344.209C94.3434 344.114 92.7956 344.264 91.4177 343.976C90.7321 343.833 95.7625 342.146 96.0398 342.06C101.141 340.48 106.232 338.868 111.335 337.291C111.68 337.184 112.698 337 112.349 336.907C110.246 336.348 107.643 336.454 105.516 336.33C99.1499 335.959 92.7713 335.859 86.3973 335.702C85.522 335.68 82.9051 335.767 83.7714 335.637C86.1283 335.283 88.4569 334.833 90.7896 334.331C96.381 333.126 102.072 332.069 107.604 330.606C107.773 330.562 110.29 329.985 108.886 330.024C105.86 330.107 102.933 331.141 99.9595 331.63C99.2506 331.746 96.6127 332.252 98.9068 332.327C103.775 332.488 108.641 332.392 113.51 332.419C115.462 332.43 117.581 332.132 115.974 334.667C113.734 338.204 110.561 341.378 107.623 344.312C107.209 344.725 103.999 346.977 105.876 346.189C107.692 345.427 109.515 344.58 111.3 343.742C112.683 343.093 107.515 343.303 107.091 343.292C103.559 343.205 99.6523 342.744 96.2972 344.159C94.8011 344.79 95.4953 345.379 96.7378 345.728C99.5955 346.531 102.58 347.239 105.515 347.659C105.825 347.704 108.101 347.849 107.922 347.844C105.42 347.783 102.918 347.705 100.415 347.66C100.099 347.654 98.2398 347.43 97.9382 347.819C97.7115 348.112 98.6652 347.729 99.0241 347.657C100.245 347.411 101.767 347.064 102.941 346.746C107.26 345.577 111.436 343.91 115.543 342.131C116.278 341.813 117.576 341.608 116.629 340.726C114.993 339.202 113 338.038 111.528 336.336C111.345 336.124 109.675 334.216 110.763 335.42C113.007 337.906 115.025 340.667 117.518 342.904C117.739 343.102 119.918 345.181 119.9 344.709C119.788 341.768 117.685 338.694 116.574 336.067C116.507 335.91 114.969 333.246 115.945 333.361C121.613 334.026 129.655 351.812 126.961 346.692C124.049 341.159 121.081 335.65 118.157 330.126C117.976 329.784 116.944 329.939 116.678 329.932C114.433 329.877 112.167 329.726 109.925 329.908C107.722 330.087 109.639 329.355 110.675 328.935C113.084 327.959 115.592 327.33 117.974 326.282" stroke="#F0F0F1" stroke-width="8.55886" stroke-linecap="round"/>
<path d="M80.2793 365.576C80.3189 363.967 80.2001 368.795 80.1605 370.404C80.135 371.438 79.4003 375.071 80.0848 375.988C80.7685 376.903 82.6004 377.488 83.6059 377.978C84.9322 378.626 85.9555 379.705 87.2729 380.319C87.4447 380.399 86.6508 377.567 86.5456 377.217C86.087 375.69 85.8887 374.129 85.6091 372.568C85.2404 370.509 84.4762 368.55 83.9958 366.533C83.2534 363.418 81.9042 362.501 78.9658 362.429" stroke="#F8DFD4" stroke-width="8.55886" stroke-linecap="round"/>
<path d="M109.997 367.723C109.935 370.27 109.872 372.818 109.809 375.365C109.778 376.612 109.325 378.806 109.834 380.023C110.169 380.826 110.416 380.007 110.878 379.64C112.497 378.358 114.301 377.168 116.125 376.213C118.69 374.87 117.54 375.556 120.312 375.624C121.096 375.643 120.424 371.057 122.317 370.15C118.664 371.901 121.758 366.879 120.528 366.849C118.591 366.802 115.953 366.451 114.193 367.401C112.881 368.111 112.921 373.273 112.958 371.761" stroke="#F8DFD4" stroke-width="8.55886" stroke-linecap="round"/>
<path d="M116.211 375.239C116.229 374.523 116.179 373.72 116.093 373.317C116.001 372.887 115.996 372.036 115.977 371.269" stroke="#F8DFD4" stroke-width="8.55886" stroke-linecap="round"/>
<path d="M69.4647 398.07C68.675 398.175 67.8838 398.272 67.0945 398.341C66.5066 398.255 66.7425 398.133 68.0485 398.131C68.5201 398.13 68.9924 398.105 69.4647 398.07C71.3029 397.826 73.1331 397.534 74.9126 397.434C75.2566 397.415 75.6259 397.401 76.0123 397.388C78.2332 397.021 80.4244 396.457 82.4209 395.558C82.8551 395.362 84.15 394.952 84.8908 394.406C85.1614 393.923 85.2501 393.391 84.9911 392.837C84.5622 392.497 84.0227 391.955 83.6428 391.531C83.3414 391.367 83.0132 391.232 82.6681 391.12C81.3582 391.476 78.8589 391.898 77.7296 392.153C77.2191 392.269 71.3554 394.033 73.0425 392.526C73.8038 391.846 74.5872 391.281 75.4459 390.911C74.1437 391.104 72.8568 391.305 71.6128 391.421C66.4247 391.901 73.6528 390.319 74.5753 390.093C76.7379 389.564 79.8272 388.276 82.0935 389.129C83.8831 389.803 85.0635 390.945 85.6305 392.741C85.8095 393.308 85.5177 393.234 85.0796 392.905C85.1636 393.038 85.2452 393.171 85.3254 393.3C85.577 393.706 85.3323 394.08 84.8908 394.406C84.4547 395.183 83.546 395.831 82.8576 396.229C81.091 397.252 78.2623 397.31 76.0123 397.388C74.4613 397.644 72.8958 397.803 71.3721 397.914C70.7377 397.959 70.1013 398.024 69.4647 398.07Z" fill="#F879C6"/>
<path d="M78.9671 385.937C77.061 385.89 75.0897 385.632 73.2624 386.221C68.9801 387.603 65.6122 390.671 61.9565 393.103C59.7515 394.569 58.3924 397.598 62.17 398.238C66.3316 398.942 70.7602 397.668 74.9126 397.434C77.2594 397.302 80.7877 397.427 82.8576 396.229C84.1079 395.506 86.0846 393.96 84.6376 392.308C83.2514 390.725 80.238 390.644 78.2567 390.467C76.1532 390.278 74.5544 391.175 73.0425 392.526C71.3554 394.033 77.2191 392.269 77.7296 392.153C79.5581 391.739 84.9782 390.891 83.126 390.587C79.395 389.975 75.3137 391.078 71.6128 391.421C66.4247 391.901 73.6528 390.319 74.5753 390.093C76.7379 389.564 79.8272 388.276 82.0935 389.129C83.8831 389.803 85.0635 390.945 85.6305 392.741C86.1467 394.377 82.7487 390.678 83.2149 390.919C84.1837 391.42 84.7864 392.431 85.3254 393.3C85.9992 394.387 83.1139 395.245 82.4209 395.558C79.0301 397.086 75.0777 397.645 71.3721 397.914C70.267 397.994 69.1557 398.129 68.0485 398.131C66.2059 398.134 66.4934 398.376 68.2194 398.418C72.2326 398.517 77.1907 399.467 81.004 397.883C81.7822 397.56 83.5564 397.262 83.9507 396.539" stroke="#2DD1DA" stroke-width="8.55886" stroke-linecap="round"/>
<path d="M110.594 388.698C110.53 391.284 110.276 394.154 111.514 396.494C112.03 397.467 115.956 397.6 116.834 397.632C120.29 397.758 123.694 397.95 127.105 397.318C131.112 396.577 134.215 395.845 137.45 393.34C137.947 392.955 139.685 392.093 139.739 391.398C139.852 389.918 140.078 388.144 138.887 387.065C136.702 385.087 132.543 385.839 129.831 385.772C126.019 385.679 121.742 385.926 118.562 388.328C117.21 389.349 114.778 391.072 114.661 392.984C114.515 395.381 123.067 394.665 124.361 394.513C126.233 394.293 134.717 392.757 134.451 389.6C134.348 388.384 130.095 388.606 129.329 388.593C126.35 388.542 123.556 389.283 120.901 390.635C119.872 391.16 118.517 391.764 117.895 392.827C117.317 393.815 120.934 393.487 121.325 393.494C122.958 393.523 125.791 393.913 127.259 392.932C127.638 392.679 127.466 392.367 127.199 392.222" stroke="#2DD1DA" stroke-width="8.55886" stroke-linecap="round"/>
<path d="M45.7566 181.23C37.9558 176.478 42.5987 190.289 43.4443 192.264C47.0599 201.081 52.6055 209.294 59.5961 215.85C78.941 234.176 110.535 237.174 134.065 225.254C149.065 217.55 157.352 202.386 158.655 185.615C159.012 181.456 152.632 181.298 152.275 185.457C150.07 213.016 128.46 224.724 103.923 225.548C82.4526 226.317 63.5585 215.688 52.7828 196.794C51.1937 193.889 49.7323 190.987 48.5324 187.831C48.1718 186.911 48.0899 185.275 47.5985 184.481C46.2487 182.233 49.3679 184.986 45.6259 186.587C44.605 186.561 44.7516 187.55 43.7307 187.524C47.2562 189.566 49.2821 183.272 45.7566 181.23Z" fill="#F879C6"/>
<path d="M27.1501 169.577C31.6232 174.636 37.653 178.691 43.8517 181.058C56.1216 185.79 68.0748 182.571 78.2284 174.62C76.6971 174.582 75.1658 174.544 73.7621 174.509C86.9998 191.894 112.001 187.696 128.563 178.733C127.29 178.571 126.021 178.279 124.748 178.117C129.999 182.674 136.814 185.968 143.555 187.047C157.802 189.223 168.374 179.85 175.053 167.777C177.056 164.181 171.651 160.662 169.645 164.388C163.897 174.922 154.883 183.292 142.447 180.119C139.148 179.256 135.99 177.875 132.969 176.108C131.961 175.562 131.083 174.889 130.078 174.213C129.829 173.947 128.451 172.871 129.325 173.674C128.199 172.735 126.805 172.309 125.51 173.058C111.407 180.651 89.9787 184.937 78.4704 169.939C77.3569 168.479 75.178 168.815 74.0041 169.828C60.466 180.429 43.1655 177.786 31.8583 165.007C28.9965 161.941 24.419 166.385 27.1501 169.577Z" fill="#F879C6"/>
<path d="M172.441 169.78C176.525 169.882 176.684 163.372 172.6 163.271C168.516 163.169 168.357 169.679 172.441 169.78Z" fill="#F879C6"/>
<path d="M171.805 163.575C133.211 170.042 93.5228 169.057 54.842 163.407C48.86 162.607 43.0119 161.55 37.0394 160.359C33.7341 159.756 29.6409 160.045 29.733 156.27C29.9013 149.37 33.5534 140.994 36.3826 134.941C47.8303 110.605 70.5124 96.8393 96.3702 94.2246C121.204 91.7148 143.822 101.525 157.338 123.224C162.498 131.559 166.232 140.771 168.552 150.338C169.366 153.614 170.049 157.018 170.219 160.54C170.321 161.584 170.034 162.88 170.261 164.058C170.481 165.496 169.221 164.814 171.16 163.82C167.536 165.814 170.59 171.491 174.214 169.497C178.224 167.382 176.631 159.396 176.079 155.865C174.767 146.844 171.92 137.916 168.036 129.613C157.362 106.551 137.462 90.0342 112.238 87.5843C82.6825 84.7662 51.5999 97.4119 35.5168 123.326C30.3333 131.665 26.659 140.953 24.5097 150.539C23.7954 153.648 22.4112 158.042 23.6143 161.068C25.4174 165.672 31.6706 165.828 35.8628 166.713C80.9821 175.389 128.05 177.469 173.57 169.741C177.283 169.313 175.78 162.892 171.805 163.575Z" fill="#F879C6"/>
<path d="M95.2995 92.82C96.1065 91.1466 97.2932 89.6129 98.7224 88.6063C102.885 85.4531 107.014 88.9424 109.997 92.2731C112.86 95.3402 117.437 90.8946 114.575 87.8275C110.099 82.8966 103.686 78.8295 97.0946 82.0527C94.1213 83.542 91.3683 86.4697 89.8884 89.5593C88.016 93.0299 93.4208 96.551 95.2995 92.82Z" fill="#F879C6"/>
<path d="M125.893 152.217C127.578 151.217 125.006 151.935 123.599 152.03C121.044 152.097 118.619 152.036 116.067 151.973C108.663 151.92 101.389 151.739 93.9873 151.555C83.7784 151.302 73.5695 151.049 63.4882 150.798C64.4742 152.255 65.4633 153.582 66.4492 155.04C69.0771 146.769 77.7605 141.514 85.7105 140.149C94.557 138.675 104.606 140.227 112.819 143.817C114.586 144.643 126.19 150.531 124.713 153.49C122.834 157.221 128.242 160.611 130.121 156.881C132.81 151.347 128.212 146.153 124.077 142.925C115.182 135.931 103.119 133.157 92.1382 133.145C79.1155 133.082 64.7823 139.629 60.3684 153.065C59.6795 155.132 61.2876 157.256 63.3294 157.307C74.3039 157.579 85.4029 157.985 96.3806 158.127C103.654 158.308 110.928 158.488 118.205 158.539C121.14 158.611 126.098 159.516 128.816 158.02C132.571 155.899 129.517 150.223 125.893 152.217Z" fill="#F879C6"/>
<path d="M92.1227 170.274C92.2276 165.977 92.3293 161.81 92.6895 157.519C92.7054 156.868 92.9798 156.093 92.868 155.439C92.8617 155.699 92.6031 155.823 92.8585 155.829C92.7308 155.826 94.1701 154.429 92.7245 156.086C92.3161 157.119 91.4192 157.227 89.7787 156.404C87.4999 155.566 86.6062 155.544 87.0978 156.338C89.0514 160.034 94.6203 156.915 92.6667 153.219C90.7131 149.522 86.941 152.295 86.4849 155.28C85.8535 160.216 85.8573 165.297 85.7397 170.115C85.638 174.282 92.021 174.441 92.1227 170.274Z" fill="#F879C6"/>
<path d="M108.716 170.685C108.97 165.479 109.098 160.271 109.352 155.065C109.454 150.898 103.071 150.74 102.969 154.907C102.714 160.112 102.587 165.321 102.332 170.526C102.1 174.82 108.483 174.979 108.716 170.685Z" fill="#F879C6"/>
<path d="M173.62 163.557C182.314 163.122 191.24 163.604 199.752 165.378C205.342 166.559 211.946 168.025 216.317 172.042C219.064 174.585 218.551 174.702 215.459 175.798C206.951 179.104 196.49 178.714 187.554 178.622C180.66 178.581 173.628 178.928 168.75 174.769C165.623 172.086 160.918 176.528 164.172 179.214C169.552 183.776 173.622 184.398 180.635 184.833C190.324 185.464 200.287 185.321 209.903 183.736C215.029 182.951 224.776 181.239 224.82 174.207C224.79 164.958 209.824 160.809 203.092 159.339C193.565 157.279 183.624 156.511 173.907 157.051C169.686 157.337 169.527 163.846 173.62 163.557Z" fill="#F879C6"/>
<path d="M158.551 184.424C162.259 184.256 170.813 184.338 171.199 189.428C171.889 197.783 159.478 198.778 154.025 197.209C150.094 196.07 148.283 202.278 152.214 203.418C161.977 206.266 176.877 202.727 177.561 190.368C178.192 180.222 166.511 177.456 158.71 177.914C154.617 178.203 154.33 184.71 158.551 184.424Z" fill="#F879C6"/>
<path d="M41.3043 180.49C33.1269 180.677 23.9418 185.53 27.025 195.247C30.0986 205.355 41.6901 206.555 50.1926 203.509C54.0562 202.172 52.5528 195.751 48.686 197.218C44.0471 198.927 36.4887 199.912 33.6804 194.631C30.6296 188.823 37.1829 187.162 41.27 187.133C45.2326 186.971 45.3915 180.461 41.3043 180.49Z" fill="#F879C6"/>
<path d="M101.745 230.713C101.541 233.834 101.34 236.826 101.137 239.948C100.907 244.111 107.289 244.269 107.519 240.106C107.722 236.984 107.923 233.993 108.127 230.871C108.356 226.708 101.974 226.549 101.745 230.713Z" fill="#F879C6"/>
<path d="M129.062 314.779C138.166 297.547 134.293 273.088 125.629 256.587C116.476 239.162 97.6625 230.357 80.5011 242.829C64.769 254.294 61.4053 277.01 61.0882 295.242C60.8881 303.445 59.3513 314.09 67.1467 319.104C78.5894 326.424 95.7615 323.984 108.314 322.472C114.586 321.846 125.205 321.067 129.062 314.779C131.193 311.184 125.784 307.792 123.653 311.387C121.79 314.468 113.724 315.31 110.135 315.872C98.8557 317.547 85.0243 319.157 74.0095 315.236C71.8557 314.531 69.9636 313.572 68.4733 311.841C67.7266 311.041 68.352 311.578 68.1126 310.92C68.2276 311.444 67.9019 309.091 67.9241 308.18C67.7356 305.439 67.6746 302.702 67.6105 300.094C67.4685 284.978 68.9152 267.556 77.9084 254.881C82.799 248.097 90.839 243.085 99.2593 243.425C107.552 243.761 113.918 249.782 118.223 256.533C127.318 271.09 132.088 295.442 123.65 311.518C121.647 315.116 127.055 318.507 129.062 314.779Z" fill="#F879C6"/>
<path d="M41.8852 307.548C39.0647 308 36.0976 309.229 34.0047 311.261C29.8222 315.196 30.7003 321.081 33.5245 325.711C36.4732 330.474 41.5052 333.595 46.6991 330.076C49.5545 328.193 51.8036 324.992 53.2837 321.902C55.035 318.167 49.6296 314.646 47.8752 318.511C47.0682 320.184 46.0027 321.982 44.6947 323.252C44.0375 324.017 42.9879 325.164 41.8393 325.135C40.3077 325.097 39.2131 322.855 38.6004 321.798C37.2537 319.419 36.6759 316.93 39.1389 315.427C40.4374 314.548 41.7232 314.189 43.3887 313.97C47.4918 313.29 45.8575 306.996 41.8852 307.548Z" fill="#F879C6"/>
<path d="M110.631 248C120.951 259.461 131.01 271.176 140.938 283.018C144.786 287.544 151.016 293.952 153.068 298.824C154.153 301.456 154.938 305.906 154.23 308.754C152.961 313.674 147.961 314.462 143.759 313.966C138.535 313.446 133.366 310.712 129.358 307.485C126.099 304.929 122.772 310.449 126.03 313.005C134.298 319.595 152.407 325.907 159.084 313.956C164.157 304.962 158.903 295.19 153.456 288.15C141.575 272.611 128.395 257.952 115.34 243.427C112.477 240.359 107.899 244.805 110.631 248Z" fill="#F879C6"/>
<path d="M146.946 319.257C151.659 324.976 160.236 329.358 166.019 322.597C169.309 318.64 171.117 312.562 168.168 307.798C165.96 304.096 161.665 302.165 157.463 301.67C153.392 301.048 153.233 307.558 157.304 308.18C159.085 308.485 161.363 309.323 162.473 310.914C164.075 313.299 162.426 318.078 159.97 319.32C156.993 320.94 153.132 316.936 151.396 314.808C148.923 311.489 144.342 316.066 146.946 319.257Z" fill="#F879C6"/>
<path d="M120.461 362.601C120.415 369.685 120.498 376.772 120.456 383.733C120.416 385.348 121.781 386.998 123.571 386.918C127.791 386.65 142.356 386.39 140.91 393.315C139.746 399.129 130.187 398.394 125.458 398.525C121.751 398.682 117.923 398.587 114.227 398.246C113.21 398.097 110.782 398.161 109.903 397.517C109.651 397.387 109.727 394.281 109.772 392.418C109.605 383.588 110.206 374.652 110.804 365.841C111.156 361.872 104.775 361.714 104.423 365.683C104.031 371.267 103.636 376.975 103.5 382.566C103.385 387.287 101.34 397.802 105.072 401.872C107.312 404.29 112.037 404.283 115.222 404.611C120.956 405.126 126.832 405.023 132.597 404.296C140.281 403.368 147.626 400.692 147.458 391.862C147.33 381.417 131.267 380.272 123.595 380.703C124.591 381.722 125.713 382.869 126.709 383.888C126.755 376.804 126.672 369.716 126.714 362.756C126.811 358.78 120.43 358.622 120.461 362.601Z" fill="#F879C6"/>
<path d="M72.5152 360.294C72.423 364.07 72.334 367.716 72.2418 371.492C72.1465 375.399 71.515 380.334 72.6996 384.142C73.881 388.081 80.0509 386.54 78.8695 382.602C77.803 379.188 78.559 374.385 78.648 370.739C78.7306 367.354 78.8133 363.968 78.8959 360.582C79.1285 356.288 72.7446 356.13 72.5152 360.294Z" fill="#F879C6"/>
<path d="M84.8603 362.167C86.7695 372.898 89.1574 384.943 87.6175 395.718C87.1424 399.485 86.8745 399.999 83.5435 400.438C81.1122 400.638 78.6777 400.968 76.2464 401.169C71.6391 401.575 66.2596 402.224 61.6872 401.198C57.8806 400.191 58.614 396.301 60.4771 393.221C63.5364 388.215 70.7154 387.091 75.964 386.57C83.0027 385.963 88.5453 389.097 87.4613 396.887C86.8491 401.041 93.2305 401.199 93.8427 397.046C97.0566 375.238 63.5861 375.709 55.0684 389.829C50.4108 397.531 52.2433 406.175 61.5284 407.708C67.5079 408.638 73.6531 408.009 79.5431 407.374C83.6399 406.954 88.9908 407.478 91.7631 403.769C96.1273 397.623 94.3553 386.505 93.627 379.712C93.0169 373.313 92.1515 366.908 91.0277 360.626C90.236 356.438 84.0653 358.108 84.8603 362.167Z" fill="#F879C6"/>
<path d="M123.196 313.856C124.491 318.318 125.656 322.907 126.693 327.493C128.299 334.959 130.628 344.138 128.781 351.779C127.072 359.033 111.148 362.677 104.952 360.179C99.135 357.82 100.634 343.525 100.646 337.792C100.748 333.625 94.3669 333.467 94.265 337.634C94.0836 345.056 92.7061 359.615 99.3523 364.6C107.253 370.529 124.475 366.004 131.264 359.919C137.661 354.214 135.526 342.305 134.428 334.981C133.339 327.267 131.482 319.664 129.239 312.182C128.186 308.247 122.015 309.918 123.196 313.856Z" fill="#F879C6"/>
<path d="M70.3132 262.767C87.8341 266.847 106.892 265.497 124.103 261.367C128.084 260.424 126.578 254.136 122.596 255.079C106.413 258.975 88.5065 260.223 72.1246 256.562C68.191 255.552 66.252 261.754 70.3132 262.767Z" fill="#F879C6"/>
<path d="M64.595 287.902C85.8229 291.814 111.443 293.622 131.222 283.695C134.97 281.835 131.789 276.157 128.168 278.02C110.074 286.947 85.8573 285.174 66.4064 281.697C62.3388 280.945 60.5274 287.15 64.595 287.902Z" fill="#F879C6"/>
<path d="M82.0884 209.508C89.5576 217.378 101.065 216.752 109.988 212.154C113.608 210.29 110.555 204.614 106.934 206.478C100.598 209.707 92.1474 210.669 86.6691 204.933C83.8039 201.996 79.2264 206.441 82.0884 209.508Z" fill="#F879C6"/>
<path d="M80.5835 198.266C86.7091 198.418 86.9474 188.654 80.8217 188.502C74.6961 188.349 74.4579 198.114 80.5835 198.266Z" fill="#F879C6"/>
<path d="M118.86 199.208C124.986 199.36 125.224 189.596 119.098 189.444C112.973 189.292 112.734 199.056 118.86 199.208Z" fill="#F879C6"/>
<path d="M122.631 379.568C115.832 380.832 103.243 383.906 103.027 392.76C102.912 397.447 109.102 397.445 109.216 392.758C109.27 390.545 115.504 389.031 117.307 388.424C119.623 387.7 121.939 386.976 124.377 386.515C128.862 385.845 127.12 378.767 122.631 379.568Z" fill="#F879C6"/>
<path d="M82.2641 228.664C82.449 231.535 81.5235 238.027 82.9972 240.409C83.6096 241.467 84.5604 239.145 83.6576 239.513C82.8856 239.755 81.954 241.296 81.4308 241.804C75.2703 248.297 69.3587 255.058 63.5746 261.821C56.4698 270.376 49.3617 279.061 43.8902 288.699C40.0234 295.379 36.1374 302.841 40.0385 310.364C42.8455 315.646 47.0878 324.871 54.3868 324.009C58.3553 323.586 68.2575 320.703 69.8975 316.313C67.8686 315.742 65.843 315.04 63.8141 314.469C61.7367 326.275 58.6732 341.836 63.1132 353.412C65.6298 360.119 72.7277 362.249 79.2131 363.321C85.6985 364.393 94.232 365.255 100.67 363.069C104.533 361.731 103.028 355.439 99.1644 356.777C94.143 358.478 87.3928 357.79 82.2982 357.273C75.8064 356.462 69.5794 355.265 68.3548 347.938C66.5594 337.861 68.372 326.439 70.0219 316.446C70.7622 312.295 65.4413 310.6 63.9385 314.602C64.9881 313.455 64.9945 313.195 63.6961 314.075C62.4072 314.565 61.246 315.057 59.9572 315.546C58.41 316.16 56.2055 317.539 54.6743 317.501C50.5877 317.53 46.0519 309.861 45.1206 306.19C44.1893 302.518 46.33 298.532 47.9412 295.314C53.4352 284.765 61.2004 275.314 68.7009 266.247C74.6189 259.227 80.7889 252.343 87.0834 245.592C91.4094 241.008 89.3905 234.834 89.0271 228.831C88.3638 224.645 81.9836 224.487 82.2641 228.664Z" fill="#F879C6"/>
</svg>
