<svg width="227" height="422" viewBox="0 0 227 422" fill="none" xmlns="http://www.w3.org/2000/svg">
<rect x="65" y="257" width="63" height="38" rx="11" fill="#FBF9BC"/>
<path d="M48.8117 139.082C48.6995 139.059 48.593 139.03 48.4919 138.997C48.5707 139.189 48.6511 139.403 48.733 139.639C49.7192 142.487 50.6469 145.354 51.5104 148.246C51.6177 148.313 51.7244 148.373 51.8301 148.427C52.3137 148.673 52.1956 149.184 51.9325 149.68C52.0321 150.023 52.1309 150.367 52.2287 150.71C52.3255 151.051 52.4505 151.662 52.5689 152.231C52.6438 152.208 52.7189 152.184 52.794 152.159C53.0984 152.058 52.9487 153.134 52.9429 153.369C52.9289 153.936 52.7574 153.137 52.5689 152.231C51.9299 152.429 51.3015 152.562 50.7204 152.565C49.5687 152.57 48.6026 152.064 48.1074 150.539C47.68 149.223 47.1855 147.995 46.8389 146.642C46.6397 145.864 46.7976 145.165 46.4382 144.446C45.809 143.186 43.5734 146.6 42.6721 145.682C42.0728 145.072 41.5469 143.619 40.8896 142.875C40.4627 142.392 39.5376 141.549 38.803 140.894C38.5292 142.599 37.9327 144.12 37.0529 145.703C37.5376 146.582 37.7136 147.381 37.092 148.029C36.1132 149.049 35.2701 150.203 34.2849 151.213C34.1816 151.319 32.9575 152.352 32.9767 152.231C33.3221 150.042 35.8004 147.873 36.848 146.064C36.9179 145.943 36.9862 145.823 37.0529 145.703C36.1622 144.088 34.2292 142.205 34.2896 140.5C34.3524 138.726 38.1036 140.508 38.1149 140.284C37.7456 139.958 37.6085 139.835 37.9686 140.127C38.0708 140.209 38.1162 140.259 38.1149 140.284C38.298 140.446 38.5381 140.658 38.803 140.894C38.8977 140.304 38.9538 139.693 38.9697 139.049C39.0232 136.874 39.9456 134.641 40.5902 132.6C41.3953 130.05 42.001 127.968 43.5188 125.797C44.8394 123.909 47.0034 122 48.8414 120.716C53.3329 117.577 57.5709 114.042 61.7788 110.469C64.4494 108.202 67.7024 106.561 70.7033 104.881C72.9115 103.646 75.3196 102.781 77.6027 101.728C79.6981 100.761 81.9601 99.3221 84.2333 98.9348C87.4313 98.3899 90.4219 96.5256 93.6593 96.0707C96.5023 95.6713 99.5958 96.4894 102.339 97.1414C102.406 97.1575 104.798 97.5972 104.759 97.7783C104.671 98.1975 101.347 98.7226 101.145 98.7738C96.2283 100.021 81.7433 104.84 86.6533 103.56C91.3531 102.334 95.7446 101.132 100.647 101.21C106.335 101.301 111.109 102.306 116.441 104.258C116.967 104.451 117.519 104.749 116.607 104.752C113.693 104.761 110.793 104.917 107.89 105.219C102.046 105.827 96.2256 106.901 90.602 108.765C89.8708 109.007 87.8783 109.955 88.6376 110.046C90.066 110.217 91.6038 109.958 93.0131 109.786C97.0215 109.296 101.007 108.65 104.995 107.999C106.41 107.768 107.802 107.457 109.198 107.161C109.201 107.16 109.203 107.159 109.206 107.158C109.757 106.976 111.471 106.708 110.904 106.815C110.333 106.924 109.765 107.041 109.198 107.161C103.101 109.183 97.478 112.545 92.0539 116.112C92.7711 116.116 93.5315 116.148 93.977 116.159C103.878 116.403 113.765 116.712 122.373 122.561C122.38 122.565 125.811 124.97 125.094 125.531C124.669 125.864 123.556 125.723 122.713 125.563C128.397 127.961 133.647 131.389 137.432 136.313C137.554 136.471 139.177 138.241 139.13 138.611C139.087 138.95 138.504 138.475 138.211 138.343C135.781 137.252 133.394 136.027 131.004 134.843C121.524 130.144 112.193 125.412 102.524 121.35C99.7925 121.016 97.0659 120.803 94.3129 120.658C94.4445 120.78 94.6294 120.902 94.7357 120.971C96.5589 122.156 98.4968 123.077 100.459 123.939C101.095 123.913 101.729 123.907 102.362 123.922C103.48 123.95 102.422 123.979 101.871 124.05C101.58 124.088 101.289 124.129 100.999 124.174C105.092 125.95 109.253 127.55 112.668 130.823C117.041 135.014 120.942 140.074 124.571 145.188C126.815 147.596 128.19 149.986 129.846 152.866C131.183 155.191 128.458 150.788 128.248 150.482C127.049 148.734 125.826 146.958 124.571 145.188C124.379 144.982 124.181 144.776 123.976 144.57C122.827 143.415 121.582 142.406 120.271 141.505C121.243 142.454 122.175 143.5 123.171 144.253C125.712 146.174 117.532 141.443 114.664 140.16C111.882 138.917 109.026 137.917 106.308 136.509C105.342 136.008 103.847 135.46 103.241 134.404C102.875 133.767 104.273 134.213 104.366 134.239C106.172 134.748 107.917 135.5 109.661 136.206C113.292 137.678 116.989 139.251 120.271 141.505C119.891 141.135 119.505 140.779 119.107 140.462C116.348 138.264 113.268 136.664 110.19 135.065L110.048 134.991C102.889 131.272 93.9743 131.713 86.2009 132.498C85.6902 132.549 83.0128 132.754 83.0932 132.719C83.2247 132.661 83.3596 132.607 83.4971 132.558C79.7733 133.028 77.7549 133.33 80.5387 132.901C87.3199 131.855 93.995 130.071 100.804 129.131C102.04 128.961 103.278 128.816 104.518 128.698C105.494 128.606 102.559 128.65 101.58 128.626C94.2821 128.446 87.1034 129.061 79.8666 129.924C76.8552 132.526 73.8951 135.195 71.0185 137.966C72.5575 137.19 74.0929 136.403 75.6317 135.614C76.2687 135.287 76.9662 134.984 77.6478 134.649C79.2138 133.593 80.475 132.777 79.5492 133.506C78.9802 133.954 78.3218 134.317 77.6478 134.649C76.4705 135.442 75.1208 136.37 74.3987 136.878C71.5224 138.9 68.9599 141.397 66.4939 143.925C65.3129 145.136 68.6946 141.324 69.9162 140.161C70.4269 139.675 72.9337 137.56 70.8664 139.17C67.6292 141.691 64.382 144.865 61.6824 148.039C59.0452 151.141 63.6239 145.55 64.0785 145.055C66.3228 142.611 68.6422 140.254 71.0185 137.966C68.1717 139.4 65.3127 140.794 62.3973 142.092C60.8469 142.783 57.6998 144.999 55.9162 144.749C55.5274 144.694 56.2262 143.952 56.4957 143.644C57.9184 142.018 59.6852 140.738 61.3738 139.461C62.0426 138.955 62.7127 138.451 63.3843 137.948C62.7237 138.277 62.0584 138.596 61.3876 138.901C58.5882 140.176 61.1889 138.689 65.2428 136.564C67.6708 134.765 70.1181 132.994 72.5876 131.271C72.8721 131.072 75.2746 129.544 75.0822 129.565C70.1742 130.104 65.0081 133.571 60.7149 135.876C59.0877 136.75 54.293 139.48 55.7499 138.308C55.814 138.256 55.8784 138.205 55.943 138.154C55.4115 138.414 54.8767 138.664 54.3384 138.903C52.9741 139.508 51.8057 139.797 51.9182 138.725C50.8742 139.121 49.8248 139.288 48.8117 139.082Z" fill="#F879C6"/>
<path d="M86.8377 118.502C84.1864 118.437 81.5351 118.372 78.8838 118.307C78.7627 118.304 77.0448 118.359 77.3311 118.041C79.1044 116.072 82.706 115.078 84.9684 113.944C86.6735 113.088 88.4025 112.205 90.1615 111.483C90.3089 111.422 90.6236 111.184 90.6194 111.354C90.6016 112.079 89.3069 111.688 88.6573 111.883C84.1939 113.22 79.9156 115.187 75.6333 117.072C73.37 118.068 71.1161 119.101 68.8053 119.965C68.3 120.154 66.8385 120.714 67.2371 120.329C67.5285 120.048 69.0552 119.099 69.087 119.08C73.4503 116.471 77.9777 114.166 82.4549 111.8C85.1999 110.349 89.9905 107.858 92.9057 106.232C93.7028 105.788 98.0535 103.35 93.6031 104.955C91.7035 105.641 71.6209 113.833 73.2187 116.191C74.9397 118.73 85.9758 107.274 86.8803 104.895C87.756 102.591 80.9556 104.685 80.4497 104.841C75.9063 106.245 71.4411 108.559 67.4284 111.238C64.6888 113.067 61.9888 115.209 59.575 117.517C58.9174 118.145 56.7688 119.914 56.9516 121.16C57.1357 122.415 62.0291 120.266 62.1397 120.221C67.4933 118.025 72.4536 114.684 77.1115 111.126C77.6679 110.701 82.7641 107.398 82.7233 106.174C82.6778 104.811 73.4625 107.819 72.8831 108.049C66.1782 110.7 57.9454 114.823 53.4291 121.074C52.0678 122.958 50.9914 125.048 50.4319 127.367C50.3215 127.824 49.5165 130.673 50.245 131.001C51.7825 131.692 54.6003 129.634 55.7383 128.879C59.4925 126.39 63.0651 123.356 66.1419 119.952C67.5493 118.395 69.5714 116.312 70.0546 114.084C70.5458 111.818 66.165 114.157 65.7926 114.346C62.2317 116.152 59.1439 118.754 56.1638 121.491C53.5552 123.887 50.6772 126.381 48.7873 129.513C47.5982 131.483 45.0895 138.324 48.8117 139.082C52.5692 139.847 56.8271 135.477 59.4458 133.326C65.0336 128.736 70.1891 123.658 74.9266 118.069C76.9079 115.732 80.4771 112.512 81.4907 109.397C81.765 108.555 80.2494 109.379 80.2404 109.384C78.0046 110.64 75.9934 112.59 74.0614 114.287C68.8612 118.856 63.7615 123.593 59.0707 128.769C56.674 131.414 53.7165 134.319 52.2233 137.731C51.2678 139.915 52.6538 139.65 54.3384 138.903C61.5518 135.703 68.1536 130.507 74.2598 125.365C77.4048 122.716 80.4952 119.921 83.3207 116.877C84.8204 115.261 82.0191 116.784 81.6778 116.976C74.5015 121.01 67.6971 125.966 60.7979 130.526C55.6781 133.909 71.003 123.539 76.6035 121.207C79.3286 120.072 82.2372 119.171 85.1136 118.6C85.8664 118.45 86.9637 118.258 85.7842 119.071C77.8389 124.549 69.4898 129.367 61.3653 134.528C59.4875 135.721 57.5036 136.896 55.7499 138.308C54.293 139.48 59.0877 136.75 60.7149 135.876C65.0081 133.571 70.1742 130.104 75.0822 129.565C75.2746 129.544 72.8721 131.072 72.5876 131.271C68.801 133.912 65.0665 136.669 61.3738 139.461C59.6852 140.738 57.9184 142.018 56.4957 143.644C56.2262 143.952 55.5274 144.694 55.9162 144.749C57.6998 144.999 60.8469 142.783 62.3973 142.092C66.8887 140.092 71.2465 137.864 75.6317 135.614C76.8985 134.964 78.4047 134.408 79.5492 133.506C81.1711 132.229 76.0812 135.695 74.3987 136.878C71.5224 138.9 68.9599 141.397 66.4939 143.925C65.3129 145.136 68.6946 141.324 69.9162 140.161C70.4269 139.675 72.9337 137.56 70.8664 139.17C67.6292 141.691 64.382 144.865 61.6824 148.039C59.0452 151.141 63.6239 145.55 64.0785 145.055C69.323 139.344 74.9774 134.108 80.8106 129.112C82.0804 128.024 83.3179 126.816 84.7065 125.902C85.7659 125.204 82.7421 126.794 82.7354 126.798C75.5147 130.569 68.7882 135.532 61.3876 138.901C55.6925 141.495 72.347 132.658 78.1184 130.27C85.6509 127.153 94.1601 123.72 102.362 123.922C103.48 123.95 102.422 123.979 101.871 124.05C97.4998 124.618 93.2708 126.01 89.0267 127.232C85.3095 128.303 73.9918 130.652 77.8121 130.175C85.747 129.184 93.5921 128.429 101.58 128.626C102.559 128.65 105.494 128.606 104.518 128.698C103.278 128.816 102.04 128.961 100.804 129.131C93.995 130.071 87.3199 131.855 80.5387 132.901C74.0681 133.898 93.5425 130.947 100.073 131.108C104.088 131.206 92.0162 131.146 88.0383 131.756C86.4777 131.995 84.5758 132.064 83.0932 132.719C83.0128 132.754 85.6902 132.549 86.2009 132.498C93.9743 131.713 102.889 131.272 110.048 134.991C113.173 136.615 116.305 138.23 119.107 140.462C120.524 141.591 121.786 143.205 123.171 144.253C125.712 146.174 117.532 141.443 114.664 140.16C111.882 138.917 109.026 137.917 106.308 136.509C105.342 136.008 103.847 135.46 103.241 134.404C102.875 133.767 104.273 134.213 104.366 134.239C106.172 134.748 107.917 135.5 109.661 136.206C114.744 138.266 119.953 140.525 123.976 144.57C126.582 147.191 128.048 149.74 129.846 152.866C131.183 155.191 128.457 150.788 128.248 150.482C123.586 143.681 118.554 136.464 112.668 130.823C107.463 125.834 100.521 124.731 94.7357 120.971C94.4736 120.801 93.7337 120.311 94.4927 120.283C98.7877 120.124 103.167 120.589 107.396 121.3C118.014 123.085 130.314 127.053 137.432 136.313C137.554 136.471 139.177 138.241 139.13 138.611C139.087 138.95 138.504 138.475 138.211 138.343C135.781 137.252 133.394 136.027 131.004 134.843C119.046 128.916 107.325 122.936 94.866 118.315C93.4382 117.786 91.8023 117.311 90.4592 116.545C89.4197 115.952 92.7992 116.13 93.977 116.159C103.878 116.403 113.765 116.712 122.373 122.561C122.38 122.565 125.811 124.97 125.094 125.531C124.448 126.037 122.215 125.449 121.752 125.362C118.05 124.665 114.414 123.598 110.739 122.764C102.841 120.972 95.2436 120.598 87.2133 120.401C84.251 120.328 90.5633 117.1 90.8564 116.905C96.6534 113.046 102.656 109.329 109.206 107.158C109.757 106.976 111.471 106.708 110.904 106.815C108.931 107.19 106.986 107.674 104.995 107.999C101.007 108.65 97.0215 109.296 93.0131 109.786C91.6038 109.958 90.066 110.217 88.6376 110.046C87.8783 109.955 89.8708 109.007 90.602 108.765C96.2256 106.901 102.046 105.827 107.89 105.219C110.793 104.917 113.693 104.761 116.607 104.752C117.519 104.749 116.967 104.451 116.441 104.258C111.109 102.306 106.335 101.301 100.647 101.21C95.7446 101.132 91.3531 102.334 86.6533 103.56C81.7433 104.84 96.2283 100.021 101.145 98.7738C101.347 98.7226 104.671 98.1975 104.759 97.7783C104.798 97.5972 102.406 97.1575 102.339 97.1414C99.5958 96.4894 96.5023 95.6713 93.6593 96.0707C90.4219 96.5256 87.4313 98.3899 84.2333 98.9348C81.9601 99.3221 79.6981 100.761 77.6027 101.728C75.3196 102.781 72.9115 103.646 70.7033 104.881C67.7024 106.561 64.4494 108.202 61.7788 110.469C57.5709 114.042 53.3329 117.577 48.8414 120.716C47.0034 122 44.8394 123.909 43.5188 125.797C42.001 127.968 41.3953 130.05 40.5902 132.6C39.9456 134.641 39.0232 136.874 38.9697 139.049C38.9046 141.694 38.1597 143.799 36.848 146.064C35.8004 147.873 33.3221 150.042 32.9767 152.231C32.9575 152.352 34.1816 151.319 34.2849 151.213C35.2701 150.203 36.1132 149.049 37.092 148.029C38.8561 146.19 34.1963 143.132 34.2896 140.5C34.3594 138.528 38.9868 140.951 37.9686 140.127C36.9349 139.29 39.9983 141.866 40.8896 142.875C41.5469 143.619 42.0728 145.072 42.6721 145.682C43.5734 146.6 45.809 143.186 46.4382 144.446C46.7976 145.165 46.6397 145.864 46.8389 146.642C47.1855 147.995 47.68 149.223 48.1074 150.539C48.8818 152.924 50.8073 152.817 52.794 152.159C53.0984 152.058 52.9487 153.134 52.9429 153.369C52.9201 154.293 52.4796 151.593 52.2287 150.71C51.1679 146.981 49.9987 143.293 48.733 139.639C47.0265 134.713 45.9744 139.634 46.8526 142.13C47.5914 144.229 49.8758 147.431 51.8301 148.427C52.7027 148.871 51.6163 150.176 51.2543 150.704C48.197 155.164 58.577 156.445 60.7049 158.852C62.3454 160.709 53.1425 161.462 52.4528 161.404C49.4904 161.153 46.4655 159.739 43.6309 158.86C41.6765 158.254 39.5895 158.319 37.6994 157.665C36.1522 157.129 34.0789 157.508 32.8043 158.576C31.6292 159.561 30.4069 161.293 30.5928 158.679C30.704 157.116 32.7207 155.162 34.0698 154.672C36.8645 153.656 39.9355 153.647 42.8663 153.629C43.8588 153.622 43.051 153.964 42.5223 154.407C41.5752 155.201 40.3938 155.63 39.4203 156.377" stroke="#7FDBE0" stroke-width="8.55886" stroke-linecap="round"/>
<path d="M68.1277 164.011C66.0945 163.961 64.0673 163.97 62.0426 163.982C62.5772 162.063 63.8785 162.179 65.6582 162.062C68.2264 161.891 70.7799 161.99 73.3443 161.918C76.2732 161.837 79.1637 161.764 82.1008 161.837C83.4829 161.871 82.7875 165.976 82.7176 167.134C82.6764 167.817 81.4346 166.212 80.992 165.972C80.1199 165.5 78.7067 165.475 77.732 165.122C74.6353 164.002 71.3539 164.091 68.1277 164.011Z" fill="#F879C6"/>
<path d="M31.0924 162.155C37.0033 162.301 42.7134 162.846 48.5839 163.53C55.1163 164.292 61.5906 163.851 68.1277 164.011C71.3539 164.091 74.6353 164.002 77.732 165.122C78.7067 165.475 80.1199 165.5 80.992 165.972C81.4346 166.212 82.6764 167.817 82.7176 167.134C82.7875 165.976 83.4829 161.871 82.1008 161.837C79.1637 161.764 76.2732 161.837 73.3443 161.918C70.7799 161.99 68.2264 161.891 65.6582 162.062C63.8724 162.18 62.5683 162.062 62.0371 164.001C61.9497 164.321 61.1979 166.101 61.5258 166.298C63.2668 167.342 66.1149 167.7 68.0835 167.789C70.9041 167.915 73.734 167.928 76.5568 167.997" stroke="#7FDBE0" stroke-width="8.55886" stroke-linecap="round"/>
<path d="M114.49 112.594C115.262 112.654 116.117 112.802 116.656 113.253C116.698 113.288 117.142 113.767 117 113.822C116.476 114.024 115.399 113.295 114.49 112.594C113.898 112.137 113.377 111.693 113.126 111.522C111.306 110.291 109.331 109.205 107.832 107.509C107.155 106.743 106.518 105.664 106.475 104.572C106.418 103.129 109.056 103.652 109.762 103.656C112.796 103.671 115.889 103.646 118.951 103.835C116.059 103.162 113.162 102.609 110.243 101.936C110.2 101.926 104.442 99.8028 106.44 99.3933C107.942 99.0853 109.56 99.0952 111.151 99.1909C110.676 99.0513 110.203 98.9069 109.737 98.7572C106.664 97.772 109.973 97.661 111.192 97.6911C120.826 97.9282 130.875 100.533 137.361 108.583C137.555 108.754 137.748 108.929 137.938 109.107C138.903 110.011 139.827 110.984 140.717 112.007C142.991 113.243 145.131 114.606 146.917 116.048C150.62 119.034 152.908 123.701 155.637 127.804C156.027 128.391 156.737 129.314 156.717 130.105C156.714 130.249 156.55 129.879 156.466 129.766C155.908 129.018 155.261 128.353 154.683 127.623C154.114 126.904 153.471 126.13 152.84 125.325C155.787 130.62 160.063 138.579 162 142.462C162.097 142.656 162.192 142.85 162.286 143.045C161.945 141.8 161.827 141.007 162.426 141.685C162.866 142.183 162.934 144.037 163.099 144.675C163.141 144.837 163.183 144.998 163.225 145.16C164.255 147.656 165.055 150.224 165.805 152.876C165.902 153.22 166.017 153.718 166.137 154.27C166.65 155.408 167.142 156.618 167.116 157.666C167.084 158.971 166.573 156.268 166.137 154.27C165.805 153.533 165.465 152.826 165.252 152.215C164.449 149.905 163.838 147.533 163.225 145.16C162.931 144.449 162.62 143.745 162.286 143.045C162.683 144.501 163.383 146.574 163.595 147.644C164.721 153.332 165.368 158.736 165.225 164.546C165.17 166.782 164.141 166.084 162.172 165.853C157.718 165.328 153.19 164.53 148.71 164.419C145.982 164.352 145.114 168.16 142.402 168.14C139.359 168.118 127.818 168.146 134.309 158.887C132.842 156.588 131.336 154.125 130.529 151.448C130.061 149.894 130.464 149.675 131.635 149.96C130.757 148.491 129.793 147.091 128.852 145.669C126.344 141.877 123.908 137.954 122.426 133.546C122.311 133.203 120.971 129.845 122.185 130.147C123.236 130.408 124.232 131.187 125.084 131.827C125.555 132.182 126.024 132.543 126.489 132.909C124.595 128.054 122.418 123.337 120.231 118.627C119.706 117.857 119.279 117.048 119.136 116.268C118.67 115.261 118.205 114.254 117.745 113.245C117.554 112.827 115.048 107.297 116.914 110.689C118.654 113.85 120.587 116.892 122.587 119.883C122.83 120.158 122.998 120.351 123.042 120.407C124.479 122.238 126.744 125.357 128.989 128.534C130.962 130.526 132.974 132.475 134.943 134.449C135.796 135.304 136.643 136.178 137.49 137.056C137.289 136.345 137.144 135.632 137.075 134.921C136.98 133.94 137.662 134.212 138.463 134.834C134.585 129.792 130.546 124.882 126.295 120.208C126.089 119.981 121.68 115.73 124.124 117.355C127.87 119.846 131.638 122.3 135.375 124.804C138.44 126.858 141.466 128.971 144.489 131.088C144.433 130.91 144.38 130.731 144.33 130.552C143.788 128.636 146.44 132.252 146.637 132.498C146.693 132.569 146.75 132.64 146.807 132.711C148.152 133.652 149.499 134.591 150.85 135.523C151.516 135.982 148.968 133.206 148.848 133.077C144.345 128.251 139.527 123.731 134.749 119.226C130.92 115.616 127.053 111.788 122.822 108.68C122.059 108.188 120.356 106.936 121.917 108.03C122.221 108.243 122.522 108.459 122.822 108.68C122.924 108.745 123.009 108.797 123.067 108.828C126.627 110.727 130.115 112.754 133.574 114.859C138.045 117.58 142.576 120.563 146.199 124.546C146.897 125.313 145.883 123.964 145.749 123.695C145.011 122.218 144.242 120.763 143.535 119.268C142.258 116.564 140.852 113.761 139.244 111.233C139.104 111.162 138.963 111.091 138.823 111.021C138.858 111.062 138.893 111.102 138.928 111.143C139.808 112.167 137.016 110.935 136.791 110.845C134.638 109.988 132.648 108.717 130.567 107.684C130.226 107.515 129.042 107.045 130.183 107.429C132.895 108.343 135.917 109.572 138.823 111.021C137.176 109.125 135.322 107.465 133.566 105.689C133.313 105.514 133.059 105.341 132.805 105.167C132.146 104.718 131.241 104.225 130.932 103.39C130.931 103.386 133.138 105.254 133.429 105.55C133.475 105.597 133.521 105.643 133.566 105.689C134.872 106.592 136.159 107.525 137.361 108.583C130.875 100.533 120.826 97.9282 111.192 97.6911C109.973 97.661 106.664 97.772 109.737 98.7572C110.203 98.9069 110.676 99.0513 111.151 99.1909C112.09 99.2474 113.02 99.3338 113.911 99.4022C114.567 99.4526 119.129 99.6011 119.357 100.551C119.44 100.901 115.476 100.336 115.222 100.274C113.873 99.9445 112.5 99.5871 111.151 99.1909C109.56 99.0952 107.942 99.0853 106.44 99.3933C104.442 99.8028 110.2 101.926 110.243 101.936C113.162 102.609 116.059 103.162 118.951 103.835C120.519 103.932 122.078 104.085 123.616 104.329C123.933 104.379 127.497 104.869 127.713 105.497C127.825 105.822 123.019 104.887 122.905 104.854C121.587 104.474 120.269 104.142 118.951 103.835C115.889 103.646 112.796 103.671 109.762 103.656C109.056 103.652 106.418 103.129 106.475 104.572C106.518 105.664 107.155 106.743 107.832 107.509C109.331 109.205 111.306 110.291 113.126 111.522C113.377 111.693 113.898 112.137 114.49 112.594Z" fill="#F879C6"/>
<path d="M105.407 112.347C108.165 112.415 110.928 112.439 113.685 112.551C114.584 112.587 115.916 112.634 116.656 113.253C116.698 113.288 117.142 113.767 117 113.822C116.136 114.155 113.764 111.954 113.126 111.522C111.306 110.291 109.331 109.205 107.832 107.509C107.155 106.743 106.518 105.664 106.475 104.572C106.418 103.129 109.056 103.652 109.762 103.656C114.349 103.679 119.073 103.609 123.616 104.329C123.933 104.379 127.497 104.869 127.713 105.497C127.825 105.822 123.019 104.887 122.905 104.854C118.694 103.64 114.493 102.916 110.243 101.936C110.2 101.926 104.442 99.8028 106.44 99.3933C108.83 98.9034 111.511 99.2179 113.911 99.4022C114.567 99.4526 119.129 99.6011 119.357 100.551C119.44 100.901 115.476 100.336 115.222 100.274C113.398 99.8284 111.529 99.332 109.737 98.7572C106.664 97.772 109.973 97.661 111.192 97.6911C121.544 97.9458 132.375 100.934 138.749 110.474C140.565 113.192 142.128 116.29 143.535 119.268C144.242 120.763 145.011 122.218 145.749 123.695C145.883 123.964 146.897 125.313 146.199 124.546C142.576 120.563 138.045 117.58 133.574 114.859C130.115 112.754 126.627 110.727 123.067 108.828C122.573 108.565 120.147 106.79 121.917 108.03C126.506 111.245 130.649 115.36 134.749 119.226C139.527 123.731 144.345 128.251 148.848 133.077C148.968 133.206 151.516 135.982 150.85 135.523C145.685 131.961 140.587 128.296 135.375 124.804C131.638 122.3 127.87 119.846 124.124 117.355C121.68 115.73 126.089 119.981 126.295 120.208C131.606 126.048 136.587 132.257 141.337 138.63C142.48 140.162 143.635 141.689 144.731 143.261C144.89 143.488 145.609 144.505 145.795 144.931C145.859 145.08 145.479 144.883 145.36 144.781C141.7 141.619 138.374 137.888 134.943 134.449C130.741 130.237 126.349 126.14 122.544 121.497C121.455 120.168 119.334 118.006 119.105 116.06C119.093 115.96 122.806 120.107 123.042 120.407C127.443 126.011 139.609 143.704 135.177 138.128C132.544 134.815 130.237 131.064 127.836 127.557C124.07 122.056 120.155 116.58 116.914 110.689C115.048 107.297 117.554 112.827 117.745 113.245C120.83 120.006 124.107 126.682 126.777 133.653C128.564 138.322 130.037 143.083 131.379 147.918C131.58 148.641 131.77 149.38 132.025 150.085C132.033 150.107 132.489 151.291 132.45 151.285C132.07 151.224 132.014 150.604 131.809 150.255C130.886 148.678 129.856 147.186 128.852 145.669C126.344 141.877 123.908 137.954 122.426 133.546C122.311 133.203 120.971 129.845 122.185 130.147C123.236 130.408 124.232 131.187 125.084 131.827C128.596 134.47 131.932 137.443 135.102 140.54C139.496 144.833 151.325 159.19 147.347 154.45C145.194 151.885 143.466 148.797 141.809 145.848C140.023 142.668 137.447 138.752 137.075 134.921C136.86 132.695 140.642 136.923 140.759 137.041C144.542 140.872 147.937 145.157 151.305 149.405C152.178 150.507 153.017 151.636 153.87 152.757C154.064 153.013 154.602 153.666 154.619 153.335C154.668 152.364 153.518 150.653 153.174 149.993C151.404 146.592 149.767 143.153 148.199 139.638C146.883 136.689 145.221 133.703 144.33 130.552C143.788 128.636 146.44 132.252 146.637 132.498C150.862 137.786 154.743 143.501 158.108 149.468C162.556 157.353 150.525 132.915 146.914 124.546C145.891 122.174 144.807 119.887 143.625 117.608C142.534 115.505 146.42 121.221 146.474 121.299C149.826 126.208 153.285 131.111 156.206 136.337C156.605 137.05 158.51 140.228 158.483 140.171C155.981 134.696 152.493 129.527 149.385 124.449C146.113 119.103 142.462 113.349 137.938 109.107C136.348 107.616 134.583 106.379 132.805 105.167C132.146 104.718 131.241 104.225 130.932 103.39C130.931 103.386 133.138 105.254 133.429 105.55C135.262 107.416 137.213 109.146 138.928 111.143C139.808 112.167 137.016 110.935 136.791 110.845C134.638 109.988 132.648 108.717 130.567 107.684C130.226 107.515 129.042 107.045 130.183 107.429C135.667 109.277 142.414 112.414 146.917 116.048C150.62 119.034 152.908 123.701 155.637 127.804C156.027 128.391 156.737 129.314 156.717 130.105C156.714 130.249 156.55 129.879 156.466 129.766C155.908 129.018 155.261 128.353 154.683 127.623C153.269 125.837 151.399 123.711 150.397 121.605C146.964 114.392 158.438 135.322 162 142.462C163.665 145.799 164.782 149.259 165.805 152.876C166.255 154.468 167.075 159.332 167.116 157.666C167.159 155.939 165.794 153.77 165.252 152.215C164.394 149.748 163.756 147.21 163.099 144.675C162.934 144.037 162.866 142.183 162.426 141.685C161.127 140.216 163.201 145.658 163.595 147.644C164.721 153.332 165.368 158.736 165.225 164.546C165.17 166.782 164.141 166.084 162.172 165.853C157.718 165.328 153.19 164.53 148.71 164.419C145.982 164.352 145.114 168.16 142.402 168.14C139.359 168.118 127.818 168.146 134.309 158.887C132.842 156.588 131.336 154.125 130.529 151.448C129.996 149.677 130.594 149.64 132.17 150.106C137.199 151.594 142.808 155.027 146.452 159.151C149.523 162.627 140.176 152.102 138.286 147.755C137.499 145.944 140.444 151.012 141.446 152.696C142.673 154.757 143.846 156.897 144.763 159.145C145.357 160.6 142.822 156.75 141.83 155.574C138.862 152.056 135.785 148.632 132.646 145.29C128.804 141.199 138.983 154.725 142.406 159.226C142.661 159.562 143.787 161.744 144.374 161.759C144.597 161.764 144.939 155.826 144.986 155.372C145.117 154.098 144.818 150.469 145.781 149.444C146.513 148.665 149.043 152.458 149.273 152.749C150.977 154.897 152.622 157.115 154.277 159.309C155.031 160.308 155.164 160.736 155.096 159.014C154.976 155.967 154.633 152.891 154.2 149.879C154.157 149.575 153.958 147.393 153.999 147.495C154.306 148.262 156.748 152.609 156.77 151.709" stroke="#7FDBE0" stroke-width="8.55886" stroke-linecap="round"/>
<path d="M167.446 163.413C161.803 163.274 147.219 163.194 141.571 163.425C134.747 163.703 127.792 166.219 120.999 167.767C118.016 168.446 114.983 169.562 112.027 170.679C111.129 171.018 110.198 171.004 109.293 170.908C108.64 170.839 109.055 167.678 108.973 166.745C108.925 166.197 108.494 163.375 109.043 163.218C111.351 162.559 113.915 163.305 116.235 163.362C119.431 163.441 122.625 160.613 125.867 160.037C127.326 159.778 128.863 158.38 130.266 157.507C131.505 156.736 132.133 156.703 131.419 154.237C130.509 151.097 128.868 149.031 127.664 146.427" stroke="#7FDBE0" stroke-width="8.55886" stroke-linecap="round"/>
<path d="M56.9841 143.585C56.9207 146.161 56.8574 148.736 56.794 151.312C56.78 151.881 56.3972 153.849 57.0147 154.221C58.3858 155.048 59.103 152.394 59.6004 151.451C62.4683 146.013 66.2057 141.8 70.3872 137.513C74.9513 132.834 79.4459 128.21 84.3957 124.004C89.3183 119.822 94.4635 116.131 100.671 114.749" stroke="#7FDBE0" stroke-width="8.55886" stroke-linecap="round"/>
<path d="M159.278 156.809C159.242 158.285 159.236 159.377 159.766 160.757C160.171 161.811 159.996 159.126 159.958 158.872C159.811 157.871 159.569 156.885 159.594 155.872" stroke="#7FDBE0" stroke-width="8.55886" stroke-linecap="round"/>
<path d="M192.29 167.745C192.144 167.739 191.998 167.735 191.85 167.731C188.025 167.637 184.296 168.281 180.492 168.302C178.308 168.313 176.07 168.352 173.958 168.77C173.673 168.827 172.804 169.245 172.785 168.678C172.753 167.687 174.631 167.485 175.323 167.325C177.99 166.707 180.561 166.604 183.283 166.671C185.787 166.732 188.626 166.435 191.027 167.271C191.382 167.394 191.824 167.552 192.29 167.745C193.439 168.219 194.733 168.904 195.231 169.797C195.768 170.762 188.825 171.554 188.277 171.64C186.3 171.95 184.306 172.316 182.305 172.644C179.725 173.066 177.134 173.426 174.552 173.521C174.472 173.524 173.224 173.58 174.274 173.499C176.275 173.345 178.26 173.024 180.257 172.828C180.939 172.761 181.622 172.7 182.305 172.644C184.306 172.316 186.3 171.95 188.277 171.64C188.825 171.554 195.768 170.762 195.231 169.797C194.733 168.904 193.439 168.219 192.29 167.745Z" fill="#F879C6"/>
<path d="M174.426 169.852C174.281 171.027 173.667 172.476 173.222 173.567C172.512 175.307 171.35 176.201 173.418 176.908C178.128 178.519 183.095 179.047 188.004 179.596C196.415 180.537 204.841 177.806 213.198 177.037C214.128 176.952 215.421 176.858 216.258 176.389C217.823 175.511 214.943 173.991 214.359 173.809C210.394 172.567 206.603 170.731 202.64 169.555C198.948 168.459 195.695 167.826 191.85 167.731C188.025 167.637 184.296 168.281 180.492 168.302C178.308 168.313 176.07 168.352 173.958 168.77C173.673 168.827 172.804 169.245 172.785 168.678C172.753 167.687 174.631 167.485 175.323 167.325C177.99 166.707 180.561 166.604 183.283 166.671C185.787 166.732 188.626 166.435 191.027 167.271C192.257 167.698 194.532 168.541 195.231 169.797C195.768 170.762 188.825 171.554 188.277 171.64C183.753 172.35 179.137 173.351 174.552 173.521C174.472 173.524 173.224 173.58 174.274 173.499C176.275 173.345 178.26 173.024 180.257 172.828C187.597 172.108 194.92 172.056 202.28 172.237C208.157 172.381 190.527 172.797 184.65 172.653C182.779 172.607 185.987 172.797 186.315 172.835C188.256 173.06 190.199 173.072 192.15 173.12" stroke="#7FDBE0" stroke-width="8.55886" stroke-linecap="round"/>
<path d="M92.7386 165.575C93.9205 165.604 101.626 166.149 101.66 164.803C101.703 163.037 103.375 161.871 100.837 161.809C98.7128 161.756 96.5703 161.987 94.4973 161.936" stroke="#F0F0F1" stroke-width="8.55886" stroke-linecap="round"/>
<path d="M70.2748 151.425C71.9028 151.465 73.8885 150.512 75.3228 149.787C76.7243 149.078 78.0629 148.051 79.3745 147.18C81.0259 146.084 82.9202 145.611 84.7763 144.984C91.1044 142.846 98.0275 141.135 104.741 142.643C107.353 143.23 110.861 143.688 113.116 145.241C115.169 146.655 117.241 148.001 119.128 149.653C120.831 151.145 116.734 150.065 116.152 149.989C110.371 149.236 104.601 148.378 98.8062 147.658C95.8682 147.293 92.8082 147.448 89.8488 147.375C87.1066 147.307 84.6046 148.197 81.9127 148.297C81.3811 148.316 79.0515 152.358 80.6726 152.398C86.131 152.533 89.6019 148.511 95.0294 149.139C98.7935 149.574 102.514 150.236 106.314 150.329C108.983 150.395 111.772 150.592 114.375 151.236C115.219 151.445 120.634 151.24 120.606 152.38" stroke="#FF7D7D" stroke-width="8.55886" stroke-linecap="round"/>
<path d="M34.27 167.536C38.5597 167.642 40.9018 169.652 44.5676 171.535C46.2519 172.4 47.9609 172.714 49.6698 173.438C51.2631 174.114 52.8659 174.792 54.6216 174.835C58.1187 174.921 61.6408 174.674 65.0988 174.18C65.9154 174.064 70.1872 173.999 70.206 173.236" stroke="#FF7D7D" stroke-width="8.55886" stroke-linecap="round"/>
<path d="M82.1782 174.927C86.7819 175.04 91.1897 175.284 95.7209 176.047C98.5846 176.529 101.894 175.611 104.675 176.472C109.036 177.822 113.839 177.545 118.163 176.678C118.634 176.583 119.212 176.688 119.692 176.7C121.029 176.733 120.576 176.619 119.484 177.009C114.713 178.714 109.363 180.977 104.227 180.851C100.944 180.77 98.0544 179.283 94.7468 179.202C92.364 179.143 90.0458 179.322 87.9403 178.184" stroke="#FF7D7D" stroke-width="8.55886" stroke-linecap="round"/>
<path d="M146.965 177.814C146.494 177.635 146.014 177.483 145.528 177.348C146.875 176.44 149.373 176.182 150.848 175.785C152.761 175.271 154.725 174.98 156.63 174.449C158.857 173.828 161.431 173.411 163.541 172.479C165.17 171.759 162.614 173.332 162.198 173.673C159.997 175.477 157.867 176.934 155.303 178.161C152.528 179.489 149.747 178.872 146.965 177.814Z" fill="#FF7D7D"/>
<path d="M132.288 175.045C134.387 175.097 136.678 174.85 138.658 175.611C141.344 176.644 144.308 176.804 146.965 177.814C149.747 178.872 152.528 179.489 155.303 178.161C157.867 176.934 159.997 175.477 162.198 173.673C162.614 173.332 165.17 171.759 163.541 172.479C161.431 173.411 158.857 173.828 156.63 174.449C154.725 174.98 152.761 175.271 150.848 175.785C149.26 176.212 146.489 176.478 145.24 177.567C144.711 178.029 138.495 179.419 137.989 179.832C137.755 180.023 147.992 182.229 143.319 178.999" stroke="#FF7D7D" stroke-width="8.55886" stroke-linecap="round"/>
<path d="M159.816 186.77C159.727 190.397 158.81 193.719 158.721 197.348C158.677 199.138 162.293 197.58 163.233 197.396C165.044 197.042 166.208 196.201 167.738 195.179C169.167 194.223 168.275 192.936 168.042 191.646C167.648 189.474 165.088 188.599 163.249 188.554C161.491 188.511 161.268 187.502 161.754 189.65C161.95 190.514 162.048 193.283 162.707 193.639" stroke="#F8DFD4" stroke-width="8.55886" stroke-linecap="round"/>
<path d="M41.5148 189.522C38.1845 189.44 34.3538 189.761 34.171 194.03C33.9819 198.446 39.205 197.962 42.2479 198.036C43.6809 198.072 41.5545 195.815 41.3669 195.529C41.1625 195.217 39.2579 192.546 40.1948 192.919C41.7957 193.557 41.8409 195.084 41.9926 192.712C42.031 192.112 42.9982 194.217 43.0949 194.391C43.4796 195.082 44.0895 195.704 44.4058 196.39" stroke="#F8DFD4" stroke-width="8.55886" stroke-linecap="round"/>
<path d="M142.315 211.181C140.145 213.233 137.682 215.154 135.053 216.864C135.888 216.804 136.723 216.76 137.56 216.736C137.924 216.725 138.831 216.615 139.243 216.809C139.568 216.963 136.739 217.75 136.598 217.773C135.311 217.982 134.019 218.156 132.722 218.299C128.292 218.79 123.809 218.926 119.315 218.901C118.524 219.208 117.725 219.468 116.92 219.667C112.387 220.782 107.18 220.961 102.598 220.15C102.495 220.131 101.743 219.944 100.847 219.696C97.6577 219.452 94.5192 218.751 91.8592 217.065C91.0334 217.549 89.8697 218.356 90.1719 217.771C90.3307 217.464 90.8968 217.101 91.451 216.796C90.8774 216.403 90.328 215.961 89.8074 215.464C88.3937 214.116 87.414 212.315 86.4941 210.594C85.7039 209.116 87.8472 209.696 88.7472 209.718C90.57 209.763 92.401 209.782 94.2308 209.832C93.4916 209.349 92.765 208.845 92.0523 208.319C90.0553 208.798 88.0548 209.259 86.0483 209.683C85.8958 209.716 84.5687 210.072 85.3949 209.603C87.0127 208.685 88.6577 207.813 90.3192 206.976C89.8831 206.621 89.4529 206.257 89.0288 205.884C88.4156 205.346 86.2603 203.562 85.0675 201.756C84.3101 201.929 83.5535 202.103 82.7975 202.276C80.0855 202.897 82.7285 202.254 83.9458 201.903C84.2877 201.804 84.6296 201.706 84.9715 201.608C84.3034 200.548 83.9907 199.492 84.5399 198.688C84.8367 198.253 87.0257 199.256 87.2394 199.333C88.0755 199.631 88.9082 199.943 89.7364 200.268C95.7394 198.615 101.761 197.091 107.84 195.743C98.5973 193.188 89.098 191.16 79.6335 190.323C83.5573 191.219 87.3358 192.663 90.7796 194.985C92.0319 195.829 89.6305 195.546 89.3001 195.495C84.9578 194.818 80.6059 193.351 76.3667 192.188C74.4539 191.663 72.2401 191.251 70.5173 190.18C69.3935 189.481 73.1418 189.935 74.4546 189.987C76.1785 190.057 77.9055 190.17 79.6335 190.323C75.2319 189.319 70.6475 189.004 66.1477 188.915C64.9385 188.891 62.2621 188.245 62.5419 190.224C62.9142 192.86 64.2542 195.418 65.5104 197.689C66.5783 199.619 67.7371 201.453 68.9623 203.232C68.1651 201.277 67.6886 199.212 67.6793 197.068C67.676 196.312 67.3515 194.736 68.393 195.334C69.9592 196.233 71.2526 197.522 72.5528 198.778C74.3146 200.481 76.9998 203.384 79.7219 206.424C78.7524 204.557 77.7775 202.693 76.7779 200.843C75.8727 199.167 75.0922 197.425 74.2575 195.713C73.9436 195.16 73.6375 194.603 73.3404 194.041C72.6443 192.725 72.1908 191.804 73.1496 193.555C73.5378 194.264 73.9026 194.986 74.2575 195.713C76.7234 200.059 79.6727 204.165 82.4945 208.246C83.6023 209.849 84.7041 211.702 85.8826 213.452C89.1249 217.229 90.9204 219.471 88.4785 216.829C87.5577 215.833 86.7016 214.668 85.8826 213.452C84.1096 211.386 81.9039 208.861 79.7219 206.424C81.0542 208.99 82.3765 211.56 83.739 214.11C83.889 214.39 85.1836 217.37 84.9568 217.257C83.5478 216.555 82.4508 215.392 81.251 214.386C78.7122 212.258 76.1205 210.225 73.636 208.028C72.381 206.919 71.1578 205.785 69.9519 204.639C71.4503 206.726 73.0335 208.751 74.6605 210.785L74.6664 210.792C74.822 210.984 77.9803 214.884 76.4976 213.498C73.6838 210.866 70.9605 207.642 69.3026 204.019C66.23 201.073 63.2533 198.052 60.1272 195.13C57.9732 193.117 55.8231 191.013 53.4033 189.341C52.536 188.741 53.4587 188.98 54.4508 188.627C56.2289 187.996 58.1285 187.955 59.8982 187.315C64.4817 185.658 68.0681 183.758 72.0566 180.898C72.9485 180.258 73.8227 179.221 74.5302 180.573C74.8604 181.204 76.3284 181.919 76.9221 182.303C80.7663 184.794 84.575 187.173 88.8227 188.895C94.4071 191.159 99.8336 191.422 105.764 191.047C111.965 190.655 114.459 189.274 120.146 186.429C118.506 184.939 126.773 184.19 127.515 184.846C129.84 186.905 132.058 187.452 135.191 188.396C138.847 189.497 145.417 190.006 149.187 190.522C150.157 190.654 149.218 193.241 149.185 194.574C149.118 197.304 148.456 200.389 147.328 203.282C147.424 203.248 147.519 203.214 147.615 203.181C147.91 203.079 148.345 202.916 147.848 203.219C147.636 203.348 147.42 203.473 147.204 203.595C146.013 206.544 144.338 209.269 142.315 211.181Z" fill="#F879C6"/>
<path d="M48.5501 186.168C48.5332 186.855 48.5751 186.702 49.1056 187.692C51.5155 192.191 54.1668 196.579 56.8641 200.899C59.347 204.875 62.1985 207.647 65.3391 210.989C68.636 214.498 72.1689 217.37 76.6088 219.124C78.3034 219.794 80.1615 220.2 81.9422 220.541C84.281 220.989 86.4925 221.819 88.7933 222.429C92.8089 223.493 96.8197 223.727 100.924 224.126C107.895 224.802 115.356 225.01 122.113 222.976C129.349 220.798 136.781 216.412 142.315 211.181C146.384 207.336 149.046 200.199 149.185 194.574C149.218 193.241 150.157 190.654 149.187 190.522C145.417 190.006 138.847 189.497 135.191 188.396C132.058 187.452 129.84 186.905 127.515 184.846C126.773 184.19 118.506 184.939 120.146 186.429C114.459 189.274 111.965 190.655 105.764 191.047C99.8336 191.422 94.4071 191.159 88.8228 188.895C84.575 187.173 80.7663 184.794 76.9221 182.303C76.3284 181.919 74.8604 181.204 74.5302 180.573C73.8227 179.221 72.9485 180.258 72.0566 180.898C68.0681 183.758 64.4817 185.658 59.8982 187.315C58.1285 187.955 56.2289 187.996 54.4508 188.627C53.4587 188.98 52.536 188.741 53.4033 189.341C55.8231 191.013 57.9732 193.117 60.1272 195.13C64.6942 199.399 68.9421 203.878 73.636 208.028C76.1205 210.225 78.7122 212.258 81.251 214.386C82.4508 215.392 83.5478 216.555 84.9568 217.257C85.1836 217.37 83.889 214.39 83.739 214.11C81.3849 209.705 79.1511 205.237 76.7779 200.843C75.4878 198.454 74.451 195.931 73.1496 193.555C72.1908 191.804 72.6443 192.725 73.3404 194.041C75.9703 199.014 79.3134 203.645 82.4945 208.246C84.3722 210.962 86.2326 214.4 88.4785 216.829C93.9218 222.717 78.3091 204.342 72.5528 198.778C71.2526 197.522 69.9592 196.233 68.393 195.334C67.3515 194.736 67.676 196.312 67.6793 197.068C67.7076 203.537 71.9862 209.279 76.4976 213.498C78.014 214.916 74.6758 210.804 74.6605 210.785C71.3037 206.588 68.1331 202.43 65.5104 197.689C64.2542 195.418 62.9142 192.86 62.5419 190.224C62.2621 188.245 64.9385 188.891 66.1477 188.915C74.6587 189.084 83.4726 190.057 90.7796 194.985C92.0319 195.829 89.6305 195.546 89.3001 195.495C84.9578 194.818 80.6059 193.351 76.3667 192.188C74.4539 191.663 72.2401 191.251 70.5173 190.18C69.3935 189.481 73.1418 189.935 74.4546 189.987C89.0662 190.577 103.889 194.305 117.841 198.72C119.714 199.313 117.081 199.135 116.598 199.123C109.05 198.937 101.527 198.961 94.0266 200.014C90.2495 200.544 86.5168 201.424 82.7975 202.276C80.0855 202.897 82.7285 202.254 83.9458 201.903C93.1693 199.239 102.41 196.844 111.802 194.892C117.684 193.669 123.646 192.721 129.506 191.407C129.751 191.352 132.799 191.357 132.553 191.405C130.972 191.714 127.019 192.1 125.513 192.626C115.001 196.296 104.498 200.272 94.3875 205.004C91.3435 206.429 88.3244 207.94 85.3949 209.603C84.5687 210.072 85.8958 209.716 86.0483 209.683C92.4874 208.32 98.8645 206.592 105.263 205.047C116.117 202.425 126.989 199.874 137.738 196.815C139.722 196.251 141.726 195.685 143.666 194.969C143.803 194.919 144.16 194.686 144.016 194.704C142.904 194.848 141.423 195.285 140.484 195.565C126.505 199.737 113.079 206.005 99.9629 212.436C97.4879 213.65 94.9948 214.863 92.5824 216.207C92.1575 216.444 90.4659 217.202 90.1719 217.771C89.8036 218.484 91.6122 217.13 92.3335 216.812C95.9293 215.227 99.5413 213.697 103.183 212.226C115.951 207.069 128.921 202.339 141.428 196.521C141.556 196.461 146.362 193.984 144.9 194.935C138.354 199.195 131.346 202.772 124.664 206.81C121.005 209.021 117.039 211.204 113.751 213.997C112.286 215.241 117.531 213.459 119.335 212.849C127.271 210.163 135.323 207.792 143.188 204.887C144.67 204.34 146.123 203.698 147.615 203.181C147.91 203.079 148.345 202.916 147.848 203.219C147.08 203.687 146.278 204.093 145.491 204.526C139.883 207.61 134.36 210.856 128.749 213.932C125.019 215.977 121.064 218.647 116.92 219.667C112.387 220.782 107.18 220.961 102.598 220.15C102.269 220.091 95.3043 218.302 98.2259 218.339C110.9 218.499 124.016 219.817 136.598 217.773C136.739 217.75 139.568 216.963 139.243 216.809C138.831 216.615 137.924 216.725 137.56 216.736C134.635 216.82 131.72 217.153 128.817 217.517C121.959 218.377 115.118 219.327 108.212 219.677C102.036 219.99 94.6689 220.1 89.8074 215.464C88.3937 214.116 87.414 212.315 86.4941 210.594C85.7039 209.116 87.8472 209.696 88.7472 209.718C94.7014 209.864 100.744 209.738 106.545 211.313C108.355 211.804 113.54 213.984 111.901 213.051C108.541 211.138 105.525 208.498 102.217 206.466C97.4957 203.567 92.4351 201.186 87.2394 199.333C87.0257 199.256 84.8367 198.253 84.5399 198.688C83.0294 200.9 88.0388 205.015 89.0288 205.884C94.0337 210.281 99.8998 213.466 106.161 215.513C107.049 215.804 114.322 218.532 112.603 214.997C109.956 209.555 102.504 206.661 97.3438 204.723C94.4072 203.62 91.3404 202.997 88.3239 202.187" stroke="#FFEFE8" stroke-width="8.55886" stroke-linecap="round"/>
<path d="M74.7101 196.994C76.7972 197.045 76.2241 199.099 77.6348 199.981C80.0015 201.46 81.9375 199.28 81.6538 196.811C81.5251 195.692 78.0211 195.962 77.2376 196.025C75.8221 196.14 74.9734 197.04 74.172 195.626C72.3674 192.443 71.287 189.143 71.3762 185.516" stroke="#FFEFE8" stroke-width="8.55886" stroke-linecap="round"/>
<path d="M89.9258 234.617C89.9173 234.961 89.6842 236.761 90.0249 236.869C91.333 237.285 93.1066 236.678 94.4643 236.711C96.2714 236.756 98.0785 236.8 99.8857 236.845" stroke="#F8DFD4" stroke-width="8.55886" stroke-linecap="round"/>
<path d="M100.98 248.328C101.663 248.733 102.383 249.065 103.125 249.353C103.858 249.45 104.591 249.555 105.333 249.661L105.352 249.663C108.745 250.147 112.424 250.37 114.15 253.908C115.536 256.747 113.564 256.399 111.122 256.383C107.422 256.359 103.716 257.387 100.052 257.81C96.1628 258.259 92.4479 259.039 88.5091 258.942C85.58 258.87 82.6526 259.081 79.7131 259.009L76.4539 258.929C76.3217 258.925 75.7283 259.033 75.9148 258.852C77.124 257.68 78.425 256.699 79.7841 255.814C81.8598 254.462 84.071 253.333 86.2975 252.09C88.4031 250.914 90.2654 250.135 92.5191 249.237C94.1584 248.585 96.229 247.319 98.0232 247.28C99.3703 247.251 99.8436 247.655 100.98 248.328Z" fill="#F879C6"/>
<path d="M94.0689 247.183C91.3047 247.115 89.8311 247.278 87.606 249.164C86.3364 250.24 85.2548 251.458 84.0747 252.602C82.8076 253.83 81.0461 254.361 79.8557 255.724C79.0393 256.658 81.5783 256.228 82.0846 256.219C85.172 256.167 88.2819 255.634 91.363 255.393C94.3089 255.162 97.3359 255.038 100.291 254.968C102.521 254.914 104.63 253.998 106.853 254.012C108.428 254.021 110.005 254.089 111.579 254.128C112.831 254.159 114.753 254.533 112.948 253.171C109.513 250.58 104.691 250.528 100.98 248.328C99.8436 247.655 99.3703 247.251 98.0232 247.28C96.229 247.319 94.1584 248.585 92.5191 249.237C90.2654 250.135 88.4031 250.914 86.2975 252.09C82.6131 254.147 78.9707 255.891 75.9148 258.852C75.7283 259.033 76.3217 258.925 76.4539 258.929C77.5403 258.955 78.6267 258.982 79.7131 259.009C82.6526 259.081 85.58 258.87 88.5091 258.942C92.4479 259.039 96.1628 258.259 100.052 257.81C103.716 257.387 107.422 256.359 111.122 256.383C113.564 256.399 115.536 256.747 114.15 253.908C112.424 250.37 108.745 250.147 105.352 249.663C103.601 249.414 101.901 249.171 100.144 249.016C99.4141 248.951 98.0072 248.869 97.6625 248.121" stroke="#FBF9BC" stroke-width="8.55886" stroke-linecap="round"/>
<path d="M68.4747 303.736L68.7022 294.491C68.2488 294.33 68.0316 294.181 68.7105 294.155C68.8408 294.15 69.0041 294.15 69.2051 294.155L73.3139 294.256C74.1545 294.277 75.5644 294.592 76.3738 294.268C76.6938 294.14 75.8129 293.849 75.4907 293.727C74.2146 293.246 72.9206 292.779 71.5789 292.53C71.3531 292.488 71.1252 292.437 70.8961 292.387C69.465 292.225 68.6272 292.116 69.6555 292.183C70.0683 292.21 70.484 292.297 70.8961 292.387C72.6109 292.58 75.1775 292.849 76.4055 292.979C84.6107 293.846 93.4227 295.298 101.682 293.963C104.303 293.539 106.859 292.811 109.466 292.313C112.917 291.655 115.982 290.52 119.348 289.567C121.166 289.052 122.713 287.978 124.458 287.301C125.78 286.788 125.432 288.013 125.139 289.046L125.125 289.095C124.906 289.867 124.648 290.632 124.358 291.391C125.632 291.41 126.75 291.624 126.607 292.326C126.357 293.551 125.896 294.735 125.422 295.885C124.808 297.37 124.683 298.917 124.32 300.468C123.697 303.128 123.008 305.799 121.932 308.309C121.593 309.1 121.201 310.085 120.717 310.998C121.322 310.844 121.904 310.747 122.428 310.76C123.243 310.78 121.89 311.072 120.555 311.293C119.927 312.404 119.148 313.358 118.138 313.644C115.465 314.401 112.793 315.21 110.013 315.332C107.323 315.451 104.645 315.415 101.96 315.354C98.4129 316.336 94.8415 317.162 91.2374 317.073C87.2644 316.976 83.6629 316.435 79.7924 315.501C77.0045 314.829 74.2964 313.898 71.5187 313.189C70.3438 312.889 69.1998 312.905 68.7117 311.688C67.788 309.384 68.4152 306.152 68.4747 303.736Z" fill="#F879C6"/>
<path d="M68.7247 293.577C68.6414 296.963 68.5581 300.349 68.4747 303.736C68.4152 306.152 67.788 309.384 68.7117 311.688C69.1998 312.905 70.3438 312.889 71.5187 313.189C74.2964 313.898 77.0045 314.829 79.7924 315.501C83.6629 316.435 87.2644 316.976 91.2374 317.073C98.2897 317.247 105.216 313.918 112.085 312.771C114.357 312.392 116.591 311.725 118.885 311.522C120.088 311.416 123.634 310.79 122.428 310.76C120.661 310.716 118.225 311.928 116.501 312.329C112.951 313.155 109.328 313.55 105.744 314.189C104.199 314.464 102.631 314.584 101.092 314.83C100.58 314.911 98.1622 315.261 99.9671 315.306C103.322 315.388 106.658 315.48 110.013 315.332C112.793 315.21 115.465 314.401 118.138 313.644C120.049 313.103 121.134 310.169 121.932 308.309C123.008 305.799 123.697 303.128 124.32 300.468C124.683 298.917 124.808 297.37 125.422 295.885C125.896 294.735 126.357 293.551 126.607 292.326C126.906 290.861 121.712 291.523 121.075 291.639C118.748 292.064 116.566 293.131 114.227 293.564C111.668 294.037 109.078 294.311 106.503 294.664C103.587 295.063 100.746 295.882 97.8389 296.276C94.3714 296.746 90.7459 296.821 87.253 296.849C84.4449 296.872 81.6262 296.727 78.8188 296.657C75.7121 296.581 72.9519 295.66 69.9913 294.867C69.2424 294.666 67.0422 294.102 69.2051 294.155C70.5747 294.189 71.9443 294.222 73.3139 294.256C74.1545 294.277 75.5644 294.592 76.3738 294.268C76.6938 294.14 75.8129 293.849 75.4907 293.727C74.2146 293.246 72.9206 292.779 71.5789 292.53C70.9469 292.412 70.2978 292.225 69.6555 292.183C67.395 292.035 74.1526 292.741 76.4055 292.979C84.6107 293.846 93.4227 295.298 101.682 293.963C104.303 293.539 106.859 292.811 109.466 292.313C112.917 291.655 115.982 290.52 119.348 289.567C121.166 289.052 122.713 287.978 124.458 287.301C125.801 286.78 125.421 288.052 125.125 289.095C123.694 294.141 120.577 298.922 117.851 303.314C117.161 304.426 116.283 305.515 115.727 306.708C115.28 307.667 115.817 304.586 115.96 303.535C116.286 301.143 116.828 298.783 117.892 296.612C118.257 295.869 119.602 293.792 119.089 294.439C114.879 299.753 109.277 304.322 104.344 308.914C103.935 309.295 99.7935 313.316 102.288 310.799C104.387 308.682 106.569 306.651 108.701 304.568C108.872 304.402 111.6 301.924 111.523 301.711C110.952 300.146 95.0784 309.013 93.61 309.846C91.7881 310.88 89.8803 311.809 88.0943 312.905C88.0914 312.906 87.5932 313.364 87.7811 313.07C88.2404 312.351 88.8911 311.726 89.4977 311.145C91.9679 308.782 94.6628 306.705 97.4152 304.7C98.5155 303.898 101.905 301.817 100.585 302.118C97.7732 302.761 94.8298 304.565 92.2567 305.8C88.5158 307.595 84.9212 309.701 81.1744 311.476C80.0091 312.027 79.8211 311.808 80.682 310.755C82.7363 308.244 85.5611 306.426 88.1604 304.566C90.3868 302.973 88.9418 304.007 90.8355 302.634C91.219 302.356 92.4079 302.005 91.9843 301.797C90.2087 300.921 86.384 302.859 84.865 303.447C81.9701 304.566 79.0439 305.613 76.1592 306.757C76.1449 306.763 73.9685 307.849 73.9792 307.412C73.9928 306.86 75.7793 305.233 75.3406 304.849C74.1837 303.836 71.1809 305.302 69.771 304.444C69.258 304.132 69.2802 303.406 69.3305 302.876C69.4112 302.025 71.0067 302.413 71.5054 302.426C77.349 302.569 83.0247 303.165 88.5794 305.127C93.1002 306.724 97.1359 307.577 101.961 307.141C105.745 306.799 109.336 306.189 113.141 306.283C113.373 306.288 115.648 306.233 114.864 306.608" stroke="#FBF9BC" stroke-width="8.55886" stroke-linecap="round"/>
<path d="M102.503 300.072C105.065 300.135 106.69 300.164 108.932 298.814" stroke="#FBF9BC" stroke-width="8.55886" stroke-linecap="round"/>
<path d="M61.3609 276.117C61.2203 281.83 61.0797 287.544 60.9391 293.258C60.8577 296.565 60.258 300.447 60.8203 303.735C61.1906 305.901 61.5659 308.088 61.8965 310.245C61.9899 310.854 62.2305 312.665 61.9056 313.014C60.8137 314.19 57.3681 313.69 55.8313 313.652C53.6816 313.599 51.946 313.825 50.1563 312.505C48.5742 311.339 48.1628 309.58 48.0806 307.67C48.0203 306.27 47.8555 304.884 47.8901 303.48C47.9452 301.241 48.5778 299.508 49.3686 297.411C50.565 294.238 52.1954 291.148 53.3397 288.036C53.7601 286.892 54.9904 285.689 55.9631 285.063C56.562 284.678 57.4352 282.807 57.2393 284.701C56.8763 288.213 55.1282 291.894 53.9363 295.194C52.9398 297.953 52.401 301.054 52.3286 303.998C52.2762 306.124 53.67 309.817 55.8902 310.632C56.2322 310.757 56.5375 302.542 56.5626 301.522C56.5954 300.19 56.6281 298.859 56.6609 297.527" stroke="#FBF9BC" stroke-width="8.55886" stroke-linecap="round"/>
<path d="M55.8458 316.831C55.9869 316.982 54.0846 317.517 54.08 317.706" stroke="#FBF9BC" stroke-width="8.55886" stroke-linecap="round"/>
<path d="M40.0289 317.794C39.9634 320.456 37.4296 323.77 41.2464 324.842C42.7303 325.259 44.0714 323.059 43.8117 321.711C43.6675 320.963 42.1903 320.695 41.9193 320.107" stroke="#F8DFD4" stroke-width="8.55886" stroke-linecap="round"/>
<path d="M149.515 305.304C149.844 306.329 149.975 307.509 149.849 308.645C151.388 308.538 151.046 305.905 151.087 304.226C151.174 300.695 150.137 296.985 148.84 293.785C148.291 292.429 147.289 291.047 146.306 289.978C144.013 287.479 142.13 284.607 139.822 282.139C138.661 280.897 137.27 279.73 135.855 278.8C135.739 278.723 134.135 277.546 134.417 278.198C134.95 279.428 136.174 280.282 136.841 281.436C137.604 282.755 138.328 284.173 138.81 285.607C138.953 286.035 139.237 286.837 139.482 287.166C139.986 287.841 140.677 289.224 140.847 290.111C141.124 291.549 142.147 292.501 143.158 293.582C146.037 296.662 148.223 301.281 149.515 305.304Z" fill="#F879C6"/>
<path d="M131.018 271.883C130.989 273.036 130.961 274.189 130.933 275.343C130.876 277.659 131.877 280.148 132.491 282.368C133.666 286.616 134.272 290.755 134.061 295.184C133.832 299.994 132.782 304.683 132.319 309.46C132.301 309.643 132.215 310.221 132.358 310.374C132.742 310.784 134.939 310.5 135.353 310.511C137.562 310.565 139.844 310.845 141.842 311.866C143.948 312.942 145.99 313.956 147.981 312.379C149.983 310.793 150.266 307.643 149.515 305.304C148.223 301.281 146.037 296.662 143.158 293.582C142.147 292.501 141.124 291.549 140.847 290.111C140.677 289.224 139.986 287.841 139.482 287.166C139.237 286.837 138.953 286.035 138.81 285.607C138.328 284.173 137.604 282.755 136.841 281.436C136.174 280.282 134.95 279.428 134.417 278.198C134.135 277.546 135.739 278.723 135.855 278.8C137.27 279.73 138.661 280.897 139.822 282.139C142.13 284.607 144.013 287.479 146.306 289.978C147.289 291.047 148.291 292.429 148.84 293.785C150.137 296.985 151.174 300.695 151.087 304.226C151.035 306.329 151.585 309.931 148.285 308.185C145.645 306.789 143.591 303.769 141.915 301.372C140.471 299.308 139.13 297.117 138.151 294.781C138.092 294.64 137.364 292.563 137.601 293.886C137.89 295.495 138.525 297.126 138.982 298.688C139.546 300.612 139.988 302.547 140.494 304.484C140.624 304.986 140.895 305.696 140.729 306.237C140.565 306.769 137.429 304.762 137.059 304.636C134.979 303.928 139.875 308.922 142.068 308.976" stroke="#FBF9BC" stroke-width="8.55886" stroke-linecap="round"/>
<path d="M160.906 312.272C160.846 314.712 160.947 319.07 157.403 318.983" stroke="#F8DFD4" stroke-width="8.55886" stroke-linecap="round"/>
<path d="M94.1694 357.229C94.0329 356.912 93.8234 356.555 93.6723 356.22C93.0616 354.868 92.0217 352.953 92.0588 351.444C92.1026 349.666 92.2197 348.002 92.5107 346.337C92.1273 346.31 91.7499 346.264 91.3845 346.188C91.1056 346.129 91.7726 345.816 92.6808 345.458C92.8287 344.763 93.01 344.064 93.2317 343.354C93.6766 341.927 94.8383 340.557 95.1283 339.136C95.2491 338.544 94.9932 339.115 94.7993 339.317C93.788 340.369 92.8304 341.488 91.8597 342.58C89.8802 344.807 88.3476 346.981 87.369 349.834C87.0431 350.784 86.8693 351.797 86.4787 352.723C85.942 353.996 86.4802 350.043 86.6801 348.575L86.691 348.496C87.1137 345.389 90.1895 336.469 89.1706 339.43C88.8171 340.457 85.0411 348.01 83.75 347.416C83.2049 347.165 82.7448 346.032 82.4186 344.567C81.7918 344.251 81.1815 343.876 80.5952 343.467C80.4749 343.61 80.3505 343.747 80.2223 343.876C80.9578 345.318 81.5672 346.83 81.9192 348.331C82.1891 349.482 82.2211 350.821 80.7609 350.804C77.6284 350.768 74.9145 348.278 73.1237 345.864C72.3091 344.766 70.8382 342.502 71.2499 340.987C71.5861 339.751 74.4063 340.075 75.5603 340.181C75.5709 339.728 75.606 339.302 75.6591 338.933C74.1736 337.224 72.6278 334.95 73.0974 333.118C73.694 330.789 79.252 331.245 80.8543 331.31C81.2877 331.328 81.7193 331.354 82.1491 331.388C81.1311 331.013 80.2336 330.661 79.5638 330.366C78.9469 330.094 70.9069 325.475 74.7317 325.746C75.8768 325.828 76.9536 325.996 77.9994 326.3C76.6547 325.788 75.3 325.302 73.9845 324.705C73.6022 324.532 73.303 324.412 73.1125 324.341C72.7831 324.237 72.8157 324.23 73.1125 324.341C73.2826 324.395 73.5492 324.475 73.9258 324.578C82.522 326.933 91.8174 327.69 100.709 327.786C106.426 327.848 112.44 325.987 117.856 324.4C119.802 323.83 121.788 322.739 123.777 322.422C124.58 322.293 124.67 328.448 124.74 329.149C125.34 335.176 126.148 341.18 126.769 347.2C126.787 347.372 126.733 347.665 126.623 348.05C127.549 349.823 127.797 350.555 126.928 348.904C126.809 348.678 126.69 348.452 126.571 348.226C125.644 351.237 121.782 358.938 120.496 359.694C116.838 361.847 112.783 363.596 108.486 363.49C107.278 363.46 111.75 357.832 110.543 357.769C109.145 357.696 107.904 357.035 106.532 356.82C106.365 356.794 106.124 356.766 105.859 356.726C102.837 357.381 99.8045 357.806 96.6287 357.93C96.4186 357.938 94.8941 358.093 94.3052 357.8C94.0784 357.688 93.9903 357.509 94.1694 357.229Z" fill="#F879C6"/>
<path d="M69.0617 325.025C68.9936 327.792 68.9254 330.56 68.8573 333.328C68.7872 336.176 68.2615 339.447 68.9163 342.236C69.6042 345.166 71.3063 348.236 73.1628 350.554C75.2066 353.107 77.9436 354.206 80.929 355.277C85.0279 356.748 89.157 358.092 93.5 358.199C94.9491 358.235 94.0886 357.142 93.6723 356.22C93.0616 354.868 92.0217 352.953 92.0588 351.444C92.1285 348.613 92.3842 346.07 93.2317 343.354C93.6766 341.927 94.8383 340.557 95.1283 339.136C95.2491 338.544 94.9932 339.115 94.7993 339.317C93.788 340.369 92.8304 341.488 91.8597 342.58C89.8802 344.807 88.3476 346.981 87.369 349.834C87.0431 350.784 86.8693 351.797 86.4787 352.723C85.9319 354.02 86.5008 349.893 86.691 348.496C87.1137 345.389 90.1895 336.469 89.1706 339.43C88.8171 340.457 85.0411 348.01 83.75 347.416C81.9712 346.597 81.0978 336.379 82.8274 335.922C83.1646 335.833 82.537 339.711 82.4823 339.895C81.9782 341.583 80.8032 343.721 79.2587 344.646C75.673 346.794 75.2659 341.141 75.6956 338.705C75.8923 337.589 78.1016 340.325 78.1426 340.386C79.7286 342.726 81.2664 345.547 81.9192 348.331C82.1891 349.482 82.2211 350.821 80.7609 350.804C77.6284 350.768 74.9145 348.278 73.1237 345.864C72.3091 344.766 70.8382 342.502 71.2499 340.987C71.6164 339.639 74.935 340.146 75.8287 340.203C79.068 340.411 82.3398 341.711 84.6515 344.071C84.9067 344.331 86.51 345.634 85.5581 345.541C82.4704 345.24 79.4742 342.813 77.3463 340.712C75.8289 339.214 72.4305 335.72 73.0974 333.118C73.694 330.789 79.252 331.245 80.8543 331.31C84.9855 331.479 88.9625 332.38 92.6835 334.229C96.7741 336.262 83.7414 332.206 79.5638 330.366C78.9469 330.094 70.9069 325.475 74.7317 325.746C76.7262 325.888 78.5134 326.295 80.2904 327.221C81.0609 327.622 81.372 327.718 80.3359 327.253C78.251 326.318 76.0685 325.65 73.9845 324.705C72.6988 324.122 72.352 324.147 73.9258 324.578C82.522 326.933 91.8174 327.69 100.709 327.786C106.426 327.848 112.44 325.987 117.856 324.4C119.802 323.83 121.788 322.739 123.777 322.422C124.58 322.293 124.67 328.448 124.74 329.149C125.34 335.176 126.148 341.18 126.769 347.2C126.919 348.651 121.983 358.819 120.496 359.694C116.838 361.847 112.783 363.596 108.486 363.49C107.278 363.46 111.75 357.832 110.543 357.769C109.145 357.696 107.904 357.035 106.532 356.82C105.999 356.737 104.709 356.63 104.306 356.199C103.859 355.721 105.604 356.231 106.253 356.247C108.029 356.291 110.046 356.986 111.81 356.541C114.077 355.968 116.417 354.697 118.481 353.605C119.142 353.256 121.237 352.535 120.499 352.632C117.347 353.047 114.143 354.486 111.112 355.375C106.291 356.789 101.639 357.735 96.6287 357.93C96.3181 357.942 93.1348 358.275 94.3484 357.008C95.9674 355.319 99.1239 354.517 101.198 353.762C104.225 352.66 107.321 351.762 110.404 350.842C110.723 350.746 117.354 348.949 117.317 348.809C117.17 348.262 116.224 348.578 115.67 348.516C111.697 348.073 107.732 347.569 103.756 347.153C101.078 346.873 98.3935 346.603 95.7064 346.42C94.3102 346.325 92.7624 346.475 91.3845 346.188C90.6989 346.045 95.7293 344.357 96.0066 344.272C101.108 342.691 106.199 341.079 111.302 339.502C111.647 339.396 112.664 339.211 112.316 339.118C110.213 338.56 107.61 338.665 105.483 338.541C99.1166 338.17 92.7381 338.07 86.3641 337.913C85.4888 337.892 82.8719 337.979 83.7382 337.848C86.0951 337.494 88.4237 337.045 90.7564 336.542C96.3478 335.337 102.039 334.28 107.571 332.817C107.739 332.773 110.257 332.197 108.853 332.235C105.827 332.319 102.9 333.352 99.9263 333.841C99.2174 333.957 96.5794 334.463 98.8736 334.539C103.742 334.7 108.608 334.604 113.477 334.631C115.428 334.642 117.547 334.343 115.941 336.879C113.7 340.416 110.528 343.589 107.589 346.524C107.176 346.937 103.966 349.189 105.843 348.4C107.659 347.638 109.482 346.791 111.266 345.953C112.65 345.304 107.482 345.514 107.058 345.503C103.526 345.417 99.6191 344.956 96.264 346.371C94.7679 347.002 95.4621 347.59 96.7045 347.939C99.5622 348.742 102.547 349.45 105.482 349.871C105.792 349.915 108.067 350.06 107.889 350.056C105.387 349.994 102.884 349.917 100.382 349.871C100.066 349.865 98.2066 349.641 97.905 350.03C97.6783 350.323 98.632 349.94 98.9909 349.868C100.211 349.623 101.733 349.276 102.908 348.958C107.227 347.789 111.403 346.122 115.51 344.342C116.245 344.024 117.543 343.82 116.596 342.937C114.959 341.413 112.966 340.249 111.495 338.547C111.312 338.336 109.642 336.428 110.729 337.632C112.974 340.117 114.992 342.878 117.485 345.115C117.706 345.313 119.885 347.392 119.867 346.92C119.755 343.979 117.652 340.905 116.54 338.278C116.474 338.122 114.936 335.457 115.911 335.572C121.58 336.238 129.622 354.023 126.928 348.904C124.016 343.37 121.048 337.861 118.124 332.338C117.943 331.995 116.91 332.15 116.645 332.144C114.399 332.089 112.134 331.937 109.891 332.119C107.689 332.298 109.605 331.566 110.642 331.146C113.05 330.171 115.559 329.542 117.94 328.493" stroke="#F0F0F1" stroke-width="8.55886" stroke-linecap="round"/>
<path d="M80.2463 367.787C80.2859 366.178 80.1671 371.006 80.1275 372.615C80.1021 373.649 79.3674 377.282 80.0519 378.199C80.7355 379.115 82.5675 379.699 83.5729 380.19C84.8992 380.837 85.9225 381.916 87.2399 382.53C87.4118 382.61 86.6179 379.778 86.5126 379.428C86.054 377.901 85.8558 376.34 85.5761 374.779C85.2074 372.72 84.4433 370.761 83.9628 368.744C83.2204 365.629 81.8713 364.712 78.9329 364.64" stroke="#F8DFD4" stroke-width="8.55886" stroke-linecap="round"/>
<path d="M109.964 369.934C109.901 372.482 109.839 375.029 109.776 377.577C109.745 378.823 109.292 381.017 109.8 382.235C110.135 383.037 110.382 382.218 110.845 381.851C112.463 380.569 114.268 379.379 116.092 378.424C118.657 377.081 117.507 377.767 120.279 377.835C121.063 377.854 120.391 373.269 122.284 372.361C118.63 374.113 121.725 369.091 120.495 369.06C118.558 369.013 115.919 368.662 114.16 369.613C112.848 370.322 112.887 375.484 112.925 373.972" stroke="#F8DFD4" stroke-width="8.55886" stroke-linecap="round"/>
<path d="M116.178 377.451C116.196 376.734 116.146 375.931 116.06 375.528C115.968 375.098 115.963 374.247 115.944 373.48" stroke="#F8DFD4" stroke-width="8.55886" stroke-linecap="round"/>
<path d="M69.432 400.281C68.6423 400.386 67.8511 400.483 67.0618 400.552C66.4739 400.466 66.7098 400.344 68.0157 400.342C68.4874 400.341 68.9597 400.316 69.432 400.281C71.2702 400.037 73.1004 399.745 74.8799 399.645C75.2239 399.626 75.5932 399.612 75.9796 399.599C78.2005 399.232 80.3917 398.668 82.3882 397.769C82.8224 397.573 84.1173 397.163 84.8581 396.617C85.1287 396.134 85.2174 395.602 84.9584 395.048C84.5294 394.708 83.99 394.166 83.6101 393.743C83.3087 393.578 82.9804 393.443 82.6354 393.331C81.3255 393.687 78.8262 394.109 77.6969 394.364C77.1864 394.48 71.3226 396.244 73.0097 394.737C73.7711 394.057 74.5544 393.492 75.4132 393.122C74.111 393.315 72.8241 393.517 71.5801 393.632C66.392 394.112 73.6201 392.53 74.5426 392.304C76.7052 391.775 79.7945 390.488 82.0608 391.34C83.8504 392.014 85.0308 393.156 85.5978 394.952C85.7768 395.52 85.485 395.445 85.0469 395.116C85.1309 395.25 85.2125 395.382 85.2927 395.511C85.5443 395.917 85.2996 396.291 84.8581 396.617C84.422 397.394 83.5133 398.042 82.8249 398.44C81.0583 399.463 78.2296 399.521 75.9796 399.599C74.4286 399.855 72.8631 400.014 71.3394 400.125C70.705 400.171 70.0686 400.235 69.432 400.281Z" fill="#28D0D9"/>
<path d="M78.9344 388.148C77.0283 388.101 75.0569 387.843 73.2297 388.432C68.9473 389.814 65.5795 392.882 61.9238 395.314C59.7188 396.78 58.3596 399.81 62.1373 400.449C66.2989 401.153 70.7274 399.879 74.8799 399.645C77.2267 399.513 80.755 399.638 82.8249 398.44C84.0752 397.717 86.0519 396.171 84.6049 394.519C83.2187 392.936 80.2053 392.855 78.224 392.678C76.1205 392.49 74.5217 393.386 73.0097 394.737C71.3226 396.244 77.1864 394.48 77.6969 394.364C79.5254 393.95 84.9455 393.102 83.0933 392.798C79.3623 392.186 75.281 393.289 71.5801 393.632C66.392 394.112 73.6201 392.53 74.5426 392.304C76.7052 391.775 79.7945 390.488 82.0608 391.34C83.8504 392.014 85.0308 393.156 85.5978 394.952C86.114 396.588 82.716 392.889 83.1822 393.13C84.151 393.631 84.7537 394.642 85.2927 395.511C85.9665 396.598 83.0811 397.456 82.3882 397.769C78.9973 399.297 75.045 399.856 71.3394 400.125C70.2343 400.205 69.123 400.34 68.0157 400.342C66.1732 400.345 66.4607 400.587 68.1867 400.629C72.1999 400.728 77.158 401.678 80.9713 400.094C81.7495 399.771 83.5237 399.473 83.918 398.75" stroke="#28D0D9" stroke-width="8.55886" stroke-linecap="round"/>
<path d="M110.561 390.909C110.497 393.494 110.243 396.365 111.482 398.705C111.997 399.678 115.923 399.811 116.801 399.843C120.257 399.968 123.661 400.16 127.072 399.529C131.08 398.787 134.182 398.056 137.417 395.551C137.915 395.165 139.653 394.304 139.706 393.609C139.819 392.128 140.045 390.355 138.854 389.276C136.669 387.298 132.511 388.05 129.798 387.983C125.986 387.889 121.709 388.137 118.53 390.538C117.177 391.56 114.745 393.283 114.628 395.195C114.482 397.591 123.034 396.876 124.328 396.724C126.2 396.504 134.684 394.968 134.418 391.811C134.315 390.595 130.063 390.816 129.296 390.803C126.317 390.753 123.523 391.494 120.869 392.846C119.839 393.371 118.485 393.975 117.862 395.038C117.285 396.026 120.901 395.698 121.293 395.705C122.925 395.734 125.758 396.124 127.226 395.143C127.605 394.889 127.433 394.577 127.166 394.433" stroke="#28D0D9" stroke-width="8.55886" stroke-linecap="round"/>
<path d="M45.7307 182.988C37.9312 178.246 42.5714 192.029 43.4167 193.999C47.0306 202.798 52.5745 210.994 59.5636 217.536C78.9042 235.821 110.496 238.808 134.026 226.908C149.027 219.218 157.315 204.082 158.621 187.345C158.979 183.194 152.599 183.037 152.241 187.188C150.032 214.692 128.421 226.38 103.886 227.206C82.4169 227.978 63.5258 217.373 52.7539 198.519C51.1654 195.62 49.7045 192.724 48.5052 189.575C48.1447 188.656 48.0631 187.023 47.5719 186.231C46.2226 183.988 49.3411 186.736 45.599 188.333C44.5782 188.308 44.7247 189.295 43.7038 189.269C47.2288 191.306 49.2556 185.024 45.7307 182.988Z" fill="#F879C6"/>
<path d="M27.119 171.37C31.5912 176.42 37.6202 180.468 43.8185 182.831C56.0873 187.552 68.0408 184.337 78.1954 176.397C76.6641 176.36 75.1329 176.322 73.7292 176.287C86.964 193.642 111.965 189.448 128.529 180.496C127.256 180.335 125.986 180.043 124.713 179.882C129.964 184.431 136.778 187.719 143.518 188.794C157.765 190.965 168.338 181.606 175.018 169.551C177.022 165.96 171.618 162.447 169.611 166.168C163.862 176.686 154.847 185.043 142.412 181.878C139.113 181.016 135.955 179.639 132.934 177.874C131.926 177.33 131.049 176.658 130.044 175.983C129.795 175.717 128.417 174.643 129.291 175.445C128.165 174.507 126.771 174.083 125.476 174.831C111.372 182.414 89.9439 186.696 78.4381 171.723C77.3248 170.266 75.1459 170.602 73.9719 171.613C60.4325 182.2 43.1328 179.564 31.8278 166.806C28.9664 163.746 24.3884 168.183 27.119 171.37Z" fill="#F879C6"/>
<path d="M172.408 171.565C176.491 171.666 176.65 165.17 172.567 165.07C168.484 164.97 168.325 171.465 172.408 171.565Z" fill="#F879C6"/>
<path d="M171.76 165.372C133.169 171.832 93.484 170.855 54.8075 165.223C48.8261 164.426 42.9787 163.372 37.0069 162.185C33.702 161.584 29.6091 161.873 29.7018 158.106C29.8713 151.22 33.5244 142.86 36.3544 136.82C47.8051 112.533 70.4875 98.7925 96.3434 96.179C121.175 93.6704 143.789 103.456 157.301 125.108C162.459 133.425 166.191 142.616 168.51 152.163C169.323 155.432 170.006 158.829 170.175 162.343C170.277 163.385 169.989 164.678 170.216 165.854C170.436 167.289 169.176 166.608 171.115 165.616C167.491 167.607 170.544 173.272 174.168 171.281C178.178 169.17 176.587 161.201 176.035 157.677C174.724 148.676 171.879 139.766 167.997 131.481C157.328 108.469 137.432 91.9906 112.211 89.5499C82.6584 86.7427 51.5765 99.367 35.4906 125.23C30.3062 133.552 26.6306 142.821 24.48 152.387C23.7652 155.49 22.3805 159.875 23.583 162.895C25.3851 167.489 31.6377 167.643 35.8294 168.526C80.9433 177.176 128.007 179.244 173.524 171.525C177.237 171.096 175.735 164.69 171.76 165.372Z" fill="#F879C6"/>
<path d="M95.2663 94.7897C96.0735 93.1196 97.2603 91.5889 98.6895 90.5841C102.853 87.4368 106.981 90.9182 109.963 94.2415C112.824 97.3017 117.403 92.8646 114.541 89.8044C110.066 84.8845 103.654 80.8268 97.063 84.0444C94.0897 85.5312 91.3365 88.4533 89.8561 91.5367C87.9833 95.0004 93.3871 98.5132 95.2663 94.7897Z" fill="#F879C6"/>
<path d="M125.858 154.041C127.542 153.043 124.971 153.759 123.564 153.855C121.009 153.922 118.584 153.862 116.032 153.799C108.628 153.747 101.355 153.568 93.9536 153.386C83.7453 153.135 73.537 152.883 63.4563 152.635C64.442 154.09 65.4308 155.414 66.4165 156.868C69.0456 148.613 77.7293 143.367 85.6791 142.003C94.5254 140.531 104.574 142.078 112.785 145.66C114.552 146.483 126.155 152.359 124.677 155.312C122.798 159.036 128.205 162.419 130.084 158.695C132.774 153.172 128.177 147.989 124.043 144.767C115.15 137.789 103.088 135.022 92.1076 135.011C79.0856 134.951 64.7521 141.488 60.3362 154.898C59.6471 156.961 61.2548 159.081 63.2964 159.131C74.2704 159.401 85.3687 159.804 96.3458 159.945C103.619 160.124 110.893 160.303 118.169 160.352C121.104 160.424 126.062 161.326 128.78 159.833C132.534 157.715 129.482 152.051 125.858 154.041Z" fill="#F879C6"/>
<path d="M92.087 172.057C92.1925 167.77 92.2949 163.613 92.6556 159.332C92.6716 158.682 92.946 157.909 92.8343 157.256C92.8279 157.516 92.5695 157.64 92.8247 157.646C92.6971 157.643 94.136 156.248 92.6908 157.903C92.2824 158.933 91.3859 159.041 89.7463 158.22C87.4686 157.384 86.5754 157.362 87.0666 158.154C89.0187 161.842 94.5856 158.729 92.6335 155.042C90.6814 151.354 86.9105 154.121 86.4541 157.099C85.8222 162.024 85.8251 167.093 85.7068 171.9C85.6045 176.057 91.9847 176.214 92.087 172.057Z" fill="#F879C6"/>
<path d="M108.68 172.467C108.935 167.274 109.063 162.077 109.319 156.884C109.421 152.727 103.041 152.57 102.939 156.727C102.683 161.92 102.555 167.117 102.3 172.31C102.067 176.594 108.447 176.751 108.68 172.467Z" fill="#F879C6"/>
<path d="M173.59 165.357C182.283 164.921 191.209 165.401 199.72 167.17C205.309 168.348 211.912 169.81 216.282 173.817C219.029 176.355 218.515 176.472 215.424 177.566C206.916 180.867 196.455 180.479 187.52 180.389C180.626 180.35 173.595 180.696 168.718 176.547C165.592 173.87 160.886 178.304 164.14 180.984C169.518 185.536 173.588 186.156 180.6 186.589C190.289 187.217 200.251 187.072 209.866 185.489C214.993 184.705 224.739 182.995 224.784 175.977C224.756 166.746 209.791 162.608 203.06 161.143C193.534 159.088 183.594 158.324 173.877 158.865C169.657 159.151 169.497 165.646 173.59 165.357Z" fill="#F879C6"/>
<path d="M158.52 186.174C162.227 186.005 170.78 186.085 171.165 191.165C171.854 199.501 159.444 200.496 153.993 198.932C150.062 197.795 148.25 203.99 152.18 205.127C161.942 207.967 176.84 204.434 177.526 192.101C178.159 181.977 166.48 179.22 158.68 179.678C154.587 179.967 154.3 186.46 158.52 186.174Z" fill="#F879C6"/>
<path d="M41.2733 182.246C33.0971 182.435 23.9125 187.279 26.9936 196.974C30.0651 207.059 41.6547 208.254 50.1565 205.214C54.0197 203.879 52.5176 197.472 48.6511 198.937C44.0126 200.643 36.4552 201.627 33.6482 196.358C30.5988 190.563 37.1513 188.905 41.2379 188.875C45.2 188.713 45.3599 182.217 41.2733 182.246Z" fill="#F879C6"/>
<path d="M101.714 232.353C101.509 235.467 101.308 238.452 101.104 241.567C100.874 245.721 107.254 245.878 107.484 241.724C107.688 238.609 107.889 235.624 108.093 232.51C108.323 228.356 101.944 228.199 101.714 232.353Z" fill="#F879C6"/>
<path d="M129.017 316.219C138.123 299.024 134.255 274.62 125.594 258.158C116.446 240.773 97.6378 231.991 80.4776 244.438C64.7465 255.88 61.3797 278.546 61.0597 296.737C60.8582 304.922 59.32 315.544 67.1131 320.545C78.5524 327.846 95.7217 325.409 108.272 323.898C114.543 323.272 125.16 322.494 129.017 316.219C131.148 312.632 125.741 309.249 123.61 312.836C121.747 315.91 113.682 316.752 110.094 317.313C98.8164 318.986 84.9872 320.595 73.9752 316.684C71.822 315.981 69.9303 315.025 68.4406 313.298C67.6942 312.5 68.3194 313.035 68.0802 312.379C68.195 312.902 67.8697 310.554 67.8921 309.645C67.7041 306.91 67.6436 304.179 67.5799 301.578C67.4404 286.495 68.8897 269.111 77.8834 256.463C82.7742 249.694 90.8135 244.692 99.2322 245.029C107.523 245.364 113.887 251.37 118.19 258.105C127.281 272.628 132.046 296.925 123.607 312.966C121.603 316.557 127.01 319.939 129.017 316.219Z" fill="#F879C6"/>
<path d="M41.8543 309.005C39.0343 309.455 36.0674 310.682 33.9746 312.711C29.7921 316.637 30.6691 322.509 33.4921 327.128C36.4394 331.88 41.47 334.994 46.6637 331.482C49.519 329.602 51.7682 326.408 53.2486 323.324C55.0001 319.598 49.5963 316.085 47.8415 319.942C47.0343 321.612 45.9687 323.405 44.6607 324.673C44.0035 325.437 42.9539 326.581 41.8055 326.553C40.2742 326.515 39.1802 324.278 38.5677 323.223C37.2216 320.85 36.6444 318.366 39.1072 316.867C40.4056 315.989 41.6913 315.63 43.3565 315.411C47.459 314.732 45.826 308.453 41.8543 309.005Z" fill="#F879C6"/>
<path d="M110.609 249.6C120.925 261.033 130.979 272.72 140.903 284.534C144.75 289.048 150.977 295.441 153.028 300.301C154.112 302.928 154.897 307.367 154.188 310.209C152.918 315.118 147.92 315.905 143.718 315.411C138.496 314.893 133.328 312.166 129.322 308.947C126.065 306.397 122.737 311.905 125.994 314.455C134.259 321.028 152.363 327.323 159.04 315.398C164.113 306.424 158.863 296.675 153.418 289.651C141.542 274.15 128.367 259.526 115.318 245.036C112.456 241.975 107.878 246.413 110.609 249.6Z" fill="#F879C6"/>
<path d="M146.913 320.69C151.624 326.396 160.199 330.767 165.983 324.019C169.272 320.07 171.082 314.005 168.134 309.253C165.927 305.559 161.633 303.633 157.432 303.14C153.361 302.52 153.201 309.015 157.272 309.636C159.052 309.939 161.33 310.775 162.44 312.363C164.041 314.742 162.391 319.511 159.935 320.751C156.959 322.367 153.099 318.372 151.363 316.25C148.891 312.939 144.31 317.506 146.913 320.69Z" fill="#F879C6"/>
<path d="M120.431 363.926C120.385 370.995 120.466 378.067 120.423 385.011C120.384 386.623 121.748 388.269 123.537 388.189C127.757 387.921 142.319 387.659 140.872 394.569C139.708 400.37 130.15 399.639 125.423 399.77C121.716 399.927 117.888 399.833 114.193 399.494C113.176 399.345 110.748 399.409 109.87 398.767C109.618 398.637 109.694 395.538 109.74 393.679C109.574 384.868 110.176 375.953 110.776 367.161C111.129 363.201 104.748 363.044 104.396 367.004C104.003 372.576 103.608 378.272 103.47 383.85C103.354 388.56 101.309 399.053 105.039 403.114C107.278 405.525 112.002 405.518 115.186 405.844C120.919 406.357 126.795 406.254 132.559 405.527C140.242 404.6 147.586 401.928 147.42 393.118C147.293 382.696 131.233 381.556 123.562 381.988C124.558 383.005 125.679 384.148 126.676 385.165C126.722 378.097 126.641 371.025 126.684 364.08C126.782 360.113 120.401 359.956 120.431 363.926Z" fill="#F879C6"/>
<path d="M72.4852 361.627C72.3924 365.394 72.3029 369.032 72.2102 372.8C72.1143 376.697 71.4823 381.621 72.6657 385.42C73.8458 389.349 80.0123 387.811 78.8322 383.882C77.7669 380.476 78.5232 375.685 78.6128 372.047C78.6959 368.669 78.779 365.292 78.8622 361.914C79.0953 357.63 72.7151 357.473 72.4852 361.627Z" fill="#F879C6"/>
<path d="M84.8281 363.491C86.7352 374.198 89.1207 386.216 87.5793 396.967C87.1037 400.725 86.8358 401.239 83.5053 401.677C81.0744 401.877 78.6403 402.207 76.2094 402.407C71.6029 402.814 66.2244 403.461 61.653 402.439C57.8473 401.435 58.5812 397.553 60.4444 394.479C63.504 389.485 70.6818 388.362 75.9296 387.841C82.9669 387.234 88.508 390.36 87.4229 398.133C86.8102 402.278 93.1904 402.435 93.8031 398.29C97.02 376.531 63.5558 377.007 55.0374 391.097C50.3794 398.781 52.21 407.406 61.4931 408.935C67.4713 409.862 73.6155 409.233 79.5045 408.598C83.6006 408.179 88.9504 408.7 91.7228 404.999C96.0872 398.867 94.3173 387.773 93.5904 380.996C92.9814 374.611 92.1172 368.22 90.9947 361.953C90.2038 357.774 84.034 359.442 84.8281 363.491Z" fill="#F879C6"/>
<path d="M123.164 315.297C124.459 319.748 125.623 324.327 126.66 328.902C128.264 336.351 130.592 345.508 128.745 353.132C127.034 360.37 111.112 364.008 104.917 361.515C99.1018 359.162 100.602 344.9 100.615 339.18C100.717 335.023 94.3371 334.866 94.2348 339.023C94.0525 346.429 92.6736 360.954 99.3183 365.927C107.217 371.841 124.437 367.325 131.226 361.253C137.622 355.561 135.489 343.679 134.392 336.372C133.305 328.676 131.448 321.09 129.206 313.625C128.154 309.7 121.984 311.368 123.164 315.297Z" fill="#F879C6"/>
<path d="M82.0562 211.201C89.5237 219.054 101.03 218.427 109.953 213.837C113.574 211.976 110.522 206.311 106.901 208.172C100.565 211.396 92.1145 212.358 86.6374 206.634C83.7729 203.703 79.1948 208.14 82.0562 211.201Z" fill="#F879C6"/>
<path d="M80.5492 199.984C86.6737 200.135 86.9135 190.392 80.789 190.241C74.6644 190.09 74.4246 199.833 80.5492 199.984Z" fill="#F879C6"/>
<path d="M118.826 200.924C124.95 201.075 125.19 191.332 119.065 191.181C112.941 191.03 112.701 200.773 118.826 200.924Z" fill="#F879C6"/>
<path d="M122.598 380.852C115.8 382.114 103.211 385.184 102.994 394.019C102.879 398.696 109.068 398.693 109.183 394.016C109.237 391.807 115.471 390.296 117.273 389.69C119.589 388.967 121.905 388.244 124.342 387.784C128.828 387.115 127.086 380.052 122.598 380.852Z" fill="#F879C6"/>
<path d="M82.2307 230.309C82.4155 233.173 81.4901 239.65 82.9637 242.026C83.5762 243.081 84.527 240.765 83.6241 241.133C82.8521 241.374 81.9205 242.911 81.3973 243.418C75.2369 249.896 69.3252 256.64 63.5412 263.387C56.4363 271.922 49.3283 280.587 43.8567 290.201C39.9899 296.866 36.104 304.31 40.005 311.816C42.812 317.084 47.0543 326.288 54.3533 325.428C58.3218 325.006 68.2241 322.13 69.864 317.75C67.8352 317.18 65.8095 316.48 63.7806 315.911C61.7032 327.689 58.6398 343.213 63.0798 354.761C65.5964 361.453 72.6942 363.578 79.1796 364.647C85.6651 365.717 94.1985 366.577 100.636 364.395C104.5 363.06 102.994 356.784 99.1309 358.118C94.1096 359.815 87.3594 359.129 82.2648 358.613C75.773 357.804 69.546 356.61 68.3214 349.301C66.526 339.247 68.3386 327.852 69.9884 317.883C70.7288 313.742 65.4078 312.051 63.905 316.044C64.9547 314.899 64.961 314.64 63.6626 315.518C62.3738 316.006 61.2126 316.497 59.9237 316.986C58.3765 317.597 56.1721 318.973 54.6408 318.935C50.5543 318.965 46.0184 311.314 45.0871 307.651C44.1558 303.988 46.2966 300.011 47.9078 296.801C53.4017 286.277 61.167 276.848 68.6674 267.803C74.5855 260.799 80.7555 253.931 87.0499 247.197C91.376 242.623 89.357 236.464 88.9937 230.475C88.3304 226.299 81.9502 226.142 82.2307 230.309Z" fill="#F879C6"/>
</svg>
