<svg width="61" height="65" viewBox="0 0 61 65" fill="none" xmlns="http://www.w3.org/2000/svg">
<g filter="url(#filter0_di_684_2500)">
<rect x="0.0361328" y="0.451904" width="60" height="60" rx="20" fill="#5AA4FF"/>
</g>
<g filter="url(#filter1_di_684_2500)">
<rect x="0.0361328" y="0.451904" width="60" height="60" rx="20" fill="#5AA4FF"/>
</g>
<mask id="path-3-inside-1_684_2500" fill="white">
<path fill-rule="evenodd" clip-rule="evenodd" d="M16.0518 8.58126C16.0518 7.55357 16.8849 6.72046 17.9126 6.72046H42.1597C43.1874 6.72046 44.0205 7.55357 44.0205 8.58126V10.442C44.0205 10.4421 44.0205 10.4421 44.0205 10.4421V10.4421C44.0204 10.4421 44.0204 10.4421 44.0204 10.4421L39.6676 44.1427C39.5268 45.2332 38.5982 46.0495 37.4987 46.0495H30.0362C30.0361 46.0495 30.0361 46.0495 30.0361 46.0495V46.0495C30.0361 46.0495 30.0361 46.0494 30.0361 46.0494H22.5736C21.474 46.0494 20.5455 45.2331 20.4046 44.1426L16.0518 10.4421C16.0518 10.4421 16.0518 10.4421 16.0518 10.4421V10.4421C16.0518 10.4421 16.0518 10.442 16.0518 10.442V8.58126ZM39.3716 48.2371C39.3716 47.0292 38.3925 46.0501 37.1846 46.0501H22.965C21.7571 46.0501 20.778 47.0292 20.778 48.2371V50.7005C20.778 51.9083 21.7571 52.8875 22.965 52.8875H37.1846C38.3925 52.8875 39.3716 51.9083 39.3716 50.7005V48.2371Z"/>
</mask>
<path fill-rule="evenodd" clip-rule="evenodd" d="M16.0518 8.58126C16.0518 7.55357 16.8849 6.72046 17.9126 6.72046H42.1597C43.1874 6.72046 44.0205 7.55357 44.0205 8.58126V10.442C44.0205 10.4421 44.0205 10.4421 44.0205 10.4421V10.4421C44.0204 10.4421 44.0204 10.4421 44.0204 10.4421L39.6676 44.1427C39.5268 45.2332 38.5982 46.0495 37.4987 46.0495H30.0362C30.0361 46.0495 30.0361 46.0495 30.0361 46.0495V46.0495C30.0361 46.0495 30.0361 46.0494 30.0361 46.0494H22.5736C21.474 46.0494 20.5455 45.2331 20.4046 44.1426L16.0518 10.4421C16.0518 10.4421 16.0518 10.4421 16.0518 10.4421V10.4421C16.0518 10.4421 16.0518 10.442 16.0518 10.442V8.58126ZM39.3716 48.2371C39.3716 47.0292 38.3925 46.0501 37.1846 46.0501H22.965C21.7571 46.0501 20.778 47.0292 20.778 48.2371V50.7005C20.778 51.9083 21.7571 52.8875 22.965 52.8875H37.1846C38.3925 52.8875 39.3716 51.9083 39.3716 50.7005V48.2371Z" fill="#FFF3FA"/>
<path d="M16.0518 10.4421L18.0354 10.1859L16.0518 10.4421ZM20.4046 44.1426L18.4211 44.3988L20.4046 44.1426ZM44.0204 10.4421L42.0369 10.1859L44.0204 10.4421ZM42.1597 4.72046H17.9126V8.72046H42.1597V4.72046ZM46.0205 10.442V8.58126H42.0205V10.442H46.0205ZM41.6512 44.3989L46.004 10.6983L42.0369 10.1859L37.6841 43.8865L41.6512 44.3989ZM30.0362 48.0495H37.4987V44.0495H30.0362V48.0495ZM22.5736 48.0494H30.0361V44.0494H22.5736V48.0494ZM14.0683 10.6983L18.4211 44.3988L22.3881 43.8864L18.0354 10.1859L14.0683 10.6983ZM14.0518 8.58126V10.442H18.0518V8.58126H14.0518ZM22.965 48.0501H37.1846V44.0501H22.965V48.0501ZM22.778 50.7005V48.2371H18.778V50.7005H22.778ZM37.1846 50.8875H22.965V54.8875H37.1846V50.8875ZM37.3716 48.2371V50.7005H41.3716V48.2371H37.3716ZM37.1846 54.8875C39.497 54.8875 41.3716 53.0129 41.3716 50.7005H37.3716C37.3716 50.8037 37.2879 50.8875 37.1846 50.8875V54.8875ZM18.778 50.7005C18.778 53.0129 20.6525 54.8875 22.965 54.8875V50.8875C22.8617 50.8875 22.778 50.8038 22.778 50.7005H18.778ZM37.1846 48.0501C37.2879 48.0501 37.3716 48.1338 37.3716 48.2371H41.3716C41.3716 45.9247 39.497 44.0501 37.1846 44.0501V48.0501ZM22.965 44.0501C20.6525 44.0501 18.778 45.9247 18.778 48.2371H22.778C22.778 48.1338 22.8617 48.0501 22.965 48.0501V44.0501ZM16.0518 8.44207C17.148 8.44207 18.0518 9.32911 18.0518 10.442H14.0518C14.0518 11.555 14.9556 12.4421 16.0518 12.4421V8.44207ZM18.0354 10.1859C17.9065 9.18864 17.0573 8.44207 16.0518 8.44207V12.4421C15.0463 12.4421 14.1971 11.6955 14.0683 10.6983L18.0354 10.1859ZM22.5736 44.0494C22.4796 44.0494 22.4002 43.9796 22.3881 43.8864L18.4211 44.3988C18.6907 46.4865 20.4685 48.0494 22.5736 48.0494V44.0494ZM32.0059 46.396C32.2245 45.1532 31.2605 44.0494 30.0361 44.0494V48.0494C28.8117 48.0494 27.8477 46.9457 28.0664 45.7029L32.0059 46.396ZM30.0362 44.0495C31.2793 44.0495 32.2213 45.1717 32.0059 46.396L28.0664 45.7029C27.851 46.9273 28.793 48.0495 30.0362 48.0495V44.0495ZM37.6841 43.8865C37.6721 43.9797 37.5927 44.0495 37.4987 44.0495V48.0495C39.6037 48.0495 41.3815 46.4866 41.6512 44.3989L37.6841 43.8865ZM44.0205 8.44207C43.2601 8.44207 42.1948 8.96323 42.0369 10.1859L46.004 10.6983C45.9361 11.2234 45.6623 11.7031 45.2381 12.0287C44.8369 12.3366 44.3906 12.4421 44.0205 12.4421V8.44207ZM42.0205 10.442C42.0205 9.33748 42.9159 8.44207 44.0205 8.44207V12.4421C45.1251 12.4421 46.0205 11.5466 46.0205 10.442H42.0205ZM17.9126 4.72046C15.7803 4.72046 14.0518 6.449 14.0518 8.58126H18.0518C18.0518 8.65814 17.9894 8.72046 17.9126 8.72046V4.72046ZM42.1597 8.72046C42.0828 8.72046 42.0205 8.65814 42.0205 8.58126H46.0205C46.0205 6.449 44.292 4.72046 42.1597 4.72046V8.72046Z" fill="#F9A2D7" mask="url(#path-3-inside-1_684_2500)"/>
<rect x="21.7773" y="45.1396" width="16.5937" height="8.04346" rx="1.19" fill="#FFDB55" stroke="#F9A2D7" stroke-width="2"/>
<path d="M30.0361 11.5632L30.0361 13.3861" stroke="#F9A2D7" stroke-width="2" stroke-linecap="round"/>
<path d="M30.0361 28.6436L30.0361 26.8207" stroke="#F9A2D7" stroke-width="2" stroke-linecap="round"/>
<path d="M38.5762 20.1038L36.7533 20.1038" stroke="#F9A2D7" stroke-width="2" stroke-linecap="round"/>
<path d="M21.4961 20.1038L23.319 20.1038" stroke="#F9A2D7" stroke-width="2" stroke-linecap="round"/>
<path d="M36.0752 14.0647L34.7862 15.3537" stroke="#F9A2D7" stroke-width="2" stroke-linecap="round"/>
<path d="M23.9971 26.1421L25.2861 24.8531" stroke="#F9A2D7" stroke-width="2" stroke-linecap="round"/>
<path d="M36.0752 26.1421L34.7862 24.8531" stroke="#F9A2D7" stroke-width="2" stroke-linecap="round"/>
<path d="M23.9971 14.0647L25.2861 15.3537" stroke="#F9A2D7" stroke-width="2" stroke-linecap="round"/>
<circle cx="30.0358" cy="20.1032" r="3.46943" fill="#FFDB55" stroke="#F9A2D7" stroke-width="2"/>
<defs>
<filter id="filter0_di_684_2500" x="0.0361328" y="0.451904" width="60" height="64" filterUnits="userSpaceOnUse" color-interpolation-filters="sRGB">
<feFlood flood-opacity="0" result="BackgroundImageFix"/>
<feColorMatrix in="SourceAlpha" type="matrix" values="0 0 0 0 0 0 0 0 0 0 0 0 0 0 0 0 0 0 127 0" result="hardAlpha"/>
<feOffset dy="4"/>
<feComposite in2="hardAlpha" operator="out"/>
<feColorMatrix type="matrix" values="0 0 0 0 0 0 0 0 0 0 0 0 0 0 0 0 0 0 0.1 0"/>
<feBlend mode="normal" in2="BackgroundImageFix" result="effect1_dropShadow_684_2500"/>
<feBlend mode="normal" in="SourceGraphic" in2="effect1_dropShadow_684_2500" result="shape"/>
<feColorMatrix in="SourceAlpha" type="matrix" values="0 0 0 0 0 0 0 0 0 0 0 0 0 0 0 0 0 0 127 0" result="hardAlpha"/>
<feOffset dy="2"/>
<feGaussianBlur stdDeviation="5"/>
<feComposite in2="hardAlpha" operator="arithmetic" k2="-1" k3="1"/>
<feColorMatrix type="matrix" values="0 0 0 0 0.609196 0 0 0 0 0.783525 0 0 0 0 1 0 0 0 1 0"/>
<feBlend mode="normal" in2="shape" result="effect2_innerShadow_684_2500"/>
</filter>
<filter id="filter1_di_684_2500" x="0.0361328" y="0.451904" width="60" height="64" filterUnits="userSpaceOnUse" color-interpolation-filters="sRGB">
<feFlood flood-opacity="0" result="BackgroundImageFix"/>
<feColorMatrix in="SourceAlpha" type="matrix" values="0 0 0 0 0 0 0 0 0 0 0 0 0 0 0 0 0 0 127 0" result="hardAlpha"/>
<feOffset dy="4"/>
<feComposite in2="hardAlpha" operator="out"/>
<feColorMatrix type="matrix" values="0 0 0 0 0 0 0 0 0 0 0 0 0 0 0 0 0 0 0.1 0"/>
<feBlend mode="normal" in2="BackgroundImageFix" result="effect1_dropShadow_684_2500"/>
<feBlend mode="normal" in="SourceGraphic" in2="effect1_dropShadow_684_2500" result="shape"/>
<feColorMatrix in="SourceAlpha" type="matrix" values="0 0 0 0 0 0 0 0 0 0 0 0 0 0 0 0 0 0 127 0" result="hardAlpha"/>
<feOffset dy="2"/>
<feGaussianBlur stdDeviation="5"/>
<feComposite in2="hardAlpha" operator="arithmetic" k2="-1" k3="1"/>
<feColorMatrix type="matrix" values="0 0 0 0 0.609196 0 0 0 0 0.783525 0 0 0 0 1 0 0 0 1 0"/>
<feBlend mode="normal" in2="shape" result="effect2_innerShadow_684_2500"/>
</filter>
</defs>
</svg>
