<svg width="31" height="31" viewBox="0 0 31 31" fill="none" xmlns="http://www.w3.org/2000/svg">
<g clip-path="url(#clip0_811_19720)">
<path d="M15.507 5.87539C16.1589 5.87539 16.6997 5.33646 16.6997 4.67319V1.70221C16.6997 1.03892 16.1589 0.5 15.507 0.5C14.8412 0.5 14.3003 1.03892 14.3003 1.70221V4.67319C14.3003 5.33646 14.8412 5.87539 15.507 5.87539ZM22.3031 8.70819C22.7747 9.16419 23.5375 9.17803 24.0091 8.70819L26.1311 6.59396C26.5888 6.13795 26.5888 5.36411 26.1311 4.89427C25.6734 4.43827 24.9106 4.43827 24.439 4.89427L22.3031 7.02234C21.8454 7.49215 21.8454 8.25218 22.3031 8.70819ZM25.1186 15.4931C25.1186 16.1425 25.6734 16.6815 26.3253 16.6815H29.3073C29.9592 16.6815 30.5 16.1425 30.5 15.4931C30.5 14.8436 29.9592 14.2909 29.3073 14.2909H26.3253C25.6734 14.2909 25.1186 14.8436 25.1186 15.4931ZM22.3031 22.278C21.8454 22.7478 21.8454 23.5078 22.3031 23.9638L24.439 26.1057C24.9106 26.5479 25.6734 26.5341 26.1311 26.0919C26.5888 25.622 26.5888 24.862 26.1311 24.406L23.9952 22.278C23.5375 21.8358 22.7747 21.8358 22.3031 22.278ZM15.507 25.1108C14.8412 25.1108 14.3003 25.6497 14.3003 26.2991V29.2839C14.3003 29.9334 14.8412 30.4723 15.507 30.4723C16.1589 30.4723 16.6997 29.9334 16.6997 29.2839V26.2991C16.6997 25.6497 16.1589 25.1108 15.507 25.1108ZM8.69696 22.278C8.22541 21.8358 7.4487 21.8358 6.99101 22.278L4.86895 24.3922C4.41123 24.8482 4.41123 25.6082 4.85506 26.0781C5.31278 26.5202 6.08946 26.5341 6.56104 26.0919L8.6831 23.9638C9.14079 23.5078 9.14079 22.7478 8.69696 22.278ZM5.88142 15.4931C5.88142 14.8436 5.32664 14.2909 4.67478 14.2909H1.69279C1.04092 14.2909 0.5 14.8436 0.5 15.4931C0.5 16.1425 1.04092 16.6815 1.69279 16.6815H4.67478C5.32664 16.6815 5.88142 16.1425 5.88142 15.4931ZM8.6831 8.70819C9.14079 8.266 9.14079 7.47834 8.69696 7.02234L6.5749 4.89427C6.11721 4.45208 5.34051 4.43827 4.88281 4.89427C4.42512 5.36411 4.42512 6.13796 4.86895 6.58015L6.99101 8.70819C7.4487 9.16419 8.21152 9.16419 8.6831 8.70819Z" fill="#8DBFFF"/>
<path d="M15.4932 22.5406C19.349 22.5406 22.5529 19.3485 22.5529 15.4931C22.5529 11.624 19.349 8.43188 15.4932 8.43188C11.6375 8.43188 8.43359 11.624 8.43359 15.4931C8.43359 19.3485 11.6375 22.5406 15.4932 22.5406ZM15.4932 20.4264C12.7887 20.4264 10.5418 18.1878 10.5418 15.4931C10.5418 12.7847 12.7887 10.5461 15.4932 10.5461C18.1978 10.5461 20.4447 12.7847 20.4447 15.4931C20.4447 18.1878 18.1978 20.4264 15.4932 20.4264Z" fill="#8DBFFF"/>
<circle cx="15.5001" cy="15.5" r="5.4" fill="#8DBFFF"/>
</g>
<defs>
<clipPath id="clip0_811_19720">
<rect width="30" height="30" fill="white" transform="translate(0.5 0.5)"/>
</clipPath>
</defs>
</svg>
