<svg width="46" height="46" viewBox="0 0 46 46" fill="none" xmlns="http://www.w3.org/2000/svg">
<circle cx="23" cy="22.5176" r="22.5" fill="#2084FF"/>
<path d="M15.0371 18.0277L15.9857 18.2847V18.2847L15.0371 18.0277ZM20.5445 12.2539L20.2415 11.319L20.5445 12.2539ZM14.9773 18.2483L14.0287 17.9913L14.0287 17.9913L14.9773 18.2483ZM14.7194 23.6742L13.7507 23.84V23.84L14.7194 23.6742ZM14.7494 23.8494L13.7807 24.0153H13.7807L14.7494 23.8494ZM15.3835 29.7938L15.5796 28.8308H15.5796L15.3835 29.7938ZM15.8736 29.8936L15.6774 30.8567H15.6774L15.8736 29.8936ZM30.1264 29.8936L30.3226 30.8567L30.1264 29.8936ZM30.6165 29.7938L30.4204 28.8308L30.6165 29.7938ZM31.2563 23.8158L32.225 23.9817V23.9817L31.2563 23.8158ZM31.2882 23.6299L30.3195 23.4641V23.4641L31.2882 23.6299ZM31.0556 18.2859L32.0062 18.0365V18.0365L31.0556 18.2859ZM30.9724 17.9687L30.0218 18.2181V18.2181L30.9724 17.9687ZM25.6228 12.2621L25.931 11.3289L25.6228 12.2621ZM31.4707 24.2519L31.9506 23.3943L31.4707 24.2519ZM14.5573 24.2365L14.0866 23.3737L14.5573 24.2365ZM23.9828 10.5176C23.9828 9.97479 23.5428 9.53478 23 9.53478C22.4572 9.53478 22.0172 9.97479 22.0172 10.5176H23.9828ZM22.0172 11.8572C22.0172 12.4 22.4572 12.84 23 12.84C23.5428 12.84 23.9828 12.4 23.9828 11.8572H22.0172ZM19.0121 30.3888L19.1219 29.4121L17.9461 29.2799L18.0319 30.4601L19.0121 30.3888ZM26.9879 30.3888L27.9681 30.4601L28.0539 29.2799L26.8781 29.4121L26.9879 30.3888ZM26.8669 31.1539L27.8212 31.3885L26.8669 31.1539ZM26.7576 31.5983L25.8032 31.3637V31.3637L26.7576 31.5983ZM23.9385 34.4069L24.1672 35.3627H24.1672L23.9385 34.4069ZM22.0615 34.4069L21.8328 35.3627L22.0615 34.4069ZM19.2424 31.5983L20.1968 31.3637L19.2424 31.5983ZM19.1331 31.1539L18.1788 31.3885L19.1331 31.1539ZM15.9857 18.2847C16.6373 15.8798 18.4832 13.9552 20.8476 13.1888L20.2415 11.319C17.2501 12.2886 14.9151 14.7199 14.0885 17.7707L15.9857 18.2847ZM15.9259 18.5053L15.9857 18.2847L14.0885 17.7707L14.0287 17.9913L15.9259 18.5053ZM15.6881 23.5083C15.403 21.8432 15.4842 20.1355 15.9259 18.5053L14.0287 17.9913C13.5123 19.8972 13.4174 21.8934 13.7507 23.84L15.6881 23.5083ZM15.7181 23.6836L15.6881 23.5083L13.7507 23.84L13.7807 24.0153L15.7181 23.6836ZM13.9828 26.8647C13.9828 26.1019 14.4049 25.4391 15.0279 25.0993L14.0866 23.3737C12.8546 24.0458 12.0172 25.3575 12.0172 26.8647H13.9828ZM15.5796 28.8308C14.6537 28.6422 13.9828 27.8224 13.9828 26.8647H12.0172C12.0172 28.7504 13.3397 30.3804 15.1873 30.7568L15.5796 28.8308ZM16.0698 28.9306L15.5796 28.8308L15.1873 30.7568L15.6774 30.8567L16.0698 28.9306ZM29.9302 28.9306C25.3566 29.8624 20.6434 29.8624 16.0698 28.9306L15.6774 30.8567C20.51 31.8412 25.49 31.8412 30.3226 30.8567L29.9302 28.9306ZM30.4204 28.8308L29.9302 28.9306L30.3226 30.8567L30.8127 30.7568L30.4204 28.8308ZM32.0172 26.8647C32.0172 27.8224 31.3463 28.6422 30.4204 28.8308L30.8127 30.7568C32.6603 30.3804 33.9828 28.7504 33.9828 26.8647H32.0172ZM30.9907 25.1096C31.6036 25.4525 32.0172 26.1096 32.0172 26.8647H33.9828C33.9828 25.3727 33.1622 24.0723 31.9506 23.3943L30.9907 25.1096ZM30.3195 23.4641L30.2876 23.65L32.225 23.9817L32.2569 23.7958L30.3195 23.4641ZM30.105 18.5353C30.527 20.1438 30.6002 21.8247 30.3195 23.4641L32.2569 23.7958C32.5849 21.8802 32.4994 19.9161 32.0062 18.0365L30.105 18.5353ZM30.0218 18.2181L30.105 18.5353L32.0062 18.0365L31.923 17.7193L30.0218 18.2181ZM25.3146 13.1953C27.6272 13.9591 29.4001 15.8486 30.0218 18.2181L31.923 17.7193C31.1332 14.7088 28.879 12.3025 25.931 11.3289L25.3146 13.1953ZM20.8476 13.1888C22.2968 12.719 23.8723 12.719 25.3146 13.1953L25.931 11.3289C24.0875 10.72 22.0838 10.7218 20.2415 11.319L20.8476 13.1888ZM31.9506 23.3943C32.1358 23.4979 32.2697 23.7207 32.225 23.9817L30.2876 23.65C30.183 24.2613 30.4964 24.833 30.9907 25.1096L31.9506 23.3943ZM13.7807 24.0153C13.7326 23.7345 13.8772 23.488 14.0866 23.3737L15.0279 25.0993C15.5146 24.8338 15.8197 24.2766 15.7181 23.6836L13.7807 24.0153ZM22.0172 10.5176V11.8572H23.9828V10.5176H22.0172ZM18.9023 31.3654C21.6256 31.6716 24.3744 31.6716 27.0977 31.3654L26.8781 29.4121C24.3008 29.7019 21.6992 29.7019 19.1219 29.4121L18.9023 31.3654ZM27.8212 31.3885C27.8962 31.0835 27.9453 30.7729 27.9681 30.4601L26.0077 30.3175C25.9929 30.5202 25.9611 30.7215 25.9125 30.9192L27.8212 31.3885ZM27.7119 31.833L27.8212 31.3885L25.9125 30.9192L25.8032 31.3637L27.7119 31.833ZM24.1672 35.3627C25.9157 34.9444 27.2821 33.5809 27.7119 31.833L25.8032 31.3637C25.5482 32.4008 24.7389 33.2049 23.7099 33.451L24.1672 35.3627ZM21.8328 35.3627C22.6002 35.5463 23.3998 35.5463 24.1672 35.3627L23.7099 33.451C23.2431 33.5627 22.7569 33.5627 22.2901 33.451L21.8328 35.3627ZM18.2881 31.833C18.7179 33.5809 20.0843 34.9444 21.8328 35.3627L22.2901 33.451C21.2611 33.2049 20.4518 32.4008 20.1968 31.3637L18.2881 31.833ZM18.1788 31.3885L18.2881 31.833L20.1968 31.3637L20.0875 30.9192L18.1788 31.3885ZM18.0319 30.4601C18.0547 30.7729 18.1038 31.0835 18.1788 31.3885L20.0875 30.9192C20.0389 30.7215 20.0071 30.5202 19.9923 30.3175L18.0319 30.4601Z" fill="white"/>
</svg>
