<svg width="46" height="46" viewBox="0 0 46 46" fill="none" xmlns="http://www.w3.org/2000/svg">
<circle cx="23" cy="22.5176" r="22.5" fill="#2084FF"/>
<rect x="11.8679" y="11.385" width="22.264" height="22.264" rx="9.68" stroke="white" stroke-width="1.936"/>
<mask id="path-3-outside-1_654_3394" maskUnits="userSpaceOnUse" x="14.8037" y="16.869" width="8" height="11" fill="black">
<rect fill="white" x="14.8037" y="16.869" width="8" height="11"/>
<path d="M22.4498 23.7589C22.4498 25.7573 21.0072 27.0609 18.8037 27.0609C16.5208 27.0609 15.151 25.7441 15.151 23.7457V18.7233C15.151 18.1277 15.4885 17.7704 16.0443 17.7704C16.6002 17.7704 16.9443 18.1277 16.9443 18.7233V23.5737C16.9443 24.7912 17.6457 25.5257 18.8037 25.5257C19.9485 25.5257 20.6565 24.778 20.6565 23.5737V18.7233C20.6565 18.1277 20.994 17.7704 21.5498 17.7704C22.1057 17.7704 22.4498 18.1277 22.4498 18.7233V23.7589Z"/>
</mask>
<path d="M22.4498 23.7589C22.4498 25.7573 21.0072 27.0609 18.8037 27.0609C16.5208 27.0609 15.151 25.7441 15.151 23.7457V18.7233C15.151 18.1277 15.4885 17.7704 16.0443 17.7704C16.6002 17.7704 16.9443 18.1277 16.9443 18.7233V23.5737C16.9443 24.7912 17.6457 25.5257 18.8037 25.5257C19.9485 25.5257 20.6565 24.778 20.6565 23.5737V18.7233C20.6565 18.1277 20.994 17.7704 21.5498 17.7704C22.1057 17.7704 22.4498 18.1277 22.4498 18.7233V23.7589Z" fill="white"/>
<path d="M22.1594 23.7589C22.1594 24.6845 21.8275 25.4287 21.2582 25.944C20.686 26.4619 19.849 26.7705 18.8037 26.7705V27.3513C19.9619 27.3513 20.9479 27.0082 21.6479 26.3746C22.3508 25.7385 22.7402 24.8318 22.7402 23.7589H22.1594ZM18.8037 26.7705C17.7173 26.7705 16.8804 26.4578 16.3181 25.9392C15.7582 25.4228 15.4414 24.6758 15.4414 23.7457H14.8606C14.8606 24.814 15.2287 25.7246 15.9244 26.3662C16.6177 27.0056 17.6072 27.3513 18.8037 27.3513V26.7705ZM15.4414 23.7457V18.7233H14.8606V23.7457H15.4414ZM15.4414 18.7233C15.4414 18.4792 15.5099 18.3191 15.6009 18.2223C15.6897 18.1278 15.8305 18.0608 16.0443 18.0608V17.48C15.7023 17.48 15.3964 17.5917 15.1776 17.8247C14.9608 18.0554 14.8606 18.3718 14.8606 18.7233H15.4414ZM16.0443 18.0608C16.2584 18.0608 16.4014 18.1279 16.4922 18.2235C16.5846 18.3208 16.6539 18.4807 16.6539 18.7233H17.2347C17.2347 18.3703 17.132 18.0538 16.9133 17.8235C16.6931 17.5915 16.3862 17.48 16.0443 17.48V18.0608ZM16.6539 18.7233V23.5737H17.2347V18.7233H16.6539ZM16.6539 23.5737C16.6539 24.2374 16.8458 24.8041 17.2295 25.2066C17.6149 25.6109 18.1618 25.8161 18.8037 25.8161V25.2353C18.2876 25.2353 17.9048 25.0733 17.6499 24.8059C17.3935 24.5368 17.2347 24.1275 17.2347 23.5737H16.6539ZM18.8037 25.8161C19.4413 25.8161 19.9859 25.6062 20.3701 25.2012C20.7526 24.7979 20.9469 24.2322 20.9469 23.5737H20.3661C20.3661 24.1195 20.2065 24.5297 19.9487 24.8015C19.6927 25.0714 19.3109 25.2353 18.8037 25.2353V25.8161ZM20.9469 23.5737V18.7233H20.3661V23.5737H20.9469ZM20.9469 18.7233C20.9469 18.4792 21.0154 18.3191 21.1064 18.2223C21.1952 18.1278 21.336 18.0608 21.5498 18.0608V17.48C21.2078 17.48 20.9019 17.5917 20.6831 17.8247C20.4663 18.0554 20.3661 18.3718 20.3661 18.7233H20.9469ZM21.5498 18.0608C21.7639 18.0608 21.9069 18.1279 21.9977 18.2235C22.0901 18.3208 22.1594 18.4807 22.1594 18.7233H22.7402C22.7402 18.3703 22.6375 18.0538 22.4188 17.8235C22.1986 17.5915 21.8917 17.48 21.5498 17.48V18.0608ZM22.1594 18.7233V23.7589H22.7402V18.7233H22.1594Z" fill="white" mask="url(#path-3-outside-1_654_3394)"/>
<mask id="path-5-outside-2_654_3394" maskUnits="userSpaceOnUse" x="23.4839" y="16.869" width="9" height="11" fill="black">
<rect fill="white" x="23.4839" y="16.869" width="9" height="11"/>
<path d="M28.0501 24.864L30.0021 18.6372C30.1874 18.0086 30.4587 17.7505 30.9352 17.7505C31.4447 17.7505 31.8152 18.0748 31.8152 18.5512C31.8152 18.7299 31.7557 19.0277 31.6763 19.2725L29.4397 25.6912C29.1485 26.5646 28.7316 26.9352 27.9971 26.9352C27.2494 26.9352 26.8193 26.558 26.5281 25.6912L24.2981 19.2725C24.2055 19.0012 24.1525 18.7431 24.1525 18.5578C24.1525 18.0814 24.5297 17.7505 25.0459 17.7505C25.5091 17.7505 25.8002 18.0285 25.9855 18.6372L27.964 24.864H28.0501Z"/>
</mask>
<path d="M28.0501 24.864L30.0021 18.6372C30.1874 18.0086 30.4587 17.7505 30.9352 17.7505C31.4447 17.7505 31.8152 18.0748 31.8152 18.5512C31.8152 18.7299 31.7557 19.0277 31.6763 19.2725L29.4397 25.6912C29.1485 26.5646 28.7316 26.9352 27.9971 26.9352C27.2494 26.9352 26.8193 26.558 26.5281 25.6912L24.2981 19.2725C24.2055 19.0012 24.1525 18.7431 24.1525 18.5578C24.1525 18.0814 24.5297 17.7505 25.0459 17.7505C25.5091 17.7505 25.8002 18.0285 25.9855 18.6372L27.964 24.864H28.0501Z" fill="white"/>
<path d="M28.0501 24.864V25.1544H28.2634L28.3272 24.9509L28.0501 24.864ZM30.0021 18.6372L30.2793 18.7241L30.2807 18.7193L30.0021 18.6372ZM31.6763 19.2725L31.9506 19.3681L31.9525 19.3621L31.6763 19.2725ZM29.4397 25.6912L29.1654 25.5956L29.1642 25.5993L29.4397 25.6912ZM26.5281 25.6912L26.8034 25.5987L26.8024 25.5959L26.5281 25.6912ZM24.2981 19.2725L24.0233 19.3663L24.0238 19.3678L24.2981 19.2725ZM25.9855 18.6372L25.7077 18.7218L25.7087 18.7252L25.9855 18.6372ZM27.964 24.864L27.6873 24.952L27.7516 25.1544H27.964V24.864ZM28.3272 24.9509L30.2792 18.7241L29.725 18.5504L27.773 24.7771L28.3272 24.9509ZM30.2807 18.7193C30.3674 18.4253 30.4629 18.2605 30.5595 18.1686C30.6454 18.087 30.7551 18.0409 30.9352 18.0409V17.4601C30.6387 17.4601 30.3746 17.5431 30.1594 17.7477C29.9549 17.942 29.8222 18.2206 29.7236 18.5551L30.2807 18.7193ZM30.9352 18.0409C31.1287 18.0409 31.2764 18.102 31.3721 18.1881C31.4653 18.272 31.5248 18.3928 31.5248 18.5512H32.1056C32.1056 18.2332 31.9799 17.9537 31.7605 17.7563C31.5435 17.5611 31.2511 17.4601 30.9352 17.4601V18.0409ZM31.5248 18.5512C31.5248 18.6871 31.4749 18.9522 31.4 19.1829L31.9525 19.3621C32.0365 19.1031 32.1056 18.7727 32.1056 18.5512H31.5248ZM31.402 19.1769L29.1654 25.5956L29.7139 25.7867L31.9505 19.368L31.402 19.1769ZM29.1642 25.5993C29.0262 26.0133 28.8706 26.2683 28.6943 26.4215C28.5263 26.5673 28.3115 26.6448 27.9971 26.6448V27.2256C28.4172 27.2256 28.7782 27.1178 29.0751 26.86C29.3635 26.6095 29.562 26.2425 29.7152 25.783L29.1642 25.5993ZM27.9971 26.6448C27.6758 26.6448 27.4534 26.5654 27.2799 26.4174C27.099 26.2629 26.9408 26.0077 26.8034 25.5987L26.2528 25.7836C26.4066 26.2415 26.609 26.6083 26.9028 26.8591C27.2042 27.1163 27.5707 27.2256 27.9971 27.2256V26.6448ZM26.8024 25.5959L24.5724 19.1772L24.0238 19.3678L26.2538 25.7865L26.8024 25.5959ZM24.5729 19.1786C24.4854 18.9224 24.4429 18.6984 24.4429 18.5578H23.8621C23.8621 18.7879 23.9255 19.08 24.0233 19.3663L24.5729 19.1786ZM24.4429 18.5578C24.4429 18.271 24.6592 18.0409 25.0459 18.0409V17.4601C24.4002 17.4601 23.8621 17.8918 23.8621 18.5578H24.4429ZM25.0459 18.0409C25.2125 18.0409 25.3268 18.088 25.4203 18.1765C25.5227 18.2735 25.6223 18.4414 25.7077 18.7218L26.2633 18.5527C26.1634 18.2243 26.0247 17.9489 25.8195 17.7547C25.6053 17.552 25.3424 17.4601 25.0459 17.4601V18.0409ZM25.7087 18.7252L27.6873 24.952L28.2408 24.7761L26.2623 18.5493L25.7087 18.7252ZM27.964 25.1544H28.0501V24.5736H27.964V25.1544Z" fill="white" mask="url(#path-5-outside-2_654_3394)"/>
</svg>
