<svg width="227" height="427" viewBox="0 0 227 427" fill="none" xmlns="http://www.w3.org/2000/svg">
<path d="M47.2861 415.696C47.2861 423.837 65.2316 421.764 70.0435 421.764C72.9762 421.764 75.8422 421.663 78.723 421.09C83.1057 420.217 86.4923 417.824 90.5251 416.226C92.6526 415.383 94.5939 415.818 96.8231 416.13C102.704 416.953 108.929 416.826 114.659 418.297C118.843 419.371 122.995 419.163 127.307 419.163C132.19 419.163 134.55 418.924 138.898 416.611C140.355 415.836 144.554 413.547 141.385 412.133C136.723 410.052 130.466 410.609 125.429 410.231C114.376 409.4 103.38 407.462 92.2716 407.462C90.0497 407.462 86.9488 406.757 85.5238 408.353C84.2128 409.821 81.4628 409.932 79.6228 410.158C75.8352 410.624 72.0371 411.033 68.2441 411.459C65.3034 411.788 62.4067 412.229 59.4851 412.638C55.5457 413.19 51.7693 414.396 47.7624 414.396" stroke="#2C89FB" stroke-width="10" stroke-linecap="round"/>
<path d="M12.2147 278.851C12.1894 279.054 10.7856 278.761 10.6505 278.69C10.3964 278.558 10.1813 278.304 10.0798 278.038C9.92354 277.627 10.1756 277.458 10.5519 277.315C12.4222 276.602 14.4553 277.397 15.563 279.002C16.0223 279.668 16.2581 280.45 16.382 281.242C16.4272 281.53 16.4939 281.684 16.1706 281.694C15.8514 281.703 15.4847 281.703 15.2037 281.527C14.7124 281.22 14.5818 280.507 14.5673 279.975C14.5537 279.476 14.6964 279.126 15.2201 279.031C15.5979 278.963 16.0779 279.089 16.2999 279.421C17.0276 280.509 14.992 280.93 14.2922 280.961C13.798 280.982 13.1883 280.93 12.9681 280.415C12.6631 279.7 13.5434 278.918 14.0726 278.596C14.7373 278.191 15.6742 277.942 16.4559 278.042C17.163 278.132 17.4217 278.621 17.3305 279.298C17.2645 279.788 17.0289 280.334 16.7598 280.747C16.5816 281.021 16.3295 281.205 16.0023 281.23C15.4408 281.273 15.113 280.288 15.5198 279.926C16.097 279.413 16.9116 280.601 17.1129 281.043C17.1362 281.094 17.1777 281.173 17.1642 281.234C17.1567 281.267 17.0975 281.285 17.1354 281.291C17.2961 281.318 17.4015 281.442 17.5399 281.511C17.6868 281.584 17.9177 281.637 18.0161 281.778C18.1338 281.946 18.358 282.093 18.4226 282.287" stroke="#ED6944" stroke-width="10.8" stroke-linecap="round"/>
<path d="M76.089 252.398C75.6997 252.434 75.3402 252.722 74.9991 252.892C74.2366 253.274 73.4958 253.63 72.7049 253.958C71.6647 254.39 70.5952 254.774 69.5376 255.157C68.4515 255.55 67.3685 255.901 66.2739 256.271C63.389 257.245 60.7289 258.593 58.0004 259.914C55.139 261.299 52.1709 262.456 49.3294 263.877C47.6235 264.73 45.9043 265.557 44.163 266.334C42.4346 267.105 40.5662 267.391 38.9363 268.333C37.8337 268.971 36.7627 269.735 35.5643 270.176C34.5462 270.551 33.8039 271.316 32.963 271.959C32.1011 272.618 31.4902 273.413 31.0843 274.428C30.7938 275.154 30.2492 275.903 30.7832 276.704C31.0486 277.102 31.7063 278.609 32.1441 278.734C32.8356 278.931 33.3971 279.632 34.1432 279.848C35.4336 280.221 36.6602 280.837 37.9729 281.173C40.5003 281.819 42.9624 282.642 45.6081 282.642C47.8975 282.642 50.3522 282.901 52.6172 282.534C54.4725 282.233 56.183 281.798 57.9582 281.191C58.6847 280.942 59.4383 280.721 60.1561 280.45C60.6709 280.256 61.1998 279.868 61.7578 279.824C61.9909 279.805 62.2051 278.481 62.3238 278.252C62.9612 277.023 62.9759 275.349 63.2993 274.018C63.549 272.991 63.6883 271.947 63.8955 270.911C64.016 270.308 64.3081 269.931 64.5518 269.399C65.0654 268.279 65.5722 267.163 66.1174 266.057C66.6079 265.062 67.1495 264.084 67.5866 263.064C68.0085 262.079 68.3356 260.978 68.9355 260.095C69.1482 259.782 69.4993 259.56 69.6821 259.24C69.9006 258.857 68.5455 259.57 68.4959 259.595C65.1764 261.272 61.9841 263.177 58.8253 265.136C56.4835 266.588 54.0735 267.77 51.5875 268.942C47.8516 270.702 44.0607 272.3 40.2972 273.994C40.2799 274.002 39.3646 274.344 39.6107 274.452C40.0389 274.639 40.8218 274.512 41.2546 274.512C42.8657 274.512 44.4793 274.539 46.0899 274.494C48.5791 274.425 51.2118 274.06 53.4361 272.862C54.8116 272.121 55.8553 271.024 57.0008 269.995C57.0078 269.989 57.593 269.544 57.4765 269.712C56.8779 270.577 55.9842 271.307 55.1944 271.989C55.1341 272.041 54.3392 272.702 54.2189 272.537C53.9102 272.112 56.1253 269.999 56.3385 269.803C57.7772 268.477 59.4715 267.464 60.9449 266.177C61.8376 265.398 62.6774 264.539 63.498 263.684C65.0745 262.042 70.4373 257.788 68.6886 259.246C67.6031 260.15 66.3026 260.788 65.0335 261.384C62.1638 262.73 59.3307 264.122 56.5071 265.563C51.9621 267.882 47.2804 269.638 42.2481 270.55C40.5902 270.85 38.9448 271.032 37.3105 271.453C36.4174 271.683 35.4246 271.776 34.5767 272.151C33.8408 272.477 33.1701 272.778 32.3608 272.778C31.4572 272.778 30.4755 272.889 29.597 272.669C29.4265 272.627 28.6316 272.379 28.6155 272.669C28.5798 273.311 29.1161 274.251 29.3983 274.825C29.8896 275.826 30.3497 276.797 30.3497 277.939C30.3497 279.066 30.5528 280.432 30.2413 281.522C30.1339 281.898 29.9624 282.258 29.8679 282.636C29.8131 282.855 30.5936 282.404 30.6929 282.365C31.721 281.959 32.6134 281.286 33.6374 280.86C35.2109 280.204 36.8169 279.805 38.4907 279.523C39.4443 279.362 40.3867 279.198 41.3509 279.119C42.0065 279.065 42.834 278.927 43.4464 279.234C43.5283 279.275 44.0987 279.536 43.9823 279.715C43.8679 279.892 43.3029 279.841 43.1755 279.848C42.2686 279.895 41.3607 279.912 40.4537 279.956C39.6275 279.996 38.4493 279.956 37.6959 280.372C37.2633 280.611 37.2864 281.193 37.2864 281.618C37.2864 282.733 37.8491 283.005 38.7376 283.347C38.9728 283.437 38.8142 283.105 38.7798 282.967C38.602 282.256 38.9352 281.853 39.4783 281.366C40.39 280.548 41.4837 279.888 41.9531 278.692C42.5977 277.049 41.9908 275.045 41.2486 273.561C40.5481 272.16 39.2684 270.073 39.7793 268.406C39.9361 267.894 40.485 267.455 40.803 267.039C40.9683 266.822 41.5986 266.219 41.5075 265.9C41.4104 265.56 40.5586 265.68 42.2602 265.72C44.0216 265.761 46.0866 266.06 47.7879 265.455C48.2174 265.302 48.5986 264.97 49.0163 264.78C49.4599 264.579 51.2273 263.742 51.2623 264.618C51.3653 267.193 51.1803 269.765 51.16 272.332C51.1392 274.944 51.4616 278.231 49.8593 280.474" stroke="#FBF9BC" stroke-width="10.8" stroke-linecap="round"/>
<path d="M101.559 237.439C100.993 237.439 100.308 237.567 99.8248 237.216C99.6184 237.066 99.4051 236.813 99.1745 236.704C99.0796 236.659 98.8835 236.971 98.8011 237.029C98.3275 237.366 97.7437 237.596 97.2295 237.866C97.1408 237.913 96.2815 238.219 96.5852 238.306C96.8282 238.375 97.6609 239.057 97.7654 238.848" stroke="#ED6944" stroke-width="10.8" stroke-linecap="round"/>
<path d="M81.5073 260.203C82.3258 260.203 83.1457 260.19 83.9641 260.203C84.4661 260.211 84.9666 260.353 85.4695 260.311C85.8182 260.282 86.2437 258.803 86.3727 258.541C87.0258 257.211 87.3588 255.7 88.1129 254.428C88.6444 253.531 90.0783 253.162 91.0093 252.784C93.0001 251.975 95.0647 251.402 97.1271 250.796C98.8476 250.291 100.703 250.447 102.474 250.447C104.626 250.447 106.798 251.332 108.658 252.344C110.701 253.455 112.934 254.387 114.529 256.132C115.221 256.889 115.772 257.737 116.432 258.517C116.764 258.909 117.15 259.389 117.323 259.884C117.764 261.145 116.699 260.962 115.734 260.962C110.983 260.962 106.247 260.422 101.511 260.095C97.894 259.845 94.1815 260.025 90.654 259.017C90.6033 259.002 89.7642 258.699 90.2265 258.685C91.5034 258.649 92.7777 258.577 94.0561 258.577C94.7607 258.577 95.5866 258.456 96.2841 258.583C96.2936 258.585 95.0118 259.223 94.7546 259.312C94.088 259.542 91.9237 260.323 91.3705 259.769" stroke="#FBF9BC" stroke-width="10.8" stroke-linecap="round"/>
<path d="M89.7447 228.116C89.7447 227.822 89.6475 227.698 89.4737 227.46C89.0782 226.919 89.0049 226.338 88.9378 225.677C88.7745 224.068 88.8958 222.752 90.0578 221.564C91.8197 219.763 93.7599 217.702 96.0251 216.535C97.2417 215.909 98.5884 215.831 99.8909 215.494C101.625 215.044 102.712 216 103.787 217.204C104.908 218.46 105.777 219.774 106.605 221.233C107.144 222.183 107.568 223.209 107.869 224.262C108.042 224.867 108.337 224.955 108.821 225.189C109.165 225.357 109.59 225.784 109.754 225.382C110.179 224.343 110.252 223.491 109.616 222.552C108.462 220.848 107.689 219.303 105.599 218.679C102.226 217.672 98.8121 218.717 95.6518 220.028C94.8734 220.351 93.9021 220.739 93.4178 221.48C93.068 222.014 92.7872 223.117 93.1649 223.696C93.7309 224.563 94.9753 224.875 95.9047 225.123C97.0199 225.421 98.1071 225.515 99.2586 225.515C100.048 225.515 100.857 225.567 101.643 225.49C102.431 225.414 103.128 225.058 103.883 224.864C103.98 224.839 104.595 224.756 104.485 224.756C104.012 224.756 103.538 224.756 103.064 224.756C101.019 224.756 98.9736 224.756 96.9283 224.756C95.8144 224.756 94.7002 224.763 93.5864 224.75C92.7706 224.74 91.8429 224.81 91.0573 224.527C89.3484 223.912 90.5791 222.138 91.25 221.082C92.3417 219.364 93.7886 217.439 95.4832 216.252C96.0843 215.831 96.7736 215.587 95.6578 215.433C95.264 215.379 94.8893 215.316 94.4896 215.325C94.4489 215.326 93.7794 215.422 93.8875 215.518C94.0686 215.679 94.7061 215.369 94.869 215.325C95.7678 215.083 96.7367 215.07 97.6629 215.114C99.1774 215.186 100.751 215.683 102.077 216.409C103.248 217.05 104.225 218.011 105.401 218.625C106.45 219.173 107.533 219.912 108.646 220.305C108.794 220.357 108.989 220.538 109.146 220.528C109.356 220.515 108.318 219.524 108.267 219.48C107.218 218.592 105.992 217.245 104.527 217.174C102.295 217.065 99.8317 217.489 97.6569 217.981C96.2176 218.306 94.7559 218.62 93.3335 219.011C92.7087 219.182 92.8134 218.854 92.3399 218.529C91.9123 218.235 91.2123 218.333 90.7201 218.36C90.6203 218.366 90.34 219.067 90.2866 219.227" stroke="#D34B4B" stroke-width="10.8" stroke-linecap="round"/>
<path d="M39.4541 201.233C38.1444 201.14 36.9712 200.299 36.3952 199.174C36.1518 198.698 35.8851 198.251 35.6605 197.765C35.413 197.228 35.4647 196.42 35.3956 195.837C35.2724 194.799 35.3354 193.732 35.3354 192.688C35.3354 192.331 35.2927 192.008 35.504 191.7C35.5977 191.564 35.7573 191.369 35.9315 191.369C36.1716 191.369 36.0558 191.579 36.1423 191.742C36.4832 192.388 36.9777 192.965 37.3225 193.621C37.8704 194.664 38.358 195.825 38.7195 196.946C38.8251 197.273 39.1744 198.241 39.0205 197.933C38.7101 197.312 38.4664 196.637 38.1414 196.012C37.222 194.244 36.7444 192.206 36.7444 190.237C36.7444 190.037 36.5223 189.165 36.5276 189.358C36.5495 190.145 36.9875 191.075 37.2382 191.803C37.6027 192.86 38.0266 193.874 38.4244 194.916C38.9034 196.171 39.1647 197.498 39.6107 198.764C39.831 199.39 40.2181 199.875 40.4778 200.469C40.5106 200.544 40.7052 200.878 40.5741 200.902C39.8393 201.036 38.6799 200.505 37.9608 200.342C35.2905 199.736 32.4089 197.962 32.4089 194.898C32.4089 194.617 32.9377 194.289 33.1074 194.085C33.3339 193.813 33.4744 193.533 33.6674 193.254C33.8349 193.012 34.161 192.119 34.3599 192.019" stroke="#ED6944" stroke-width="10.8" stroke-linecap="round"/>
<path d="M156.276 203.329C156.248 203.342 156.113 202.428 156.11 202.395C156.037 201.546 156.057 200.691 156.057 199.841C156.057 199.088 156.14 198.508 156.504 197.826C157.022 196.855 157.627 195.927 158.331 195.08C158.654 194.691 158.989 194.296 159.252 193.862C159.347 193.705 159.578 193.204 159.783 193.188C159.893 193.179 160.026 193.327 160.089 193.39C160.368 193.671 160.604 193.999 160.814 194.334C161.203 194.953 161.478 195.614 161.621 196.333C161.809 197.272 161.882 198.344 161.665 199.283C161.49 200.043 161.233 200.833 160.396 201.037C159.661 201.217 158.907 200.677 158.63 200.011C158.006 198.513 158.738 195.533 160.809 195.793C161.849 195.923 162.7 196.758 163.107 197.693C163.582 198.78 163.265 200.08 162.419 200.886C161.664 201.606 160.486 202.113 159.432 201.986C158.875 201.919 158.288 201.723 157.92 201.276C157.538 200.812 157.39 200.054 157.38 199.468C157.362 198.416 158.033 197.945 159.009 197.851C159.395 197.814 159.817 197.812 160.167 198.004C160.768 198.333 161.147 199.037 161.334 199.67C161.631 200.673 161.435 201.882 160.583 202.562C159.761 203.219 158.357 203.429 157.365 203.095C156.474 202.795 155.957 201.622 156.375 200.762C156.815 199.859 158.17 199.316 159.102 199.685C159.987 200.036 160.537 200.83 160.605 201.767C160.678 202.77 159.894 202.878 159.08 202.949C158.099 203.035 156.602 202.88 156.363 201.66C156.131 200.475 157.43 199.599 158.428 199.417C159.171 199.282 159.826 199.502 160.196 200.183C160.585 200.898 160.681 202.061 160.152 202.73C159.835 203.131 159.006 203.666 158.469 203.426C157.968 203.202 157.891 202.576 157.852 202.103" stroke="#ED6944" stroke-width="10.8" stroke-linecap="round"/>
<path d="M119.657 185.505C120.229 185.648 120.765 186.214 121.213 186.567C122.45 187.543 123.753 188.429 125.011 189.377C127.056 190.918 129.129 192.492 131.262 193.908C133.33 195.28 135.363 196.815 137.697 197.698C139.097 198.228 140.585 198.475 142.062 198.687" stroke="#E7A78A" stroke-width="10.8" stroke-linecap="round"/>
<path d="M142.062 198.687C143.045 198.11 144.124 197.762 145.101 197.204C145.246 197.121 145.255 196.449 145.174 196.307C144.974 195.958 142.744 195.77 142.447 195.721C141.197 195.517 139.934 195.364 138.703 195.062C138.058 194.904 137.215 194.852 136.644 194.485C134.887 193.355 140.794 195.253 142.694 196.124C143.561 196.522 143.794 197.485 144.204 198.275C144.752 199.332 145.014 200.342 145.275 201.488C145.444 202.235 145.58 203.725 145.256 204.444C144.801 205.456 143.469 206.429 142.602 207.026C139.778 208.972 136.796 210.59 133.917 212.435C132.614 213.271 131.463 214.227 130.292 215.236C129.755 215.7 128.656 216.255 128.727 217.076C128.809 218.024 129.373 219.36 129.972 220.097C130.498 220.745 131.945 220.459 132.58 220.179C134.171 219.479 134.792 217.645 136.296 216.893C136.855 216.614 137.495 216.411 138.017 216.079C138.746 215.614 136.581 215.822 136.388 215.822C133.048 215.822 130.355 218.964 127.739 220.665C127.22 221.002 126.697 221.329 126.174 221.662C125.828 221.882 125.235 221.741 124.837 221.836C124.485 221.92 122.787 222.208 122.787 221.836C122.787 220.612 123.028 219.06 122.696 217.873C122.346 216.625 121.03 215.659 120.481 214.422C120.144 213.664 119.785 212.82 119.328 212.133C118.723 211.226 117.941 210.613 117.36 209.653C116.308 207.918 114.323 207.439 112.655 206.513C111.503 205.873 110.238 205.575 109.04 205.03C107.14 204.167 105.135 204.01 103.128 203.456C101.28 202.946 99.2088 202.476 97.2794 202.476C96.5325 202.476 96.2849 202.733 95.6136 203.035C94.5973 203.492 93.2662 204.289 92.1357 204.289C91.3009 204.289 90.0133 204.025 89.2527 204.38C88.0114 204.96 87.1321 205.886 85.9578 206.586C85.0978 207.099 84.2572 207.479 83.2578 207.584C82.5706 207.656 81.8632 207.82 81.2992 208.243C80.3772 208.935 80.7407 209.687 80.3657 210.687C79.914 211.892 79.3988 213.182 78.7091 214.266C77.8991 215.539 78.5983 217.509 79.1301 218.706C79.544 219.637 79.4922 221.521 78.3979 221.919C77.7759 222.145 77.0439 224.086 76.5674 223.392C75.8427 222.338 75.3446 221.188 74.8468 220.015C74.7036 219.677 74.5882 217.351 74.3342 217.314C73.4461 217.187 72.5027 217.578 71.616 217.644C70.5485 217.723 69.5167 217.799 68.4401 217.799C66.8853 217.799 65.4939 216.268 64.5594 215.154C63.4865 213.876 62.6662 212.424 61.8412 210.98C61.3382 210.1 60.8627 208.945 60.1022 208.243C59.3405 207.54 58.5216 206.909 57.7867 206.174C56.7185 205.106 55.9241 204.119 55.0684 202.888C53.7396 200.978 51.6325 199.271 51.2518 196.911C51.1729 196.422 51.2307 195.695 50.9589 195.263C50.6097 194.709 50.2217 194.151 49.9705 193.543C49.0723 191.368 48.0164 189.571 46.5475 187.776C46.5327 187.758 47.889 188.176 48.1217 188.27C49.1824 188.698 50.4271 189.036 51.563 189.167C54.5495 189.512 57.2123 189.349 60.2029 189.094C61.2184 189.007 62.2611 188.845 63.2415 188.6C64.3595 188.32 65.1556 187.444 66.2069 187.062C67.8678 186.458 69.5581 185.972 71.2224 185.378C71.8787 185.143 72.6533 185.078 73.2359 184.682C73.8116 184.29 73.928 184.511 74.682 184.883C77.2772 186.166 79.6184 187.839 82.4067 188.673C83.7275 189.068 85.0652 189.461 86.3239 190.028C87.4689 190.543 88.4328 191.272 89.7103 191.272C94.7184 191.272 99.662 192.096 104.665 192.096C106.496 192.096 108.311 192.261 110.139 192.261C111.487 192.261 112.59 192.382 113.726 191.602C114.663 190.959 115.443 189.881 116.692 189.954C117.051 189.975 123.144 183.528 123.291 183.785C125.032 186.834 127.232 190.022 129.972 192.261C131.191 193.258 127.002 202.198 128.48 202.641C129.152 202.843 129.783 202.924 130.475 203.044C131.721 203.261 132.849 203.834 134.045 204.216C134.97 204.51 135.941 204.878 136.918 204.948C137.073 204.959 137.373 205.075 137.047 205.113C136.179 205.212 135.362 206.008 134.685 206.486C134.285 206.768 128.775 211.115 128.425 210.678C128.04 210.197 131.83 205.603 132.397 204.93C133.322 203.832 131.733 204.192 130.896 204.087C129.567 203.921 128.286 203.695 126.997 203.337C125.705 202.978 123.509 202.799 122.458 203.795C121.985 204.242 121.592 205.213 121.909 205.845C122.409 206.845 125.18 208.831 124.197 208.298C122.674 207.473 121.254 206.515 119.675 205.772C117.552 204.772 115.336 204.042 113.177 203.135C110.165 201.87 108.545 199.798 106.496 197.332C106.284 197.077 104.224 195.227 105.031 195.227C107.381 195.227 110.021 195.756 112.317 196.215C113.679 196.488 125.585 195.721 124.197 195.721C121.038 195.721 110.159 196.963 107.008 197.167C101.875 197.5 96.7342 197.56 91.5957 197.735C89.6416 197.801 87.6936 197.863 85.7382 197.863C84.7588 197.863 83.7474 197.765 82.8094 198.101C81.2165 198.671 79.5889 199.34 78.0318 200.005C76.9292 200.476 75.9181 200.664 74.7369 200.664C73.7396 200.664 73.6029 200.819 72.9797 201.579C71.9056 202.889 72.619 205.341 73.1993 206.724C73.6439 207.783 73.6936 208.489 73.6936 209.653C73.6936 211.046 73.4602 210.714 72.2475 210.056C70.527 209.122 68.6385 208.28 67.232 206.888C65.4867 205.161 64.9922 202.726 64.9622 200.334C64.9483 199.236 64.9622 198.137 64.9622 197.039C64.9622 196.311 62.263 197.132 61.7588 197.241C61.2038 197.36 58.5372 198.521 58.5372 197.369C58.5372 196.085 64.5203 195.964 65.4015 195.922C67.4797 195.825 69.3373 195.985 71.3139 195.263C72.0965 194.978 72.8894 194.729 73.657 194.403C74.0205 194.248 74.6337 194.165 74.9383 193.909C75.645 193.314 78.1911 193.98 79.0203 194.073C79.8129 194.163 80.6346 194.403 81.4365 194.403" stroke="#FF5656" stroke-width="10.8" stroke-linecap="round"/>
<path d="M67.7344 176.138C66.8298 176.138 65.9251 176.138 65.0204 176.138C63.4858 176.138 61.9327 176.212 60.4011 176.127C59.3239 176.067 58.2695 175.943 57.185 175.943C55.7814 175.943 54.3957 175.716 52.9972 175.698C51.8597 175.684 50.6842 175.45 49.5748 175.21C48.8653 175.056 48.1384 175.008 47.428 174.857C47.045 174.776 46.5835 174.735 46.299 174.439C46.2204 174.358 46.1904 174.075 46.1904 174.257C46.1904 174.66 45.7876 174.37 45.5065 174.333C44.6809 174.226 43.9666 174.441 43.1724 174.624C42.4604 174.787 41.6632 174.788 40.9361 174.768C39.9512 174.74 39.0206 174.271 38.1297 173.891C37.8812 173.785 37.5651 173.686 37.359 173.503C37.2748 173.428 37.2358 173.358 37.359 173.486C37.753 173.898 38.2987 174.203 38.7865 174.488C39.8846 175.129 41.0405 175.636 42.2442 176.04C44.417 176.771 46.6524 177.129 48.8909 177.577C49.2877 177.656 49.2844 177.478 49.3659 177.104C49.3998 176.949 49.3659 176.467 49.3659 176.627" stroke="#FF7D7D" stroke-width="10.8" stroke-linecap="round"/>
<path d="M81.5591 176.629C81.7095 176.798 81.5933 177.081 81.8445 177.096C82.4222 177.13 82.7579 177.495 83.2523 177.732C84.6149 178.383 86.0652 179.091 87.5209 179.483C90.1222 180.184 92.8814 180.39 95.5456 180.807C97.5063 181.113 99.4718 181.416 101.462 181.416C103.385 181.416 105.527 181.675 107.424 181.352C108.105 181.235 108.784 181.115 109.467 181.008C110.095 180.91 110.708 180.659 111.336 180.599C111.586 180.575 111.951 180.28 112.211 180.184C112.546 180.061 112.707 179.995 112.387 179.782" stroke="#FF7D7D" stroke-width="10.8" stroke-linecap="round"/>
<path d="M128.034 180.599C129.438 180.599 130.593 180.789 131.933 181.248C133.469 181.774 134.863 182.457 136.448 182.876C139.294 183.63 142.398 183.402 145.316 183.402C148.839 183.402 152.343 183.248 155.799 182.584C156.741 182.403 157.676 182.104 158.563 181.858C158.786 181.796 160.483 181.442 159.912 181.3" stroke="#FF7D7D" stroke-width="10.8" stroke-linecap="round"/>
<path d="M177.895 157.009C177.895 155.961 178.171 155.269 178.699 154.401C179.134 153.687 179.536 152.939 180.049 152.279C180.72 151.416 181.725 150.791 182.501 150.015C184.533 147.982 186.354 145.652 188.573 143.812C191.438 141.437 194.695 139.443 197.811 137.415C199.062 136.601 200.201 135.644 201.437 134.82C202.544 134.082 203.769 133.544 204.908 132.86C205.912 132.258 206.834 131.636 207.899 131.141C208.68 130.778 209.316 130.202 210.111 129.85C211.231 129.354 212.511 128.909 213.744 128.864C214.279 128.844 215.232 128.33 215.729 128.578C216.19 128.809 216.307 129.415 216.313 129.876C216.325 130.922 216.383 132.006 216.3 133.049C216.226 133.965 215.687 134.872 215.378 135.728C214.908 137.036 214.488 138.282 213.795 139.498C210.479 145.32 205.356 149.669 200.516 154.187C197.054 157.418 193.507 160.3 189.352 162.608C187.96 163.381 186.756 164.456 185.368 165.242C184.447 165.765 183.52 166.002 182.514 166.261C182.032 166.385 181.539 166.45 181.074 166.611C180.656 166.756 180.355 167.006 179.997 167.195C179.754 167.324 179.763 167.211 179.763 166.981C179.763 165.833 180.084 164.559 180.451 163.484C182.22 158.305 185.944 154.107 189.767 150.326C190.742 149.362 190.093 151.457 189.994 151.819C189.262 154.488 187.825 156.83 186.549 159.254C186.473 159.398 186.253 159.792 186.238 159.63C186.217 159.417 186.444 158.965 186.497 158.865C187.349 157.249 188.436 155.721 189.455 154.213C191.119 151.751 192.894 149.385 194.678 147.011C195.45 145.982 196.145 144.673 197.084 143.773C197.298 143.569 197.374 144.309 197.396 144.604C197.504 146.068 197.564 147.555 197.389 149.016C197.339 149.434 197 150.622 197.227 150.268C198.302 148.588 199.374 146.927 200.523 145.292C201.453 143.966 202.352 142.618 203.286 141.295C203.426 141.097 203.677 140.753 203.831 140.529C203.834 140.526 203.947 140.271 204 140.361C204.233 140.761 204.223 141.432 204.285 141.879C204.314 142.089 204.273 143.062 204.473 143.196C204.824 143.43 207.563 138.621 207.866 138.116C208.048 137.813 208.267 137.267 208.554 137.026C208.588 136.997 208.55 137.91 208.541 137.98C208.491 138.349 208.444 138.742 208.32 139.096C208.266 139.252 208.59 137.808 208.619 137.714C209.322 135.393 210.305 133.16 210.883 130.804C211.173 129.622 211.318 129.061 212.342 128.455C213.422 127.817 214.051 127.772 215.073 128.63C217.305 130.502 216.85 134.483 216.008 136.903C214.852 140.22 213.216 143.509 210.701 146.025C209.626 147.1 208.284 147.855 206.971 148.601C204.694 149.892 202.558 151.285 200.529 152.941C196.915 155.892 192.609 158.294 187.821 158.294" stroke="#7FDBE0" stroke-width="10.8" stroke-linecap="round"/>
<path d="M97.324 169.271C97.324 170.235 97.2896 167.341 97.324 166.377C97.3319 166.158 97.5599 166.055 97.616 165.82C97.6354 165.738 97.7809 165.011 97.7911 165.184C97.8846 166.774 97.93 168.377 97.9079 169.971C97.9011 170.457 97.4491 171.034 97.1813 170.438C96.9963 170.027 96.513 167.281 97.0905 167.402C97.7093 167.533 97.9399 169.674 97.7652 170.179C97.6435 170.53 97.1914 170.03 97.097 169.906C96.7748 169.484 96.725 168.903 96.7402 168.388C96.7471 168.152 97.8093 167.277 98.0247 167.169" stroke="#F0F0F1" stroke-width="10.8" stroke-linecap="round"/>
<path d="M123.4 158.677C122.637 158.022 121.667 157.568 120.803 157.067C119.009 156.026 117.211 155.037 115.372 154.077C113.409 153.052 111.438 152.046 109.498 150.977C108.3 150.318 107.078 149.644 105.808 149.132C104.375 148.555 102.852 148.492 101.334 148.306C99.6023 148.094 97.8865 147.747 96.1804 147.386C95.6162 147.267 94.9556 146.883 94.3668 147.062C92.9173 147.503 91.3402 147.354 89.8667 147.715C87.6334 148.263 85.3817 148.679 83.1662 149.31C80.457 150.081 77.7271 150.889 74.9134 151.192C74.173 151.271 73.3202 151.171 72.828 151.882C72.6847 152.089 74.7182 151.997 74.7932 151.997C80.543 151.997 86.319 151.54 92.0566 152.049C93.4867 152.176 94.9338 152.418 96.3268 152.77C97.1798 152.986 98.0305 153.245 98.9087 153.335C99.957 153.442 101 153.365 102.05 153.413C102.98 153.455 103.859 153.727 104.778 153.831C105.985 153.968 107.227 153.949 108.442 154.046C109.662 154.143 110.939 154.041 112.142 154.26C112.347 154.297 112.665 154.343 112.864 154.443" stroke="#FF7D7D" stroke-width="10.8" stroke-linecap="round"/>
<path d="M77.0626 135.502C73.7941 135.502 70.309 135.154 67.162 136.193C65.0972 136.874 63.1737 137.895 61.3014 138.984C60.3525 139.536 55.7072 142.163 59.0953 139.649C66.171 134.397 73.5157 129.488 80.8368 124.59C88.4661 119.485 96.6909 114.795 103.814 108.973C104.294 108.58 105.57 107.773 104.997 107.537C103.549 106.941 97.2707 110.222 96.7309 110.461C83.8254 116.187 71.5281 123.086 59.9193 131.116C58.9586 131.78 55.7403 134.085 54.5503 134.97C53.2472 135.94 52.932 136.273 54.8959 135.143C62.0717 131.014 69.0444 126.312 75.5476 121.187C76.8707 120.145 80.6062 117.495 78.9231 117.426C76.8743 117.342 73.813 119.096 72.2119 119.885C67.9981 121.962 64.0202 124.428 60.2914 127.288C56.4539 130.231 52.2531 133.604 49.2877 137.482C48.6605 138.302 48.641 138.802 49.9256 138.506C52.7744 137.847 55.5203 136.355 58.0189 134.904C63.7616 131.567 69.1527 127.387 72.903 121.839C73.4029 121.099 74.2327 120.443 74.2984 119.553C74.4665 117.272 69.6882 120.158 67.6271 121.147C64.369 122.712 61.1947 124.448 58.0322 126.198C54.2906 128.268 46.6636 132.505 42.8291 135.661C41.0419 137.132 40.8945 137.717 42.869 137.868C45.9791 138.105 49.3002 136.24 51.7861 134.651C56.1964 131.832 60.1522 128.248 63.627 124.351C65.1472 122.645 67.0621 120.482 67.76 118.197C68.3953 116.116 66.4696 116.16 65.0091 116.469C60.6547 117.39 56.627 120.659 52.9689 123.035C49.8911 125.034 46.7988 127.067 43.972 129.414C42.8557 130.342 41.2072 131.526 40.756 133.003C40.0424 135.339 44.0204 129.284 45.0617 127.075C47.0335 122.892 48.9628 119.233 52.7829 116.403C56.6454 113.541 61.3108 111.427 65.7666 109.664C70.3736 107.841 75.4011 106.741 80.3185 106.222C85.1119 105.715 90.8512 104.771 95.5614 106.195C95.9462 106.311 98.8712 107.547 97.608 108.042C94.5679 109.236 91.1908 109.794 88.0529 110.674C81.8908 112.403 75.7562 114.26 69.7667 116.522C67.9165 117.221 66.0656 117.925 64.225 118.649C63.8177 118.809 63.1456 119.266 63.1884 118.516C63.2322 117.75 64.0947 117.101 64.6237 116.668C66.8284 114.864 69.5148 113.542 72.0658 112.309C81.3108 107.84 91.5813 107.558 101.635 107.763C106.806 107.869 112.145 107.824 117.276 108.521C123.939 109.426 130.805 112.808 136.253 116.575C136.803 116.955 143.433 121.375 142.818 122.45C142.332 123.301 138.118 122.252 137.343 122.104C136.683 121.978 135.962 121.959 135.323 121.746C135.178 121.697 134.68 121.441 134.752 121.573C136.041 123.936 137.618 126.128 138.778 128.577C139.726 130.578 141.612 133.349 144.161 133.349C145.009 133.349 145.839 133.068 146.672 132.923C148.182 132.662 148.382 132.713 147.018 133.774C145.285 135.122 146.839 136.051 147.629 137.549C150.753 143.467 143.791 149.71 138.752 151.611C138.37 151.754 136.88 152.451 136.533 151.916C135.907 150.953 136.147 149.17 136.147 148.088C136.147 147.314 136.796 145.311 136.041 145.311C133.928 145.311 131.815 145.311 129.702 145.311C128.961 145.311 128.08 145.178 127.35 145.324C127.292 145.335 128.574 146.808 128.732 146.985C129.778 148.162 131.206 149.556 131.788 151.052C131.893 151.323 131.203 150.938 130.964 150.773C129.72 149.915 128.513 148.977 127.31 148.062C121.57 143.694 115.37 139.939 108.558 137.522C105.165 136.318 101.689 135.338 98.2724 134.199C96.8074 133.711 95.5248 133.588 93.9932 133.588C89.3945 133.588 84.9279 134.549 80.5577 135.967C80.1577 136.097 79.0244 136.517 79.3218 136.219C79.4519 136.089 80.2848 135.771 80.2919 135.768C82.5246 134.771 84.885 134.015 87.2157 133.295C97.7938 130.032 108.596 127.531 119.575 126.078C128.035 124.959 136.493 124.736 145.011 124.736C145.113 124.736 148.196 124.649 146.353 125.082C143.915 125.655 141.347 125.855 138.872 126.145C131.888 126.963 124.906 127.782 117.941 128.75C107.324 130.226 96.8912 132.372 86.3651 134.332C84.8717 134.61 83.3199 134.925 81.7936 134.983C81.558 134.992 80.9719 134.825 81.1557 134.678C81.6478 134.282 83.2816 133.639 83.5478 133.535C87.4188 132.021 91.3982 130.722 95.4285 129.707C104.495 127.422 113.86 126.282 123.203 126.185C124.911 126.167 129.658 125.605 128.306 126.65C127.508 127.267 125.485 127.272 124.652 127.354C121.836 127.632 118.989 127.763 116.16 127.74C112.578 127.711 107.134 128.072 104.891 124.577C102.194 120.376 109.476 118.163 112.279 117.453C117.424 116.149 123.856 115.296 128.772 117.772C131.375 119.082 134.809 122.002 133.396 125.387C131.46 130.026 124.578 131.56 120.28 132.285C113.013 133.511 104.929 134.278 97.6611 132.578C96.2449 132.246 92.5478 130.864 93.1693 128.657C93.5983 127.134 95.9348 126.131 97.1827 125.613C100.57 124.209 104.278 123.663 107.894 123.274C115.941 122.409 124.392 122.445 131.841 126.039C134.101 127.129 135.888 128.701 137.343 130.717C138.102 131.767 139.401 133.517 139.177 134.97C138.918 136.652 136.679 137.437 135.39 137.841C131.6 139.03 127.464 139.409 123.522 139.649C116.2 140.094 107.533 139.962 100.904 136.379C99.0653 135.385 95.8675 133.686 94.9767 131.607C94.0477 129.44 103.171 129.906 103.522 129.92C115.068 130.378 128.293 134.382 135.722 143.875C136.27 144.575 136.746 145.358 135.403 145.204C131.5 144.758 127.802 142.55 124.825 140.114C124.644 139.966 120.581 136.494 121.981 135.94C123.225 135.448 125.413 135.749 126.659 135.847C129.434 136.066 132.028 136.754 134.632 137.721C137.849 138.916 140.783 140.498 143.616 142.413C144.252 142.843 145.719 144.497 145.476 143.769C145.172 142.857 144.218 141.851 143.696 141.097C141.167 137.453 138.347 133.926 134.805 131.209C127.203 125.377 117.298 122.517 108.213 119.898C101.368 117.925 93.6783 115.696 86.6841 118.277C85.3851 118.756 82.8036 119.897 82.8036 121.626C82.8036 122.07 82.7848 124.162 82.9232 124.032C84.6563 122.395 86.8415 121.177 88.8635 119.951C93.5238 117.126 98.2989 114.714 103.349 112.668C104.316 112.276 105.353 111.813 106.392 111.618C106.405 111.615 107.068 111.51 107.097 111.631C107.292 112.45 106.044 112.95 105.449 113.545C103.646 115.348 101.765 117.06 99.814 118.702C96.4408 121.54 92.998 124.527 89.2622 126.889C89.05 127.023 86.6302 128.708 86.2854 128.511C85.5118 128.069 85.3537 124.927 85.5412 124.231C86.1747 121.878 88.6997 120.251 90.6177 119.034C93.9095 116.946 97.6224 115.082 101.316 113.824C102.338 113.476 105.482 112.7 104.425 112.92C102.601 113.3 100.694 113.487 98.8439 113.199C94.8622 112.58 93.4106 109.664 93.3288 105.942C93.2826 103.843 93.4118 103.893 95.6278 103.444C99.1979 102.719 102.738 102.248 106.379 102.248C109.557 102.248 112.396 102.931 115.469 103.736C120.3 105.001 125.369 105.781 130.061 107.498C133.567 108.781 136.977 110.661 140.134 112.641C145.201 115.819 150.251 119.959 153.184 125.268C156.243 130.803 157.827 136.942 159.59 142.971C159.753 143.529 159.929 144.091 160.055 144.659C160.25 145.539 159.585 142.917 159.284 142.068C157.932 138.25 155.523 134.173 155.523 130.026C155.523 127.403 159.511 130.832 160.228 131.514C164.662 135.734 166.261 141.693 166.261 147.69C166.261 150.85 164.177 147.184 163.576 146.214C162.905 145.13 158.6 138.375 162.141 138.187C166.106 137.976 168.064 144.485 168.773 147.504C169.47 150.475 169.929 153.909 169.583 156.98C169.316 159.355 168.61 161.668 168.454 164.091C168.378 165.257 168.48 166.355 168.254 167.507C168.138 168.099 168.062 170.064 167.603 170.431C166.885 171.006 169.184 171.657 169.477 171.853C169.779 172.054 168.748 171.859 168.387 171.813C167.281 171.67 166.175 171.554 165.065 171.441C163.54 171.285 162.081 171.148 160.547 171.148C158.843 171.148 156.342 171.577 154.805 170.962C153.658 170.503 151.728 170.909 150.486 170.909C149.596 170.909 148.706 170.909 147.815 170.909C145.636 170.909 143.456 170.909 141.277 170.909C136.652 170.909 132.037 170.67 127.429 170.67C125.522 170.67 122.955 170.44 121.13 169.899C119.04 169.28 116.163 169.612 114.047 170.072C113.12 170.273 107.203 171.941 107.203 170.79C107.203 170.09 106.798 166.655 107.681 166.603C109.359 166.504 111.003 166.364 112.705 166.364C114.508 166.364 116.772 165.997 118.459 166.736C120.004 167.412 121.654 167.829 123.323 168.025C125.617 168.295 128.86 168.521 130.592 166.789C132.544 164.837 132.424 162.122 132.851 159.612C132.995 158.769 132.865 157.162 133.41 156.462C134.182 155.468 136.508 162.218 136.626 162.562C136.964 163.551 137.327 164.705 137.928 165.579C138.359 166.207 140.083 162.058 140.121 161.978C141.37 159.273 142.587 156.551 143.642 153.764C143.723 153.552 144.743 149.886 144.759 151.371C144.809 156.039 144.28 160.675 144.28 165.34C144.28 165.844 146.631 161.675 146.845 161.22C149.104 156.415 150.991 151.292 152.214 146.121C152.386 145.395 152.454 142.984 153.078 142.36C153.282 142.156 153.131 142.935 153.131 143.224C153.131 144.557 153.131 145.891 153.131 147.224C153.131 153.041 153.195 158.717 152.427 164.476C152.304 165.398 152.421 162.615 152.413 161.685C152.372 156.75 151.955 151.819 151.271 146.932C150.991 144.94 150.309 142.889 150.261 140.871C150.238 139.942 152.426 141.908 152.52 141.988C157.219 145.974 161.409 151.293 162.048 157.618C162.2 159.124 162.334 161.367 161.238 162.589C159.98 163.989 157.989 164.513 156.241 164.928C153.959 165.469 151.68 166.124 149.317 166.124C149.237 166.124 147.978 166.088 148.427 166.138C149.824 166.293 151.216 166.548 152.613 166.722C153.512 166.835 154.407 167.012 155.31 167.081C157.325 167.236 151.271 167.215 149.251 167.267C146.983 167.326 144.715 167.321 142.446 167.321C140.406 167.321 143.312 167.118 143.696 167.068C146.928 166.646 150.121 166.211 153.264 165.3C155.856 164.549 160.163 163.457 161.397 160.648C163.392 156.108 159.787 150.093 157.224 146.44C155.803 144.415 154.408 142.03 152.493 140.419C151.349 139.457 150.283 138.57 149.915 137.044C149.845 136.754 149.538 133.953 150.074 134.12C151.334 134.51 154.515 136.876 153.264 136.459C152.62 136.244 152.049 135.642 151.536 135.236C149.639 133.733 147.698 132.251 145.716 130.863C141.361 127.815 136.345 125.766 131.124 124.789C124.749 123.597 118.361 122.639 111.894 122.118C106.856 121.712 100.78 121.112 95.8272 122.503C91.4102 123.744 87.3064 126.503 83.0959 128.325C80.8673 129.289 78.6374 130.254 76.3317 131.023C75.0553 131.448 73.6851 131.667 72.4644 132.245C70.6648 133.098 69.2036 134.545 67.6271 135.794C65.4182 137.544 63.3794 139.195 61.3279 141.137C60.206 142.199 59.272 143.38 58.2182 144.5C57.9069 144.831 57.4316 145.026 57.2082 145.417C57.0678 145.663 57.6354 144.961 57.7398 144.885C58.7069 144.185 59.8296 143.719 60.8761 143.157C63.636 141.676 66.2311 140.347 69.1687 139.33C71.4596 138.536 73.7046 137.695 76.0526 136.99C77.5604 136.538 79.1833 136.515 80.7039 136.1C82.2823 135.669 82.4308 135.741 80.6374 135.741C78.3047 135.741 76.4843 136.997 74.4578 138C72.7799 138.832 70.8227 139.277 69.3016 140.393C67.7408 141.538 66.0878 142.465 64.4908 143.53C62.6801 144.737 60.97 145.455 59.3079 146.852C57.6506 148.246 57.0475 150.228 55.9856 152.049C55.6262 152.665 54.4428 155.845 54.2181 153.777C53.7023 149.031 54.6471 144.356 55.2414 139.675C55.3634 138.714 54.411 139.069 53.846 139.33C50.9454 140.665 48.1781 142.998 45.899 145.204C45.1765 145.903 44.611 146.737 43.9188 147.464C43.6442 147.752 43.8072 146.835 43.8125 146.64C43.8522 145.17 44.149 143.657 44.5833 142.254C44.6331 142.093 45.3621 140.12 44.477 140.685C41.9194 142.318 40.5513 146.379 39.7593 149.152C39.6509 149.531 39.5068 149.264 39.5068 149.032C39.5068 146.608 40.953 144.394 42.1912 142.413C43.0193 141.088 43.9363 139.711 45.0484 138.599C45.3091 138.338 43.9917 140.315 43.7859 140.566C42.6125 141.994 41.7847 143.587 40.7427 145.098C40.4261 145.557 40.225 145.55 39.7194 145.55C38.4894 145.55 36.608 145.346 35.5598 146.161C35.1348 146.492 34.7881 146.714 34.2442 146.746C34.0092 146.76 34.25 148.971 34.2442 149.324C34.2018 151.911 29.707 152.758 30.4168 155.305C30.949 157.215 31.3766 159.489 32.5697 160.981C33.0579 161.591 33.6361 160.163 33.7657 159.904C34.1799 159.076 34.4203 158.469 35.4269 158.469C36.3775 158.469 37.2638 158.438 38.1778 158.761C38.9386 159.03 40.7337 159.869 41.54 159.372C42.2439 158.939 43.5566 156.72 43.7594 155.89C44.004 154.889 44.3327 153.873 44.5169 152.86C44.5876 152.471 44.6322 152.009 44.158 152.009C43.7107 152.009 45.0827 152.004 45.487 152.195C46.8596 152.846 48.1838 153.018 49.2612 154.216C49.8994 154.925 50.1202 155.311 51.2014 155.904C53.0965 156.943 54.966 158.023 56.8361 159.107C57.141 159.283 58.2102 160.032 58.7498 160.13C59.3174 160.233 59.1219 159.073 59.1352 158.788C59.16 158.255 59.3611 156.014 59.3611 156.129C59.3611 156.894 59.3456 158.06 59.9857 158.602C61.2656 159.685 63.0675 160.172 64.6769 160.436C65.4178 160.557 66.0514 160.801 66.5905 161.286C69.2007 163.636 73.5509 163.863 76.8234 164.157C78.6263 164.319 80.066 164.49 81.8467 164.875C83.266 165.182 84.1427 164.394 84.2388 166.124C84.2637 166.573 84.478 166.95 84.478 167.44C84.478 167.916 85.1258 167.146 85.1824 166.948C85.2295 166.783 85.7122 165.781 85.6209 165.699C85.231 165.348 83.9925 165.825 83.7604 166.231C83.5379 166.62 81.9175 167.321 83.0428 167.321C83.9892 167.321 86.0825 167.576 83.9996 167.028C82.2694 166.573 80.7463 166.364 78.9762 166.364C76.126 166.364 73.2127 165.499 70.4577 166.111C69.0237 166.43 67.2079 166.124 65.74 166.124C64.5959 166.124 63.475 166.063 62.3645 165.752C61.5002 165.51 60.6585 164.709 59.7864 164.689C57.8191 164.644 55.654 164.452 53.7264 164.875C53.3463 164.958 51.9456 165.517 51.9456 165.048C51.9456 164.052 52.4105 164.176 53.3277 163.785C55.1278 163.018 56.2443 161.47 57.6601 160.183C58.5445 159.379 59.1219 158.673 59.1219 157.419C59.1219 155.234 59.1219 153.432 59.1219 151.052C59.1219 150.831 58.9943 151.603 58.9757 151.65C58.691 152.378 58.1192 153.128 57.6866 153.777C56.6762 155.293 54.9835 156.13 53.434 156.98C52.2389 157.636 43.7729 160.341 45.8857 162.655C46.6587 163.502 48.7931 164.212 49.9256 163.679C50.1864 163.556 48.8843 163.493 48.7163 163.493C48.0385 163.493 47.3608 163.493 46.683 163.493C46.597 163.493 48.2494 163.944 48.6499 164.024C50.6778 164.43 48.8842 164.689 47.8791 164.689C46.6668 164.689 45.6036 164.412 44.4238 164.197C43.4264 164.016 42.7476 163.732 41.6596 163.732C40.419 163.732 38.6761 163.795 37.5931 163.253" stroke="#7FDBE0" stroke-width="9.45002" stroke-linecap="round"/>
<path d="M126.006 257.683C127.422 259.414 128.198 261.676 128.984 263.729C129.918 266.168 131.389 268.358 132.112 270.888C132.672 272.848 132.676 274.938 133.194 276.919C133.848 279.413 134.636 281.926 135.48 284.363C136.719 287.944 139.832 289.737 143.119 291.252C148.482 293.724 154.684 296.124 160.653 296.124C162.854 296.124 165.071 296.203 167.27 296.124C169.173 296.057 170.096 294.858 171.496 293.808C173.856 292.038 175.327 289.614 175.27 286.649C175.198 282.878 172.039 280.174 169.075 278.408C166.004 276.579 162.374 275.665 159.074 274.317C154.367 272.394 149.733 270.332 145.044 268.361C139.706 266.117 134.579 263.932 129.676 260.811C128.4 259.999 130.494 262.52 130.668 262.736C134.917 268.035 139.21 273.305 143.285 278.739C145.298 281.423 147.71 284.162 149.225 287.191C150.966 290.674 145.161 280.537 143.42 277.054C142.646 275.507 141.763 273.887 141.285 272.211C140.808 270.543 142.97 273.23 143.089 273.354C148.459 278.991 153.994 284.513 159.661 289.838C162.164 292.19 155.64 284.255 153.375 281.671C152.429 280.592 151.288 279.518 150.488 278.318C150.018 277.613 152.757 278.895 152.804 278.919C157.615 281.407 161.616 285.083 166.052 288.108C167.172 288.872 166.916 283.796 166.864 283.04C166.703 280.705 164.553 284.367 163.962 284.845C160.232 287.861 153.333 285.33 149.375 284.093C145.998 283.037 143.287 281.506 139.811 281.506" stroke="#FBF9BC" stroke-width="9.45002" stroke-linecap="round"/>
<path d="M77.7883 268.275C77.7883 273.271 77.9826 278.206 76.7796 282.731C76.0349 285.532 75.2936 287.589 77.2543 288.121C87.67 290.942 98.0507 294.443 108.584 293.954C109.794 293.898 111.22 292.774 112.367 291.957C113.847 290.902 115.413 290.954 116.891 289.959C118.554 288.84 120.366 287.677 122.113 287.677C123.714 287.677 122.713 282.934 122.439 280.829C121.907 276.733 121.722 271.834 120.911 268.021C120.586 266.493 119.523 267.133 118.849 267.133C115.976 267.133 113.104 267.133 110.231 267.133C105.291 267.133 100.351 267.133 95.4113 267.133C91.1413 267.133 86.872 268.165 82.6243 268.813C81.3106 269.014 78.3102 269.972 77.1208 268.56C76.8951 268.292 76.1202 267.168 76.2456 267.704C76.6338 269.363 77.068 271.023 77.5361 272.586C78.7955 276.792 80.572 277.893 82.8023 278.99C86.119 280.621 89.4611 282.196 92.8153 283.428C96.7187 284.862 100.452 285.394 104.401 285.394C106.778 285.394 109.626 286.351 111.951 285.109C112.861 284.623 113.346 283.427 114.162 282.414C114.67 281.783 116.015 281.215 116.238 280.258" stroke="#FBF9BC" stroke-width="22" stroke-linecap="round"/>
<path d="M71.0577 291.251C71.0577 293.678 71.0577 296.104 71.0577 298.531C71.0577 301.146 70.6016 304.24 71.0728 306.833C71.4885 309.119 75.3357 311.068 77.1631 311.705C81.2855 313.143 85.7613 314.335 90.0354 315.21C92.9577 315.807 95.9708 315.616 98.9378 315.616C101.501 315.616 103.682 315.212 106.186 314.864C109.013 314.47 111.91 313.715 114.607 312.788C116.552 312.119 118.879 311.512 120.652 310.472C121.789 309.806 123.209 309.631 124.322 308.848C125.553 307.981 126.272 305.773 126.848 304.456C127.8 302.281 129.274 297.755 127.479 295.448C125.522 292.931 121.612 294.033 118.818 294.229C114.418 294.538 110.025 294.951 105.615 295.252C100.2 295.621 94.7881 296.649 89.3437 295.959C86.1716 295.557 83.1034 294.168 79.9 293.974C78.1717 293.869 76.5355 294.075 74.8473 293.628C74.3553 293.497 73.873 293.252 73.3736 293.162C72.5521 293.012 72.7103 296.109 72.6969 296.545C72.6413 298.351 72.4115 300.519 72.8623 302.291C73.6606 305.427 77.7208 305.942 80.3511 306.622C84.7522 307.76 89.2545 308.315 93.7798 308.682C95.3482 308.81 98.2483 309.37 99.5694 308.096C100.71 306.996 96.5485 305.549 96.2009 305.434C90.9269 303.691 85.3859 302.769 79.8398 302.636C79.8236 302.636 76.7433 302.515 77.3435 302.892C81.4686 305.485 87.3236 306.77 92.0805 307.374C94.4292 307.672 96.8282 307.752 99.1934 307.72C101.147 307.693 103.355 307.735 104.803 306.201C106.719 304.169 106.819 301.007 104.081 299.824C101.28 298.614 97.3251 298.404 94.4264 299.433C92.0041 300.293 92.8287 302.242 94.8024 303.028C100.442 305.273 107.571 305.589 113.554 305.148C116.537 304.928 121.548 304.117 122.968 300.877C123.933 298.676 121.269 298.847 119.825 298.877C115.279 298.97 111.019 300.826 107.765 304.02C107.413 304.366 105.152 306.884 106.427 307.374C109.915 308.716 115.066 305.555 117.494 303.373C119.508 301.565 122.615 297.691 117.66 298.711C117.6 298.724 115.897 299.399 116.712 299.583C118.549 299.998 121.047 298.159 122.306 297.057C122.918 296.522 123.907 295.678 124.231 294.891C124.413 294.45 124.289 293.963 124.517 293.553C124.83 292.988 124.892 292.079 125.464 291.793" stroke="#FBF9BC" stroke-width="9.45002" stroke-linecap="round"/>
<path d="M65.9148 319.676C64.7218 319.676 63.5288 319.676 62.3358 319.676C59.8552 319.676 56.7116 319.121 54.3357 319.947C53.0826 320.383 52.3063 320.97 51.283 321.857C50.5821 322.465 48.5913 323.649 48.5913 324.715C48.5913 325.286 48.5487 325.879 48.6514 326.444C48.8426 327.496 49.188 327.661 50.2604 328.354C55.2124 331.555 60.5781 334.211 65.8245 336.882C70.5505 339.287 73.5439 340.678 78.6367 339.499C81.1348 338.92 83.549 338.269 85.9601 337.378C88.5862 336.408 90.9215 334.706 93.7948 334.581C96.8407 334.448 100.052 334.364 103.088 334.626C106.261 334.899 109.325 336.287 112.412 337.002C113.883 337.343 115.426 338.085 116.938 338.085C118.692 338.085 120.447 338.085 122.201 338.085C125.142 338.085 120.657 338.037 119.991 337.965C116.087 337.542 111.891 337.187 108.081 336.19C106.719 335.834 105.335 335.649 103.93 335.649C103.452 335.649 100.423 335.751 100.472 335.814C101.881 337.627 104.507 338.433 106.577 339.108C109.734 340.136 113.059 340.675 116.246 341.619C117.98 342.133 119.608 343.02 121.464 342.958C123.515 342.89 125.464 341.607 127.179 340.642C128.439 339.933 129.939 339.522 131.299 339.033C132.933 338.444 134.129 337.432 135.51 336.446C137.2 335.238 138.891 333.852 140.081 332.129C140.671 331.275 141.916 329.694 141.976 328.61C142.211 324.374 135.094 322.113 131.75 322.113C129.52 322.113 127.907 323.122 125.84 323.858C122.826 324.931 119.088 325.994 115.87 326.159C109.27 326.497 102.673 327.798 96.0505 327.798C90.3213 327.798 85.1926 325.026 79.5691 324.339C77.206 324.05 74.8471 323.441 72.8321 322.098C71.3853 321.133 69.7542 319.634 67.9449 319.421C63.785 318.931 58.6752 319.556 54.9372 321.361C53.4664 322.071 52.0645 323.317 53.4635 324.97C55.4862 327.361 60.2543 327.649 63.0426 328.204C68.4286 329.276 73.7191 330.345 78.9826 331.934C80.1162 332.276 86.7348 334.384 81.9751 332.761C78.0746 331.431 74.1262 330.52 70.0351 330.024C68.3496 329.819 63.2545 329.693 64.9523 329.693C71.8631 329.693 78.5653 330.465 85.2834 332.084C85.8153 332.212 87.3667 332.72 86.8774 332.475C83.9615 331.017 80.8695 329.855 77.8548 328.625C75.2789 327.574 72.7185 326.511 70.1855 325.361C69.8684 325.218 67.375 323.78 67.6591 324.85C68.3305 327.378 69.7731 329.839 71.0878 332.069C71.688 333.087 73.2333 336.162 73.1028 334.987C73.0027 334.086 71.8303 332.857 71.3284 332.159C70.4978 331.006 69.5385 329.828 68.5313 328.821C67.9597 328.249 68.6084 328.899 68.8922 329.106C71.1289 330.739 73.6848 331.945 76.2156 333.047C81.7521 335.456 88.0324 334.971 93.9452 334.776C101.814 334.517 109.523 334.673 117.374 335.212C122.169 335.542 127.093 335.55 131.901 335.378C132.285 335.364 127.28 333.554 126.848 333.423C122.483 332.098 118.065 331.177 113.585 330.355C113.201 330.284 112.112 330.056 112.487 329.949C114.908 329.257 117.442 328.845 119.885 328.219C122.125 327.645 124.419 327.073 126.712 326.745C127.713 326.602 126.638 327.117 126.352 327.302C124.389 328.568 122.689 329.597 125.855 330.505C128.626 331.3 131.505 331.67 134.307 332.34C134.451 332.374 136.113 333.012 135.57 332.28C135.05 331.58 131.874 329.053 132.577 328.069C133.205 327.19 137.776 327.343 137.6 326.023C137.424 324.705 135.261 324.599 134.728 323.466C134.44 322.855 136.853 323.116 137.043 322.654C137.123 322.462 135.561 321.06 135.675 321.06C137.253 321.06 139.465 322.619 140.337 323.873C141.401 325.403 141.785 327.256 139.54 327.256" stroke="#F0F0F1" stroke-width="9.45002" stroke-linecap="round"/>
<path d="M38.3051 337.814C38.3051 338.713 37.9974 340.563 38.6359 341.273C39.5345 342.271 44.88 340.761 45.6134 339.844C45.9798 339.386 46.8941 339.28 47.3729 338.897C48.0347 338.367 45.6017 336.707 45.2074 336.475C43.4389 335.435 41.1089 335.648 39.1171 335.648" stroke="#ED6944" stroke-width="9.45002" stroke-linecap="round"/>
<path d="M149.825 337.273C149.547 337.308 147.419 339.666 147.419 339.859C147.419 340.308 149.405 341.317 149.72 341.468C151.061 342.114 152.711 342.755 154.156 343.168C155.512 343.555 155.093 343.131 156.051 342.145C156.676 341.502 158.216 340.544 158.216 339.574C158.216 337.447 154.529 337.747 153.344 337.273" stroke="#ED6944" stroke-width="9.45002" stroke-linecap="round"/>
<path d="M170.94 344.582C169.812 344.582 168.316 346.395 167.557 347.154C166.669 348.041 165.534 350.233 165.812 351.485C166.373 354.01 172.552 354.599 174.609 354.599C176.7 354.599 178.12 354.437 179.873 353.185C181.547 351.989 183.326 350.085 184.414 348.312C185.847 345.976 186.879 343.778 186.339 340.943C186.035 339.347 182.314 339.943 181.301 340.145C178.573 340.691 175.747 342.054 174.203 344.447C173.406 345.684 172.374 348.085 172.895 349.605C173.187 350.456 175.208 350.402 175.843 350.357C177.757 350.224 179.47 349.563 181.046 348.492C185.061 345.764 177.743 342.813 176.624 347.289" stroke="#7FDBE0" stroke-width="9.45002" stroke-linecap="round"/>
<path d="M187.826 288.706C185.921 288.706 185.109 288.968 183.938 290.473C182.629 292.156 180.051 294.51 180.051 296.835C180.051 299.154 185.302 295.459 185.902 294.871C187.299 293.501 187.611 292.532 188.179 290.826" stroke="#ED6944" stroke-width="9.45002" stroke-linecap="round"/>
<path d="M7.7182 335.919C7.10713 335.996 7.42576 338.924 7.44752 339.439C7.58175 342.616 10.9028 344.937 12.8461 347.124C13.9745 348.394 15.5305 349.853 17.192 350.327C18.4077 350.675 20.3178 351.371 21.3725 352.042C22.447 352.726 26.9386 354.7 27.538 353.035C28.0198 351.696 28.9236 350.654 29.0869 349.184C29.305 347.221 29.0032 345.668 28.0192 343.981C26.6773 341.68 25.0099 339.6 23.2673 337.604C21.7268 335.839 20.3536 333.881 18.4101 332.535C15.0158 330.185 8.51048 332.657 10.1092 337.453C10.8656 339.723 12.9673 341.762 14.5453 343.499C16.019 345.122 17.4774 346.978 19.3274 348.192C22.6672 350.384 20.1967 343.38 19.568 342.206C19.379 341.853 18.1741 340.072 18.3349 340.176C19.458 340.898 20.5262 341.759 21.6281 342.522C23.8745 344.077 18.4521 337.867 16.1093 336.461" stroke="#7FDBE0" stroke-width="9.45002" stroke-linecap="round"/>
<path d="M89.0607 381.462C89.0607 382.948 90.0874 398.087 88.2569 398.087C85.4203 398.087 82.0723 397.092 79.2784 397.916C76.8655 398.628 75.429 401.493 72.9165 402.158C72.6814 402.22 71.6099 402.293 71.5313 402.569C71.459 402.822 71.6786 403.516 71.3431 403.612C70.8319 403.758 66.2842 402.743 68.641 404.108C70.5586 405.218 72.9413 405.22 75.0885 405.151C79.1251 405.023 83.1125 404.553 87.1624 404.553C88.5942 404.553 90.0332 404.509 91.455 404.707C91.4874 404.711 92.743 405.004 92.6692 404.672C92.4056 403.486 88.9307 402.768 88.0175 402.586C87.4495 402.472 85.3805 401.956 85.1273 402.842C84.8175 403.927 84.9621 405.637 85.6403 406.537C87.0889 408.459 89.5873 409.44 91.8655 409.889C94.3055 410.37 97.7601 411.078 100.177 410.334C104.585 408.977 101.956 402.774 100.211 400.448C99.2344 399.145 96.4071 398.675 95.2174 399.935C93.6256 401.62 103.575 402.666 104.435 402.688C106.361 402.739 108.243 402.398 110.147 402.398C111.003 402.398 110.837 402.781 111.259 403.475C112.618 405.708 115.511 406.752 117.98 406.999C121.51 407.352 116.147 402.863 115.398 402.295C112.594 400.171 109.291 401.686 106.231 401.782C105.4 401.808 101.037 400.854 101.066 400.55C101.237 398.758 102.571 397.073 103.341 395.505C104.264 393.623 105.14 391.713 105.513 389.638C105.764 388.24 105.837 386.599 105.513 385.208C105.106 383.464 105.068 384.469 105.068 385.653C105.068 387.781 104.56 392.657 101.443 392.546C99.09 392.462 100.347 385.488 99.835 383.891C99.4714 382.757 94.304 384.764 92.7548 383.788C91.3063 382.876 90.6372 380.732 88.9923 380.162C86.2054 379.197 91.3319 380.152 92.0194 380.231C93.5551 380.406 95.1041 380.628 96.654 380.522C98.4666 380.396 99.8653 379.452 101.528 378.862C103.353 378.215 105.186 378.273 106.744 376.998C107.069 376.733 107.664 376.503 107.822 376.109C108.137 375.319 107.457 377.771 107.223 378.589C106.023 382.788 104.496 387.076 104.452 391.485C104.444 392.342 104.102 394.68 105.068 395.248C105.493 395.498 106.065 392.555 106.128 392.34C106.89 389.754 107.197 387.204 107.223 384.507C107.237 383.06 107.116 382.238 107.531 384.13C108.412 388.143 108.762 392.143 108.762 396.24" stroke="#F0F0F1" stroke-width="9.45002" stroke-linecap="round"/>
<ellipse cx="68.4519" cy="207.361" rx="15.9221" ry="7.73367" fill="#D34B4B"/>
<ellipse cx="131.633" cy="207.361" rx="15.9221" ry="7.73367" fill="#D34B4B"/>
<path d="M169.782 176.066C157.405 190.996 136.863 187.423 122.189 177.852C120.913 176.959 119.382 177.469 118.361 178.363C105.729 188.316 88.5036 184.36 76.8924 174.534C75.744 173.513 74.3405 173.386 73.0645 174.024C59.1566 181.298 37.7204 184.998 32.489 165.474C31.4682 161.518 25.216 163.177 26.3643 167.133C28.2783 174.407 33.3822 180.915 40.2723 184.233C52.1388 189.848 65.4088 185.126 76.2544 179.511C74.9785 179.384 73.7025 179.128 72.4265 179.001C86.9725 191.379 107.26 195.08 122.955 182.829C121.679 182.957 120.403 183.212 119.127 183.34C136.097 194.442 160.34 197.632 174.503 180.532C176.928 177.342 172.462 172.875 169.782 176.066Z" fill="#F879C6"/>
<path d="M159.32 190.741C161.872 190.741 164.041 191.634 165.062 194.059C165.955 196.101 166.848 199.674 165.572 201.716C163.658 204.523 157.278 203.757 154.216 203.885C152.685 203.885 151.026 204.013 149.495 203.885C145.412 203.375 145.412 209.755 149.495 210.266C152.94 210.648 156.64 210.266 160.085 209.883C165.317 209.5 170.548 208.096 172.079 202.354C173.1 198.525 172.079 193.804 170.293 190.358C168.252 186.274 163.786 184.36 159.32 184.488C155.237 184.488 155.237 190.869 159.32 190.741Z" fill="#F879C6"/>
<path d="M24.1973 164.07C32.2358 172.493 43.9747 174.024 54.8203 175.172C68.8559 176.704 82.8914 177.98 96.7994 179.001C113.004 180.277 129.336 181.425 145.669 181.808C151.538 181.936 157.535 182.063 163.404 181.808C166.594 181.681 170.933 181.808 173.612 180.022C178.716 176.831 177.95 166.112 177.695 161.135C177.057 149.012 173.612 136.761 166.977 126.552C146.689 95.1597 98.9685 87.7582 66.304 101.668C52.1408 107.666 40.2744 118.513 33.129 132.167C31.5979 135.102 30.5771 138.037 29.3011 141.1C29.8115 139.824 29.0459 141.61 28.7907 142.121C28.0251 143.78 27.2596 145.439 26.6216 147.098C24.7076 151.692 23.0489 156.669 23.3041 161.773C23.5593 165.857 29.9391 165.857 29.6839 161.773C29.1735 153.989 33.8945 145.566 37.212 138.42C41.8055 128.339 49.3337 119.406 58.6482 113.153C74.7253 102.306 94.7578 100.264 113.77 102.689C130.485 104.858 146.817 111.366 157.79 124.383C165.318 133.443 169.784 144.928 171.188 156.541C171.826 161.646 172.719 171.216 170.295 175.172C171.188 173.769 170.677 174.917 169.019 175.045C167.232 175.172 165.446 175.428 163.66 175.555C158.556 175.81 153.324 175.81 148.093 175.683C133.802 175.428 119.384 174.407 105.093 173.386C90.1644 172.237 75.108 170.961 60.1793 169.43C49.4612 168.281 36.7017 167.899 28.7907 159.604C25.856 156.541 21.3902 161.007 24.1973 164.07Z" fill="#F879C6"/>
<path d="M102.159 95.5423C102.669 96.8184 100.883 96.5632 102.542 96.4356C103.435 96.308 104.328 95.9252 105.221 95.7975C106.497 95.5423 107.773 95.4147 109.049 95.4147C109.687 95.4147 110.453 95.4147 111.091 95.5423C111.856 95.6699 112.622 96.0528 113.387 96.0528C114.663 96.0528 113.643 96.6908 114.153 95.6699C112.494 99.3707 117.981 102.689 119.64 98.8602C125.892 84.5677 92.4616 86.7371 96.1619 97.0737C97.3103 101.03 103.435 99.3707 102.159 95.5423Z" fill="#F879C6"/>
<path d="M175.525 152.585C180.629 147.48 186.115 142.504 191.729 138.037C196.578 134.081 211.124 121.192 218.269 125.659C223.884 129.232 219.545 139.568 217.249 143.524C213.038 150.671 206.658 156.541 200.023 161.39C191.474 167.515 181.904 170.451 172.08 173.768C168.252 175.045 169.91 181.298 173.738 179.894C182.287 176.959 191.091 174.534 198.747 169.813C210.103 162.794 222.48 152.074 226.18 138.803C228.477 130.763 226.18 118.895 215.973 118.64C206.531 118.385 197.088 125.914 190.071 131.401C183.308 136.633 176.928 142.248 170.931 148.246C168.124 150.926 172.59 155.52 175.525 152.585Z" fill="#F879C6"/>
<path d="M88.2497 231.99C88.1222 234.023 88.1222 236.057 88.2497 238.091C88.3773 240.238 88.2498 243.853 90.2913 245.435C93.3536 247.808 97.9471 243.853 94.7572 241.481C95.2676 241.932 95.0124 242.271 94.8848 241.481C94.8848 241.142 94.7571 240.69 94.6295 240.351C94.502 239.108 94.3744 237.865 94.3744 236.622C94.3744 235.04 94.3744 233.458 94.3744 231.877C94.7572 228.374 88.3773 228.374 88.2497 231.99Z" fill="#F879C6"/>
<path d="M103.05 231.747C103.306 232.987 103.561 234.114 103.816 235.354C103.944 236.481 104.454 239.75 103.944 240.426C101.392 243.244 105.858 247.301 108.409 244.371C111.727 240.539 110.323 234.565 109.175 230.169C108.282 226.675 102.157 228.253 103.05 231.747Z" fill="#F879C6"/>
<path d="M69.6202 310.824C69.365 292.831 71.1513 269.095 83.1453 254.547C89.2699 247.146 99.7328 244.338 108.537 248.549C114.279 251.357 118.234 256.716 121.041 262.331C123.21 266.798 124.742 271.647 125.635 276.496C126.145 279.304 126.145 279.176 126.4 281.346C127.166 287.599 127.676 293.852 127.549 299.977C127.421 306.613 127.294 312.611 120.403 315.035C111.472 318.225 101.264 318.991 91.9495 318.608C86.8456 318.481 81.7418 317.843 77.0207 315.928C74.9792 315.035 71.9169 312.228 69.8754 311.972C68.2166 311.717 70.1305 311.462 68.727 312.866C71.6617 309.931 67.0682 305.464 64.2611 308.399C59.6677 312.993 67.3235 318.225 70.7686 320.012C80.5935 325.117 91.9494 325.627 102.923 324.734C110.834 324.096 122.572 323.458 128.952 317.843C134.694 312.738 134.184 302.274 133.929 295.383C133.673 283.643 133.163 275.986 129.08 265.011C123.338 249.315 110.196 236.171 92.077 241.02C78.4243 244.721 71.6617 259.014 68.089 271.519C64.5163 284.025 62.9852 297.68 63.2404 310.696C63.368 315.035 69.7478 315.035 69.6202 310.824Z" fill="#F879C6"/>
<path d="M67.8348 281.218C58.3927 283.515 48.4403 285.046 38.743 284.408C33.2563 284.025 22.5383 281.09 26.4938 273.306C27.5146 271.264 29.556 269.605 31.47 268.457C32.7459 267.691 30.7045 268.712 32.4908 267.946C41.1673 264.118 50.3542 261.31 59.286 258.248C64.645 256.461 70.004 254.547 75.4906 253.016C77.7873 252.378 83.1464 250.336 85.0603 250.846C89.0158 252.122 90.6746 245.869 86.7191 244.721C84.1672 243.955 80.9773 244.976 78.4254 245.614C73.4491 246.89 68.4728 248.422 63.6242 250.081C53.6717 253.399 43.7192 256.972 33.8943 260.545C28.1525 262.714 22.7935 265.522 20.2416 271.519C15.1377 283.515 28.2801 290.023 37.9774 290.789C48.3127 291.682 59.286 289.896 69.4936 287.471C73.4491 286.322 71.7903 280.197 67.8348 281.218Z" fill="#F879C6"/>
<path d="M23.3031 269.478C14.499 267.436 -1.32289 268.329 1.86701 281.473C4.67413 293.469 20.8788 291.172 29.6829 288.364C33.5108 287.088 31.8521 280.963 28.0242 282.239C23.1755 283.77 11.8194 286.96 8.50194 281.345C3.90849 273.434 17.6889 274.71 21.5168 275.603C25.5998 276.624 27.2586 270.498 23.3031 269.478Z" fill="#F879C6"/>
<path d="M110.068 249.442C125.252 256.971 140.181 264.501 156.003 270.626C161.744 272.923 167.614 275.22 172.973 278.283C176.545 280.324 177.439 281.601 176.545 286.322C175.78 290.661 173.738 295 169.272 296.148C163.913 297.552 156.768 296.148 151.409 295.127C145.54 293.979 137.246 292.448 133.546 287.343C131.121 284.025 125.635 287.216 128.059 290.533C134.694 299.594 148.347 301.636 158.682 302.529C163.403 302.912 169.145 303.422 173.611 301.508C179.48 298.956 182.415 291.81 183.18 285.812C184.584 273.816 172.718 270.498 163.531 266.67C155.747 263.352 148.092 260.672 140.563 256.971C131.504 252.633 122.445 248.166 113.513 243.7C109.558 242.041 106.368 247.656 110.068 249.442Z" fill="#F879C6"/>
<path d="M182.798 289.385C184.074 288.875 185.606 288.364 187.137 288.237C187.647 288.237 189.051 288.109 189.306 288.492C190.199 289.64 188.54 293.852 188.158 295C187.264 297.68 185.733 300.36 182.671 299.977C180.502 299.722 176.291 298.063 175.015 296.404C175.27 297.169 175.653 297.935 175.908 298.701C175.908 298.701 175.908 298.701 175.908 298.573C176.419 294.49 170.039 294.49 169.528 298.573C169.018 302.657 178.588 305.719 181.395 306.23C187.137 307.378 191.475 303.55 193.644 298.573C195.686 293.851 197.982 285.429 191.858 282.622C188.668 281.218 184.457 281.984 181.267 283.26C177.312 284.791 178.971 290.916 182.798 289.385Z" fill="#F879C6"/>
<path d="M65.2835 310.696C61.0728 311.972 56.8622 313.503 52.6515 315.162C48.5685 316.949 41.9335 319.246 40.1471 323.84C37.7228 329.965 46.3993 336.856 50.4824 340.174C55.969 344.641 62.9868 349.745 70.3873 349.873C78.2983 350 85.5713 346.427 93.0995 344.386C97.9481 343.109 103.307 347.065 108.156 348.341C123.723 352.297 144.265 347.193 151.921 331.624C154.728 326.009 150.007 322.819 145.541 320.012C140.31 316.821 133.037 312.61 126.53 312.61C122.447 312.61 122.447 318.991 126.53 318.991C132.016 318.991 138.906 323.33 143.372 326.265C146.052 328.051 147.2 328.051 145.286 330.348C142.351 333.538 139.544 336.474 135.844 338.898C126.53 344.896 116.194 344.768 105.987 341.195C101.648 339.664 97.9481 336.601 93.0995 337.75C87.3577 339.153 81.871 341.833 76.0016 342.982C66.3043 344.896 58.6485 339.409 51.8859 332.9C50.7375 331.88 49.5892 330.731 48.5684 329.455C46.3993 326.775 45.8889 327.03 47.5477 324.989C49.0788 323.33 52.7791 322.053 54.8207 321.16C58.7762 319.501 62.8592 317.97 67.0699 316.821C70.8977 315.673 69.239 309.547 65.2835 310.696Z" fill="#F879C6"/>
<path d="M32.3623 337.75C36.8282 335.708 41.294 333.666 45.7599 331.752C49.4602 330.093 46.2703 324.606 42.57 326.265C38.1041 328.307 33.6383 330.348 29.1724 332.263C25.3445 333.922 28.662 339.409 32.3623 337.75Z" fill="#F879C6"/>
<path d="M36.8288 352.297C40.5291 351.149 44.1018 349.873 47.8021 348.469C50.992 347.32 57.2442 345.661 58.7753 342.216C60.4341 338.515 54.9475 335.197 53.2887 339.026C53.2887 339.153 53.4163 338.898 52.7783 339.408C52.0127 339.919 51.1196 340.302 50.354 340.685C48.1849 341.705 46.0157 342.471 43.8466 343.237C41.0395 344.258 38.1048 345.279 35.1701 346.172C31.2146 347.32 33.0009 353.446 36.8288 352.297Z" fill="#F879C6"/>
<path d="M148.091 333.156C150.771 334.432 153.45 335.836 156.13 337.239C158.044 338.26 159.958 339.281 161.872 340.43C162.893 341.068 164.806 342.216 165.062 342.599C166.848 346.3 172.335 343.109 170.548 339.409C168.89 336.091 163.786 334.049 160.723 332.39C157.661 330.731 154.471 329.2 151.409 327.668C147.581 325.882 144.391 331.369 148.091 333.156Z" fill="#F879C6"/>
<path d="M136.227 344.768C139.289 345.917 142.224 347.193 145.286 348.469C147.455 349.362 149.625 350.256 151.666 351.149C152.559 351.532 153.453 351.915 154.346 352.425C154.728 352.553 156.132 353.446 155.494 352.936C158.684 355.488 163.15 351.021 159.96 348.469C156.77 345.789 152.177 344.513 148.476 342.982C144.904 341.45 141.331 340.047 137.886 338.643C134.058 337.112 132.399 343.365 136.227 344.768Z" fill="#F879C6"/>
<path d="M32.4896 332.263C29.2997 329.328 25.727 326.265 21.8991 324.096C16.9229 321.416 13.4778 322.181 8.88437 325.116C4.16332 328.179 -0.685357 333.156 0.0802194 339.281C0.718199 344.258 4.80126 348.725 8.11875 352.298C15.0089 359.572 22.6647 364.804 33 360.082C44.2284 354.85 37.9763 340.557 33.1276 332.901C30.9585 329.455 25.4718 332.646 27.6409 336.091C30.5756 340.813 36.9555 351.787 29.2997 354.595C22.4095 357.147 18.3264 353.446 13.6054 348.725C11.181 346.3 7.73596 343.237 6.84279 339.792C5.43924 335.07 10.1603 331.369 13.9882 329.455C18.8369 327.031 24.7062 333.284 28.1513 336.602C30.9585 339.537 35.5519 335.07 32.4896 332.263Z" fill="#F879C6"/>
<path d="M160.978 342.599C157.661 345.151 153.705 349.49 154.853 354.084C156.002 358.933 162.126 360.848 166.337 362.251C175.141 365.059 184.583 362.379 191.346 355.998C196.833 350.766 198.874 340.174 191.729 335.453C181.393 328.817 168.379 334.815 160.978 342.599C158.171 345.534 162.637 350.128 165.444 347.065C170.675 341.578 178.331 337.239 185.859 339.664C192.112 341.706 189.942 348.469 185.987 351.915C182.414 354.977 176.29 357.785 171.569 357.019C169.272 356.636 164.296 355.488 162.509 353.701C159.957 351.149 163.147 348.852 165.572 347.065C168.634 344.641 164.168 340.174 160.978 342.599Z" fill="#F879C6"/>
<path d="M72.4284 142.758C68.2178 144.673 59.5413 148.884 61.2 154.882C62.3484 159.22 68.2177 159.859 71.918 160.369C81.8705 161.517 91.9506 161.39 101.903 162.538C108.538 163.304 115.428 165.218 122.063 165.346C125.253 165.473 129.336 165.091 130.867 161.9C133.037 157.434 128.188 152.84 125.253 150.288C110.835 137.016 90.9298 136.506 73.194 142.631C69.3661 143.907 71.0248 150.16 74.8527 148.756C90.6746 143.397 108.666 143.269 121.425 155.52C122.318 156.413 124.488 158.072 124.743 159.476C124.87 160.241 125.891 158.71 124.87 158.965C123.594 159.348 121.936 159.093 120.66 158.965C119.384 158.838 118.235 158.582 116.959 158.327C104.072 156.03 91.0574 155.009 77.915 154.499C74.9803 154.371 69.6213 154.754 66.9418 152.84C67.835 153.478 66.1762 154.499 67.7074 153.223C68.2178 152.712 68.7281 152.329 69.3661 151.819C71.1524 150.415 73.3216 149.267 75.4907 148.373C79.3186 146.587 76.1287 141.1 72.4284 142.758Z" fill="#F879C6"/>
<path d="M88.1226 158.327C87.7398 163.687 87.2294 169.047 86.8466 174.406C86.4638 178.49 92.8436 178.49 93.2264 174.406C93.6092 169.047 94.1196 163.687 94.5024 158.327C94.8852 154.244 88.5054 154.244 88.1226 158.327Z" fill="#F879C6"/>
<path d="M102.414 159.731C102.031 165.346 101.648 170.833 101.393 176.448C101.138 180.532 107.518 180.532 107.773 176.448C108.156 170.833 108.539 165.346 108.794 159.731C109.049 155.648 102.669 155.648 102.414 159.731Z" fill="#F879C6"/>
<path d="M84.4236 234.511C88.5067 234.511 88.5067 228.131 84.4236 228.131C80.213 228.131 80.213 234.511 84.4236 234.511Z" fill="#F879C6"/>
<path d="M86.7191 230.556C84.8052 222.644 86.4639 212.946 96.0336 212.052C107.007 211.031 115.173 217.795 113.131 228.897C112.366 232.853 118.491 234.64 119.256 230.556C122.063 215.37 111.473 204.651 96.0336 205.672C81.9981 206.565 77.6598 220.092 80.4669 232.215C81.4877 236.171 87.7399 234.512 86.7191 230.556Z" fill="#FF9797"/>
<path d="M80.2131 375.906C79.4475 378.713 79.7027 382.031 79.5751 384.966C79.4475 387.774 79.3199 390.581 79.1923 393.516C79.0647 397.6 85.4445 397.6 85.5721 393.516C85.6997 390.964 85.8273 388.284 85.9549 385.732C86.0825 383.945 86.0825 382.159 86.2101 380.372C86.2101 379.606 86.3377 378.968 86.3377 378.203C86.3377 377.565 86.5929 377.054 86.3377 377.692C87.486 373.609 81.3614 371.95 80.2131 375.906Z" fill="#F879C6"/>
<path d="M92.7153 382.414C92.3326 387.264 91.9498 392.113 91.567 396.962C91.3118 401.046 97.6916 401.046 97.9468 396.962C98.3296 392.113 98.7124 387.264 99.0951 382.414C99.3503 378.331 92.9705 378.331 92.7153 382.414Z" fill="#F879C6"/>
<path d="M108.282 371.95C109.047 380.117 109.685 388.284 110.451 396.451C110.578 397.727 111.344 399.259 112.748 399.514C115.299 399.897 117.979 400.662 120.276 402.066C122.19 403.215 124.231 405.129 123.083 407.681C121.169 411.765 113.768 408.319 111.344 407.043C110.068 406.405 108.537 406.533 107.516 407.553C100.371 414.827 89.7803 419.039 83.2729 408.702C81.1037 405.257 75.6171 408.447 77.7863 411.892C86.5904 425.802 101.774 422.612 111.982 412.148C110.706 412.275 109.43 412.53 108.154 412.658C115.299 416.359 130.101 418.273 129.845 406.022C129.718 398.365 121.041 394.665 114.534 393.516C115.299 394.537 116.065 395.558 116.831 396.579C116.065 388.412 115.427 380.245 114.661 372.077C114.279 367.866 107.899 367.866 108.282 371.95Z" fill="#F879C6"/>
<path d="M80.3388 406.405C76.2558 406.788 70.7691 407.171 67.0688 405.257C66.5584 405.001 66.3033 404.874 66.0481 404.491C66.3033 404.874 66.1756 404.108 66.1756 404.491C66.4308 402.577 68.4724 400.28 69.8759 399.131C70.7691 398.366 71.9174 397.855 72.9382 398.11C73.5762 398.238 74.7246 399.769 73.959 398.748C76.3834 401.939 81.9976 398.748 79.4456 395.558C77.0213 392.368 73.0658 390.837 69.1103 392.368C64.2617 394.154 58.2647 401.173 60.051 406.788C62.3478 413.934 74.3418 413.551 80.3388 413.041C84.4219 412.403 84.5495 406.022 80.3388 406.405Z" fill="#F879C6"/>
<path d="M81.7418 201.46C83.9968 201.46 85.8249 199.632 85.8249 197.377C85.8249 195.121 83.9968 193.293 81.7418 193.293C79.4868 193.293 77.6587 195.121 77.6587 197.377C77.6587 199.632 79.4868 201.46 81.7418 201.46Z" fill="white"/>
<path d="M115.683 202.354C117.938 202.354 119.766 200.525 119.766 198.27C119.766 196.015 117.938 194.187 115.683 194.187C113.428 194.187 111.6 196.015 111.6 198.27C111.6 200.525 113.428 202.354 115.683 202.354Z" fill="white"/>
<path d="M149.114 190.741C148.987 198.27 147.455 207.203 142.479 213.073C135.206 221.878 122.829 225.324 112.111 227.238C93.8652 230.428 76.0017 229.918 62.349 216.008C53.1621 206.692 46.6547 193.676 43.72 180.915C43.3372 179.128 41.4232 178.362 39.7645 178.745C31.0879 180.787 21.9011 187.295 25.8565 197.249C29.6844 206.565 40.9129 211.414 50.0998 206.692C53.8001 204.778 50.4826 199.291 46.9099 201.205C41.4233 204.012 34.7883 200.822 32.2363 195.845C28.9188 189.337 36.0642 186.147 41.4233 184.998C40.1473 184.233 38.7437 183.467 37.4677 182.829C40.9128 197.504 48.8238 212.818 60.0523 223.027C74.8534 236.426 92.972 236.809 111.856 233.874C124.361 231.832 138.269 227.748 146.945 217.795C153.07 210.648 155.239 200.184 155.494 190.868C155.494 186.657 149.114 186.657 149.114 190.741Z" fill="#F879C6"/>
<path d="M65.4974 204.784C65.3439 205.474 64.1847 206.014 63.7586 206.547C63.1891 207.259 62.9328 207.93 62.2144 208.504" stroke="#FF6868" stroke-width="4.05001" stroke-linecap="round"/>
<path d="M127.907 204.784C127.753 205.474 126.594 206.014 126.168 206.547C125.598 207.259 125.342 207.93 124.624 208.504" stroke="#FF6868" stroke-width="4.05001" stroke-linecap="round"/>
<path d="M74.6891 205.659C74.5749 206.173 73.7138 206.827 73.3759 207.24C72.6596 208.115 71.9876 209.017 71.1873 209.818" stroke="#FF6868" stroke-width="4.05001" stroke-linecap="round"/>
<path d="M137.098 205.659C136.984 206.173 136.123 206.827 135.785 207.24C135.069 208.115 134.397 209.017 133.596 209.818" stroke="#FF6868" stroke-width="4.05001" stroke-linecap="round"/>
<path d="M65.8506 204.707C65.9583 205.353 66.6659 205.83 67.0555 206.309C67.7273 207.135 68.3163 207.895 69.1704 208.54C69.6902 208.931 70.119 209.552 70.5803 210.014" stroke="#FF6868" stroke-width="4.05001" stroke-linecap="round"/>
<path d="M128.26 204.707C128.367 205.353 129.075 205.83 129.465 206.309C130.136 207.135 130.725 207.895 131.58 208.54C132.099 208.931 132.528 209.552 132.99 210.014" stroke="#FF6868" stroke-width="4.05001" stroke-linecap="round"/>
<ellipse cx="39.2798" cy="10.9581" rx="39.2798" ry="10.9581" transform="matrix(0.998329 0.0577916 -0.0577768 0.99833 66.0664 100.562)" fill="#28D0D9"/>
<path d="M81.8398 113.886C84.403 113.545 86.6792 111.663 88.9208 110.542" stroke="#7FDBE0" stroke-width="5" stroke-linecap="round"/>
<path d="M98.3613 115.853C101.24 114.722 103.602 112.539 106.426 111.329" stroke="#7FDBE0" stroke-width="5" stroke-linecap="round"/>
<path d="M116.458 117.23C117.914 115.927 120.064 115.032 121.736 114.006C122.454 113.566 123.134 112.972 123.932 112.706" stroke="#7FDBE0" stroke-width="5" stroke-linecap="round"/>
<path fill-rule="evenodd" clip-rule="evenodd" d="M137.028 28.8968C149.227 26.02 157.196 21.2688 157.196 15.8946C157.196 7.11626 135.934 0 109.706 0C83.4772 0 62.2148 7.11626 62.2148 15.8946C62.2148 21.376 70.5051 26.2094 83.1181 29.0668C76.7858 31.9146 72.9027 35.7582 72.9027 39.9877C72.9027 45.844 80.3475 50.9605 91.4305 53.7179C85.6748 56.6331 82.0042 61.0529 82.0042 66.0008C82.0042 74.7791 93.5582 81.8954 107.811 81.8954C122.063 81.8954 133.617 74.7791 133.617 66.0008C133.617 61.4697 130.539 57.3814 125.6 54.486C138.587 51.9961 147.627 46.441 147.627 39.9877C147.627 35.6735 143.587 31.7607 137.028 28.8968Z" fill="url(#paint0_linear_861_17958)"/>
<path d="M69.935 2.74805C62.5067 8.24816 53.858 20.8984 78.6899 27.4985" stroke="url(#paint1_linear_861_17958)" stroke-width="5" stroke-linecap="round"/>
<path d="M79.8915 27.4985C72.4632 32.9986 63.8146 45.6489 88.6465 52.249" stroke="url(#paint2_linear_861_17958)" stroke-width="5" stroke-linecap="round"/>
<path d="M90.0595 53.1704C82.6312 58.6705 73.9825 71.3208 98.8144 77.9209" stroke="url(#paint3_linear_861_17958)" stroke-width="5" stroke-linecap="round"/>
<path d="M147.586 2.74805C155.015 8.24816 163.663 20.8984 138.832 27.4985" stroke="url(#paint4_linear_861_17958)" stroke-width="5" stroke-linecap="round"/>
<path d="M137.63 27.4985C145.058 32.9986 153.707 45.6489 128.875 52.249" stroke="url(#paint5_linear_861_17958)" stroke-width="5" stroke-linecap="round"/>
<path d="M127.462 53.1704C134.89 58.6705 143.539 71.3208 118.707 77.9209" stroke="url(#paint6_linear_861_17958)" stroke-width="5" stroke-linecap="round"/>
<defs>
<linearGradient id="paint0_linear_861_17958" x1="109.706" y1="0" x2="109.706" y2="81.8954" gradientUnits="userSpaceOnUse">
<stop stop-color="#F879C6" stop-opacity="0"/>
<stop offset="0.7" stop-color="#F879C6" stop-opacity="0.7"/>
<stop offset="1" stop-color="#F879C6"/>
</linearGradient>
<linearGradient id="paint1_linear_861_17958" x1="70.4524" y1="2.74805" x2="70.4524" y2="27.4985" gradientUnits="userSpaceOnUse">
<stop stop-color="#FFB3E1" stop-opacity="0"/>
<stop offset="1" stop-color="#F879C6"/>
</linearGradient>
<linearGradient id="paint2_linear_861_17958" x1="80.4089" y1="27.4985" x2="80.4089" y2="52.249" gradientUnits="userSpaceOnUse">
<stop stop-color="#FFB3E1"/>
<stop offset="1" stop-color="#F879C6"/>
</linearGradient>
<linearGradient id="paint3_linear_861_17958" x1="90.5769" y1="53.1704" x2="90.5769" y2="77.9209" gradientUnits="userSpaceOnUse">
<stop stop-color="#FFB3E1"/>
<stop offset="1" stop-color="#F879C6"/>
</linearGradient>
<linearGradient id="paint4_linear_861_17958" x1="147.069" y1="2.74805" x2="147.069" y2="27.4985" gradientUnits="userSpaceOnUse">
<stop stop-color="#FFB3E1" stop-opacity="0"/>
<stop offset="1" stop-color="#F879C6"/>
</linearGradient>
<linearGradient id="paint5_linear_861_17958" x1="137.113" y1="27.4985" x2="137.113" y2="52.249" gradientUnits="userSpaceOnUse">
<stop stop-color="#FFB3E1"/>
<stop offset="1" stop-color="#F879C6"/>
</linearGradient>
<linearGradient id="paint6_linear_861_17958" x1="126.945" y1="53.1704" x2="126.945" y2="77.9209" gradientUnits="userSpaceOnUse">
<stop stop-color="#FFB3E1"/>
<stop offset="1" stop-color="#F879C6"/>
</linearGradient>
</defs>
</svg>
