<svg width="227" height="427" viewBox="0 0 227 427" fill="none" xmlns="http://www.w3.org/2000/svg">
<path d="M47.2861 415.696C47.2861 423.837 65.2316 421.764 70.0435 421.764C72.9762 421.764 75.8422 421.663 78.723 421.09C83.1057 420.217 86.4923 417.824 90.5251 416.226C92.6526 415.383 94.5939 415.818 96.8231 416.13C102.704 416.953 108.929 416.826 114.659 418.297C118.843 419.371 122.995 419.163 127.307 419.163C132.19 419.163 134.55 418.924 138.898 416.611C140.355 415.836 144.554 413.547 141.385 412.133C136.723 410.052 130.466 410.609 125.429 410.231C114.376 409.4 103.38 407.462 92.2716 407.462C90.0497 407.462 86.9488 406.757 85.5238 408.353C84.2128 409.821 81.4628 409.932 79.6228 410.158C75.8352 410.624 72.0371 411.033 68.2441 411.459C65.3034 411.788 62.4067 412.229 59.4851 412.638C55.5457 413.19 51.7693 414.396 47.7624 414.396" stroke="#2C89FB" stroke-width="10" stroke-linecap="round"/>
<path d="M64.0325 408.487C60.603 408.487 57.1735 408.487 53.744 408.487C48.5675 408.487 43.3909 408.487 38.2143 408.487C30.9398 408.487 21.0805 406.893 14.8712 411.642C9.53942 415.72 14.0281 417.895 18.1713 418.874C23.4535 420.123 28.9239 418.838 34.0892 417.661C40.5882 416.18 47.1982 415.041 53.7926 414.069C75.3717 410.887 97.1196 407.412 118.872 405.648C133.473 404.464 147.989 404.83 162.501 402.857C172.147 401.546 182.255 402.678 191.546 405.502C193.719 406.163 194.802 407.046 193.997 409.361C193.312 411.33 191.098 412.152 189.241 412.564C183.711 413.793 177.463 413.455 171.843 413.22C165.015 412.933 158.387 411.209 151.872 409.264C139.86 405.676 125.983 407.177 113.485 407.177C103.172 407.177 93.1086 406.979 82.9108 408.876C81.6858 409.103 68.0438 410.018 72.0885 413.389C75.0615 415.867 79.2019 417.068 82.8623 418.097C87.8277 419.494 92.303 420.318 97.4699 420.282C107.669 420.211 117.74 415.729 127.268 412.443C135.525 409.595 144.017 408.743 152.673 407.638C161.098 406.562 169.655 406.74 178.127 406.74C180.036 406.74 181.996 407.177 183.854 406.74C185.748 406.294 179.97 406.506 178.03 406.352C167.834 405.54 157.72 404.353 147.48 404.167C135.904 403.958 124.15 403.692 112.587 404.386C105.42 404.816 97.9874 405.69 91.3066 408.487C89.4477 409.265 86.7991 410.104 85.3373 411.545C83.0606 413.79 92.4414 414.673 93.2235 414.748C99.8238 415.385 107.661 415.913 114.213 414.603C116.432 414.159 113.988 414.17 113.097 414.166C104.095 414.124 95.0916 414.166 86.0895 414.166C78.4701 414.166 70.7904 414.385 63.1832 413.851C52.5543 413.104 42.0015 411.177 31.3715 410.283C26.1534 409.844 20.2182 409.036 15.1867 411.108C14.3234 411.464 12.7223 412.994 14.2403 411.982" stroke="#2C89FB" stroke-width="10" stroke-linecap="round"/>
<path d="M12.2152 278.851C12.1899 279.054 10.786 278.761 10.651 278.691C10.3969 278.558 10.1818 278.304 10.0803 278.038C9.92402 277.628 10.1761 277.458 10.5524 277.315C12.4227 276.603 14.4558 277.397 15.5634 279.003C16.0228 279.668 16.2586 280.45 16.3825 281.242C16.4276 281.53 16.4944 281.684 16.1711 281.694C15.8519 281.703 15.4852 281.703 15.2042 281.528C14.7129 281.22 14.5823 280.507 14.5678 279.976C14.5542 279.476 14.6969 279.126 15.2206 279.031C15.5984 278.963 16.0784 279.089 16.3004 279.421C17.028 280.509 14.9925 280.93 14.2927 280.961C13.7985 280.983 13.1888 280.931 12.9686 280.415C12.6635 279.7 13.5439 278.919 14.0731 278.596C14.7377 278.191 15.6747 277.942 16.4564 278.042C17.1635 278.132 17.4222 278.621 17.331 279.298C17.2649 279.788 17.0294 280.334 16.7603 280.747C16.582 281.021 16.33 281.205 16.0028 281.23C15.4413 281.273 15.1135 280.288 15.5203 279.926C16.0975 279.413 16.9121 280.601 17.1133 281.043C17.1367 281.094 17.1782 281.173 17.1647 281.234C17.1572 281.268 17.098 281.285 17.1359 281.291C17.2966 281.318 17.402 281.442 17.5403 281.511C17.6873 281.585 17.9182 281.637 18.0166 281.778C18.1343 281.946 18.3585 282.093 18.4231 282.287" stroke="#AD613E" stroke-width="10.8" stroke-linecap="round"/>
<path d="M76.0885 252.399C75.6992 252.434 75.3398 252.722 74.9986 252.892C74.2361 253.274 73.4953 253.63 72.7044 253.958C71.6642 254.39 70.5948 254.774 69.5371 255.157C68.451 255.55 67.368 255.901 66.2735 256.271C63.3885 257.245 60.7284 258.594 57.9999 259.914C55.1385 261.299 52.1705 262.456 49.3289 263.877C47.6231 264.73 45.9038 265.557 44.1625 266.334C42.4341 267.105 40.5657 267.391 38.9358 268.333C37.8332 268.971 36.7623 269.735 35.5638 270.176C34.5457 270.551 33.8034 271.316 32.9625 271.959C32.1006 272.618 31.4897 273.413 31.0838 274.428C30.7933 275.154 30.2487 275.903 30.7827 276.704C31.0481 277.103 31.7058 278.609 32.1436 278.734C32.8351 278.931 33.3966 279.632 34.1427 279.848C35.4331 280.222 36.6597 280.837 37.9724 281.173C40.4999 281.82 42.9619 282.642 45.6077 282.642C47.897 282.642 50.3518 282.901 52.6167 282.534C54.4721 282.234 56.1825 281.798 57.9578 281.191C58.6843 280.942 59.4378 280.721 60.1556 280.45C60.6704 280.256 61.1993 279.869 61.7573 279.824C61.9905 279.805 62.2046 278.481 62.3234 278.252C62.9607 277.023 62.9754 275.349 63.2988 274.018C63.5485 272.991 63.6878 271.947 63.895 270.911C64.0155 270.308 64.3076 269.931 64.5513 269.399C65.0649 268.279 65.5717 267.163 66.1169 266.057C66.6074 265.062 67.149 264.084 67.5861 263.064C68.008 262.079 68.3351 260.978 68.935 260.095C69.1477 259.782 69.4988 259.56 69.6816 259.24C69.9001 258.857 68.545 259.57 68.4954 259.595C65.1759 261.273 61.9836 263.177 58.8249 265.136C56.4831 266.588 54.073 267.77 51.587 268.942C47.8511 270.702 44.0602 272.301 40.2967 273.994C40.2794 274.002 39.3641 274.344 39.6102 274.452C40.0384 274.639 40.8213 274.512 41.2541 274.512C42.8652 274.512 44.4788 274.539 46.0894 274.494C48.5786 274.425 51.2113 274.06 53.4356 272.862C54.8112 272.121 55.8548 271.024 57.0003 269.996C57.0073 269.989 57.5925 269.544 57.476 269.713C56.8774 270.577 55.9837 271.307 55.1939 271.989C55.1336 272.041 54.3387 272.702 54.2184 272.537C53.9097 272.112 56.1248 269.999 56.338 269.803C57.7767 268.478 59.4711 267.464 60.9444 266.177C61.8371 265.398 62.6769 264.539 63.4975 263.684C65.074 262.042 70.4368 257.788 68.6881 259.246C67.6026 260.151 66.3021 260.788 65.033 261.384C62.1633 262.73 59.3302 264.123 56.5066 265.563C51.9617 267.882 47.28 269.638 42.2477 270.55C40.5897 270.85 38.9443 271.032 37.31 271.453C36.4169 271.683 35.4241 271.776 34.5763 272.152C33.8404 272.477 33.1696 272.778 32.3603 272.778C31.4567 272.778 30.475 272.889 29.5965 272.669C29.426 272.627 28.6311 272.379 28.615 272.669C28.5793 273.311 29.1156 274.251 29.3978 274.825C29.8892 275.827 30.3492 276.797 30.3492 277.939C30.3492 279.066 30.5523 280.432 30.2408 281.522C30.1334 281.898 29.9619 282.259 29.8674 282.636C29.8127 282.856 30.5931 282.405 30.6924 282.365C31.7205 281.959 32.6129 281.286 33.6369 280.86C35.2104 280.204 36.8165 279.805 38.4902 279.523C39.4438 279.362 40.3862 279.198 41.3505 279.119C42.0061 279.066 42.8335 278.927 43.4459 279.234C43.5278 279.275 44.0982 279.536 43.9819 279.716C43.8675 279.892 43.3024 279.841 43.175 279.848C42.2681 279.895 41.3602 279.913 40.4532 279.956C39.6271 279.996 38.4488 279.956 37.6954 280.372C37.2628 280.611 37.2859 281.194 37.2859 281.619C37.2859 282.733 37.8486 283.005 38.7371 283.347C38.9723 283.437 38.8138 283.106 38.7793 282.968C38.6015 282.256 38.9347 281.853 39.4778 281.366C40.3895 280.548 41.4832 279.888 41.9526 278.692C42.5972 277.049 41.9903 275.045 41.2481 273.561C40.5476 272.16 39.2679 270.073 39.7788 268.406C39.9356 267.894 40.4845 267.455 40.8025 267.039C40.9678 266.822 41.5981 266.219 41.507 265.9C41.4099 265.561 40.5581 265.68 42.2597 265.72C44.0211 265.761 46.0862 266.06 47.7874 265.455C48.217 265.302 48.5981 264.97 49.0158 264.78C49.4594 264.579 51.2268 263.742 51.2618 264.618C51.3648 267.193 51.1799 269.765 51.1595 272.332C51.1388 274.944 51.4611 278.231 49.8588 280.474" stroke="#FBF9BC" stroke-width="10.8" stroke-linecap="round"/>
<path d="M101.559 237.439C100.993 237.439 100.308 237.568 99.8248 237.216C99.6184 237.066 99.4051 236.813 99.1745 236.704C99.0796 236.66 98.8835 236.971 98.8011 237.03C98.3275 237.366 97.7437 237.596 97.2295 237.867C97.1408 237.913 96.2815 238.219 96.5852 238.306C96.8282 238.376 97.6609 239.057 97.7654 238.848" stroke="#AD613E" stroke-width="10.8" stroke-linecap="round"/>
<path d="M81.5068 260.203C82.3253 260.203 83.1452 260.19 83.9636 260.203C84.4656 260.212 84.9661 260.354 85.469 260.312C85.8177 260.283 86.2433 258.804 86.3722 258.541C87.0253 257.211 87.3583 255.701 88.1124 254.428C88.6439 253.531 90.0778 253.162 91.0088 252.784C92.9996 251.975 95.0642 251.402 97.1266 250.797C98.8471 250.292 100.702 250.447 102.474 250.447C104.626 250.447 106.798 251.332 108.658 252.344C110.701 253.455 112.933 254.387 114.529 256.132C115.221 256.889 115.771 257.737 116.432 258.517C116.763 258.909 117.15 259.39 117.323 259.884C117.764 261.145 116.698 260.962 115.733 260.962C110.983 260.962 106.246 260.422 101.51 260.095C97.8935 259.845 94.181 260.025 90.6535 259.017C90.6028 259.002 89.7638 258.699 90.226 258.686C91.5029 258.649 92.7773 258.577 94.0557 258.577C94.7602 258.577 95.5861 258.456 96.2836 258.583C96.2931 258.585 95.0113 259.223 94.7541 259.312C94.0875 259.542 91.9233 260.323 91.3701 259.77" stroke="#FBF9BC" stroke-width="10.8" stroke-linecap="round"/>
<path d="M89.7442 228.116C89.7442 227.823 89.647 227.698 89.4732 227.46C89.0777 226.919 89.0044 226.339 88.9373 225.677C88.774 224.068 88.8953 222.752 90.0573 221.564C91.8192 219.763 93.7594 217.703 96.0246 216.536C97.2412 215.909 98.5879 215.832 99.8904 215.494C101.625 215.044 102.712 216 103.786 217.204C104.908 218.46 105.777 219.775 106.604 221.233C107.144 222.183 107.568 223.209 107.869 224.262C108.042 224.867 108.337 224.955 108.82 225.19C109.165 225.357 109.589 225.784 109.754 225.382C110.179 224.343 110.251 223.491 109.615 222.552C108.461 220.848 107.688 219.303 105.599 218.68C102.225 217.672 98.8116 218.717 95.6513 220.029C94.8729 220.351 93.9016 220.74 93.4173 221.48C93.0675 222.015 92.7867 223.117 93.1644 223.696C93.7304 224.563 94.9748 224.875 95.9042 225.123C97.0194 225.422 98.1066 225.515 99.2581 225.515C100.047 225.515 100.857 225.567 101.643 225.491C102.43 225.414 103.128 225.059 103.883 224.864C103.98 224.839 104.594 224.756 104.485 224.756C104.011 224.756 103.537 224.756 103.064 224.756C101.018 224.756 98.9731 224.756 96.9278 224.756C95.8139 224.756 94.6997 224.763 93.5859 224.75C92.7701 224.74 91.8425 224.81 91.0569 224.527C89.3479 223.912 90.5786 222.138 91.2495 221.082C92.3412 219.364 93.7881 217.439 95.4827 216.253C96.0839 215.832 96.7731 215.587 95.6573 215.434C95.2635 215.379 94.8888 215.316 94.4891 215.325C94.4484 215.326 93.7789 215.422 93.887 215.518C94.0681 215.679 94.7056 215.369 94.8685 215.325C95.7673 215.083 96.7362 215.07 97.6624 215.114C99.1769 215.186 100.751 215.683 102.076 216.409C103.248 217.051 104.224 218.012 105.4 218.625C106.449 219.173 107.532 219.913 108.646 220.306C108.793 220.358 108.988 220.538 109.145 220.528C109.356 220.515 108.318 219.524 108.266 219.481C107.218 218.592 105.991 217.245 104.527 217.174C102.295 217.065 99.8313 217.489 97.6564 217.981C96.2171 218.307 94.7554 218.621 93.333 219.011C92.7082 219.182 92.8129 218.855 92.3394 218.529C91.9118 218.235 91.2118 218.333 90.7197 218.36C90.6198 218.366 90.3396 219.067 90.2861 219.228" stroke="#FF7D7D" stroke-width="10.8" stroke-linecap="round"/>
<path d="M39.4543 201.234C38.1446 201.14 36.9715 200.3 36.3954 199.174C36.152 198.699 35.8854 198.252 35.6608 197.765C35.4133 197.228 35.465 196.42 35.3958 195.838C35.2727 194.799 35.3356 193.733 35.3356 192.688C35.3356 192.331 35.2929 192.008 35.5042 191.7C35.5979 191.564 35.7575 191.369 35.9318 191.369C36.1718 191.369 36.056 191.579 36.1425 191.743C36.4835 192.389 36.978 192.965 37.3227 193.622C37.8706 194.664 38.3583 195.825 38.7197 196.946C38.8254 197.273 39.1747 198.241 39.0208 197.933C38.7103 197.312 38.4666 196.637 38.1417 196.012C37.2223 194.244 36.7447 192.206 36.7447 190.237C36.7447 190.037 36.5226 189.166 36.5279 189.358C36.5498 190.145 36.9877 191.075 37.2384 191.803C37.6029 192.861 38.0268 193.874 38.4247 194.916C38.9036 196.171 39.1649 197.498 39.6109 198.765C39.8313 199.391 40.2183 199.875 40.478 200.469C40.5109 200.544 40.7054 200.879 40.5743 200.902C39.8396 201.036 38.6802 200.506 37.961 200.342C35.2908 199.736 32.4092 197.962 32.4092 194.898C32.4092 194.617 32.938 194.289 33.1077 194.085C33.3342 193.813 33.4746 193.533 33.6677 193.254C33.8352 193.012 34.1612 192.119 34.3601 192.02" stroke="#AD613E" stroke-width="10.8" stroke-linecap="round"/>
<path d="M156.276 203.328C156.249 203.342 156.114 202.428 156.111 202.394C156.037 201.546 156.057 200.691 156.057 199.84C156.057 199.088 156.141 198.508 156.505 197.826C157.023 196.855 157.628 195.927 158.331 195.08C158.655 194.691 158.99 194.296 159.253 193.862C159.348 193.705 159.578 193.204 159.783 193.188C159.894 193.179 160.027 193.326 160.09 193.39C160.368 193.67 160.605 193.999 160.814 194.333C161.203 194.953 161.478 195.614 161.622 196.333C161.81 197.272 161.882 198.344 161.666 199.283C161.49 200.043 161.233 200.833 160.396 201.037C159.662 201.216 158.908 200.677 158.63 200.011C158.007 198.513 158.739 195.533 160.81 195.793C161.85 195.923 162.7 196.758 163.108 197.693C163.582 198.78 163.266 200.08 162.42 200.886C161.664 201.606 160.487 202.113 159.433 201.986C158.876 201.919 158.288 201.723 157.92 201.276C157.539 200.812 157.39 200.054 157.38 199.468C157.362 198.416 158.034 197.945 159.01 197.851C159.395 197.813 159.817 197.812 160.167 198.004C160.768 198.333 161.148 199.037 161.335 199.67C161.631 200.673 161.436 201.881 160.583 202.562C159.761 203.219 158.357 203.429 157.366 203.095C156.475 202.795 155.958 201.622 156.376 200.762C156.815 199.859 158.17 199.315 159.102 199.685C159.988 200.036 160.537 200.83 160.605 201.767C160.678 202.77 159.895 202.878 159.08 202.949C158.1 203.035 156.603 202.88 156.364 201.66C156.131 200.475 157.43 199.599 158.428 199.417C159.171 199.282 159.826 199.502 160.197 200.183C160.585 200.898 160.682 202.061 160.153 202.73C159.836 203.131 159.007 203.666 158.47 203.426C157.969 203.202 157.892 202.576 157.852 202.103" stroke="#AD613E" stroke-width="10.8" stroke-linecap="round"/>
<path d="M119.656 185.505C120.228 185.648 120.764 186.214 121.212 186.567C122.449 187.543 123.752 188.429 125.01 189.377C127.055 190.918 129.128 192.492 131.262 193.908C133.329 195.28 135.362 196.815 137.696 197.698C139.096 198.228 140.584 198.475 142.061 198.687" stroke="#E7A78A" stroke-width="10.8" stroke-linecap="round"/>
<path d="M142.062 198.687C143.044 198.11 144.124 197.762 145.1 197.204C145.245 197.121 145.255 196.449 145.173 196.307C144.974 195.958 142.744 195.77 142.446 195.721C141.197 195.517 139.933 195.364 138.703 195.062C138.058 194.904 137.214 194.852 136.643 194.485C134.886 193.355 140.794 195.253 142.693 196.124C143.561 196.522 143.794 197.485 144.203 198.275C144.751 199.332 145.014 200.342 145.274 201.488C145.444 202.235 145.58 203.725 145.256 204.444C144.801 205.456 143.468 206.428 142.602 207.026C139.777 208.971 136.795 210.59 133.916 212.435C132.614 213.27 131.462 214.227 130.292 215.236C129.755 215.699 128.655 216.255 128.727 217.076C128.809 218.023 129.373 219.36 129.971 220.097C130.498 220.745 131.944 220.459 132.58 220.179C134.17 219.479 134.792 217.645 136.296 216.893C136.854 216.614 137.494 216.411 138.016 216.078C138.746 215.614 136.58 215.822 136.387 215.822C133.047 215.822 130.354 218.964 127.738 220.664C127.219 221.002 126.696 221.329 126.173 221.662C125.827 221.882 125.235 221.741 124.837 221.836C124.485 221.92 122.787 222.208 122.787 221.836C122.787 220.611 123.027 219.06 122.695 217.873C122.346 216.625 121.03 215.658 120.48 214.422C120.143 213.664 119.785 212.82 119.327 212.133C118.722 211.226 117.941 210.612 117.359 209.653C116.308 207.918 114.322 207.439 112.655 206.513C111.502 205.872 110.237 205.575 109.04 205.03C107.14 204.166 105.134 204.009 103.127 203.456C101.279 202.946 99.2083 202.476 97.2789 202.476C96.532 202.476 96.2844 202.733 95.6131 203.035C94.5968 203.492 93.2657 204.289 92.1352 204.289C91.3004 204.289 90.0128 204.025 89.2522 204.38C88.0109 204.96 87.1316 205.886 85.9573 206.586C85.0973 207.099 84.2567 207.479 83.2574 207.584C82.5701 207.656 81.8628 207.82 81.2987 208.243C80.3767 208.935 80.7402 209.687 80.3652 210.687C79.9135 211.892 79.3983 213.182 78.7086 214.266C77.8987 215.539 78.5978 217.509 79.1296 218.706C79.5435 219.637 79.4917 221.52 78.3974 221.918C77.7754 222.145 77.0434 224.085 76.5669 223.392C75.8423 222.338 75.3441 221.188 74.8463 220.015C74.7031 219.677 74.5877 217.351 74.3337 217.314C73.4456 217.187 72.5023 217.578 71.6155 217.644C70.548 217.723 69.5162 217.799 68.4396 217.799C66.8848 217.799 65.4934 216.267 64.559 215.154C63.486 213.875 62.6657 212.424 61.8407 210.98C61.3377 210.1 60.8622 208.945 60.1017 208.243C59.34 207.54 58.5211 206.909 57.7862 206.174C56.718 205.106 55.9237 204.119 55.0679 202.888C53.7391 200.978 51.632 199.271 51.2513 196.911C51.1724 196.421 51.2303 195.695 50.9585 195.263C50.6092 194.708 50.2212 194.151 49.97 193.542C49.0718 191.368 48.0159 189.571 46.547 187.776C46.5323 187.758 47.8885 188.176 48.1212 188.27C49.1819 188.698 50.4266 189.036 51.5625 189.167C54.549 189.512 57.2118 189.349 60.2024 189.094C61.2179 189.007 62.2606 188.845 63.241 188.599C64.3591 188.32 65.1551 187.444 66.2064 187.062C67.8673 186.458 69.5576 185.972 71.2219 185.377C71.8782 185.143 72.6528 185.078 73.2355 184.682C73.8111 184.29 73.9275 184.51 74.6815 184.883C77.2767 186.166 79.6179 187.839 82.4062 188.673C83.727 189.067 85.0647 189.461 86.3234 190.027C87.4684 190.543 88.4324 191.272 89.7098 191.272C94.7179 191.272 99.6615 192.096 104.665 192.096C106.495 192.096 108.31 192.261 110.138 192.261C111.486 192.261 112.589 192.382 113.726 191.602C114.662 190.959 115.442 189.881 116.691 189.954C117.05 189.975 123.143 183.528 123.29 183.785C125.032 186.833 127.232 190.022 129.971 192.261C131.191 193.258 127.002 202.198 128.479 202.641C129.152 202.843 129.782 202.923 130.475 203.044C131.72 203.26 132.848 203.834 134.044 204.215C134.969 204.51 135.941 204.878 136.918 204.948C137.073 204.959 137.372 205.075 137.046 205.113C136.179 205.212 135.362 206.008 134.685 206.486C134.285 206.768 128.774 211.115 128.425 210.678C128.04 210.197 131.829 205.603 132.397 204.929C133.321 203.832 131.732 204.192 130.896 204.087C129.566 203.921 128.285 203.695 126.997 203.337C125.705 202.978 123.508 202.799 122.457 203.794C121.985 204.242 121.592 205.213 121.908 205.845C122.408 206.845 125.179 208.831 124.196 208.298C122.674 207.473 121.254 206.515 119.675 205.772C117.552 204.772 115.335 204.042 113.177 203.135C110.165 201.87 108.545 199.798 106.495 197.332C106.283 197.077 104.224 195.227 105.031 195.227C107.381 195.227 110.021 195.756 112.316 196.215C113.678 196.488 125.585 195.721 124.196 195.721C121.037 195.721 110.159 196.963 107.008 197.167C101.874 197.5 96.7337 197.56 91.5952 197.735C89.6411 197.801 87.6931 197.863 85.7377 197.863C84.7583 197.863 83.7469 197.765 82.8089 198.101C81.216 198.671 79.5884 199.34 78.0313 200.005C76.9287 200.476 75.9176 200.664 74.7365 200.664C73.7391 200.664 73.6024 200.819 72.9792 201.579C71.9051 202.889 72.6185 205.341 73.1988 206.724C73.6434 207.783 73.6931 208.488 73.6931 209.653C73.6931 211.046 73.4597 210.713 72.247 210.055C70.5265 209.122 68.638 208.28 67.2315 206.888C65.4862 205.161 64.9917 202.726 64.9617 200.334C64.9479 199.236 64.9617 198.137 64.9617 197.039C64.9617 196.311 62.2625 197.132 61.7583 197.24C61.2033 197.36 58.5367 198.521 58.5367 197.369C58.5367 196.085 64.5198 195.964 65.401 195.922C67.4792 195.825 69.3368 195.985 71.3134 195.263C72.096 194.978 72.8889 194.729 73.6565 194.403C74.02 194.248 74.6332 194.165 74.9378 193.909C75.6445 193.313 78.1907 193.98 79.0198 194.073C79.8124 194.163 80.6342 194.403 81.436 194.403" stroke="#AD613E" stroke-width="10.8" stroke-linecap="round"/>
<path d="M67.7342 176.138C66.8295 176.138 65.9248 176.138 65.0202 176.138C63.4856 176.138 61.9324 176.212 60.4009 176.127C59.3236 176.067 58.2693 175.943 57.1847 175.943C55.7812 175.943 54.3955 175.716 52.997 175.698C51.8594 175.684 50.6839 175.45 49.5746 175.21C48.8651 175.056 48.1381 175.008 47.4278 174.857C47.0448 174.776 46.5832 174.734 46.2987 174.439C46.2202 174.357 46.1902 174.075 46.1902 174.257C46.1902 174.66 45.7873 174.37 45.5062 174.333C44.6807 174.225 43.9664 174.441 43.1722 174.624C42.4602 174.787 41.6629 174.788 40.9358 174.767C39.9509 174.74 39.0204 174.27 38.1295 173.891C37.8809 173.785 37.5648 173.686 37.3587 173.503C37.2745 173.428 37.2355 173.358 37.3587 173.486C37.7527 173.898 38.2984 174.203 38.7863 174.488C39.8843 175.129 41.0402 175.636 42.244 176.04C44.4168 176.771 46.6522 177.129 48.8907 177.576C49.2875 177.656 49.2841 177.478 49.3656 177.104C49.3995 176.949 49.3656 176.467 49.3656 176.627" stroke="#FF7D7D" stroke-width="10.8" stroke-linecap="round"/>
<path d="M81.5586 176.629C81.709 176.798 81.5928 177.081 81.844 177.096C82.4217 177.13 82.7574 177.495 83.2518 177.732C84.6144 178.384 86.0647 179.092 87.5204 179.483C90.1217 180.184 92.8809 180.391 95.5451 180.807C97.5059 181.113 99.4713 181.417 101.461 181.417C103.384 181.417 105.526 181.676 107.423 181.352C108.105 181.235 108.783 181.115 109.467 181.008C110.094 180.91 110.708 180.659 111.335 180.599C111.586 180.575 111.951 180.28 112.211 180.184C112.545 180.061 112.706 179.995 112.386 179.782" stroke="#FF7D7D" stroke-width="10.8" stroke-linecap="round"/>
<path d="M128.034 180.599C129.439 180.599 130.594 180.789 131.933 181.248C133.469 181.774 134.863 182.457 136.448 182.876C139.295 183.63 142.399 183.402 145.316 183.402C148.84 183.402 152.343 183.248 155.8 182.584C156.741 182.404 157.676 182.104 158.563 181.858C158.787 181.796 160.483 181.443 159.913 181.3" stroke="#FF7D7D" stroke-width="10.8" stroke-linecap="round"/>
<path d="M177.895 157.009C177.895 155.961 178.17 155.269 178.699 154.401C179.134 153.688 179.535 152.939 180.048 152.28C180.72 151.416 181.725 150.791 182.5 150.015C184.533 147.983 186.353 145.652 188.573 143.813C191.438 141.437 194.695 139.444 197.81 137.415C199.061 136.601 200.2 135.645 201.437 134.82C202.544 134.082 203.769 133.544 204.907 132.861C205.912 132.258 206.833 131.636 207.898 131.141C208.679 130.779 209.316 130.202 210.11 129.85C211.23 129.354 212.511 128.91 213.743 128.864C214.278 128.844 215.231 128.33 215.728 128.579C216.189 128.809 216.306 129.415 216.312 129.876C216.325 130.923 216.382 132.006 216.299 133.049C216.226 133.965 215.686 134.872 215.378 135.728C214.907 137.037 214.488 138.282 213.795 139.498C210.478 145.32 205.355 149.67 200.516 154.187C197.053 157.419 193.506 160.3 189.351 162.609C187.959 163.382 186.755 164.456 185.368 165.243C184.446 165.765 183.52 166.002 182.513 166.261C182.032 166.385 181.539 166.45 181.073 166.612C180.655 166.756 180.355 167.006 179.996 167.196C179.753 167.324 179.763 167.212 179.763 166.981C179.763 165.833 180.083 164.56 180.451 163.484C182.219 158.305 185.943 154.107 189.766 150.327C190.741 149.363 190.092 151.457 189.993 151.819C189.262 154.488 187.824 156.83 186.549 159.254C186.473 159.398 186.253 159.793 186.237 159.63C186.217 159.417 186.444 158.965 186.497 158.865C187.349 157.249 188.436 155.721 189.455 154.213C191.118 151.751 192.894 149.386 194.677 147.011C195.45 145.982 196.145 144.674 197.084 143.774C197.297 143.569 197.373 144.309 197.395 144.604C197.504 146.068 197.564 147.555 197.389 149.016C197.339 149.434 197 150.623 197.227 150.268C198.301 148.588 199.374 146.928 200.522 145.292C201.453 143.966 202.352 142.619 203.286 141.295C203.425 141.097 203.677 140.753 203.831 140.53C203.833 140.526 203.947 140.271 203.999 140.361C204.233 140.761 204.223 141.432 204.285 141.879C204.314 142.089 204.272 143.062 204.473 143.196C204.824 143.43 207.563 138.621 207.866 138.116C208.047 137.813 208.267 137.267 208.553 137.026C208.587 136.997 208.55 137.91 208.54 137.98C208.491 138.349 208.444 138.742 208.32 139.096C208.265 139.252 208.59 137.808 208.618 137.714C209.321 135.394 210.304 133.16 210.882 130.804C211.172 129.622 211.317 129.061 212.342 128.455C213.422 127.817 214.05 127.772 215.073 128.63C217.304 130.502 216.85 134.483 216.007 136.903C214.852 140.22 213.216 143.51 210.701 146.025C209.626 147.1 208.284 147.856 206.97 148.601C204.693 149.893 202.557 151.285 200.529 152.941C196.915 155.892 192.609 158.294 187.82 158.294" stroke="#7FDBE0" stroke-width="10.8" stroke-linecap="round"/>
<path d="M97.3245 169.271C97.3245 170.236 97.2901 167.342 97.3245 166.378C97.3323 166.159 97.5604 166.055 97.6164 165.82C97.6358 165.738 97.7814 165.011 97.7916 165.184C97.8851 166.774 97.9305 168.377 97.9084 169.972C97.9016 170.457 97.4496 171.034 97.1818 170.439C96.9968 170.028 96.5135 167.281 97.091 167.403C97.7098 167.533 97.9404 169.675 97.7657 170.179C97.644 170.531 97.1919 170.031 97.0975 169.907C96.7753 169.484 96.7255 168.903 96.7407 168.389C96.7476 168.153 97.8098 167.277 98.0251 167.169" stroke="#F0F0F1" stroke-width="10.8" stroke-linecap="round"/>
<path d="M123.401 158.677C122.637 158.022 121.667 157.568 120.803 157.067C119.009 156.026 117.212 155.037 115.373 154.077C113.409 153.052 111.439 152.046 109.498 150.977C108.301 150.318 107.079 149.644 105.808 149.132C104.376 148.555 102.853 148.492 101.334 148.306C99.6028 148.094 97.887 147.748 96.1809 147.386C95.6167 147.267 94.9561 146.883 94.3673 147.062C92.9178 147.503 91.3407 147.354 89.8672 147.716C87.6339 148.263 85.3822 148.679 83.1667 149.31C80.4575 150.081 77.7276 150.889 74.9139 151.192C74.1735 151.271 73.3207 151.171 72.8285 151.882C72.6852 152.089 74.7187 151.997 74.7937 151.997C80.5435 151.997 86.3195 151.54 92.0571 152.049C93.4872 152.176 94.9342 152.418 96.3273 152.77C97.1803 152.986 98.031 153.245 98.9092 153.335C99.9575 153.442 101 153.366 102.05 153.413C102.981 153.456 103.86 153.727 104.779 153.831C105.985 153.969 107.227 153.949 108.442 154.046C109.662 154.143 110.94 154.041 112.143 154.26C112.348 154.297 112.665 154.343 112.864 154.443" stroke="#FF7D7D" stroke-width="10.8" stroke-linecap="round"/>
<path d="M77.0626 135.502C73.7941 135.502 70.309 135.154 67.162 136.193C65.0972 136.874 63.1737 137.895 61.3014 138.984C60.3525 139.536 55.7072 142.163 59.0953 139.649C66.171 134.397 73.5157 129.488 80.8368 124.59C88.4661 119.485 96.6909 114.795 103.814 108.973C104.294 108.58 105.57 107.773 104.997 107.537C103.549 106.941 97.2707 110.222 96.7309 110.461C83.8254 116.187 71.5281 123.086 59.9193 131.116C58.9586 131.78 55.7403 134.085 54.5503 134.97C53.2472 135.94 52.932 136.273 54.8959 135.143C62.0717 131.014 69.0444 126.312 75.5476 121.187C76.8707 120.145 80.6062 117.495 78.9231 117.426C76.8743 117.342 73.813 119.096 72.2119 119.885C67.9981 121.962 64.0202 124.428 60.2914 127.288C56.4539 130.231 52.2531 133.604 49.2877 137.482C48.6605 138.302 48.641 138.802 49.9256 138.506C52.7744 137.847 55.5203 136.355 58.0189 134.904C63.7616 131.567 69.1527 127.387 72.903 121.839C73.4029 121.099 74.2327 120.443 74.2984 119.553C74.4665 117.272 69.6882 120.158 67.6271 121.147C64.369 122.712 61.1947 124.448 58.0322 126.198C54.2906 128.268 46.6636 132.505 42.8291 135.661C41.0419 137.132 40.8945 137.717 42.869 137.868C45.9791 138.105 49.3002 136.24 51.7861 134.651C56.1964 131.832 60.1522 128.248 63.627 124.351C65.1472 122.645 67.0621 120.482 67.76 118.197C68.3953 116.116 66.4696 116.16 65.0091 116.469C60.6547 117.39 56.627 120.659 52.9689 123.035C49.8911 125.034 46.7988 127.067 43.972 129.414C42.8557 130.342 41.2072 131.526 40.756 133.003C40.0424 135.339 44.0204 129.284 45.0617 127.075C47.0335 122.892 48.9628 119.233 52.7829 116.403C56.6454 113.541 61.3108 111.427 65.7666 109.664C70.3736 107.841 75.4011 106.741 80.3185 106.222C85.1119 105.715 90.8512 104.771 95.5614 106.195C95.9462 106.311 98.8712 107.547 97.608 108.042C94.5679 109.236 91.1908 109.794 88.0529 110.674C81.8908 112.403 75.7562 114.26 69.7667 116.522C67.9165 117.221 66.0656 117.925 64.225 118.649C63.8177 118.809 63.1456 119.266 63.1884 118.516C63.2322 117.75 64.0947 117.101 64.6237 116.668C66.8284 114.864 69.5148 113.542 72.0658 112.309C81.3108 107.84 91.5813 107.558 101.635 107.763C106.806 107.869 112.145 107.824 117.276 108.521C123.939 109.426 130.805 112.808 136.253 116.575C136.803 116.955 143.433 121.375 142.818 122.45C142.332 123.301 138.118 122.252 137.343 122.104C136.683 121.978 135.962 121.959 135.323 121.746C135.178 121.697 134.68 121.441 134.752 121.573C136.041 123.936 137.618 126.128 138.778 128.577C139.726 130.578 141.612 133.349 144.161 133.349C145.009 133.349 145.839 133.068 146.672 132.923C148.182 132.662 148.382 132.713 147.018 133.774C145.285 135.122 146.839 136.051 147.629 137.549C150.753 143.467 143.791 149.71 138.752 151.611C138.37 151.754 136.88 152.451 136.533 151.916C135.907 150.953 136.147 149.17 136.147 148.088C136.147 147.314 136.796 145.311 136.041 145.311C133.928 145.311 131.815 145.311 129.702 145.311C128.961 145.311 128.08 145.178 127.35 145.324C127.292 145.335 128.574 146.808 128.732 146.985C129.778 148.162 131.206 149.556 131.788 151.052C131.893 151.323 131.203 150.938 130.964 150.773C129.72 149.915 128.513 148.977 127.31 148.062C121.57 143.694 115.37 139.939 108.558 137.522C105.165 136.318 101.689 135.338 98.2724 134.199C96.8074 133.711 95.5248 133.588 93.9932 133.588C89.3945 133.588 84.9279 134.549 80.5577 135.967C80.1577 136.097 79.0244 136.517 79.3218 136.219C79.4519 136.089 80.2848 135.771 80.2919 135.768C82.5246 134.771 84.885 134.015 87.2157 133.295C97.7938 130.032 108.596 127.531 119.575 126.078C128.035 124.959 136.493 124.736 145.011 124.736C145.113 124.736 148.196 124.649 146.353 125.082C143.915 125.655 141.347 125.855 138.872 126.145C131.888 126.963 124.906 127.782 117.941 128.75C107.324 130.226 96.8912 132.372 86.3651 134.332C84.8717 134.61 83.3199 134.925 81.7936 134.983C81.558 134.992 80.9719 134.825 81.1557 134.678C81.6478 134.282 83.2816 133.639 83.5478 133.535C87.4188 132.021 91.3982 130.722 95.4285 129.707C104.495 127.422 113.86 126.282 123.203 126.185C124.911 126.167 129.658 125.605 128.306 126.65C127.508 127.267 125.485 127.272 124.652 127.354C121.836 127.632 118.989 127.763 116.16 127.74C112.578 127.711 107.134 128.072 104.891 124.577C102.194 120.376 109.476 118.163 112.279 117.453C117.424 116.149 123.856 115.296 128.772 117.772C131.375 119.082 134.809 122.002 133.396 125.387C131.46 130.026 124.578 131.56 120.28 132.285C113.013 133.511 104.929 134.278 97.6611 132.578C96.2449 132.246 92.5478 130.864 93.1693 128.657C93.5983 127.134 95.9348 126.131 97.1827 125.613C100.57 124.209 104.278 123.663 107.894 123.274C115.941 122.409 124.392 122.445 131.841 126.039C134.101 127.129 135.888 128.701 137.343 130.717C138.102 131.767 139.401 133.517 139.177 134.97C138.918 136.652 136.679 137.437 135.39 137.841C131.6 139.03 127.464 139.409 123.522 139.649C116.2 140.094 107.533 139.962 100.904 136.379C99.0653 135.385 95.8675 133.686 94.9767 131.607C94.0477 129.44 103.171 129.906 103.522 129.92C115.068 130.378 128.293 134.382 135.722 143.875C136.27 144.575 136.746 145.358 135.403 145.204C131.5 144.758 127.802 142.55 124.825 140.114C124.644 139.966 120.581 136.494 121.981 135.94C123.225 135.448 125.413 135.749 126.659 135.847C129.434 136.066 132.028 136.754 134.632 137.721C137.849 138.916 140.783 140.498 143.616 142.413C144.252 142.843 145.719 144.497 145.476 143.769C145.172 142.857 144.218 141.851 143.696 141.097C141.167 137.453 138.347 133.926 134.805 131.209C127.203 125.377 117.298 122.517 108.213 119.898C101.368 117.925 93.6783 115.696 86.6841 118.277C85.3851 118.756 82.8036 119.897 82.8036 121.626C82.8036 122.07 82.7848 124.162 82.9232 124.032C84.6563 122.395 86.8415 121.177 88.8635 119.951C93.5238 117.126 98.2989 114.714 103.349 112.668C104.316 112.276 105.353 111.813 106.392 111.618C106.405 111.615 107.068 111.51 107.097 111.631C107.292 112.45 106.044 112.95 105.449 113.545C103.646 115.348 101.765 117.06 99.814 118.702C96.4408 121.54 92.998 124.527 89.2622 126.889C89.05 127.023 86.6302 128.708 86.2854 128.511C85.5118 128.069 85.3537 124.927 85.5412 124.231C86.1747 121.878 88.6997 120.251 90.6177 119.034C93.9095 116.946 97.6224 115.082 101.316 113.824C102.338 113.476 105.482 112.7 104.425 112.92C102.601 113.3 100.694 113.487 98.8439 113.199C94.8622 112.58 93.4106 109.664 93.3288 105.942C93.2826 103.843 93.4118 103.893 95.6278 103.444C99.1979 102.719 102.738 102.248 106.379 102.248C109.557 102.248 112.396 102.931 115.469 103.736C120.3 105.001 125.369 105.781 130.061 107.498C133.567 108.781 136.977 110.661 140.134 112.641C145.201 115.819 150.251 119.959 153.184 125.268C156.243 130.803 157.827 136.942 159.59 142.971C159.753 143.529 159.929 144.091 160.055 144.659C160.25 145.539 159.585 142.917 159.284 142.068C157.932 138.25 155.523 134.173 155.523 130.026C155.523 127.403 159.511 130.832 160.228 131.514C164.662 135.734 166.261 141.693 166.261 147.69C166.261 150.85 164.177 147.184 163.576 146.214C162.905 145.13 158.6 138.375 162.141 138.187C166.106 137.976 168.064 144.485 168.773 147.504C169.47 150.475 169.929 153.909 169.583 156.98C169.316 159.355 168.61 161.668 168.454 164.091C168.378 165.257 168.48 166.355 168.254 167.507C168.138 168.099 168.062 170.064 167.603 170.431C166.885 171.006 169.184 171.657 169.477 171.853C169.779 172.054 168.748 171.859 168.387 171.813C167.281 171.67 166.175 171.554 165.065 171.441C163.54 171.285 162.081 171.148 160.547 171.148C158.843 171.148 156.342 171.577 154.805 170.962C153.658 170.503 151.728 170.909 150.486 170.909C149.596 170.909 148.706 170.909 147.815 170.909C145.636 170.909 143.456 170.909 141.277 170.909C136.652 170.909 132.037 170.67 127.429 170.67C125.522 170.67 122.955 170.44 121.13 169.899C119.04 169.28 116.163 169.612 114.047 170.072C113.12 170.273 107.203 171.941 107.203 170.79C107.203 170.09 106.798 166.655 107.681 166.603C109.359 166.504 111.003 166.364 112.705 166.364C114.508 166.364 116.772 165.997 118.459 166.736C120.004 167.412 121.654 167.829 123.323 168.025C125.617 168.295 128.86 168.521 130.592 166.789C132.544 164.837 132.424 162.122 132.851 159.612C132.995 158.769 132.865 157.162 133.41 156.462C134.182 155.468 136.508 162.218 136.626 162.562C136.964 163.551 137.327 164.705 137.928 165.579C138.359 166.207 140.083 162.058 140.121 161.978C141.37 159.273 142.587 156.551 143.642 153.764C143.723 153.552 144.743 149.886 144.759 151.371C144.809 156.039 144.28 160.675 144.28 165.34C144.28 165.844 146.631 161.675 146.845 161.22C149.104 156.415 150.991 151.292 152.214 146.121C152.386 145.395 152.454 142.984 153.078 142.36C153.282 142.156 153.131 142.935 153.131 143.224C153.131 144.557 153.131 145.891 153.131 147.224C153.131 153.041 153.195 158.717 152.427 164.476C152.304 165.398 152.421 162.615 152.413 161.685C152.372 156.75 151.955 151.819 151.271 146.932C150.991 144.94 150.309 142.889 150.261 140.871C150.238 139.942 152.426 141.908 152.52 141.988C157.219 145.974 161.409 151.293 162.048 157.618C162.2 159.124 162.334 161.367 161.238 162.589C159.98 163.989 157.989 164.513 156.241 164.928C153.959 165.469 151.68 166.124 149.317 166.124C149.237 166.124 147.978 166.088 148.427 166.138C149.824 166.293 151.216 166.548 152.613 166.722C153.512 166.835 154.407 167.012 155.31 167.081C157.325 167.236 151.271 167.215 149.251 167.267C146.983 167.326 144.715 167.321 142.446 167.321C140.406 167.321 143.312 167.118 143.696 167.068C146.928 166.646 150.121 166.211 153.264 165.3C155.856 164.549 160.163 163.457 161.397 160.648C163.392 156.108 159.787 150.093 157.224 146.44C155.803 144.415 154.408 142.03 152.493 140.419C151.349 139.457 150.283 138.57 149.915 137.044C149.845 136.754 149.538 133.953 150.074 134.12C151.334 134.51 154.515 136.876 153.264 136.459C152.62 136.244 152.049 135.642 151.536 135.236C149.639 133.733 147.698 132.251 145.716 130.863C141.361 127.815 136.345 125.766 131.124 124.789C124.749 123.597 118.361 122.639 111.894 122.118C106.856 121.712 100.78 121.112 95.8272 122.503C91.4102 123.744 87.3064 126.503 83.0959 128.325C80.8673 129.289 78.6374 130.254 76.3317 131.023C75.0553 131.448 73.6851 131.667 72.4644 132.245C70.6648 133.098 69.2036 134.545 67.6271 135.794C65.4182 137.544 63.3794 139.195 61.3279 141.137C60.206 142.199 59.272 143.38 58.2182 144.5C57.9069 144.831 57.4316 145.026 57.2082 145.417C57.0678 145.663 57.6354 144.961 57.7398 144.885C58.7069 144.185 59.8296 143.719 60.8761 143.157C63.636 141.676 66.2311 140.347 69.1687 139.33C71.4596 138.536 73.7046 137.695 76.0526 136.99C77.5604 136.538 79.1833 136.515 80.7039 136.1C82.2823 135.669 82.4308 135.741 80.6374 135.741C78.3047 135.741 76.4843 136.997 74.4578 138C72.7799 138.832 70.8227 139.277 69.3016 140.393C67.7408 141.538 66.0878 142.465 64.4908 143.53C62.6801 144.737 60.97 145.455 59.3079 146.852C57.6506 148.246 57.0475 150.228 55.9856 152.049C55.6262 152.665 54.4428 155.845 54.2181 153.777C53.7023 149.031 54.6471 144.356 55.2414 139.675C55.3634 138.714 54.411 139.069 53.846 139.33C50.9454 140.665 48.1781 142.998 45.899 145.204C45.1765 145.903 44.611 146.737 43.9188 147.464C43.6442 147.752 43.8072 146.835 43.8125 146.64C43.8522 145.17 44.149 143.657 44.5833 142.254C44.6331 142.093 45.3621 140.12 44.477 140.685C41.9194 142.318 40.5513 146.379 39.7593 149.152C39.6509 149.531 39.5068 149.264 39.5068 149.032C39.5068 146.608 40.953 144.394 42.1912 142.413C43.0193 141.088 43.9363 139.711 45.0484 138.599C45.3091 138.338 43.9917 140.315 43.7859 140.566C42.6125 141.994 41.7847 143.587 40.7427 145.098C40.4261 145.557 40.225 145.55 39.7194 145.55C38.4894 145.55 36.608 145.346 35.5598 146.161C35.1348 146.492 34.7881 146.714 34.2442 146.746C34.0092 146.76 34.25 148.971 34.2442 149.324C34.2018 151.911 29.707 152.758 30.4168 155.305C30.949 157.215 31.3766 159.489 32.5697 160.981C33.0579 161.591 33.6361 160.163 33.7657 159.904C34.1799 159.076 34.4203 158.469 35.4269 158.469C36.3775 158.469 37.2638 158.438 38.1778 158.761C38.9386 159.03 40.7337 159.869 41.54 159.372C42.2439 158.939 43.5566 156.72 43.7594 155.89C44.004 154.889 44.3327 153.873 44.5169 152.86C44.5876 152.471 44.6322 152.009 44.158 152.009C43.7107 152.009 45.0827 152.004 45.487 152.195C46.8596 152.846 48.1838 153.018 49.2612 154.216C49.8994 154.925 50.1202 155.311 51.2014 155.904C53.0965 156.943 54.966 158.023 56.8361 159.107C57.141 159.283 58.2102 160.032 58.7498 160.13C59.3174 160.233 59.1219 159.073 59.1352 158.788C59.16 158.255 59.3611 156.014 59.3611 156.129C59.3611 156.894 59.3456 158.06 59.9857 158.602C61.2656 159.685 63.0675 160.172 64.6769 160.436C65.4178 160.557 66.0514 160.801 66.5905 161.286C69.2007 163.636 73.5509 163.863 76.8234 164.157C78.6263 164.319 80.066 164.49 81.8467 164.875C83.266 165.182 84.1427 164.394 84.2388 166.124C84.2637 166.573 84.478 166.95 84.478 167.44C84.478 167.916 85.1258 167.146 85.1824 166.948C85.2295 166.783 85.7122 165.781 85.6209 165.699C85.231 165.348 83.9925 165.825 83.7604 166.231C83.5379 166.62 81.9175 167.321 83.0428 167.321C83.9892 167.321 86.0825 167.576 83.9996 167.028C82.2694 166.573 80.7463 166.364 78.9762 166.364C76.126 166.364 73.2127 165.499 70.4577 166.111C69.0237 166.43 67.2079 166.124 65.74 166.124C64.5959 166.124 63.475 166.063 62.3645 165.752C61.5002 165.51 60.6585 164.709 59.7864 164.689C57.8191 164.644 55.654 164.452 53.7264 164.875C53.3463 164.958 51.9456 165.517 51.9456 165.048C51.9456 164.052 52.4105 164.176 53.3277 163.785C55.1278 163.018 56.2443 161.47 57.6601 160.183C58.5445 159.379 59.1219 158.673 59.1219 157.419C59.1219 155.234 59.1219 153.432 59.1219 151.052C59.1219 150.831 58.9943 151.603 58.9757 151.65C58.691 152.378 58.1192 153.128 57.6866 153.777C56.6762 155.293 54.9835 156.13 53.434 156.98C52.2389 157.636 43.7729 160.341 45.8857 162.655C46.6587 163.502 48.7931 164.212 49.9256 163.679C50.1864 163.556 48.8843 163.493 48.7163 163.493C48.0385 163.493 47.3608 163.493 46.683 163.493C46.597 163.493 48.2494 163.944 48.6499 164.024C50.6778 164.43 48.8842 164.689 47.8791 164.689C46.6668 164.689 45.6036 164.412 44.4238 164.197C43.4264 164.016 42.7476 163.732 41.6596 163.732C40.419 163.732 38.6761 163.795 37.5931 163.253" stroke="#7FDBE0" stroke-width="9.45002" stroke-linecap="round"/>
<path d="M126.006 257.683C127.422 259.414 128.197 261.676 128.983 263.729C129.917 266.168 131.388 268.358 132.111 270.888C132.671 272.848 132.675 274.938 133.194 276.919C133.847 279.413 134.636 281.926 135.48 284.363C136.719 287.944 139.832 289.737 143.119 291.252C148.482 293.724 154.684 296.124 160.653 296.124C162.854 296.124 165.07 296.203 167.27 296.124C169.172 296.057 170.096 294.858 171.495 293.808C173.855 292.038 175.327 289.614 175.27 286.649C175.197 282.878 172.039 280.174 169.074 278.408C166.003 276.579 162.373 275.665 159.074 274.317C154.366 272.394 149.733 270.332 145.044 268.361C139.705 266.117 134.579 263.932 129.675 260.811C128.399 259.999 130.494 262.52 130.668 262.736C134.916 268.035 139.209 273.305 143.284 278.739C145.297 281.423 147.71 284.162 149.224 287.191C150.965 290.674 145.161 280.537 143.42 277.054C142.646 275.507 141.763 273.887 141.284 272.211C140.807 270.543 142.97 273.23 143.089 273.354C148.458 278.991 153.993 284.513 159.66 289.838C162.164 292.19 155.639 284.255 153.375 281.671C152.428 280.592 151.287 279.518 150.487 278.318C150.018 277.613 152.757 278.895 152.803 278.919C157.614 281.407 161.615 285.083 166.051 288.108C167.171 288.872 166.916 283.796 166.863 283.04C166.703 280.705 164.553 284.367 163.961 284.845C160.231 287.861 153.332 285.33 149.375 284.093C145.998 283.037 143.287 281.506 139.811 281.506" stroke="#FBF9BC" stroke-width="9.45002" stroke-linecap="round"/>
<path d="M77.0131 271.218C77.0131 273.589 77.21 275.93 75.9905 278.076C75.2355 279.405 74.4841 280.381 76.4717 280.633C87.0304 281.972 97.5535 283.633 108.231 283.401C109.458 283.374 110.903 282.841 112.066 282.453C113.567 281.953 115.154 281.977 116.653 281.506C118.339 280.975 120.175 280.423 121.946 280.423C123.569 280.423 122.554 278.173 122.277 277.174C121.737 275.231 121.55 272.907 120.728 271.098C120.398 270.373 119.32 270.677 118.638 270.677C115.725 270.677 112.813 270.677 109.901 270.677C104.893 270.677 99.8855 270.677 94.8779 270.677C90.5493 270.677 86.2215 271.166 81.9154 271.474C80.5837 271.569 77.5421 272.024 76.3364 271.354C76.1075 271.227 75.322 270.693 75.4491 270.948C75.8427 271.735 76.2829 272.522 76.7574 273.264C78.0341 275.259 79.835 275.782 82.0958 276.302C85.4581 277.076 88.8461 277.823 92.2463 278.407C96.2032 279.088 99.9879 279.34 103.991 279.34C106.401 279.34 109.288 279.794 111.645 279.204C112.567 278.974 113.059 278.407 113.886 277.926C114.401 277.627 115.764 277.357 115.991 276.903" stroke="#FFDB55" stroke-width="9.45002" stroke-linecap="round"/>
<path d="M71.0577 291.252C71.0577 293.678 71.0577 296.105 71.0577 298.531C71.0577 301.147 70.6016 304.241 71.0728 306.833C71.4885 309.12 75.3357 311.068 77.1631 311.706C81.2855 313.143 85.7613 314.336 90.0354 315.21C92.9577 315.808 95.9708 315.616 98.9378 315.616C101.501 315.616 103.682 315.213 106.186 314.864C109.013 314.47 111.91 313.716 114.607 312.788C116.552 312.12 118.879 311.512 120.652 310.472C121.789 309.806 123.209 309.631 124.322 308.848C125.553 307.981 126.272 305.773 126.848 304.457C127.8 302.281 129.274 297.755 127.479 295.448C125.522 292.931 121.612 294.033 118.818 294.23C114.418 294.538 110.025 294.952 105.615 295.252C100.2 295.622 94.7881 296.649 89.3437 295.959C86.1716 295.557 83.1034 294.168 79.9 293.974C78.1717 293.869 76.5355 294.075 74.8473 293.628C74.3553 293.498 73.873 293.253 73.3736 293.162C72.5521 293.012 72.7103 296.109 72.6969 296.546C72.6413 298.351 72.4115 300.52 72.8623 302.291C73.6606 305.428 77.7208 305.942 80.3511 306.622C84.7522 307.76 89.2545 308.316 93.7798 308.683C95.3482 308.81 98.2483 309.37 99.5694 308.096C100.71 306.996 96.5485 305.549 96.2009 305.434C90.9269 303.691 85.3859 302.769 79.8398 302.637C79.8236 302.636 76.7433 302.515 77.3435 302.892C81.4686 305.486 87.3236 306.77 92.0805 307.374C94.4292 307.673 96.8282 307.752 99.1934 307.72C101.147 307.694 103.355 307.735 104.803 306.201C106.719 304.169 106.819 301.008 104.081 299.824C101.28 298.614 97.3251 298.405 94.4264 299.433C92.0041 300.293 92.8287 302.242 94.8024 303.028C100.442 305.273 107.571 305.59 113.554 305.148C116.537 304.928 121.548 304.117 122.968 300.877C123.933 298.677 121.269 298.847 119.825 298.877C115.279 298.971 111.019 300.826 107.765 304.02C107.413 304.366 105.152 306.884 106.427 307.374C109.915 308.716 115.066 305.555 117.494 303.374C119.508 301.565 122.615 297.691 117.66 298.711C117.6 298.724 115.897 299.4 116.712 299.584C118.549 299.998 121.047 298.159 122.306 297.057C122.918 296.522 123.907 295.678 124.231 294.891C124.413 294.45 124.289 293.963 124.517 293.553C124.83 292.989 124.892 292.079 125.464 291.793" stroke="#FBF9BC" stroke-width="9.45002" stroke-linecap="round"/>
<path d="M65.9153 319.676C64.7223 319.676 63.5293 319.676 62.3363 319.676C59.8557 319.676 56.7121 319.121 54.3362 319.947C53.0831 320.383 52.3068 320.97 51.2835 321.857C50.5826 322.465 48.5917 323.649 48.5917 324.715C48.5917 325.286 48.5492 325.879 48.6519 326.444C48.8431 327.496 49.1885 327.661 50.2609 328.354C55.2129 331.555 60.5785 334.211 65.825 336.882C70.551 339.287 73.5444 340.678 78.6372 339.499C81.1352 338.92 83.5495 338.269 85.9606 337.378C88.5867 336.408 90.922 334.706 93.7953 334.581C96.8412 334.448 100.053 334.364 103.089 334.626C106.262 334.899 109.325 336.287 112.412 337.002C113.883 337.343 115.426 338.085 116.938 338.085C118.693 338.085 120.447 338.085 122.202 338.085C125.142 338.085 120.658 338.037 119.991 337.965C116.087 337.542 111.892 337.187 108.081 336.19C106.719 335.834 105.335 335.649 103.931 335.649C103.452 335.649 100.423 335.751 100.472 335.814C101.882 337.627 104.508 338.433 106.577 339.108C109.734 340.136 113.06 340.675 116.247 341.619C117.98 342.133 119.608 343.02 121.465 342.958C123.516 342.89 125.464 341.607 127.179 340.642C128.439 339.933 129.939 339.522 131.299 339.033C132.933 338.444 134.129 337.432 135.51 336.446C137.201 335.238 138.892 333.852 140.082 332.129C140.672 331.275 141.916 329.694 141.976 328.61C142.212 324.374 135.094 322.113 131.751 322.113C129.52 322.113 127.907 323.122 125.841 323.858C122.826 324.931 119.089 325.994 115.871 326.159C109.271 326.497 102.674 327.798 96.051 327.798C90.3218 327.798 85.1931 325.026 79.5696 324.339C77.2065 324.05 74.8476 323.441 72.8326 322.098C71.3858 321.133 69.7547 319.634 67.9454 319.421C63.7855 318.931 58.6757 319.556 54.9377 321.361C53.4668 322.071 52.0649 323.317 53.464 324.97C55.4867 327.361 60.2547 327.649 63.043 328.204C68.4291 329.276 73.7196 330.345 78.9831 331.934C80.1167 332.276 86.7353 334.384 81.9756 332.761C78.075 331.431 74.1267 330.52 70.0356 330.024C68.3501 329.819 63.255 329.693 64.9528 329.693C71.8635 329.693 78.5658 330.465 85.2839 332.084C85.8158 332.212 87.3672 332.72 86.8779 332.475C83.962 331.017 80.87 329.855 77.8552 328.625C75.2794 327.574 72.7189 326.511 70.186 325.361C69.8689 325.218 67.3755 323.78 67.6596 324.85C68.331 327.378 69.7736 329.839 71.0882 332.069C71.6885 333.087 73.2338 336.162 73.1033 334.987C73.0032 334.086 71.8308 332.857 71.3289 332.159C70.4983 331.006 69.5389 329.828 68.5318 328.821C67.9601 328.249 68.6089 328.899 68.8927 329.106C71.1294 330.739 73.6853 331.945 76.2161 333.047C81.7526 335.456 88.0328 334.971 93.9457 334.776C101.814 334.517 109.523 334.673 117.375 335.212C122.17 335.542 127.094 335.55 131.901 335.378C132.285 335.364 127.28 333.554 126.848 333.423C122.483 332.098 118.066 331.177 113.585 330.355C113.201 330.284 112.112 330.056 112.487 329.949C114.909 329.257 117.442 328.845 119.886 328.219C122.126 327.645 124.419 327.073 126.713 326.745C127.713 326.602 126.639 327.117 126.352 327.302C124.389 328.568 122.689 329.597 125.856 330.505C128.627 331.3 131.506 331.67 134.307 332.34C134.451 332.374 136.114 333.012 135.57 332.28C135.05 331.58 131.875 329.053 132.578 328.069C133.205 327.19 137.776 327.343 137.6 326.023C137.425 324.705 135.261 324.599 134.728 323.466C134.44 322.855 136.854 323.116 137.044 322.654C137.123 322.462 135.562 321.06 135.675 321.06C137.253 321.06 139.466 322.619 140.337 323.873C141.402 325.403 141.786 327.256 139.54 327.256" stroke="#F0F0F1" stroke-width="9.45002" stroke-linecap="round"/>
<path d="M38.3046 337.814C38.3046 338.713 37.9969 340.563 38.6354 341.273C39.534 342.271 44.8795 340.761 45.6129 339.844C45.9793 339.386 46.8936 339.28 47.3724 338.897C48.0342 338.367 45.6012 336.707 45.2069 336.476C43.4384 335.435 41.1084 335.649 39.1166 335.649" stroke="#AD613E" stroke-width="9.45002" stroke-linecap="round"/>
<path d="M149.825 337.273C149.547 337.308 147.419 339.666 147.419 339.859C147.419 340.308 149.405 341.317 149.72 341.468C151.061 342.114 152.711 342.755 154.156 343.168C155.512 343.555 155.093 343.131 156.051 342.145C156.676 341.502 158.216 340.544 158.216 339.574C158.216 337.447 154.529 337.747 153.344 337.273" stroke="#AD613E" stroke-width="9.45002" stroke-linecap="round"/>
<path d="M170.94 344.582C169.812 344.582 168.316 346.395 167.557 347.154C166.669 348.041 165.534 350.233 165.812 351.485C166.373 354.01 172.552 354.598 174.609 354.598C176.7 354.598 178.12 354.437 179.873 353.185C181.547 351.989 183.326 350.084 184.414 348.312C185.847 345.976 186.879 343.778 186.339 340.942C186.035 339.347 182.314 339.943 181.301 340.145C178.573 340.691 175.747 342.054 174.203 344.447C173.406 345.683 172.374 348.084 172.895 349.605C173.187 350.456 175.208 350.402 175.843 350.357C177.757 350.224 179.47 349.563 181.046 348.492C185.061 345.763 177.743 342.813 176.624 347.289" stroke="#7FDBE0" stroke-width="9.45002" stroke-linecap="round"/>
<path d="M187.826 288.706C185.92 288.706 185.109 288.968 183.938 290.473C182.629 292.156 180.051 294.51 180.051 296.835C180.051 299.154 185.302 295.459 185.902 294.871C187.298 293.501 187.61 292.532 188.179 290.826" stroke="#AD613E" stroke-width="9.45002" stroke-linecap="round"/>
<path d="M7.71771 335.919C7.10664 335.996 7.42527 338.924 7.44703 339.439C7.58126 342.616 10.9023 344.938 12.8456 347.124C13.974 348.394 15.53 349.853 17.1915 350.327C18.4072 350.675 20.3173 351.371 21.372 352.042C22.4465 352.726 26.9381 354.7 27.5375 353.035C28.0193 351.696 28.9231 350.654 29.0864 349.184C29.3045 347.221 29.0028 345.668 28.0187 343.981C26.6768 341.68 25.0094 339.6 23.2668 337.604C21.7263 335.839 20.3531 333.881 18.4096 332.536C15.0153 330.185 8.50999 332.657 10.1087 337.454C10.8651 339.723 12.9668 341.762 14.5449 343.499C16.0185 345.122 17.4769 346.978 19.3269 348.192C22.6667 350.384 20.1962 343.38 19.5675 342.206C19.3785 341.853 18.1736 340.072 18.3344 340.176C19.4575 340.898 20.5257 341.759 21.6277 342.522C23.874 344.077 18.4516 337.867 16.1088 336.461" stroke="#7FDBE0" stroke-width="9.45002" stroke-linecap="round"/>
<path d="M89.0607 381.462C89.0607 382.948 90.0874 398.087 88.2569 398.087C85.4203 398.087 82.0723 397.092 79.2784 397.916C76.8655 398.628 75.429 401.493 72.9165 402.158C72.6814 402.22 71.6099 402.293 71.5313 402.569C71.459 402.822 71.6786 403.516 71.3431 403.612C70.8319 403.758 66.2842 402.743 68.641 404.108C70.5586 405.218 72.9413 405.22 75.0885 405.151C79.1251 405.023 83.1125 404.553 87.1624 404.553C88.5942 404.553 90.0332 404.509 91.455 404.707C91.4874 404.711 92.743 405.004 92.6692 404.672C92.4056 403.486 88.9307 402.768 88.0175 402.586C87.4495 402.472 85.3805 401.956 85.1273 402.842C84.8175 403.927 84.9621 405.637 85.6403 406.537C87.0889 408.459 89.5873 409.44 91.8655 409.889C94.3055 410.37 97.7601 411.078 100.177 410.334C104.585 408.977 101.956 402.774 100.211 400.448C99.2344 399.145 96.4071 398.675 95.2174 399.935C93.6256 401.62 103.575 402.666 104.435 402.688C106.361 402.739 108.243 402.398 110.147 402.398C111.003 402.398 110.837 402.781 111.259 403.475C112.618 405.708 115.511 406.752 117.98 406.999C121.51 407.352 116.147 402.863 115.398 402.295C112.594 400.171 109.291 401.686 106.231 401.782C105.4 401.808 101.037 400.854 101.066 400.55C101.237 398.758 102.571 397.073 103.341 395.505C104.264 393.623 105.14 391.713 105.513 389.638C105.764 388.24 105.837 386.599 105.513 385.208C105.106 383.464 105.068 384.469 105.068 385.653C105.068 387.781 104.56 392.657 101.443 392.546C99.09 392.462 100.347 385.488 99.835 383.891C99.4714 382.757 94.304 384.764 92.7548 383.788C91.3063 382.876 90.6372 380.732 88.9923 380.162C86.2054 379.197 91.3319 380.152 92.0194 380.231C93.5551 380.406 95.1041 380.628 96.654 380.522C98.4666 380.396 99.8653 379.452 101.528 378.862C103.353 378.215 105.186 378.273 106.744 376.998C107.069 376.733 107.664 376.503 107.822 376.109C108.137 375.319 107.457 377.771 107.223 378.589C106.023 382.788 104.496 387.076 104.452 391.485C104.444 392.342 104.102 394.68 105.068 395.248C105.493 395.498 106.065 392.555 106.128 392.34C106.89 389.754 107.197 387.204 107.223 384.507C107.237 383.06 107.116 382.238 107.531 384.13C108.412 388.143 108.762 392.143 108.762 396.24" stroke="#F0F0F1" stroke-width="9.45002" stroke-linecap="round"/>
<ellipse cx="68.4514" cy="207.361" rx="15.9221" ry="7.73367" fill="#A64B37"/>
<ellipse cx="131.633" cy="207.361" rx="15.9221" ry="7.73367" fill="#A64B37"/>
<ellipse cx="99.0217" cy="192.432" rx="15.9221" ry="6.92613" fill="#A64B37"/>
<path d="M169.783 176.066C157.406 190.996 136.863 187.423 122.189 177.852C120.913 176.959 119.382 177.469 118.362 178.363C105.73 188.316 88.5041 184.36 76.8929 174.534C75.7445 173.513 74.341 173.386 73.065 174.024C59.157 181.298 37.7209 184.998 32.4895 165.474C31.4687 161.518 25.2165 163.177 26.3648 167.133C28.2788 174.407 33.3826 180.915 40.2728 184.233C52.1393 189.848 65.4092 185.126 76.2549 179.511C74.9789 179.384 73.703 179.128 72.427 179.001C86.973 191.379 107.261 195.08 122.955 182.829C121.679 182.957 120.403 183.212 119.127 183.34C136.097 194.442 160.341 197.632 174.504 180.532C176.928 177.342 172.462 172.875 169.783 176.066Z" fill="#F879C6"/>
<path d="M159.32 190.741C161.872 190.741 164.041 191.634 165.062 194.059C165.955 196.101 166.848 199.674 165.572 201.716C163.658 204.523 157.278 203.757 154.216 203.885C152.685 203.885 151.026 204.013 149.495 203.885C145.412 203.375 145.412 209.755 149.495 210.266C152.94 210.648 156.64 210.266 160.085 209.883C165.317 209.5 170.548 208.096 172.079 202.354C173.1 198.525 172.079 193.804 170.293 190.358C168.252 186.274 163.786 184.36 159.32 184.488C155.237 184.488 155.237 190.869 159.32 190.741Z" fill="#F879C6"/>
<path d="M24.1975 164.07C32.2361 172.493 43.9749 174.024 54.8206 175.172C68.8561 176.704 82.8917 177.98 96.7996 179.001C113.004 180.277 129.337 181.425 145.669 181.808C151.538 181.936 157.535 182.063 163.405 181.808C166.595 181.681 170.933 181.808 173.612 180.022C178.716 176.831 177.951 166.112 177.695 161.135C177.058 149.012 173.612 136.761 166.977 126.552C146.69 95.1597 98.9688 87.7582 66.3042 101.668C52.1411 107.666 40.2746 118.513 33.1293 132.167C31.5981 135.102 30.5773 138.037 29.3014 141.1C29.8118 139.824 29.0462 141.61 28.791 142.121C28.0254 143.78 27.2598 145.439 26.6218 147.098C24.7079 151.692 23.0492 156.669 23.3044 161.773C23.5595 165.857 29.9393 165.857 29.6842 161.773C29.1738 153.989 33.8948 145.566 37.2123 138.42C41.8057 128.339 49.334 119.406 58.6485 113.153C74.7256 102.306 94.7581 100.264 113.77 102.689C130.485 104.858 146.817 111.366 157.79 124.383C165.319 133.443 169.785 144.928 171.188 156.541C171.826 161.646 172.719 171.216 170.295 175.172C171.188 173.769 170.678 174.917 169.019 175.045C167.233 175.172 165.446 175.428 163.66 175.555C158.556 175.81 153.325 175.81 148.093 175.683C133.802 175.428 119.384 174.407 105.093 173.386C90.1646 172.237 75.1083 170.961 60.1795 169.43C49.4615 168.281 36.7019 167.899 28.791 159.604C25.8563 156.541 21.3904 161.007 24.1975 164.07Z" fill="#F879C6"/>
<path d="M102.159 95.5424C102.669 96.8186 100.883 96.5633 102.542 96.4357C103.435 96.3081 104.328 95.9253 105.221 95.7977C106.497 95.5424 107.773 95.4148 109.049 95.4148C109.687 95.4148 110.453 95.4148 111.091 95.5424C111.856 95.6701 112.622 96.0529 113.387 96.0529C114.663 96.0529 113.643 96.6909 114.153 95.67C112.494 99.3708 117.981 102.689 119.64 98.8603C125.892 84.5678 92.4616 86.7372 96.1619 97.0738C97.3103 101.03 103.435 99.3708 102.159 95.5424Z" fill="#F879C6"/>
<path d="M175.525 152.585C180.629 147.481 186.115 142.504 191.729 138.037C196.578 134.081 211.124 121.192 218.269 125.659C223.884 129.232 219.545 139.569 217.249 143.525C213.038 150.671 206.658 156.541 200.023 161.39C191.474 167.516 181.904 170.451 172.08 173.769C168.252 175.045 169.91 181.298 173.738 179.894C182.287 176.959 191.091 174.534 198.747 169.813C210.103 162.794 222.48 152.075 226.18 138.803C228.477 130.763 226.18 118.895 215.973 118.64C206.531 118.385 197.088 125.914 190.071 131.401C183.308 136.634 176.928 142.248 170.931 148.246C168.124 150.926 172.59 155.52 175.525 152.585Z" fill="#F879C6"/>
<path d="M88.25 231.99C88.1224 234.023 88.1224 236.057 88.25 238.091C88.3776 240.238 88.25 243.853 90.2916 245.435C93.3539 247.808 97.9473 243.853 94.7574 241.481C95.2678 241.932 95.0126 242.271 94.885 241.481C94.885 241.142 94.7574 240.69 94.6298 240.351C94.5022 239.108 94.3747 237.865 94.3747 236.622C94.3747 235.04 94.3747 233.458 94.3747 231.877C94.7575 228.374 88.3776 228.374 88.25 231.99Z" fill="#F879C6"/>
<path d="M103.051 231.747C103.306 232.987 103.561 234.114 103.816 235.354C103.944 236.481 104.454 239.75 103.944 240.426C101.392 243.244 105.858 247.301 108.41 244.371C111.727 240.539 110.324 234.565 109.175 230.169C108.282 226.675 102.157 228.253 103.051 231.747Z" fill="#F879C6"/>
<path d="M69.6204 310.824C69.3652 292.831 71.1515 269.095 83.1456 254.547C89.2702 247.145 99.7331 244.338 108.537 248.549C114.279 251.357 118.234 256.716 121.042 262.331C123.211 266.798 124.742 271.647 125.635 276.496C126.145 279.304 126.145 279.176 126.401 281.345C127.166 287.598 127.677 293.851 127.549 299.977C127.421 306.613 127.294 312.61 120.404 315.035C111.472 318.225 101.264 318.991 91.9497 318.608C86.8459 318.481 81.742 317.843 77.021 315.928C74.9794 315.035 71.9172 312.228 69.8756 311.972C68.2169 311.717 70.1308 311.462 68.7272 312.866C71.6619 309.931 67.0685 305.464 64.2614 308.399C59.6679 312.993 67.3237 318.225 70.7688 320.012C80.5937 325.116 91.9497 325.627 102.923 324.734C110.834 324.095 122.573 323.457 128.953 317.843C134.694 312.738 134.184 302.274 133.929 295.383C133.674 283.642 133.163 275.986 129.08 265.011C123.338 249.315 110.196 236.171 92.0773 241.02C78.4245 244.721 71.6619 259.013 68.0892 271.519C64.5166 284.025 62.9854 297.68 63.2406 310.696C63.3682 315.035 69.748 315.035 69.6204 310.824Z" fill="#F879C6"/>
<path d="M67.8348 281.218C58.3927 283.515 48.4403 285.046 38.743 284.408C33.2563 284.025 22.5383 281.09 26.4938 273.306C27.5146 271.264 29.556 269.605 31.47 268.457C32.7459 267.691 30.7045 268.712 32.4908 267.946C41.1673 264.118 50.3542 261.31 59.286 258.248C64.645 256.461 70.004 254.547 75.4906 253.016C77.7873 252.378 83.1464 250.336 85.0603 250.846C89.0158 252.122 90.6746 245.869 86.7191 244.721C84.1672 243.955 80.9773 244.976 78.4254 245.614C73.4491 246.89 68.4728 248.422 63.6242 250.081C53.6717 253.399 43.7192 256.972 33.8943 260.545C28.1525 262.714 22.7935 265.522 20.2416 271.519C15.1377 283.515 28.2801 290.023 37.9774 290.789C48.3127 291.682 59.286 289.896 69.4936 287.471C73.4491 286.322 71.7903 280.197 67.8348 281.218Z" fill="#F879C6"/>
<path d="M23.3036 269.478C14.4995 267.436 -1.3224 268.329 1.8675 281.473C4.67461 293.469 20.8793 291.172 29.6834 288.364C33.5113 287.088 31.8526 280.963 28.0247 282.239C23.176 283.77 11.8199 286.96 8.50243 281.345C3.90898 273.434 17.6894 274.71 21.5172 275.603C25.6003 276.624 27.2591 270.498 23.3036 269.478Z" fill="#F879C6"/>
<path d="M110.068 249.442C125.252 256.971 140.181 264.501 156.003 270.626C161.744 272.923 167.614 275.22 172.973 278.283C176.545 280.324 177.439 281.601 176.545 286.322C175.78 290.661 173.738 295 169.272 296.148C163.913 297.552 156.768 296.148 151.409 295.127C145.54 293.979 137.246 292.448 133.546 287.343C131.121 284.025 125.635 287.216 128.059 290.533C134.694 299.594 148.347 301.636 158.682 302.529C163.403 302.912 169.145 303.422 173.611 301.508C179.48 298.956 182.415 291.81 183.18 285.812C184.584 273.816 172.718 270.498 163.531 266.67C155.747 263.352 148.092 260.672 140.563 256.971C131.504 252.633 122.445 248.166 113.513 243.7C109.558 242.041 106.368 247.656 110.068 249.442Z" fill="#F879C6"/>
<path d="M182.798 289.385C184.074 288.875 185.606 288.364 187.137 288.236C187.647 288.236 189.051 288.109 189.306 288.492C190.199 289.64 188.54 293.851 188.158 295C187.264 297.68 185.733 300.36 182.671 299.977C180.502 299.722 176.291 298.063 175.015 296.404C175.27 297.169 175.653 297.935 175.908 298.701C175.908 298.701 175.908 298.701 175.908 298.573C176.419 294.489 170.039 294.489 169.528 298.573C169.018 302.657 178.588 305.719 181.395 306.23C187.137 307.378 191.475 303.55 193.644 298.573C195.686 293.851 197.982 285.429 191.858 282.622C188.668 281.218 184.457 281.983 181.267 283.26C177.312 284.791 178.971 290.916 182.798 289.385Z" fill="#F879C6"/>
<path d="M65.2832 310.696C61.0726 311.972 56.862 313.504 52.6513 315.163C48.5682 316.949 41.9332 319.246 40.1469 323.84C37.7226 329.966 46.3991 336.857 50.4821 340.175C55.9688 344.641 62.9865 349.745 70.3871 349.873C78.298 350.001 85.5711 346.428 93.0992 344.386C97.9479 343.11 103.307 347.066 108.156 348.342C123.722 352.298 144.265 347.193 151.921 331.625C154.728 326.01 150.007 322.819 145.541 320.012C140.31 316.822 133.037 312.61 126.529 312.61C122.446 312.61 122.446 318.991 126.529 318.991C132.016 318.991 138.906 323.33 143.372 326.265C146.052 328.051 147.2 328.051 145.286 330.348C142.351 333.539 139.544 336.474 135.844 338.898C126.529 344.896 116.194 344.769 105.986 341.195C101.648 339.664 97.9479 336.601 93.0992 337.75C87.3574 339.154 81.8708 341.834 76.0013 342.982C66.304 344.896 58.6483 339.409 51.8857 332.901C50.7373 331.88 49.589 330.731 48.5682 329.455C46.3991 326.775 45.8887 327.031 47.5475 324.989C49.0786 323.33 52.7789 322.054 54.8204 321.16C58.7759 319.501 62.859 317.97 67.0696 316.822C70.8975 315.673 69.2387 309.548 65.2832 310.696Z" fill="#F879C6"/>
<path d="M32.3623 337.75C36.8282 335.708 41.294 333.666 45.7599 331.752C49.4602 330.093 46.2703 324.606 42.57 326.265C38.1041 328.307 33.6383 330.349 29.1724 332.263C25.3445 333.922 28.662 339.409 32.3623 337.75Z" fill="#F879C6"/>
<path d="M36.8288 352.298C40.5291 351.149 44.1018 349.873 47.8021 348.469C50.992 347.321 57.2442 345.662 58.7753 342.216C60.4341 338.515 54.9475 335.198 53.2887 339.026C53.2887 339.154 53.4163 338.898 52.7783 339.409C52.0127 339.919 51.1196 340.302 50.354 340.685C48.1849 341.706 46.0157 342.471 43.8466 343.237C41.0395 344.258 38.1048 345.279 35.1701 346.172C31.2146 347.321 33.0009 353.446 36.8288 352.298Z" fill="#F879C6"/>
<path d="M148.091 333.156C150.771 334.432 153.45 335.836 156.13 337.24C158.044 338.261 159.958 339.281 161.872 340.43C162.893 341.068 164.806 342.216 165.062 342.599C166.848 346.3 172.335 343.11 170.548 339.409C168.89 336.091 163.786 334.049 160.723 332.39C157.661 330.731 154.471 329.2 151.409 327.669C147.581 325.882 144.391 331.369 148.091 333.156Z" fill="#F879C6"/>
<path d="M136.227 344.769C139.289 345.917 142.224 347.193 145.286 348.469C147.455 349.363 149.625 350.256 151.666 351.149C152.559 351.532 153.453 351.915 154.346 352.425C154.728 352.553 156.132 353.446 155.494 352.936C158.684 355.488 163.15 351.022 159.96 348.469C156.77 345.79 152.177 344.513 148.476 342.982C144.904 341.451 141.331 340.047 137.886 338.643C134.058 337.112 132.399 343.365 136.227 344.769Z" fill="#F879C6"/>
<path d="M32.4896 332.263C29.2997 329.328 25.727 326.265 21.8991 324.096C16.9229 321.416 13.4778 322.181 8.88437 325.116C4.16332 328.179 -0.685357 333.156 0.0802194 339.281C0.718199 344.258 4.80126 348.725 8.11875 352.298C15.0089 359.572 22.6647 364.804 33 360.082C44.2284 354.85 37.9763 340.557 33.1276 332.901C30.9585 329.455 25.4718 332.646 27.6409 336.091C30.5756 340.813 36.9555 351.787 29.2997 354.595C22.4095 357.147 18.3264 353.446 13.6054 348.725C11.181 346.3 7.73596 343.237 6.84279 339.792C5.43924 335.07 10.1603 331.369 13.9882 329.455C18.8369 327.031 24.7062 333.284 28.1513 336.602C30.9585 339.537 35.5519 335.07 32.4896 332.263Z" fill="#F879C6"/>
<path d="M160.978 342.599C157.66 345.151 153.705 349.49 154.853 354.084C156.002 358.933 162.126 360.848 166.337 362.251C175.141 365.059 184.583 362.379 191.346 355.998C196.832 350.766 198.874 340.175 191.729 335.453C181.393 328.817 168.378 334.815 160.978 342.599C158.171 345.534 162.637 350.128 165.444 347.066C170.675 341.578 178.331 337.239 185.859 339.664C192.111 341.706 189.942 348.469 185.987 351.915C182.414 354.978 176.289 357.785 171.568 357.019C169.272 356.636 164.295 355.488 162.509 353.701C159.957 351.149 163.147 348.852 165.571 347.066C168.634 344.641 164.168 340.175 160.978 342.599Z" fill="#F879C6"/>
<path d="M73.193 265.011C89.1425 271.775 109.175 269.478 125.507 265.904C129.463 265.011 127.804 258.886 123.849 259.779C112.237 262.204 100.243 263.48 88.377 262.076C85.4422 261.693 82.3799 261.183 79.4452 260.417C78.8073 260.29 74.9793 258.886 76.3829 259.524C72.6826 257.993 69.4927 263.48 73.193 265.011Z" fill="#F879C6"/>
<path d="M67.4517 289.002C87.3566 296.148 111.09 295.255 130.739 288.109C134.567 286.705 132.908 280.58 129.081 281.984C110.324 288.747 88.1222 289.64 69.1104 282.877C65.2825 281.473 63.6238 287.598 67.4517 289.002Z" fill="#F879C6"/>
<path d="M72.4287 142.759C68.218 144.673 59.5415 148.884 61.2002 154.882C62.3486 159.221 68.218 159.859 71.9183 160.369C81.8708 161.518 91.9508 161.39 101.903 162.539C108.538 163.304 115.428 165.219 122.063 165.346C125.253 165.474 129.336 165.091 130.868 161.901C133.037 157.434 128.188 152.84 125.253 150.288C110.835 137.016 90.9301 136.506 73.1942 142.631C69.3663 143.907 71.0251 150.16 74.853 148.757C90.6749 143.397 108.666 143.269 121.425 155.52C122.319 156.413 124.488 158.072 124.743 159.476C124.871 160.242 125.891 158.71 124.871 158.966C123.595 159.348 121.936 159.093 120.66 158.966C119.384 158.838 118.236 158.583 116.96 158.328C104.072 156.031 91.0577 155.01 77.9153 154.499C74.9806 154.372 69.6216 154.754 66.9421 152.84C67.8352 153.478 66.1765 154.499 67.7076 153.223C68.218 152.713 68.7284 152.33 69.3663 151.819C71.1527 150.416 73.3218 149.267 75.4909 148.374C79.3188 146.587 76.129 141.1 72.4287 142.759Z" fill="#F879C6"/>
<path d="M88.1226 158.328C87.7398 163.687 87.2294 169.047 86.8466 174.407C86.4638 178.49 92.8436 178.49 93.2264 174.407C93.6092 169.047 94.1196 163.687 94.5024 158.328C94.8852 154.244 88.5054 154.244 88.1226 158.328Z" fill="#F879C6"/>
<path d="M102.414 159.731C102.031 165.346 101.648 170.834 101.393 176.448C101.138 180.532 107.518 180.532 107.773 176.448C108.156 170.834 108.539 165.346 108.794 159.731C109.049 155.648 102.669 155.648 102.414 159.731Z" fill="#F879C6"/>
<path d="M84.4236 234.511C88.5067 234.511 88.5067 228.131 84.4236 228.131C80.213 228.131 80.213 234.511 84.4236 234.511Z" fill="#F879C6"/>
<path d="M86.7191 230.556C84.8052 222.644 86.4639 212.946 96.0336 212.052C107.007 211.031 115.173 217.795 113.131 228.897C112.366 232.853 118.491 234.64 119.256 230.556C122.063 215.37 111.473 204.651 96.0336 205.672C81.9981 206.565 77.6598 220.092 80.4669 232.215C81.4877 236.171 87.7399 234.512 86.7191 230.556Z" fill="#D34B4B"/>
<path d="M80.2131 375.906C79.4475 378.713 79.7027 382.031 79.5751 384.966C79.4475 387.774 79.3199 390.581 79.1923 393.516C79.0647 397.6 85.4445 397.6 85.5721 393.516C85.6997 390.964 85.8273 388.284 85.9549 385.732C86.0825 383.945 86.0825 382.159 86.2101 380.372C86.2101 379.607 86.3377 378.969 86.3377 378.203C86.3377 377.565 86.5929 377.054 86.3377 377.692C87.486 373.609 81.3614 371.95 80.2131 375.906Z" fill="#F879C6"/>
<path d="M92.7153 382.414C92.3326 387.263 91.9498 392.113 91.567 396.962C91.3118 401.045 97.6916 401.045 97.9468 396.962C98.3296 392.113 98.7124 387.263 99.0951 382.414C99.3503 378.331 92.9705 378.331 92.7153 382.414Z" fill="#F879C6"/>
<path d="M108.282 371.95C109.047 380.117 109.685 388.284 110.451 396.452C110.578 397.728 111.344 399.259 112.748 399.514C115.299 399.897 117.979 400.663 120.276 402.066C122.19 403.215 124.231 405.129 123.083 407.681C121.169 411.765 113.768 408.319 111.344 407.043C110.068 406.405 108.537 406.533 107.516 407.554C100.371 414.828 89.7803 419.039 83.2729 408.702C81.1037 405.257 75.6171 408.447 77.7863 411.893C86.5904 425.802 101.774 422.612 111.982 412.148C110.706 412.275 109.43 412.531 108.154 412.658C115.299 416.359 130.101 418.273 129.845 406.022C129.718 398.366 121.041 394.665 114.534 393.516C115.299 394.537 116.065 395.558 116.831 396.579C116.065 388.412 115.427 380.245 114.661 372.078C114.279 367.866 107.899 367.866 108.282 371.95Z" fill="#F879C6"/>
<path d="M80.3388 406.405C76.2558 406.788 70.7691 407.171 67.0688 405.257C66.5584 405.001 66.3033 404.874 66.0481 404.491C66.3033 404.874 66.1756 404.108 66.1756 404.491C66.4308 402.577 68.4724 400.28 69.8759 399.131C70.7691 398.366 71.9174 397.855 72.9382 398.11C73.5762 398.238 74.7246 399.769 73.959 398.748C76.3834 401.939 81.9976 398.748 79.4456 395.558C77.0213 392.368 73.0658 390.837 69.1103 392.368C64.2617 394.154 58.2647 401.173 60.051 406.788C62.3478 413.934 74.3418 413.551 80.3388 413.041C84.4219 412.403 84.5495 406.022 80.3388 406.405Z" fill="#F879C6"/>
<path d="M81.7423 201.46C83.9973 201.46 85.8254 199.632 85.8254 197.377C85.8254 195.122 83.9973 193.293 81.7423 193.293C79.4872 193.293 77.6592 195.122 77.6592 197.377C77.6592 199.632 79.4872 201.46 81.7423 201.46Z" fill="#F5D9EA"/>
<path d="M115.683 202.354C117.938 202.354 119.766 200.525 119.766 198.27C119.766 196.015 117.938 194.187 115.683 194.187C113.428 194.187 111.6 196.015 111.6 198.27C111.6 200.525 113.428 202.354 115.683 202.354Z" fill="#F5D9EA"/>
<path d="M149.114 190.741C148.986 198.27 147.455 207.203 142.479 213.073C135.206 221.878 122.829 225.324 112.111 227.238C93.8647 230.428 76.0013 229.918 62.3485 216.008C53.1616 206.692 46.6542 193.676 43.7195 180.915C43.3367 179.128 41.4227 178.363 39.764 178.745C31.0874 180.787 21.9006 187.295 25.8561 197.249C29.6839 206.565 40.9124 211.414 50.0993 206.692C53.7996 204.778 50.4821 199.291 46.9094 201.205C41.4228 204.013 34.7878 200.822 32.2359 195.845C28.9184 189.337 36.0637 186.147 41.4228 184.998C40.1468 184.233 38.7432 183.467 37.4673 182.829C40.9123 197.504 48.8233 212.818 60.0518 223.027C74.8529 236.426 92.9715 236.809 111.856 233.874C124.36 231.832 138.268 227.748 146.945 217.795C153.069 210.648 155.238 200.184 155.494 190.868C155.494 186.657 149.114 186.657 149.114 190.741Z" fill="#F879C6"/>
<path d="M65.4978 204.784C65.3444 205.474 64.1852 206.014 63.7591 206.547C63.1896 207.259 62.9333 207.93 62.2148 208.505" stroke="#FF7D7D" stroke-width="4.05001" stroke-linecap="round"/>
<path d="M127.907 204.784C127.754 205.474 126.594 206.014 126.168 206.547C125.599 207.259 125.342 207.93 124.624 208.505" stroke="#FF7D7D" stroke-width="4.05001" stroke-linecap="round"/>
<path d="M74.6894 205.659C74.5751 206.173 73.7141 206.827 73.3762 207.24C72.6598 208.116 71.9878 209.017 71.1875 209.818" stroke="#FF7D7D" stroke-width="4.05001" stroke-linecap="round"/>
<path d="M137.098 205.659C136.983 206.173 136.122 206.827 135.784 207.24C135.068 208.116 134.396 209.017 133.596 209.818" stroke="#FF7D7D" stroke-width="4.05001" stroke-linecap="round"/>
<path d="M65.8506 204.707C65.9583 205.353 66.6659 205.83 67.0555 206.309C67.7273 207.136 68.3163 207.896 69.1704 208.54C69.6902 208.932 70.119 209.552 70.5803 210.014" stroke="#FF7D7D" stroke-width="4.05001" stroke-linecap="round"/>
<path d="M128.26 204.707C128.367 205.353 129.075 205.83 129.465 206.309C130.136 207.136 130.725 207.896 131.58 208.54C132.099 208.932 132.528 209.552 132.99 210.014" stroke="#FF7D7D" stroke-width="4.05001" stroke-linecap="round"/>
<ellipse cx="39.2798" cy="10.9581" rx="39.2798" ry="10.9581" transform="matrix(0.998329 0.0577916 -0.0577768 0.99833 66.0664 100.562)" fill="#28D0D9"/>
<path d="M81.8398 113.886C84.403 113.545 86.6792 111.663 88.9208 110.542" stroke="#7FDBE0" stroke-width="5" stroke-linecap="round"/>
<path d="M98.3613 115.853C101.24 114.722 103.602 112.54 106.426 111.329" stroke="#7FDBE0" stroke-width="5" stroke-linecap="round"/>
<path d="M116.458 117.23C117.914 115.927 120.064 115.033 121.736 114.007C122.454 113.566 123.134 112.973 123.932 112.706" stroke="#7FDBE0" stroke-width="5" stroke-linecap="round"/>
<path fill-rule="evenodd" clip-rule="evenodd" d="M137.028 28.8968C149.227 26.02 157.196 21.2688 157.196 15.8946C157.196 7.11626 135.934 0 109.706 0C83.4772 0 62.2148 7.11626 62.2148 15.8946C62.2148 21.376 70.5051 26.2094 83.1181 29.0668C76.7858 31.9146 72.9027 35.7582 72.9027 39.9877C72.9027 45.844 80.3475 50.9605 91.4305 53.7179C85.6748 56.6331 82.0042 61.0529 82.0042 66.0008C82.0042 74.7791 93.5582 81.8954 107.811 81.8954C122.063 81.8954 133.617 74.7791 133.617 66.0008C133.617 61.4697 130.539 57.3814 125.6 54.486C138.587 51.9961 147.627 46.441 147.627 39.9877C147.627 35.6735 143.587 31.7607 137.028 28.8968Z" fill="url(#paint0_linear_837_4116)"/>
<path d="M69.935 2.74792C62.5067 8.24804 53.858 20.8983 78.6899 27.4984" stroke="url(#paint1_linear_837_4116)" stroke-width="5" stroke-linecap="round"/>
<path d="M79.8911 27.4985C72.4627 32.9986 63.8141 45.6489 88.646 52.249" stroke="url(#paint2_linear_837_4116)" stroke-width="5" stroke-linecap="round"/>
<path d="M90.059 53.1703C82.6307 58.6704 73.982 71.3207 98.8139 77.9208" stroke="url(#paint3_linear_837_4116)" stroke-width="5" stroke-linecap="round"/>
<path d="M147.586 2.74792C155.015 8.24804 163.663 20.8983 138.832 27.4984" stroke="url(#paint4_linear_837_4116)" stroke-width="5" stroke-linecap="round"/>
<path d="M137.63 27.4985C145.059 32.9986 153.707 45.6489 128.876 52.249" stroke="url(#paint5_linear_837_4116)" stroke-width="5" stroke-linecap="round"/>
<path d="M127.462 53.1703C134.891 58.6704 143.539 71.3207 118.708 77.9208" stroke="url(#paint6_linear_837_4116)" stroke-width="5" stroke-linecap="round"/>
<defs>
<linearGradient id="paint0_linear_837_4116" x1="109.706" y1="0" x2="109.706" y2="81.8954" gradientUnits="userSpaceOnUse">
<stop stop-color="#F879C6" stop-opacity="0"/>
<stop offset="0.7" stop-color="#F879C6" stop-opacity="0.7"/>
<stop offset="1" stop-color="#F879C6"/>
</linearGradient>
<linearGradient id="paint1_linear_837_4116" x1="70.4524" y1="2.74792" x2="70.4524" y2="27.4984" gradientUnits="userSpaceOnUse">
<stop stop-color="#FFB3E1" stop-opacity="0"/>
<stop offset="1" stop-color="#F879C6"/>
</linearGradient>
<linearGradient id="paint2_linear_837_4116" x1="80.4084" y1="27.4985" x2="80.4084" y2="52.249" gradientUnits="userSpaceOnUse">
<stop stop-color="#FFB3E1"/>
<stop offset="1" stop-color="#F879C6"/>
</linearGradient>
<linearGradient id="paint3_linear_837_4116" x1="90.5764" y1="53.1703" x2="90.5764" y2="77.9208" gradientUnits="userSpaceOnUse">
<stop stop-color="#FFB3E1"/>
<stop offset="1" stop-color="#F879C6"/>
</linearGradient>
<linearGradient id="paint4_linear_837_4116" x1="147.069" y1="2.74792" x2="147.069" y2="27.4984" gradientUnits="userSpaceOnUse">
<stop stop-color="#FFB3E1" stop-opacity="0"/>
<stop offset="1" stop-color="#F879C6"/>
</linearGradient>
<linearGradient id="paint5_linear_837_4116" x1="137.113" y1="27.4985" x2="137.113" y2="52.249" gradientUnits="userSpaceOnUse">
<stop stop-color="#FFB3E1"/>
<stop offset="1" stop-color="#F879C6"/>
</linearGradient>
<linearGradient id="paint6_linear_837_4116" x1="126.945" y1="53.1703" x2="126.945" y2="77.9208" gradientUnits="userSpaceOnUse">
<stop stop-color="#FFB3E1"/>
<stop offset="1" stop-color="#F879C6"/>
</linearGradient>
</defs>
</svg>
