<svg width="227" height="422" viewBox="0 0 227 422" fill="none" xmlns="http://www.w3.org/2000/svg">
<rect x="71" y="260" width="51" height="35" fill="#FBF9BC"/>
<path d="M113.625 166.047C113.548 166.66 111.612 166.382 111.095 166.382C109.721 166.382 109.035 166.009 108.602 164.708" stroke="#F0F0F1" stroke-width="14.0942" stroke-linecap="round"/>
<path d="M97.0774 168.991C97.0774 168.232 96.8756 167.595 96.7611 166.851C96.6406 166.068 96.9451 166.872 97.2634 166.963C97.8938 167.143 97.8217 166.037 98.0076 165.642C98.1188 165.405 97.4838 165.642 97.0774 165.642" stroke="#F0F0F1" stroke-width="14.0942" stroke-linecap="round"/>
<path d="M68.4136 151.981C78.8631 151.981 89.2704 152.316 99.707 152.316C103.071 152.316 106.387 152.986 109.772 152.986C111.563 152.986 113.175 153.99 114.963 153.99" stroke="#F0F0F1" stroke-width="14.0942" stroke-linecap="round"/>
<path d="M129.937 151.91C126.52 151.91 122.914 152.103 119.537 151.836C113.781 151.38 108.664 150.571 102.763 150.571C98.5139 150.571 94.2645 150.571 90.0152 150.571C86.3009 150.571 84.0469 150.844 80.689 151.761C79.5778 152.065 76.9312 152.915 76.9317 152.915C78.7753 150.87 84.0201 150.532 87.5327 149.975C89.7768 149.62 86.7929 149.901 85.7882 149.901C83.1346 149.901 80.2947 150.199 77.7704 150.199C66.509 150.199 99.9557 147.557 111.217 147.557" stroke="#FF7D7D" stroke-width="14.0942" stroke-linecap="round"/>
<path d="M184.953 160.353H186.628" stroke="#F0F0F1" stroke-width="11.2754" stroke-linecap="round"/>
<path d="M176.109 164.972C176.109 166.426 176.594 168.893 175.7 170.144C174.696 171.55 174.083 173.039 173.263 174.516C172.138 176.54 175.889 176.656 176.965 175.967C184.962 170.849 192.922 166.048 200.556 160.283" stroke="#7FDBE0" stroke-width="11.2754" stroke-linecap="round"/>
<path d="M180.128 166.646C182.433 166.436 182.852 170.272 184.529 168.804C185.637 167.835 187.404 167.293 188.697 166.646" stroke="#7FDBE0" stroke-width="11.2754" stroke-linecap="round"/>
<path d="M180.463 164.302C183.968 164.302 187.153 162.029 190.249 160.618C193.673 159.058 197.202 157.582 200.482 155.744C204.754 153.349 210.267 150.907 215.217 150.907C217.325 150.907 216.73 151.481 214.956 151.577C212.697 151.699 210.585 152.748 209.003 154.33C207.878 155.455 206.999 156.707 205.654 157.604C204.452 158.405 202.858 159.851 201.561 160.284" stroke="#7FDBE0" stroke-width="11.2754" stroke-linecap="round"/>
<path d="M160.036 191.763C160.036 192.904 160.036 194.045 160.036 195.186C160.036 197.001 159.16 197.863 158.771 199.465C158.383 201.064 167.02 197.575 167.888 196.786C169.19 195.602 168.983 194.388 167.255 193.288C166.313 192.689 164.624 192.894 163.534 192.749C162.405 192.598 161.315 191.9 160.371 191.428" stroke="#EEB297" stroke-width="11.2754" stroke-linecap="round"/>
<path d="M132.912 179.038C135.101 179.038 136.82 180.079 138.865 180.787C141.347 181.646 143.824 182.052 146.456 182.052C148.594 182.052 151.789 180.614 153.842 179.857C155.371 179.294 158.097 178.034 159.703 178.034" stroke="#FF7D7D" stroke-width="11.2754" stroke-linecap="round"/>
<path d="M82.6753 177.362C84.932 177.362 85.7455 179.97 87.7095 178.935C89.0629 179.457 90.6669 180.274 92.1375 180.274C95.5024 180.274 100.462 179.372 103.773 179.372C107.12 179.372 110.444 179.433 113.652 178.72C115.141 178.39 118.708 179.306 119.513 177.697" stroke="#FF7D7D" stroke-width="11.2754" stroke-linecap="round"/>
<path d="M34.1194 168.657C42.0369 168.657 48.8028 173.695 56.5755 174.666C60.524 175.16 64.5847 175.02 68.6129 175.02" stroke="#FF7D7D" stroke-width="11.2754" stroke-linecap="round"/>
<path d="M40.4796 192.434C39.5602 192.434 38.047 192.09 37.54 193.103C36.5119 195.16 39.3512 196.446 40.7773 196.936C42.4329 197.505 43.4245 197.342 44.982 196.452C45.8026 195.983 43.9433 194.778 43.4936 194.778" stroke="#EEB297" stroke-width="11.2754" stroke-linecap="round"/>
<path d="M99.4695 211.886C99.4695 216.44 101.853 210.366 101.853 208.607C101.853 206.221 101.853 209.425 101.853 210.155C101.853 211.142 101.853 212.129 101.853 213.116" stroke="#FF7D7D" stroke-width="11.2754" stroke-linecap="round"/>
<path d="M49.1277 183.226C49.1277 191.317 55.4122 198.281 60.6282 203.879C63.3582 206.809 66.2129 210.006 69.5281 212.288C70.1002 212.682 70.8899 213.298 71.5508 213.543C74.5096 214.637 77.7019 215.129 80.5952 216.456C81.6644 216.947 82.9967 217.074 84.1349 217.379C84.4619 217.467 85.979 218.182 86.2154 217.74C86.9331 216.396 86.0713 213.796 86.0565 212.302C86.0364 210.283 87.0104 207.252 88.4548 205.754C90.3933 203.745 91.9663 200.016 95.0286 199.336C96.0743 199.104 97.1993 198.95 98.2649 198.817C98.9563 198.731 99.6854 198.962 100.302 198.543C101.459 197.758 99.1484 196.1 98.655 195.702C96.0521 193.601 93.3631 191.795 90.9688 189.428C89.4205 187.897 83.4526 186.617 81.8521 185.147C80.2823 183.705 83.0967 183.486 81.1153 183.486C79.7216 183.486 78.6611 182.742 77.4166 182.245C75.9971 181.678 75.4637 181.526 73.8047 182.13C71.5837 182.939 69.4969 184.001 67.1731 184.51C64.4525 185.105 61.7481 185.043 58.9811 185.043C57.5529 185.043 56.1532 184.784 54.7335 184.784C54.3108 184.784 53.0629 184.27 53.881 185.087C60.3757 191.57 63.5226 199.359 72.0131 203.158C72.4179 203.339 77.08 203.158 77.5611 203.158C78.3798 203.158 76.8986 201.647 76.4053 200.995C74.2777 198.182 71.8991 195.517 69.8604 192.644C69.7724 192.52 69.5136 192.144 69.6003 192.269C70.5733 193.672 71.224 195.306 72.0131 196.812C73.2721 199.216 74.5442 201.653 76.0152 203.937C77.0005 205.467 75.2216 200.386 74.8738 198.601C74.693 197.672 73.0083 192.548 74.9605 192.947C78.104 193.589 80.9235 195.145 83.687 196.697C83.6949 196.701 84.7954 197.328 84.6406 197C84.0059 195.653 82.6526 194.441 81.751 193.264C81.4108 192.82 78.9269 189.127 79.3527 189.269C80.1332 189.529 80.8419 190.42 81.4476 190.928C82.7954 192.057 84.2225 193.097 85.4786 194.332C86.3866 195.224 87.4474 196.075 85.5797 195.125C82.0031 193.305 77.9577 191.609 73.9203 191.332C71.5869 191.171 69.0731 191.043 66.7397 191.043C66.2707 191.043 67.1473 192.359 67.1875 192.428C68.405 194.505 69.5877 196.615 70.9295 198.615C73.2307 202.046 75.5807 205.517 77.9946 208.87C78.4046 209.439 79.9576 206.542 80.2051 206.201C80.9326 205.2 82.5601 202.095 82.5601 203.331C82.5601 204.267 81.5161 205.251 81.3898 206.259C81.336 206.689 81.8139 205.911 81.8521 205.87C82.7115 204.948 83.6609 204.133 84.6984 203.418C87.3765 201.573 90.8206 201.129 93.9739 200.764C97.5018 200.356 101.265 200.075 104.81 200.476C107.092 200.734 113.692 202.787 111.514 202.062C110.477 201.717 109.477 201.072 108.508 200.591C105.49 199.091 102.391 197.727 99.5219 195.947C98.2589 195.163 96.7166 194.271 95.8088 193.048C95.1571 192.17 98.643 192.712 98.8573 192.745C101.658 193.177 104.363 194.263 106.977 195.312C109.936 196.5 112.968 197.825 115.415 199.913C115.799 200.242 117.177 201.325 117.177 201.99C117.177 202.669 113.142 201.67 113.103 201.658C108.065 200.167 102.19 197.286 98.3372 193.654C98.1812 193.507 97.0819 192.669 97.5281 192.341C98.905 191.328 102.92 192.033 104.463 192.053C109.067 192.112 114.287 192.445 118.694 193.985C118.839 194.036 115.735 193.601 115.415 193.553C110.267 192.776 105.085 192.246 99.9264 191.548C97.3588 191.2 94.7869 190.819 92.2546 190.264C91.5653 190.113 89.7291 189.96 90.2753 189.514C90.5964 189.252 91.9001 189.487 92.2113 189.514C95.6308 189.818 98.9966 190.652 102.397 191.115C107.947 191.871 113.913 192.612 119.518 191.937C120.509 191.818 119.325 189.229 120.126 188.429C121.181 187.377 125.127 188.385 126.482 187.524C127.175 187.083 127.374 187.363 127.926 187.899C129.574 189.499 131.771 190.662 133.763 191.764C138.687 194.487 144.362 193.87 149.786 193.87C149.951 193.87 151.997 193.814 151.997 193.928C151.997 194.154 151.337 194.642 151.216 194.764C150.211 195.787 149.267 196.862 148.24 197.865C144.487 201.53 141.445 205.781 138.069 209.764C136.778 211.287 135.833 212.745 134.182 213.961C132.07 215.517 129.522 216.352 127.06 217.177C125.602 217.666 124.398 218.014 122.87 218.014C121.288 218.014 125.087 212.427 125.413 211.783C127.117 208.408 128.75 204.951 130.123 201.428C130.541 200.353 127.78 203.08 127.464 203.36C127.036 203.74 124.781 206.396 124.257 205.495C122.98 203.301 122.744 200.161 122.118 197.735C121.721 196.196 121.071 194.546 120.948 192.947C120.898 192.297 129.425 196.14 130.036 196.437C131.718 197.255 133.334 198.158 134.919 199.149C135.29 199.38 136.278 199.777 136.48 200.23C136.761 200.862 135.951 201.709 135.728 202.235C135.503 202.769 135.444 203.648 135.179 204.11C134.773 204.819 130.919 205.042 130.123 205.293C128.603 205.771 126.993 206.495 125.456 206.836C124.17 207.121 122.527 206.851 121.223 206.851C119.493 206.851 117.751 206.91 116.021 206.851C115.352 206.827 112.116 206.527 111.514 206.259C111.363 206.192 111.947 209.764 115.183 208.149C116.156 209.72 113.103 210.498 113.103 212.302C113.103 215.506 113.91 217.904 111.947 220.22C107.517 225.447 100.77 227.337 94.6096 225.629C92.9527 225.17 91.1009 221.627 89.3217 221.331C85.8243 220.749 82.1913 221.465 78.717 220.552C78.536 220.505 75.5563 219.534 75.6973 219.182C76.0136 218.393 83.319 219.107 84.1783 219.168C88.5205 219.474 93.2269 222.876 97.5281 223.466C99.4088 223.723 101.308 223.705 103.192 223.999C105.592 224.374 108.132 224.389 109.982 222.557C111.806 223.063 113.562 223.466 115.472 223.466C116.791 223.466 118.112 223.486 119.431 223.466C120.873 223.443 122.004 222.576 123.231 221.922C128.309 219.219 133.131 216.286 137.289 212.302" stroke="#FFC2A7" stroke-width="11.2754" stroke-linecap="round"/>
<path d="M95.9128 237.59C97.733 237.59 98.0181 236.848 99.6876 237.59C100.484 237.944 102.681 237.904 103.548 237.904" stroke="#EEB297" stroke-width="11.2754" stroke-linecap="round"/>
<path d="M124.654 235.245C125.715 235.245 125.941 235.337 125.941 234.215" stroke="#EEB297" stroke-width="11.2754" stroke-linecap="round"/>
<path d="M126.453 246.311C123.286 246.311 118.726 245.573 116.988 248.913C114.551 253.602 116.374 260.065 117.074 264.969C117.748 269.685 119.302 273.749 118.861 278.595C118.639 281.038 118.476 283.287 120.048 285.3C120.92 286.418 121.872 287.466 122.965 288.36C123.947 289.164 124.06 290.923 125.338 291.62C126.798 292.416 128.047 293.584 129.513 294.422C130.815 295.166 131.567 295.466 133.016 295.466C134.142 295.466 134.808 295.196 135.847 294.965C139.008 294.263 141.746 289.144 142.166 286.201C142.346 284.943 143.182 283.74 143.182 282.469C143.182 280.968 143.182 279.467 143.182 277.966C143.182 274.613 143.379 271.76 141.523 268.844C140.227 266.807 140.346 264.048 139.207 261.895C138.178 259.953 137.057 258.037 136.033 256.091C135.543 255.16 134.652 254.808 133.917 254.032C133.118 253.188 133.128 252.231 132.258 251.458C131.082 250.412 129.23 250.072 128.055 248.942C127.913 248.806 127.004 247.72 126.968 248.37C126.899 249.621 126.503 250.762 126.196 251.973C125.404 255.097 125.124 258.133 124.709 261.295C124.3 264.418 124.509 267.802 125.882 270.645C126.761 272.467 127.367 274.441 128.312 276.221C129.291 278.065 130.344 280.05 131.029 282.026C131.268 282.717 132.077 283.967 132.115 284.657C132.183 285.88 129.318 284.793 128.827 284.6C126.847 283.822 124.465 282.002 123.937 279.853C123.358 277.494 123.365 275.057 123.365 272.647C123.365 268.247 125.94 264.26 127.94 260.466C129.748 257.038 132.157 260.686 133.145 262.839C134.299 265.355 134.703 267.911 135.404 270.56C135.967 272.686 136.542 274.831 136.948 276.993C137.183 278.246 137.154 279.96 136.948 281.197C136.894 281.523 136.469 282.577 136.233 282.341" stroke="#FBF9BC" stroke-width="11.2754" stroke-linecap="round"/>
<path d="M97.3086 255.75C96.1615 255.75 95.0143 255.75 93.8671 255.75C93.4311 255.75 93.1268 255.72 92.7534 255.973C91.9193 256.536 91.2348 257.338 90.2675 257.69C89.4762 257.977 88.6739 258.099 87.9971 258.638C87.5778 258.972 87.2858 259.368 86.9409 259.766C86.7633 259.971 86.6718 260.115 86.5457 259.802C86.2497 259.066 86.0756 258.166 86.2583 257.381C86.3732 256.887 86.6787 256.449 86.9481 256.03C87.3606 255.389 87.7915 254.765 88.2773 254.176C89.0967 253.184 89.91 252.188 90.7201 251.187C91.4717 250.26 91.9694 249.491 93.2061 249.169C93.8072 249.012 94.4807 249.093 95.0957 249.089C95.874 249.085 96.5796 248.965 97.3302 248.766C98.4217 248.477 99.3625 248.26 100.492 248.249C100.978 248.244 101.434 248.114 101.914 248.069C102.315 248.032 102.72 248.075 103.121 248.04C103.891 247.974 104.675 247.848 105.442 247.746C105.697 247.712 105.961 247.732 106.218 247.732C106.309 247.732 106.092 247.807 106.024 247.861C105.395 248.361 104.605 248.899 104.177 249.592C103.956 249.952 103.961 250.662 104.062 251.058C104.273 251.878 104.753 252.596 104.939 253.436C105.073 254.043 105.15 255.115 104.925 255.714C104.73 256.23 104.568 256.629 104.472 257.158C104.434 257.369 104.366 257.619 104.472 257.819C104.601 258.062 104.526 258.499 104.695 258.71C104.819 258.865 104.789 259.515 104.695 259.694C104.632 259.813 104.362 259.799 104.249 259.809C103.29 259.893 102.323 259.888 101.361 259.888C99.9447 259.888 98.5305 259.829 97.1147 259.824C96.3429 259.821 95.5891 259.791 94.8299 259.939C94.1887 260.063 93.5554 260.148 92.9043 260.197C92.8296 260.203 92.3451 260.282 92.2792 260.197C92.2526 260.163 93.6936 259.101 93.7162 259.084C95.3742 257.774 96.9146 256.309 98.4079 254.816C99.3078 253.916 100.117 252.927 101.03 252.042C101.816 251.282 102.621 250.554 103.308 249.7C103.618 249.315 103.909 248.945 104.163 248.522C104.267 248.349 104.28 248.147 104.4 247.976C104.751 247.474 105.218 247.101 105.636 246.683C105.753 246.565 105.872 245.913 105.909 245.986" stroke="#FBF9BC" stroke-width="11.2754" stroke-linecap="round"/>
<path d="M122.699 315.55C122.699 314.887 122.604 314.156 122.729 313.505C122.929 312.462 123.602 311.354 124.099 310.424C124.343 309.969 124.574 309.453 124.914 309.061C125.19 308.743 125.873 308.146 125.899 307.684C125.908 307.516 126.122 307.033 126.003 306.913C125.87 306.78 125.26 306.607 125.084 306.551C123.13 305.922 121.362 305.224 119.64 304.077C118.94 303.61 118.506 302.904 118.033 302.247C117.508 301.518 116.893 300.744 116.3 300.085C115.239 298.906 114.181 297.665 113.167 296.426C112.754 295.921 112.567 295.536 112.567 294.885C112.567 294.822 113.402 294.066 112.767 294.418C112.384 294.631 111.764 294.708 111.367 294.752C109.515 294.957 107.854 295.685 105.96 295.685C104.758 295.685 103.574 295.818 102.368 295.818C101.335 295.818 100.331 295.685 99.309 295.685C98.0859 295.685 96.8825 295.552 95.6649 295.552C95.3309 295.552 95.2353 295.527 95.2353 295.885C95.2353 296.3 93.3162 296.08 92.9392 296.115C91.8862 296.211 90.8274 296.456 89.7691 296.485C89.0989 296.503 88.4805 296.277 87.8137 296.226C86.9152 296.157 86.102 296.016 85.2066 295.848C83.815 295.587 82.3742 295.321 81.0292 294.944C79.8706 294.62 78.5477 294.352 77.3481 294.352C76.4496 294.352 75.1206 294.123 74.3039 293.715C74.1634 293.645 73.6851 293.486 73.6447 293.344C73.5693 293.081 73.6384 294.214 73.6077 294.426C73.1783 297.384 73.104 300.365 73.104 303.351C73.104 305.279 73.1775 306.569 74.1706 308.224C75.0462 309.684 76.4574 311.282 77.7999 312.35C79.341 313.576 81.8657 313.331 83.7104 313.55C87.733 314.028 91.8225 314.393 95.8723 314.476C98.596 314.531 101.325 314.483 104.049 314.483C106.292 314.483 108.576 314.61 110.812 314.409C113.401 314.177 115.843 313.116 118.404 312.883C119.214 312.81 118.435 312.427 118.152 312.209C116.915 311.258 115.585 310.435 114.3 309.55C113.277 308.846 112.164 308.005 111.471 306.958C111.06 306.337 110.616 305.581 109.982 305.158C109.824 305.053 110.114 308.079 109.434 307.928C109.185 307.873 108.697 307.182 108.523 307.032C107.592 306.231 106.611 305.474 105.597 304.78C105.36 304.618 103.132 302.876 102.938 303.61C102.85 303.944 102.574 305.724 102.968 305.921C103.11 305.992 103.174 305.1 103.183 305.054C103.317 304.325 103.466 303.552 103.701 302.847C103.998 301.955 105.547 303.322 105.975 303.543C106.189 303.654 109.775 305.331 109.604 305.521C109.478 305.661 108.734 305.532 108.619 305.514C107.178 305.288 105.772 304.572 104.708 303.58C103.906 302.833 103.24 301.937 102.835 300.914C102.774 300.761 102.568 299.714 102.568 300.307C102.568 302.9 102.584 305.791 100.346 307.595C98.7698 308.865 96.4285 309.107 94.4872 309.158C91.965 309.224 90.1467 308.435 88.2952 306.758C87.8587 306.362 84.7179 303.169 87.0435 303.477C90.1134 303.883 93.4645 305.661 95.6501 307.847C95.9958 308.192 96.0599 308.396 95.5019 308.484C93.6348 308.778 91.6548 308.878 89.7691 308.839C87.6517 308.796 85.4071 308.517 83.5327 307.462C82.5689 306.919 81.2771 306.074 80.9255 304.943C80.2419 302.746 83.857 303.142 84.9399 303.262C88.6081 303.667 92.0583 304.956 95.5316 306.114C96.5782 306.462 97.6662 307.005 98.7016 306.351C99.6047 305.78 99.9015 305.082 99.9015 304.047C99.9015 303.198 99.0992 303.369 98.4202 303.455C96.9939 303.635 95.6119 304.143 94.1983 304.41C91.857 304.853 89.517 305.142 87.1323 305.151C84.3966 305.16 82.0658 304.936 79.7552 303.403C78.6399 302.663 77.4059 301.875 76.437 300.944C75.1919 299.746 74.4264 298.393 73.9706 296.752C73.7346 295.902 73.7502 294.973 73.4743 294.115C73.3149 293.619 73.2373 293.011 73.2373 292.485C73.2373 292.393 73.6945 292.89 73.8002 293.019C74.3596 293.698 75.2457 294.049 75.9778 294.492C77.6862 295.528 79.9124 296.618 81.9698 296.618C82.1637 296.618 82.0962 296.622 81.918 296.589C81.2509 296.463 80.6089 296.233 79.9774 295.989C78.044 295.239 75.947 294.414 74.2595 293.181C73.8181 292.859 74.0599 292.723 73.8743 292.352C73.5342 291.672 73.5742 292.25 73.7854 292.707C74.3477 293.926 75.1858 295.009 75.963 296.092C76.3043 296.568 77.2025 298.075 76.9407 297.551C76.7462 297.162 75.4629 294.996 75.9037 296.514C76.2389 297.669 76.7081 298.771 77.2073 299.862C77.2463 299.948 77.9253 301.282 77.7628 300.551C77.7143 300.333 77.479 300.112 77.3703 299.922C76.9674 299.217 76.7042 298.466 76.4074 297.714C75.9469 296.548 75.4261 295.313 74.7113 294.285C74.4805 293.953 74.2966 293.613 73.9706 293.359C73.2919 292.831 74.1624 294.036 74.2743 294.189C77.0315 297.965 81.0776 298.682 85.5177 299.018C88.1217 299.215 90.7445 299.199 93.354 299.314C95.8456 299.425 98.3762 299.618 100.82 299.025C102.914 298.518 105.68 298.421 107.412 297.077C108.129 296.521 108.528 295.739 109.153 295.115C109.283 294.984 109.486 295.009 109.656 295.026C110.745 295.135 111.843 295.658 112.923 295.878C113.491 295.993 114.036 296.088 114.433 296.485C114.724 296.775 115.08 296.984 115.374 297.277C115.623 297.527 116.277 297.665 116.3 298.085C116.396 299.812 118.03 301.24 119.307 302.284C120.435 303.207 121.731 304.987 120.833 306.484" stroke="#FBF9BC" stroke-width="11.2754" stroke-linecap="round"/>
<path d="M93.5053 335.099C94.4159 335.099 95.3265 335.099 96.2371 335.099C97.0035 335.099 97.8029 335.002 98.4894 335.414C99.5201 336.032 99.8233 336.77 100.297 337.851C100.962 339.365 101.326 341.116 101.326 342.77C101.326 345.504 101.229 348.213 101.616 350.92C101.695 351.476 101.996 352.052 102.045 352.578C102.155 353.762 103.226 353.983 104.133 354.246C105.335 354.595 106.44 355.457 107.439 356.179C108.547 356.979 109.803 356.943 111.129 356.943C112.205 356.943 113.26 356.699 114.311 356.493C115.124 356.334 115.95 356.277 116.768 356.114C118.298 355.808 119.459 355.171 120.383 353.847C121.25 352.605 122.582 351.875 123.175 350.451C123.714 349.156 124.051 347.802 124.658 346.53C124.946 345.928 125.058 345.596 125.058 344.937C125.058 343.794 124.997 342.632 124.968 341.481C124.946 340.583 124.766 339.63 124.628 338.745C124.519 338.044 124.266 337.319 124.009 336.657C123.718 335.907 123.212 335.243 122.96 334.48C122.766 333.888 123.44 333.291 123.44 332.712C123.44 332.115 123.085 331.501 122.945 330.929C122.764 330.184 122.541 329.512 122.541 328.727C122.541 328.368 122.631 328.072 122.631 327.723C122.631 327.156 122.555 326.766 122.9 326.334C122.985 326.229 123.318 326.152 123.345 326.06C123.428 325.769 123.039 326.251 122.9 326.374C122.255 326.948 121.387 327.374 120.653 327.818C119.776 328.348 118.771 329.076 117.707 329.076C117.466 329.076 117.267 329.069 117.037 328.986C116.208 328.688 115.31 328.696 114.44 328.647C113.442 328.59 112.173 328.306 113.102 327.049C113.233 326.871 114.45 326.222 114.45 326.694C114.45 326.808 114.47 326.942 114.445 327.054C114.433 327.108 114.203 327.35 114.236 327.363C114.539 327.484 115.059 327.491 115.399 327.553C116.292 327.715 117.137 327.728 118.046 327.728C119.444 327.728 121.05 327.026 122.271 326.469C122.54 326.347 122.465 326.04 122.811 326.02C122.857 326.017 123.01 325.895 122.9 325.95C122.605 326.097 122.376 326.346 122.111 326.539C120.615 327.629 119.159 328.81 117.976 330.245C117.922 330.31 117.512 330.796 117.727 330.784C118.316 330.751 119.047 330.249 119.554 329.975C120.299 329.573 120.872 329.089 121.552 328.627C122.237 328.161 122.908 327.546 123.33 326.829C123.485 326.565 124.109 326.397 124.384 326.244C124.613 326.117 123.85 326.639 123.759 326.639C123.692 326.639 123.726 326.189 123.714 326.15C123.621 325.821 123.584 326.36 123.53 326.599C123.06 328.644 123.17 330.801 123.17 332.882C123.17 333.481 123.18 334.08 123.17 334.679C123.161 335.26 122.702 335.78 122.341 336.198C121.228 337.488 119.46 338.29 117.986 339.064C115.336 340.456 112.616 341.922 109.776 342.89C109.19 343.089 108.567 343.268 107.943 343.289C107.695 343.297 107.038 343.172 107.244 343.034C107.346 342.967 107.778 343.131 107.873 343.154C108.403 343.284 108.925 343.437 109.461 343.539C110.521 343.74 111.599 343.706 112.663 343.863C113.014 343.915 113.673 344.026 113.866 344.383C114.189 344.978 114.181 345.715 114.181 346.37C114.181 346.734 114.097 347.349 114.505 347.544C114.952 347.758 115.494 347.774 115.979 347.774C116.196 347.774 116.842 347.66 116.628 347.699C115.841 347.842 115.038 348.391 114.281 348.658C113.148 349.057 111.902 349.01 110.73 349.227C109.799 349.399 108.615 349.917 107.649 349.741C107.177 349.656 107.975 346.925 108.013 346.77C108.804 343.575 109.646 340.393 110.43 337.196C110.686 336.155 111.045 335.068 111.119 333.99C111.161 333.39 110.948 332.815 110.305 332.757C109.784 332.709 109.285 332.664 108.757 332.672C108.187 332.681 107.656 332.941 107.099 332.941C106.709 332.941 107.016 329.557 107.509 329.046C107.627 328.923 108.616 328.851 108.498 328.627C108.419 328.478 107.877 328.392 107.738 328.377C106.852 328.282 105.815 328.28 104.942 328.467C104.13 328.64 103.354 328.882 102.54 329.036C101.377 329.256 100.169 329.166 98.9888 329.166C97.3606 329.166 95.786 328.659 94.1696 328.542C92.9079 328.451 91.6612 328.455 90.399 328.537C89.9534 328.565 89.5291 328.644 89.0806 328.622C88.1263 328.574 87.1978 328.365 86.254 328.247C84.8316 328.069 83.6177 327.169 82.1888 326.919C81.0918 326.726 79.9826 326.566 78.9127 326.239C77.5756 325.831 76.3968 325.007 74.9973 324.781C73.9582 324.614 72.7225 324.252 71.7562 323.817C71.1029 323.523 71.1374 323.271 71.0271 322.609C70.9885 322.378 70.8817 322.014 70.7074 321.84C70.5778 321.71 70.3794 321.551 70.223 321.455C69.986 321.31 70.0584 322.02 70.0432 322.184C69.8602 324.163 69.569 326.509 70.6525 328.267C70.9548 328.757 71.2734 329.239 71.5315 329.755C71.6599 330.012 71.886 330.498 71.8211 329.865C71.5663 327.381 69.4726 325.26 68.0855 323.323C68.0036 323.208 66.7788 321.71 67.1217 321.435C67.2919 321.299 67.5336 321.219 67.741 321.081C67.8312 321.02 67.7959 320.867 67.7959 320.771C67.7959 320.259 67.8634 321.793 67.9357 322.299C68.2121 324.234 68.6734 325.983 69.2741 327.843C69.4837 328.491 69.7282 330.505 69.7735 329.825C69.8531 328.632 69.6014 327.343 69.4839 326.16C69.3565 324.877 69.1739 323.496 68.555 322.344C68.4026 322.061 68.1463 321.579 68.2653 321.235C68.2776 321.2 68.4872 320.853 68.4951 320.866C68.6206 321.075 68.5947 321.582 68.6249 321.805C68.7301 322.579 68.8142 323.353 68.8746 324.132C69.0288 326.12 69.1407 328.136 69.4539 330.105C69.7038 331.676 70.2801 333.169 70.3828 334.769C70.424 335.411 70.3288 335.725 70.1531 336.287C70.0398 336.65 70.1331 337.182 70.1331 337.556C70.1331 338.338 70.1331 339.121 70.1331 339.903C70.1331 341.136 69.8883 342.288 69.7336 343.504C69.5769 344.735 69.6837 346.029 69.6837 347.264C69.6837 348.387 69.7248 348.975 70.3978 349.881C70.6876 350.271 70.7883 350.427 71.2917 350.515C72.4909 350.727 73.7445 350.865 74.9574 350.955C76.9526 351.103 79.1544 351.109 81.0801 350.451C81.5776 350.281 82.0031 350.054 82.5184 349.911C82.696 349.862 83.1147 349.789 83.2176 349.602C83.4363 349.204 83.152 348.464 83.0677 348.063C82.9502 347.505 83.2516 348.322 83.2975 348.403C83.5586 348.865 83.8497 349.315 84.1365 349.761C84.5292 350.372 84.9325 350.975 85.3051 351.599C85.7501 352.344 85.5153 353.006 86.4537 353.217C87.9588 353.556 89.555 352.725 90.8735 352.129C92.9994 351.166 95.1654 350.83 97.4806 350.83C98.0813 350.83 99.6241 350.594 98.4395 351.394C96.3673 352.795 93.7732 353.518 91.3879 354.171C90.6245 354.38 89.8578 354.581 89.0906 354.775C88.8771 354.83 88.2519 354.878 88.4563 354.96C88.6472 355.037 89.1339 354.887 89.2953 354.855C90.0556 354.705 90.8086 354.507 91.5527 354.291C92.8103 353.927 94.0236 353.453 95.2333 352.958C95.5897 352.812 96.691 352.612 96.312 352.543C95.844 352.458 95.2891 352.473 94.8238 352.438C93.0181 352.303 91.2102 352.201 89.4002 352.144C85.0128 352.005 80.6263 352.442 76.2409 352.263C75.8732 352.248 75.7756 352.192 75.8014 351.844C75.8862 350.699 76.6279 349.634 76.985 348.563C77.4147 347.274 77.5058 345.778 77.6442 344.438C77.8708 342.243 77.6861 339.983 78.1336 337.816C78.3711 336.665 78.916 335.643 79.7517 334.829C81.0803 333.536 82.8057 334.964 83.9267 335.798C86.0586 337.384 88.1045 339.149 90.449 340.423C91.2649 340.866 92.1135 341.228 92.966 341.591C93.1118 341.653 93.5405 341.769 93.6252 341.931C93.7479 342.165 90.9719 343.315 90.8635 343.359C88.7958 344.19 86.7452 344.583 84.526 344.623C84.0769 344.631 83.5978 344.662 83.1526 344.578C83.1363 344.575 82.7872 344.503 82.9779 344.443C84.4697 343.972 86.0813 343.776 87.6273 343.599C90.4429 343.276 93.2631 343.279 96.0923 343.279C96.5768 343.279 97.2569 343.187 97.7203 343.419C98.1154 343.617 96.8147 344.597 96.7165 344.682C95.7214 345.553 94.5672 346.172 93.3655 346.715C91.7465 347.446 90.0446 348.031 88.2416 347.899C85.9501 347.73 83.6726 346.58 81.9191 345.117C80.7738 344.161 81.3687 343.457 82.3586 342.59C84.9901 340.286 88.8417 339.821 92.2369 339.923C95.0861 340.009 97.833 340.688 100.647 341.032C101.939 341.19 103.197 341.412 104.502 341.391C106.285 341.363 103.111 339.449 102.824 339.304C101.501 338.634 100.064 338.238 98.7291 337.596C97.9591 337.226 97.0329 336.751 96.1622 336.717C95.1374 336.677 94.1301 336.782 93.1158 336.917C90.5727 337.255 88.0471 337.346 85.4849 337.346C83.5587 337.346 81.1421 337.7 80.1113 335.638" stroke="#F0F0F1" stroke-width="11.2754" stroke-linecap="round"/>
<path d="M80.5924 378.474C80.536 378.023 80.2953 377.564 80.1363 377.143C79.8387 376.354 79.4597 375.616 79.2607 374.792C78.8289 373.004 78.5943 370.884 79.0377 369.066C79.1935 368.427 79.4655 367.819 79.7068 367.208C79.8296 366.898 79.9846 366.528 80.2096 366.276C80.3022 366.173 80.4443 365.967 80.5924 365.95C80.7542 365.931 80.7085 366.046 80.7655 366.236C81.5205 368.753 82.309 371.222 82.4834 373.867C82.5521 374.908 82.5101 375.962 82.5101 377.006C82.5101 377.37 82.4501 377.726 82.4501 378.085C82.4501 378.285 82.4627 378.923 82.2704 378.474" stroke="#EEB297" stroke-width="11.2754" stroke-linecap="round"/>
<path d="M76.2166 396.033C74.5023 396.033 72.8018 396.17 71.0896 396.206C69.648 396.236 68.1406 396.325 66.7383 395.933C65.814 395.674 64.9415 395.312 64.0916 394.871C63.0243 394.317 61.6546 393.758 61.6546 392.377C61.6546 392.193 61.6424 392.155 61.8044 392.064C62.6807 391.571 63.6856 391.247 64.6276 390.906C66.6692 390.165 68.6455 389.245 70.8499 389.204C71.5918 389.191 72.3388 389.185 73.0805 389.204C73.7855 389.223 74.4505 389.372 75.1446 389.467C76.6666 389.677 78.2576 389.581 79.7123 390.13C80.7083 390.505 81.563 391.098 81.9562 392.124C82.1501 392.63 82.2107 393.173 82.2558 393.709C82.298 394.209 82.2369 394.383 81.7964 394.681C79.246 396.403 76.0416 396.945 73.0206 397.041C70.1475 397.133 67.2641 396.974 64.3912 396.928C62.8487 396.903 61.2608 396.64 59.7969 396.152C59.4999 396.053 58.3586 395.891 58.3586 395.447C58.3586 395.299 58.441 395.169 58.5251 395.054C58.8503 394.607 59.2546 394.192 59.657 393.815C60.6749 392.864 61.9466 392.082 63.2926 391.698C64.5834 391.33 65.9558 391.298 67.2876 391.298" stroke="#28D0D9" stroke-width="11.2754" stroke-linecap="round"/>
<path d="M120.386 391.672C119.15 391.672 117.914 391.672 116.679 391.672C116.215 391.672 115.738 391.701 115.276 391.648C115.091 391.627 114.682 391.407 114.504 391.482C114.176 391.62 114.043 391.837 113.66 391.892C113.502 391.914 112.953 392.101 112.906 392.266C112.829 392.534 112.92 392.721 112.686 392.955C112.401 393.24 112.868 393.263 113.137 393.514C114.472 394.757 116.946 395.201 118.675 395.201C120.022 395.201 121.377 395.262 122.715 395.094C124.408 394.883 126.044 394.548 127.718 394.233C129.199 393.954 130.829 393.687 132.198 393.038C133.26 392.536 134.301 391.986 135.359 391.482C135.605 391.365 135.638 391.247 135.674 390.923C135.755 390.199 135.258 389.896 134.646 389.64C133.355 389.099 131.876 389.016 130.499 388.891C128.305 388.693 126.119 388.57 123.916 388.57C121.363 388.57 118.873 388.258 116.536 389.426C115.424 389.982 114.766 390.593 113.981 391.553C113.326 392.354 112.084 393.373 112.579 394.536C112.995 395.514 114.211 395.98 115.14 396.259C116.255 396.594 117.503 396.496 118.651 396.479C120.136 396.456 121.488 396.154 122.923 395.801C125.681 395.124 128.503 395.041 131.248 394.292C132.347 393.992 133.917 394.019 134.825 393.276C135.245 392.932 135.962 392.63 136.471 392.426C136.654 392.353 136.093 392.544 135.9 392.587C134.551 392.89 133.182 393.121 131.824 393.383C128.385 394.046 124.977 394.346 121.48 394.346C120.515 394.346 119.583 394.434 118.675 394.132" stroke="#28D0D9" stroke-width="11.2754" stroke-linecap="round"/>
<path d="M112.371 370.203C112.045 370.203 111.525 369.923 111.454 369.576C111.43 369.462 112.564 369.548 112.631 369.549C113.462 369.568 114.314 369.497 115.142 369.576C115.551 369.615 115.92 369.684 116.248 369.939C116.621 370.228 116.928 370.616 117.054 371.076C117.308 372.008 116.641 372.801 116.1 373.506C115.346 374.49 114.598 375.454 113.687 376.3C112.847 377.08 111.79 378 110.567 378.01C109.92 378.015 109.675 377.247 109.618 376.734C109.529 375.927 109.619 375.202 110.281 374.67C111.164 373.961 112.536 373.882 113.598 374.173C114.187 374.335 115.118 374.902 114.986 375.642C114.838 376.467 113.636 377.031 112.935 377.267C112.722 377.338 112.29 377.507 112.098 377.289C111.764 376.91 111.874 376.171 111.946 375.736C112.076 374.956 112.368 373.479 113.307 373.229C113.987 373.048 114.546 373.5 114.936 374.003C115.231 374.383 115.571 375.144 115.371 375.633C115.294 375.82 114.822 376.719 114.507 376.564C114.302 376.463 114.319 376.044 114.314 375.87C114.303 375.432 114.345 375.003 114.569 374.617C114.945 373.969 115.496 373.671 116.234 373.865C116.828 374.02 117.232 374.582 117.34 375.167C117.377 375.367 117.367 375.979 117.367 375.776C117.367 375.446 117.357 375.068 117.528 374.773C117.701 374.477 117.949 374.608 118.074 374.858C118.199 375.107 118.316 375.529 118.047 375.722C117.554 376.077 116.948 375.882 116.512 375.539C116.298 375.37 115.788 374.804 116.333 374.684C116.956 374.546 117.736 374.737 118.146 375.248C118.35 375.502 118.491 375.913 118.097 376.054C117.322 376.329 116.465 376.297 115.675 376.165" stroke="#EEB297" stroke-width="11.2754" stroke-linecap="round"/>
<path d="M42.1645 318.393C42.1645 318.174 42.3691 318.781 42.4826 318.968C43.0412 319.891 43.4303 320.918 43.6771 321.967C43.9011 322.918 44.0511 323.785 43.1526 324.362C42.7548 324.618 42.0922 324.227 41.772 323.997C41.0574 323.484 40.7357 322.445 40.3982 321.676C40.155 321.121 39.9097 320.562 39.718 319.987C39.6804 319.874 39.5636 319.605 39.6131 319.469C39.7383 319.125 42.3589 319.979 42.6518 320.322C42.8709 320.578 42.8954 320.89 42.8954 321.212C42.8954 321.533 42.6005 321.625 42.354 321.801C42.0619 322.009 40.8408 322.721 41.0952 321.77C41.1961 321.393 41.6225 321.078 41.9953 321.026C42.6165 320.939 42.7529 321.524 43.0172 321.987" stroke="#EEB297" stroke-width="11.2754" stroke-linecap="round"/>
<path d="M73.162 265.571C73.162 266.117 76.143 259.218 76.143 257.636C76.0857 258.432 73.9164 262.902 73.9164 262.902C73.1295 264.324 71.5964 264.153 70.8062 265.571C70.0104 267 69.2711 268.373 68.2787 269.689C67.8336 270.28 67.4633 270.99 67.145 271.647C66.5842 272.804 66.4891 274.07 66.0061 275.248C65.7851 275.786 65.3987 276.24 65.1376 276.759C64.8562 277.319 64.8904 277.647 64.3472 278.027C63.541 278.591 62.6167 279.06 61.8717 279.7C61.2122 280.267 61.0244 281.034 60.6288 281.759C59.8768 283.139 58.8008 284.315 58.0338 285.685C57.1407 287.28 56.6945 289.071 56.3696 290.848C56.2539 291.481 55.9332 291.951 55.6208 292.511C54.9549 293.704 54.6204 294.973 54.3258 296.294C54.1081 297.271 54.0294 298.222 54.0294 299.216C54.0294 299.542 54.0604 299.885 54.0294 300.21C54.0091 300.423 53.1786 300.552 52.9841 300.651C52.1927 301.053 51.0906 301.716 50.7531 302.593C50.5716 303.065 50.369 303.509 50.1083 303.947C50.0224 304.091 49.827 304.294 49.817 304.47C49.7855 305.023 49.4601 305.419 49.557 306.021C49.7033 306.931 50.0201 307.416 50.4515 308.212C50.8329 308.916 51.3392 309.525 51.71 310.221C51.8976 310.572 52.0841 310.905 52.2509 311.27C52.3446 311.476 52.8518 311.576 53.0413 311.727C53.6419 312.206 54.0791 312.858 54.4507 313.502C54.7186 313.966 54.2889 314.474 54.5443 314.922C54.6131 315.043 54.6235 315.405 54.7783 315.424C54.863 315.434 55.1262 315.609 55.2047 315.657C55.6724 315.948 56.0704 316.186 56.6505 316.154C56.9776 316.137 57.4547 315.657 57.7166 315.48C57.9823 315.3 58.0921 315.039 58.3042 314.795C58.4802 314.593 59.1779 314.115 59.1779 313.827C59.1779 313.58 59.4165 313.214 59.5523 313.01C59.877 312.522 60.1303 311.674 60.5612 311.296C60.8381 311.053 61.4986 310.447 61.6065 310.079C61.74 309.623 61.8262 309.556 62.2202 309.257C62.4316 309.097 62.6921 309.111 62.4334 308.943C61.7769 308.516 61.1969 307.777 60.9097 307.066C59.9697 304.739 60.5362 302.191 60.8108 299.819C60.8593 299.4 60.8436 298.985 60.8733 298.566C60.9591 297.353 61.3272 296.186 61.6429 295.016C61.9338 293.938 62.0671 292.985 62.1942 291.882C62.2613 291.3 62.6414 290.751 62.6414 290.183C62.6414 289.692 62.8271 289.141 62.9222 288.657C63.0688 287.91 63.274 287.185 63.4735 286.456C63.5219 286.279 63.4839 286.046 63.4839 285.867C63.4839 285.375 63.5864 284.956 63.6503 284.478C63.7115 284.021 63.6679 283.51 63.7699 283.063C63.7786 283.025 63.8629 282.862 63.8531 282.895C63.7054 283.4 63.4403 283.888 63.2447 284.376C62.5835 286.026 62.5074 287.83 62.0746 289.539C61.8809 290.304 61.4903 290.987 61.2581 291.74C60.9617 292.701 60.8901 293.739 60.868 294.737C60.8453 295.77 60.8628 296.804 60.8628 297.836C60.8628 299.386 61.1095 300.72 61.7053 302.172C62.1748 303.317 62.9822 304.357 63.2551 305.575C63.3284 305.902 63.4638 306.35 63.3851 306.696C63.306 307.043 62.6165 307.567 62.3034 307.381C60.2018 306.133 58.5054 304.169 58.1482 301.731" stroke="#FBF9BC" stroke-width="11.2754" stroke-linecap="round"/>
<path d="M113.158 168.398V168.756" stroke="#7FDBE0" stroke-width="14.0942" stroke-linecap="round"/>
<path d="M63.5118 116.22C59.3235 116.22 54.8567 118.633 52.1055 121.977C51.4381 122.788 46.3491 132.199 46.5841 132.387C47.0791 132.784 54.6739 127.24 54.8481 127.134C63.1672 122.06 71.7048 117.401 80.1125 112.497C80.9446 112.012 81.9122 111.299 82.8188 110.927C83.6588 110.582 81.535 112.281 80.8209 112.866C74.8844 117.726 69.3711 123.167 64.2746 129.014C61.0187 132.75 57.5347 136.69 55.3385 141.266C55.2187 141.516 53.6803 144.646 54.3577 144.174C59.5799 140.539 64.1755 135.807 69.2149 131.883C72.3991 129.404 75.6877 127.006 78.9683 124.672C83.9455 121.13 70.248 133.417 66.0182 137.932C65.1194 138.891 64.1608 139.773 63.2212 140.685C62.8587 141.036 61.7868 141.887 62.2767 141.887C63.2252 141.887 65.553 139.71 66.3452 139.211C72.85 135.114 78.6982 129.307 85.8883 126.959C86.8998 126.629 87.9458 126.294 88.9396 125.913C89.6942 125.623 86.1336 125.641 85.9246 125.641C80.1769 125.641 74.1485 126.221 68.452 125.331C67.3438 125.158 60.9625 123.766 61.2051 121.609C61.4532 119.402 68.4314 118.338 69.8324 117.964C76.7532 116.118 83.8456 114.376 90.9012 113.234C93.0161 112.892 95.1399 112.73 97.2764 112.73C99.9693 112.73 91.9139 113.267 89.2302 113.506C87.5957 113.651 66.5099 116.208 66.4541 114.126C66.4007 112.131 69.399 110.938 70.6679 110.268C75.5024 107.717 80.8199 106.382 86.0699 105.208C86.6987 105.068 97.7692 103.138 97.567 104.433C97.4519 105.17 96.4964 105.77 95.9868 106.1C92.8539 108.128 89.2848 109.609 85.8883 111.024C79.5253 113.675 72.9277 115.641 66.3452 117.557C66.1764 117.606 62.5257 118.736 62.5855 118.449C62.8928 116.973 66.5301 115.162 67.5802 114.475C76.5634 108.594 86.2926 106.065 96.677 105.208C99.9364 104.94 103.478 104.825 106.63 105.906C110.398 107.199 113.643 111.058 116.22 114.087C117.412 115.488 120.021 117.88 120.652 119.709C120.719 119.903 109.214 118.517 108.991 118.488C99.3905 117.207 70.4329 115.003 80.0944 115.56C86.4342 115.926 92.8521 117.225 98.9655 119.011C102.636 120.084 106.967 120.847 110.335 122.83C110.563 122.964 111.811 123.568 111.062 123.722C105.74 124.814 99.7393 124.362 94.3521 124.517C89.6497 124.652 84.9441 124.943 80.2397 124.943C78.0648 124.943 81.1574 124.99 81.6019 125.021C90.9478 125.669 101.001 126.149 109.918 129.48C112.042 130.273 111.065 130.177 109.391 130.177C103.319 130.177 97.2461 130.177 91.1737 130.177C88.5659 130.177 85.8971 130.332 83.291 130.158C82.0233 130.073 83.0665 129.829 83.6724 129.829C90.0769 129.829 96.4769 130.177 102.889 130.177C107.566 130.177 111.595 131.054 115.893 133.124C116.658 133.493 121.418 136.765 121.705 136.458" stroke="#7FDBE0" stroke-width="14.0942" stroke-linecap="round"/>
<path d="M114.496 134.965C118.545 134.965 121.242 136.343 124.393 139.175C126.705 141.253 128.258 143.852 130.31 146.126C132.679 148.751 134.172 152.303 136.524 154.903C137.468 155.947 137.285 154.365 137.194 153.672C135.997 144.623 129.714 137.012 124.431 130.339C120.685 125.608 116.932 120.873 113.323 116.021C111.951 114.176 110.026 112.02 109.268 109.726C108.996 108.906 110.972 109.769 111.668 110.223C115.614 112.794 119.473 115.55 123.296 118.325C131.837 124.524 140.008 131.152 146.57 139.751C147.781 141.338 149.669 143.459 150.329 145.47C150.39 145.658 149.941 145.427 149.789 145.311C147.954 143.92 146.213 142.363 144.412 140.923C135.545 133.831 126.179 127.492 117.324 120.39C116.878 120.032 111.244 116.022 113.454 115.743C120.988 114.791 129.465 119.277 135.742 123.17C139.192 125.309 142.452 127.902 145.566 130.557C146.863 131.664 148.509 132.975 149.398 134.529C149.772 135.181 148.007 134.101 147.389 133.714C143.917 131.545 140.57 129.176 137.194 126.844C128.71 120.985 119.454 115.97 111.612 109.111C111.342 108.875 106.761 104.911 108.244 104.623C111.981 103.898 116.941 107.169 120.338 108.455C121.51 108.899 122.73 109.389 123.817 110.044C124.896 110.695 121.342 109.797 120.133 109.508C113.323 107.88 106.032 106.712 99.4442 104.245C93.9117 102.173 102.075 100.594 103.891 100.294C109.718 99.3286 114.743 100.612 120.338 102.16C126.278 103.804 131.293 108.024 136.114 111.911C140.944 115.803 144.838 121.063 148.282 126.347C149.727 128.564 151.199 130.605 152.003 133.178" stroke="#7FDBE0" stroke-width="14.0942" stroke-linecap="round"/>
<path d="M147.653 121.026C149.596 121.026 150.095 121.976 151.002 123.886C153.127 128.36 155.129 132.885 156.955 137.508C157.296 138.372 158.433 140.903 157.997 140.09C156.959 138.151 155.195 136.428 153.83 134.768C148.227 127.955 139.277 123.069 135.299 114.91C134.463 113.195 132.268 107.648 135.895 109.27C140.113 111.157 144.126 114.271 147.541 117.452C152.127 121.723 154.71 127.246 157.216 133.06C159.656 138.721 161.984 144.495 163.988 150.336C164.508 151.853 164.405 153.258 164.807 154.705C165.255 156.319 166.161 159.074 166.072 160.702C166.021 161.617 158.543 155.734 157.923 155.142C156.324 153.616 155.033 151.779 153.699 149.999C153.37 149.559 152.804 148.161 152.676 148.708C152.158 150.922 154.253 155.477 155.169 157.485C155.533 158.282 155.923 158.867 154.686 158.26C151.205 156.553 147.829 154.35 144.527 152.282C143.162 151.428 141.099 149.276 139.504 148.966C139.201 148.907 140.747 152.701 140.881 153.037C141.605 154.863 142.419 156.481 143.43 158.141C143.755 158.675 143.969 158.992 143.969 159.63C143.969 160.858 143.609 160.702 142.555 160.702C140.961 160.702 139.967 161.723 138.611 162.489C136.379 163.751 134.438 164.993 131.913 165.627C129.247 166.297 126.911 167.136 124.136 167.136C121.551 167.136 118.84 166.779 116.434 166.779C115.566 166.779 114.697 166.779 113.829 166.779C113.406 166.779 113.097 166.779 113.755 166.779C115.744 166.779 117.688 166.65 119.671 166.501C128.582 165.832 137.667 165.422 146.499 163.999C150.091 163.42 154.065 163.919 157.7 163.919C160.141 163.919 164.287 164.652 166.766 164.652" stroke="#7FDBE0" stroke-width="14.0942" stroke-linecap="round"/>
<path d="M85.0292 165.705C82.7966 165.705 80.564 165.705 78.3315 165.705C75.1913 165.705 72.4397 165.092 69.3639 164.553C66.3802 164.031 63.5239 162.479 60.6568 161.495C59.8476 161.218 56.5006 160.733 56.2474 159.788C55.2873 156.201 57.368 152.124 59.2056 149.322C59.5463 148.803 59.7578 148.197 60.1731 147.754C60.9678 146.905 58.7617 149.64 57.9033 150.415C56.2194 151.933 54.4046 153.237 52.6009 154.585C51.5444 155.374 50.8764 156.542 49.866 157.405C48.2875 158.752 47.0204 158.036 46.8706 155.637C46.6731 152.476 46.9764 149.983 48.3776 147.198C49.2525 145.458 50.1354 143.72 51.0009 141.975C52.3264 139.303 43.9019 137.58 42.5356 135.879C42.3209 135.611 41.4938 134.295 41.4938 134.608C41.4938 135.875 41.5643 137.086 41.0845 138.281C39.4723 142.297 36.0775 145.899 35.0565 150.137C34.6609 151.779 34.3727 153.283 34.4611 154.982C34.5551 156.788 37.6517 157.148 38.796 157.683C40.1277 158.304 48.157 162.919 48.8613 161.416" stroke="#7FDBE0" stroke-width="14.0942" stroke-linecap="round"/>
<path d="M64.6326 145.265C64.6326 145.575 64.7429 145.144 64.7972 145.045C65.2431 144.233 65.8647 143.57 66.4711 142.878C68.0466 141.08 69.2733 139.677 71.3005 138.35C75.7031 135.468 81.0152 133.551 86.2277 132.917C88.6342 132.624 91.0352 132.777 93.4443 132.615C96.825 132.388 100.238 132.31 103.624 132.478C106.74 132.632 109.15 133.899 111.856 135.332C113.77 136.345 115.781 137.143 117.591 138.35C120.092 140.017 122.833 141.253 125.343 142.905C125.894 143.268 127.431 144.516 126.921 144.099C124.26 141.922 120.994 140 117.866 138.597C114.977 137.302 111.86 136.669 108.811 135.881C106.418 135.262 104.101 134.38 101.704 133.768C97.451 132.681 92.6194 132.681 88.2445 132.931C84.8635 133.124 81.3858 135.034 78.5583 136.759C75.7181 138.49 72.9453 140.172 70.1891 142.054C67.6414 143.794 65.3603 145.525 63.1646 147.721C62.4855 148.4 61.8371 149.203 61.0792 149.792C60.0304 150.608 62.6468 147.627 63.6173 146.719C69.4622 141.254 75.6815 136.214 83.5386 133.96C91.2142 131.757 99.2389 131.193 107.109 132.56C114.16 133.785 122.359 134.719 128.183 139.324C129.934 140.709 132.753 142.98 133.534 145.128C133.846 145.988 134.525 146.749 135.262 147.241" stroke="#7FDBE0" stroke-width="9.86597" stroke-linecap="round"/>
<path d="M138.473 168.231C138.56 168.923 149.042 168.478 150.204 168.478C153.152 168.478 156.339 168.41 158.724 166.502" stroke="#7FDBE0" stroke-width="9.86597" stroke-linecap="round"/>
<path d="M167.627 173.889C171.662 173.889 171.662 167.584 167.627 167.584C163.466 167.584 163.466 173.889 167.627 173.889Z" fill="#F879C6"/>
<path d="M97.4886 98.3306C98.2451 96.8175 99.3799 95.4305 100.767 94.4218C104.928 91.3956 109.089 95.0523 111.989 98.2045C114.763 101.231 119.176 96.6914 116.402 93.7914C111.989 88.9999 105.811 84.965 99.2538 88.1173C96.2276 89.5043 93.5797 92.2783 92.0667 95.3044C90.0492 98.835 95.5972 101.987 97.4886 98.3306Z" fill="#F879C6"/>
<path d="M126.493 156.71C128.51 155.702 125.862 156.458 124.223 156.332C121.701 156.332 119.306 156.206 116.784 156.206C109.597 155.954 102.283 155.702 95.0962 155.323C85.0089 154.945 75.0477 154.441 64.9604 153.936C65.9691 155.323 66.9779 156.584 67.9866 157.971C70.6345 150.532 79.587 145.11 87.7829 143.975C96.7354 142.84 106.697 144.606 114.766 148.514C116.658 149.397 126.871 154.945 125.484 157.719C123.593 161.25 129.015 164.528 130.906 160.871C133.68 155.575 128.889 150.406 124.98 147.38C116.28 140.571 104.427 137.671 93.5831 137.418C80.7218 137.04 66.4735 143.345 61.9342 156.332C61.1777 158.349 63.069 160.241 64.9604 160.367C75.8043 160.871 86.7742 161.376 97.618 161.88C104.805 162.132 111.992 162.51 119.18 162.636C122.08 162.763 126.997 163.645 129.645 162.258C133.302 160.241 130.15 154.819 126.493 156.71Z" fill="#F879C6"/>
<path d="M92.9478 173.23C93.2 169.195 93.3261 165.16 93.7043 161.125C93.7043 160.747 93.8304 160.243 93.8304 159.864C93.9565 159.234 93.9565 160.369 93.8304 159.738L93.9565 159.36C94.0826 159.108 93.9565 159.234 93.7043 159.99C89.2911 158.351 87.5259 158.351 88.2824 159.99C90.1738 163.521 95.5957 160.369 93.7043 156.838C92.0652 153.686 88.2824 155.577 87.7781 158.225C86.7693 163.017 86.8954 168.438 86.6432 173.356C86.5171 177.391 92.8217 177.391 92.9478 173.23Z" fill="#F879C6"/>
<path d="M109.34 173.986C109.592 168.942 109.97 163.898 110.222 158.981C110.475 154.946 104.17 154.946 103.918 158.981C103.666 164.024 103.287 169.068 103.035 173.986C102.783 178.146 109.088 178.146 109.34 173.986Z" fill="#F879C6"/>
<path d="M176.169 165.032C184.995 158.601 195.208 152.549 205.8 149.649C208.826 148.766 212.105 148.136 215.383 148.388C215.887 148.388 218.661 148.64 218.913 149.271C218.787 148.892 218.661 148.514 218.661 149.397C218.535 152.675 211.852 157.088 209.709 158.727C201.513 165.41 192.308 171.21 182.978 176.128C180.708 177.389 179.825 177.515 177.051 178.397C175.916 178.776 168.729 179.406 168.225 180.163C168.351 179.911 169.612 181.928 169.234 182.054C169.486 181.928 169.738 181.045 169.99 180.919C170.495 180.667 170.999 179.784 171.377 179.406C174.403 176.632 169.864 172.219 166.964 174.993C163.181 178.524 160.407 185.585 167.847 186.467C177.682 187.602 188.147 180.793 196.217 175.75C205.296 170.075 217.022 163.519 223.074 154.314C229.757 144.227 217.526 141.201 209.583 142.336C196.469 144.227 183.608 151.792 173.142 159.484C169.738 161.88 172.89 167.428 176.169 165.032Z" fill="#F879C6"/>
<path d="M42.3843 182.434C34.3145 182.434 25.2359 187.099 28.136 196.556C31.1622 206.265 42.5104 207.526 50.9585 204.752C54.7412 203.491 53.1021 197.438 49.3193 198.699C44.654 200.212 37.0885 200.969 34.5666 195.673C31.9187 190.251 38.2233 188.738 42.3843 188.738C46.4192 188.738 46.4192 182.434 42.3843 182.434Z" fill="#F879C6"/>
<path d="M88.4332 233.025C88.5593 234.664 88.5593 236.304 88.6854 237.943C88.6854 238.825 82.8956 242.23 83.6522 242.86C85.8537 243.112 89.077 236.891 85.9988 239.358C85.1162 240.115 82.3913 243.365 81.6347 244.247C75.7084 251.434 67.9626 257.946 62.2885 265.386C55.4796 274.338 50.6163 284.218 45.0683 293.927C41.6638 299.727 37.6289 306.284 40.7812 312.84C43.4291 318.262 47.5901 327.971 55.0295 327.467C59.821 327.215 68.5212 321.289 69.4039 316.371C70.1604 312.462 66.1836 306.783 65.427 310.818C63.1574 322.166 57.8035 341.211 61.9645 352.433C64.4863 359.116 71.9257 361.259 78.3563 362.268C84.6609 363.277 92.7307 364.285 98.9092 362.268C102.818 361.007 101.179 354.955 97.27 356.216C92.2264 357.855 85.1653 356.972 79.9955 356.216C73.5649 355.207 68.0169 353.694 67.0081 346.759C65.6211 336.924 67.3864 326.206 69.2778 316.497C67.2603 315.993 67.3184 311.448 65.3009 310.944C65.0487 312.331 59.9471 318.388 58.9383 319.019C55.9121 321.162 53.6425 321.541 50.9946 318.514C48.9771 316.245 45.8248 311.453 45.4466 308.553C45.1944 306.032 47.464 302.375 48.5988 300.231C54.0208 289.892 59.3884 279.508 66.3234 270.177C72.2497 262.36 80.3738 255.469 86.6784 247.904C87.9393 246.391 89.4524 245.004 89.8307 243.112C95.8726 241.599 94.7377 236.808 94.6116 233.025C94.6116 228.99 88.3071 228.99 88.4332 233.025Z" fill="#F879C6"/>
<path d="M106.945 229.716C106.566 233.751 106.314 237.786 105.936 241.821C105.558 245.856 111.862 245.856 112.241 241.821C112.619 237.786 112.871 233.751 113.249 229.716C113.501 225.555 107.197 225.681 106.945 229.716Z" fill="#F879C6"/>
<path d="M44.1925 311.202C41.2924 311.58 38.3923 312.463 35.9966 314.354C31.8356 317.759 32.0878 323.181 34.3574 327.594C37.0053 332.637 42.175 336.42 47.723 333.142C50.6231 331.377 53.0189 328.224 54.532 325.198C56.4234 321.541 50.8753 318.389 49.11 322.046C48.2274 323.685 47.2187 325.324 45.9578 326.585C45.3273 327.216 44.1925 328.35 43.1838 328.224C41.5446 328.098 40.4098 325.702 39.7793 324.442C38.6445 322.046 38.5184 320.028 40.788 318.641C41.6707 318.137 42.175 318.011 43.3098 317.633C43.8142 317.507 45.7056 317.254 44.1925 317.38C48.2274 317.002 48.2274 310.698 44.1925 311.202Z" fill="#F879C6"/>
<path d="M122.993 317.758C124.254 322.045 125.263 326.585 126.145 330.998C127.28 337.176 129.802 347.137 126.902 353.19C124.128 358.99 108.24 362.394 102.819 359.368C97.901 356.594 99.5402 342.976 99.7923 337.807C99.9184 333.772 93.6139 333.772 93.4878 337.807C93.2356 344.868 91.5964 358.738 97.901 363.781C105.466 369.834 121.858 365.799 128.919 360.629C135.728 355.712 134.593 345.12 133.711 337.807C132.828 330.494 131.315 323.18 129.298 316.119C127.911 312.21 121.858 313.85 122.993 317.758Z" fill="#F879C6"/>
<path d="M118.829 360.377C118.702 367.564 118.576 374.752 118.45 381.813C118.45 383.452 119.963 385.091 121.603 384.965C125.89 384.839 140.138 384.713 138.373 391.9C136.986 397.826 127.024 396.817 122.359 396.817C118.576 396.817 114.541 396.817 110.759 396.187C109.75 396.061 108.363 395.935 107.606 395.43C108.867 396.187 107.606 396.313 107.859 394.8C108.111 393.413 107.732 391.774 107.732 390.261C107.732 381.308 108.489 372.23 109.372 363.277C109.75 359.242 103.445 359.242 103.067 363.277C102.563 368.951 102.184 374.625 101.806 380.426C101.554 385.343 99.4105 395.809 103.067 399.97C105.337 402.491 110.002 402.491 113.028 402.744C118.829 403.374 124.755 403.374 130.555 402.618C137.994 401.735 145.055 398.961 145.055 390.261C144.929 379.669 129.168 378.408 121.603 378.66C122.611 379.669 123.746 380.804 124.755 381.813C124.881 374.625 125.007 367.438 125.133 360.377C125.133 356.342 118.829 356.342 118.829 360.377Z" fill="#F879C6"/>
<path d="M71.4177 359.243C71.1655 362.773 71.0394 366.43 70.9133 370.086C70.7872 373.869 70.1567 378.534 71.1655 382.317C72.3003 386.226 78.3527 384.587 77.2179 380.678C76.4613 377.904 77.0918 372.608 77.2179 369.204C77.344 365.925 77.47 362.647 77.5961 359.369C77.9744 355.208 71.6699 355.208 71.4177 359.243Z" fill="#F879C6"/>
<path d="M83.5246 361.259C85.1638 371.347 88.0639 384.586 85.5421 394.673C84.7855 397.7 83.7768 397.952 80.8767 398.204C78.7332 398.456 76.4635 398.582 74.32 398.708C69.7807 398.961 64.4849 399.591 59.9456 398.33C56.2889 397.321 57.1716 393.791 58.8108 390.891C61.7109 385.973 69.1502 384.838 74.32 384.46C78.6071 384.208 83.5246 384.586 85.1638 389.125C85.6682 390.26 85.6682 391.521 85.6682 392.782C85.6682 393.16 85.416 394.8 85.6682 393.917C85.0377 397.826 91.0901 399.591 91.7206 395.556C92.7293 389.378 90.5857 382.821 84.9116 379.795C76.2113 375.256 59.5673 378.408 53.8932 386.856C48.8496 394.295 50.4887 402.995 59.8195 404.635C65.4936 405.643 71.2938 405.139 76.9679 404.635C81.0028 404.256 86.6769 405.013 89.4509 401.482C93.9902 395.682 92.351 384.586 91.8466 377.903C91.3423 371.725 90.5857 365.547 89.577 359.368C88.9465 355.585 82.8942 357.225 83.5246 361.259Z" fill="#F879C6"/>
<path d="M120.594 377.906C113.785 379.041 101.554 381.815 101.176 390.389C100.924 394.928 107.985 394.928 108.237 390.389C108.363 388.372 113.911 386.859 115.55 386.354C117.82 385.598 120.09 385.093 122.485 384.715C126.899 383.959 125.007 377.15 120.594 377.906Z" fill="#F879C6"/>
<path d="M85.291 240.213C81.0039 247.778 77.2211 255.848 73.8167 263.918C68.6469 276.275 62.9728 290.397 63.7294 304.015C65.3686 330.998 101.178 325.576 119.336 321.793C121.857 321.289 125.262 321.037 127.532 319.65C132.701 316.624 134.593 308.176 135.601 303.006C136.358 299.097 130.306 297.332 129.549 301.367C128.792 305.023 128.036 308.932 126.018 312.085C125.388 312.967 123.244 314.859 125.136 313.976C123.244 314.859 120.596 315.111 118.579 315.615C108.744 317.759 98.5305 319.272 88.4432 318.515C77.095 317.632 69.7818 312.715 70.16 300.736C70.5383 288.758 75.3297 276.527 79.9951 265.683C83.1474 258.244 86.678 250.805 90.7129 243.617C92.7303 239.835 87.3084 236.682 85.291 240.213Z" fill="#F879C6"/>
<path d="M89.1984 246.139C92.3506 245.887 95.3768 245.887 98.5291 245.887C101.051 245.887 109.625 245.508 110.886 247.274C113.282 250.552 118.704 247.4 116.308 244.121C113.282 240.087 107.103 239.96 102.564 239.708C98.1508 239.456 93.7376 239.582 89.3244 239.834C85.1634 240.087 85.1635 246.391 89.1984 246.139Z" fill="#F879C6"/>
<path d="M125.637 238.322C99.0322 235.926 110.633 282.706 118.072 295.315C124.629 306.537 138.373 308.554 147.199 298.215C155.143 289.01 155.017 276.023 152.117 264.927C148.586 251.813 140.39 239.33 125.637 238.322C121.603 238.07 121.603 244.374 125.637 244.626C138.499 245.509 144.425 258.622 146.695 269.718C148.838 280.058 146.947 299.349 132.32 298.845C119.711 298.341 116.811 274.005 116.055 265.053C115.298 256.731 114.163 243.617 125.637 244.626C129.672 245.004 129.672 238.7 125.637 238.322Z" fill="#F879C6"/>
<path d="M116.94 241.349C116.94 241.097 116.814 240.845 116.814 240.592C118.831 240.088 120.723 239.584 122.74 238.953C123.497 240.34 122.614 238.197 122.488 237.566C122.236 236.305 121.984 235.044 122.11 233.91C122.362 231.388 123.497 231.892 125.766 231.64C126.271 231.514 124.884 231.64 125.893 231.64C126.271 231.64 126.649 231.64 127.027 231.64C126.271 231.514 127.532 231.64 127.027 231.64C127.28 231.64 127.532 231.766 127.658 231.766C127.406 231.64 128.162 232.018 128.288 232.144C130.306 234.036 129.675 239.079 129.171 242.105C128.414 246.014 134.467 247.779 135.223 243.745C136.232 238.575 136.989 231.64 132.701 227.605C130.306 225.335 127.406 225.335 124.253 225.461C123.371 225.588 121.479 225.588 119.966 226.344C117.823 227.479 116.562 229.496 116.057 231.766C115.427 234.792 115.679 239.458 117.318 242.231C119.084 245.132 122.866 243.492 123.245 240.592C123.245 240.34 123.119 239.836 123.119 239.71C122.11 235.675 116.057 237.314 116.94 241.349Z" fill="#F879C6"/>
<ellipse cx="99.991" cy="195.607" rx="14.9607" ry="7.26576" fill="#FFA074"/>
<ellipse cx="70.8067" cy="207.69" rx="14.9607" ry="7.26576" fill="#FFA074"/>
<ellipse cx="131.872" cy="208.764" rx="14.9607" ry="7.26576" fill="#FFA074"/>
<path d="M81.2287 200.335C87.2811 200.335 87.2811 190.878 81.2287 190.878C75.1764 190.878 75.1764 200.335 81.2287 200.335Z" fill="#C84896"/>
<path d="M119.055 201.975C125.107 201.975 125.107 192.518 119.055 192.518C113.003 192.518 113.003 201.975 119.055 201.975Z" fill="#C84896"/>
<path d="M103.921 212.063C103.921 213.954 103.291 217.233 100.769 217.485C98.3733 217.737 97.1124 214.585 96.9863 212.567C96.8602 210.676 97.7429 207.398 100.139 207.146C102.534 206.893 103.669 210.046 103.921 212.063C104.3 215.846 110.226 215.846 109.848 212.063C109.343 206.767 106.065 201.093 100.139 201.219C94.3384 201.345 90.9339 207.272 91.06 212.567C91.1861 217.737 94.8428 223.285 100.391 223.411C106.443 223.537 109.848 217.485 109.848 212.063C109.848 208.154 103.921 208.154 103.921 212.063Z" fill="#C84896"/>
<path d="M68.0333 205.269C67.8891 205.917 66.7999 206.425 66.3995 206.925C65.8644 207.594 65.6236 208.225 64.9485 208.765" stroke="#FF7D7D" stroke-width="3.80545" stroke-linecap="round"/>
<path d="M129.1 206.345C128.955 206.994 127.866 207.501 127.466 208.001C126.931 208.67 126.69 209.301 126.015 209.841" stroke="#FF7D7D" stroke-width="3.80545" stroke-linecap="round"/>
<path d="M76.6688 206.092C76.5615 206.575 75.7524 207.189 75.4349 207.577C74.7618 208.4 74.1304 209.247 73.3784 209.999" stroke="#FF7D7D" stroke-width="3.80545" stroke-linecap="round"/>
<path d="M137.732 207.166C137.625 207.649 136.816 208.263 136.498 208.651C135.825 209.474 135.194 210.321 134.442 211.073" stroke="#FF7D7D" stroke-width="3.80545" stroke-linecap="round"/>
<path d="M68.3618 205.196C68.463 205.803 69.1279 206.252 69.4939 206.702C70.1252 207.478 70.6786 208.192 71.4812 208.797C71.9696 209.166 72.3725 209.749 72.806 210.182" stroke="#FF7D7D" stroke-width="3.80545" stroke-linecap="round"/>
<path d="M129.429 206.27C129.53 206.877 130.195 207.325 130.561 207.775C131.192 208.552 131.746 209.266 132.548 209.871C133.037 210.239 133.44 210.823 133.873 211.256" stroke="#FF7D7D" stroke-width="3.80545" stroke-linecap="round"/>
<path d="M28.8994 171.588C41.8867 186.593 62.6915 189.493 78.705 177.766C77.318 177.388 75.8049 177.01 74.4179 176.631C87.4052 194.032 111.867 190.88 128.889 182.179C127.628 182.053 126.367 181.801 125.106 181.675C130.276 186.214 136.959 189.493 143.767 190.628C157.763 192.897 168.229 183.945 174.912 172.471C176.929 168.94 171.507 165.788 169.49 169.318C163.564 179.405 154.485 187.223 142.254 183.945C137.715 182.684 133.05 180.414 129.519 177.262C128.384 176.253 126.997 176.127 125.737 176.758C114.893 182.306 102.032 185.71 90.3053 180.792C87.4052 179.532 84.7573 177.892 82.3616 175.875C81.7311 175.371 79.3354 172.723 79.8398 173.479C78.9571 172.218 77.0658 171.21 75.5527 172.344C61.6828 182.558 44.6607 180.162 33.4387 167.175C30.6647 164.149 26.2515 168.562 28.8994 171.588Z" fill="#F879C6"/>
<path d="M46.9343 182.688C39.3689 178.022 43.9082 192.145 44.6647 193.91C48.3213 202.61 53.6171 210.68 60.5521 217.237C79.3395 235.015 110.61 238.42 133.81 227.072C148.689 219.884 157.011 205.258 158.524 189.118C158.902 185.083 152.598 185.083 152.219 189.118C149.572 215.597 128.136 226.315 103.927 226.945C82.4917 227.45 63.9565 216.606 53.6171 197.945C52.104 195.171 50.717 192.271 49.5822 189.118C49.33 188.236 49.0779 187.101 48.6996 186.218C48.5735 185.966 48.6996 185.462 48.4474 185.21C48.1952 184.957 48.5735 185.714 48.4474 185.588V185.462C48.4474 183.696 46.9343 184.453 43.7821 187.984C47.1865 190.379 50.3387 184.831 46.9343 182.688Z" fill="#F879C6"/>
<path d="M158.391 188.355C162.047 188.229 170.117 188.481 170.622 193.273C171.63 201.595 158.643 202.225 153.347 200.586C149.438 199.451 147.799 205.503 151.708 206.638C161.417 209.538 176.548 206.134 176.926 193.903C177.178 184.32 165.956 181.798 158.391 182.051C154.356 182.177 154.356 188.481 158.391 188.355Z" fill="#F879C6"/>
<ellipse cx="106.238" cy="110.36" rx="36.9081" ry="10.2951" transform="rotate(3.31262 106.238 110.36)" fill="#28D0D9"/>
<path d="M84.8105 110.467C87.2189 110.146 89.3577 108.378 91.464 107.325" stroke="#7FDBE0" stroke-width="4.69807" stroke-linecap="round"/>
<path d="M100.332 112.316C103.037 111.253 105.256 109.202 107.91 108.065" stroke="#7FDBE0" stroke-width="4.69807" stroke-linecap="round"/>
<path d="M117.34 113.611C118.708 112.386 120.728 111.546 122.299 110.582C122.973 110.168 123.612 109.61 124.363 109.36" stroke="#7FDBE0" stroke-width="4.69807" stroke-linecap="round"/>
<path d="M171.634 168.309C133.302 173.857 93.8362 172.218 55.757 165.913C50.0829 165.031 44.535 164.022 38.987 162.887C37.2218 162.509 35.3304 162.257 33.5652 161.752C31.5477 160.996 31.5477 161.5 31.5477 159.483C31.4216 153.304 35.3304 144.982 37.9783 139.56C49.4525 115.729 72.1487 102.238 98.2493 99.9679C122.837 97.9505 144.903 107.659 158.016 128.717C163.186 137.039 166.716 146.117 168.86 155.7C169.616 158.978 170.121 162.257 170.247 165.535C170.247 166.544 169.995 167.931 170.247 168.939C170.499 169.948 169.49 169.444 171.003 168.687C167.347 170.453 170.625 176 174.156 174.109C178.064 172.092 176.551 164.274 176.173 161.122C175.038 152.169 172.39 143.595 168.608 135.399C158.394 112.703 138.598 96.3113 113.38 93.7895C84.1273 90.8894 53.7395 102.742 37.4739 127.708C32.3042 135.652 28.5215 144.73 26.2519 154.061C25.4954 156.961 24.2345 161.122 25.6215 164.022C27.6389 168.309 34.3217 168.561 38.3566 169.318C82.6142 178.27 128.637 181.044 173.399 174.613C177.308 173.731 175.543 167.679 171.634 168.309Z" fill="#F879C6"/>
</svg>
