<svg width="227" height="422" viewBox="0 0 227 422" fill="none" xmlns="http://www.w3.org/2000/svg">
<ellipse cx="39.2798" cy="10.9581" rx="39.2798" ry="10.9581" transform="matrix(0.998329 0.0577916 -0.0577768 0.99833 66.0664 100.562)" fill="#28D0D9"/>
<path d="M81.8398 113.886C84.403 113.545 86.6792 111.663 88.9208 110.542" stroke="#7FDBE0" stroke-width="5" stroke-linecap="round"/>
<path d="M98.3613 115.853C101.24 114.722 103.602 112.54 106.426 111.329" stroke="#7FDBE0" stroke-width="5" stroke-linecap="round"/>
<path d="M116.458 117.23C117.914 115.927 120.064 115.033 121.736 114.007C122.454 113.566 123.134 112.973 123.932 112.706" stroke="#7FDBE0" stroke-width="5" stroke-linecap="round"/>
<path d="M55.5859 403.28C55.5859 410.928 72.4479 408.98 76.9692 408.98C79.7249 408.98 82.4178 408.885 85.1247 408.347C89.2428 407.527 92.4248 405.279 96.2142 403.777C98.2132 402.985 100.037 403.394 102.132 403.687C107.658 404.46 113.507 404.341 118.89 405.723C122.822 406.732 126.724 406.537 130.776 406.537C135.363 406.537 137.581 406.312 141.666 404.139C143.035 403.411 146.981 401.26 144.003 399.932C139.622 397.977 133.743 398.5 129.01 398.145C118.625 397.365 108.293 395.543 97.8552 395.543C95.7675 395.543 92.8538 394.881 91.5148 396.38C90.283 397.76 87.699 397.864 85.9701 398.077C82.4112 398.514 78.8425 398.899 75.2784 399.298C72.5154 399.608 69.7935 400.023 67.0484 400.407C63.3468 400.925 59.7984 402.058 56.0335 402.058" stroke="#2C89FB" stroke-width="9.39615" stroke-linecap="round"/>
<path d="M114.625 166.809C114.548 167.423 112.612 167.144 112.095 167.144C110.721 167.144 110.035 166.771 109.602 165.47" stroke="#F0F0F1" stroke-width="14.0942" stroke-linecap="round"/>
<path d="M98.0776 169.753C98.0776 168.995 97.8758 168.358 97.7613 167.614C97.6408 166.83 97.9453 167.634 98.2636 167.725C98.8941 167.905 98.8219 166.799 99.0078 166.404C99.1191 166.168 98.4841 166.404 98.0776 166.404" stroke="#F0F0F1" stroke-width="14.0942" stroke-linecap="round"/>
<path d="M69.4141 152.744C79.8636 152.744 90.2709 153.078 100.708 153.078C104.072 153.078 107.388 153.748 110.773 153.748C112.563 153.748 114.175 154.753 115.964 154.753" stroke="#F0F0F1" stroke-width="14.0942" stroke-linecap="round"/>
<path d="M130.937 152.673C127.52 152.673 123.915 152.866 120.537 152.598C114.781 152.142 109.664 151.333 103.764 151.333C99.5143 151.333 95.265 151.333 91.0157 151.333C87.3013 151.333 85.0474 151.606 81.6895 152.524C80.5782 152.827 77.9317 153.678 77.9322 153.677C79.7758 151.632 85.0206 151.294 88.5332 150.738C90.7773 150.382 87.7934 150.663 86.7887 150.663C84.135 150.663 81.2952 150.961 78.7709 150.961C67.5095 150.961 100.956 148.319 112.218 148.319" stroke="#FF7D7D" stroke-width="14.0942" stroke-linecap="round"/>
<path d="M185.953 161.115H187.628" stroke="#F0F0F1" stroke-width="11.2754" stroke-linecap="round"/>
<path d="M177.109 165.734C177.109 167.188 177.594 169.655 176.7 170.907C175.696 172.312 175.083 173.802 174.263 175.279C173.138 177.303 176.889 177.419 177.965 176.73C185.962 171.612 193.922 166.81 201.556 161.046" stroke="#7FDBE0" stroke-width="11.2754" stroke-linecap="round"/>
<path d="M181.128 167.409C183.433 167.199 183.852 171.035 185.529 169.567C186.637 168.598 188.404 168.056 189.697 167.409" stroke="#7FDBE0" stroke-width="11.2754" stroke-linecap="round"/>
<path d="M181.463 165.065C184.968 165.065 188.154 162.792 191.249 161.381C194.673 159.821 198.202 158.345 201.482 156.507C205.754 154.112 211.267 151.669 216.217 151.669C218.326 151.669 217.73 152.243 215.956 152.339C213.697 152.461 211.585 153.511 210.003 155.093C208.878 156.218 208 157.47 206.654 158.367C205.453 159.168 203.859 160.614 202.561 161.046" stroke="#7FDBE0" stroke-width="11.2754" stroke-linecap="round"/>
<path d="M161.037 192.525C161.037 193.666 161.037 194.807 161.037 195.948C161.037 197.764 160.16 198.625 159.771 200.228C159.384 201.827 168.02 198.337 168.888 197.548C170.19 196.364 169.983 195.15 168.255 194.051C167.313 193.451 165.624 193.657 164.534 193.511C163.406 193.361 162.315 192.662 161.371 192.19" stroke="#EEB297" stroke-width="11.2754" stroke-linecap="round"/>
<path d="M133.912 179.801C136.101 179.801 137.821 180.842 139.866 181.55C142.347 182.408 144.824 182.815 147.456 182.815C149.595 182.815 152.789 181.376 154.843 180.619C156.371 180.056 159.097 178.796 160.703 178.796" stroke="#FF7D7D" stroke-width="11.2754" stroke-linecap="round"/>
<path d="M83.6758 178.125C85.9325 178.125 86.746 180.733 88.71 179.697C90.0634 180.22 91.6674 181.037 93.138 181.037C96.5029 181.037 101.463 180.134 104.774 180.134C108.12 180.134 111.445 180.196 114.653 179.483C116.141 179.152 119.709 180.069 120.513 178.46" stroke="#FF7D7D" stroke-width="11.2754" stroke-linecap="round"/>
<path d="M35.1191 169.419C43.0367 169.419 49.8026 174.457 57.5753 175.428C61.5238 175.922 65.5845 175.782 69.6126 175.782" stroke="#FF7D7D" stroke-width="11.2754" stroke-linecap="round"/>
<path d="M41.4803 193.196C40.561 193.196 39.0477 192.852 38.5408 193.866C37.5126 195.922 40.3519 197.208 41.778 197.698C43.4336 198.267 44.4252 198.105 45.9827 197.215C46.8033 196.746 44.944 195.54 44.4943 195.54" stroke="#EEB297" stroke-width="11.2754" stroke-linecap="round"/>
<path d="M100.47 212.649C100.47 217.203 102.854 211.128 102.854 209.369C102.854 206.984 102.854 210.188 102.854 210.918C102.854 211.905 102.854 212.892 102.854 213.879" stroke="#FF7D7D" stroke-width="11.2754" stroke-linecap="round"/>
<path d="M50.1279 183.988C50.1279 192.079 56.4125 199.043 61.6284 204.642C64.3585 207.572 67.2131 210.768 70.5283 213.05C71.1004 213.444 71.8902 214.061 72.551 214.305C75.5098 215.399 78.7021 215.891 81.5954 217.218C82.6647 217.709 83.9969 217.837 85.1352 218.141C85.4621 218.229 86.9792 218.944 87.2157 218.502C87.9333 217.159 87.0715 214.558 87.0567 213.065C87.0367 211.045 88.0106 208.014 89.4551 206.517C91.3935 204.507 92.9666 200.778 96.0289 200.098C97.0746 199.866 98.1995 199.712 99.2652 199.579C99.9565 199.493 100.686 199.724 101.302 199.305C102.459 198.52 100.149 196.862 99.6553 196.464C97.0523 194.363 94.3634 192.558 91.969 190.19C90.4208 188.659 84.4528 187.379 82.8524 185.909C81.2826 184.467 84.0969 184.248 82.1155 184.248C80.7218 184.248 79.6614 183.504 78.4169 183.007C76.9973 182.441 76.4639 182.288 74.8049 182.892C72.5839 183.701 70.4971 184.763 68.1733 185.272C65.4527 185.867 62.7483 185.805 59.9814 185.805C58.5531 185.805 57.1535 185.546 55.7337 185.546C55.3111 185.546 54.0631 185.032 54.8813 185.849C61.376 192.332 64.5228 200.121 73.0134 203.92C73.4182 204.102 78.0803 203.92 78.5614 203.92C79.3801 203.92 77.8989 202.409 77.4055 201.757C75.278 198.944 72.8994 196.279 70.8606 193.406C70.7726 193.282 70.5139 192.906 70.6006 193.031C71.5736 194.434 72.2243 196.068 73.0134 197.574C74.2723 199.978 75.5445 202.415 77.0154 204.699C78.0007 206.229 76.2218 201.148 75.8741 199.363C75.6932 198.434 74.0086 193.311 75.9607 193.709C79.1043 194.351 81.9237 195.907 84.6873 197.459C84.6951 197.463 85.7957 198.09 85.6408 197.762C85.0061 196.416 83.6529 195.203 82.7513 194.026C82.411 193.582 79.9272 189.89 80.3529 190.031C81.1334 190.291 81.8421 191.182 82.4478 191.69C83.7957 192.819 85.2227 193.859 86.4788 195.094C87.3868 195.986 88.4477 196.838 86.5799 195.887C83.0034 194.067 78.958 192.371 74.9205 192.094C72.5871 191.934 70.0733 191.805 67.7399 191.805C67.271 191.805 68.1476 193.121 68.1878 193.19C69.4053 195.267 70.5879 197.377 71.9298 199.377C74.231 202.808 76.581 206.279 78.9948 209.632C79.4049 210.201 80.9578 207.304 81.2053 206.964C81.9328 205.963 83.5603 202.857 83.5603 204.094C83.5603 205.029 82.5163 206.013 82.3901 207.021C82.3362 207.451 82.8141 206.673 82.8524 206.632C83.7118 205.711 84.6612 204.895 85.6986 204.18C88.3767 202.335 91.8209 201.891 94.9742 201.526C98.502 201.119 102.265 200.837 105.81 201.238C108.092 201.496 114.693 203.549 112.514 202.824C111.477 202.479 110.477 201.834 109.509 201.353C106.49 199.853 103.391 198.489 100.522 196.709C99.2591 195.926 97.7168 195.033 96.809 193.81C96.1573 192.932 99.6433 193.474 99.8575 193.507C102.658 193.939 105.363 195.026 107.977 196.074C110.936 197.262 113.968 198.587 116.415 200.675C116.8 201.004 118.177 202.088 118.177 202.752C118.177 203.432 114.142 202.432 114.103 202.421C109.066 200.929 103.191 198.049 99.3374 194.416C99.1815 194.269 98.0821 193.432 98.5283 193.103C99.9053 192.091 103.92 192.795 105.463 192.815C110.067 192.874 115.287 193.208 119.694 194.748C119.839 194.798 116.735 194.363 116.415 194.315C111.267 193.538 106.085 193.008 100.927 192.31C98.359 191.963 95.7871 191.581 93.2549 191.027C92.5656 190.875 90.7293 190.723 91.2755 190.277C91.5966 190.014 92.9003 190.249 93.2115 190.277C96.631 190.58 99.9968 191.415 103.397 191.877C108.948 192.633 114.914 193.374 120.518 192.7C121.51 192.58 120.325 189.991 121.126 189.191C122.181 188.139 126.127 189.147 127.482 188.286C128.175 187.846 128.374 188.125 128.927 188.661C130.574 190.261 132.771 191.425 134.764 192.526C139.688 195.249 145.362 194.632 150.786 194.632C150.952 194.632 152.997 194.577 152.997 194.69C152.997 194.916 152.337 195.404 152.217 195.526C151.211 196.549 150.267 197.624 149.24 198.627C145.488 202.292 142.445 206.543 139.069 210.526C137.778 212.049 136.833 213.507 135.183 214.723C133.07 216.279 130.522 217.114 128.06 217.939C126.602 218.428 125.399 218.776 123.87 218.776C122.288 218.776 126.087 213.189 126.413 212.545C128.118 209.171 129.75 205.713 131.123 202.19C131.541 201.115 128.78 203.842 128.464 204.122C128.036 204.503 125.781 207.158 125.257 206.257C123.981 204.063 123.744 200.923 123.119 198.498C122.722 196.958 122.072 195.308 121.948 193.709C121.898 193.059 130.425 196.903 131.036 197.199C132.719 198.017 134.335 198.92 135.919 199.911C136.29 200.143 137.278 200.539 137.48 200.993C137.761 201.625 136.951 202.471 136.729 202.997C136.503 203.531 136.444 204.41 136.18 204.872C135.774 205.582 131.919 205.804 131.123 206.055C129.604 206.533 127.993 207.257 126.456 207.598C125.17 207.884 123.527 207.613 122.223 207.613C120.493 207.613 118.751 207.672 117.022 207.613C116.352 207.59 113.116 207.289 112.514 207.021C112.363 206.954 112.947 210.526 116.184 208.911C117.157 210.482 114.103 211.26 114.103 213.065C114.103 216.269 114.911 218.666 112.947 220.983C108.517 226.21 101.77 228.099 95.6099 226.391C93.953 225.932 92.1012 222.389 90.3219 222.093C86.8245 221.511 83.1916 222.227 79.7172 221.314C79.5363 221.267 76.5566 220.296 76.6976 219.944C77.0139 219.155 84.3192 219.869 85.1785 219.93C89.5208 220.236 94.2272 223.638 98.5283 224.228C100.409 224.485 102.308 224.468 104.192 224.761C106.592 225.136 109.133 225.151 110.982 223.319C112.806 223.825 114.562 224.228 116.473 224.228C117.792 224.228 119.113 224.249 120.431 224.228C121.874 224.205 123.004 223.338 124.231 222.685C129.31 219.981 134.132 217.049 138.289 213.065" stroke="#FFC2A7" stroke-width="11.2754" stroke-linecap="round"/>
<path d="M96.9131 238.352C98.7333 238.352 99.0183 237.61 100.688 238.352C101.484 238.706 103.681 238.667 104.548 238.667" stroke="#EEB297" stroke-width="11.2754" stroke-linecap="round"/>
<path d="M125.654 236.007C126.716 236.007 126.942 236.099 126.942 234.978" stroke="#EEB297" stroke-width="11.2754" stroke-linecap="round"/>
<path d="M127.454 247.074C124.286 247.074 119.726 246.335 117.989 249.676C115.551 254.364 117.374 260.828 118.074 265.732C118.748 270.448 120.302 274.512 119.862 279.357C119.64 281.801 119.477 284.049 121.048 286.063C121.92 287.18 122.872 288.228 123.965 289.122C124.948 289.926 125.06 291.685 126.338 292.382C127.799 293.179 129.048 294.347 130.513 295.185C131.816 295.929 132.567 296.228 134.016 296.228C135.142 296.228 135.808 295.959 136.847 295.728C140.008 295.025 142.746 289.907 143.167 286.964C143.346 285.706 144.182 284.502 144.182 283.232C144.182 281.731 144.182 280.229 144.182 278.728C144.182 275.376 144.379 272.522 142.523 269.606C141.227 267.569 141.347 264.81 140.207 262.658C139.179 260.715 138.057 258.799 137.033 256.853C136.543 255.923 135.653 255.571 134.917 254.794C134.118 253.951 134.128 252.994 133.258 252.221C132.082 251.175 130.23 250.834 129.055 249.704C128.913 249.568 128.005 248.482 127.968 249.132C127.899 250.383 127.503 251.524 127.196 252.735C126.404 255.86 126.124 258.895 125.709 262.057C125.3 265.18 125.509 268.564 126.882 271.408C127.761 273.23 128.367 275.203 129.312 276.984C130.291 278.828 131.345 280.812 132.029 282.789C132.268 283.48 133.077 284.729 133.115 285.419C133.183 286.642 130.318 285.555 129.827 285.362C127.848 284.585 125.465 282.764 124.937 280.615C124.358 278.256 124.365 275.819 124.365 273.41C124.365 269.009 126.94 265.022 128.941 261.228C130.748 257.8 133.157 261.448 134.145 263.601C135.299 266.117 135.703 268.673 136.404 271.322C136.967 273.449 137.543 275.593 137.948 277.756C138.183 279.009 138.154 280.722 137.948 281.959C137.894 282.285 137.469 283.339 137.233 283.103" stroke="#FBF9BC" stroke-width="11.2754" stroke-linecap="round"/>
<path d="M98.3086 256.512C97.1615 256.512 96.0143 256.512 94.8671 256.512C94.4311 256.512 94.1268 256.483 93.7534 256.735C92.9193 257.299 92.2348 258.101 91.2675 258.452C90.4762 258.74 89.6739 258.861 88.9971 259.401C88.5778 259.735 88.2858 260.13 87.9409 260.529C87.7633 260.734 87.6718 260.878 87.5457 260.565C87.2497 259.829 87.0756 258.928 87.2583 258.143C87.3732 257.65 87.6787 257.211 87.9481 256.793C88.3606 256.151 88.7915 255.527 89.2773 254.939C90.0967 253.947 90.91 252.95 91.7201 251.95C92.4717 251.022 92.9694 250.254 94.2061 249.931C94.8072 249.774 95.4807 249.856 96.0957 249.852C96.874 249.848 97.5796 249.727 98.3302 249.529C99.4217 249.24 100.363 249.023 101.492 249.011C101.978 249.007 102.434 248.877 102.914 248.832C103.315 248.794 103.72 248.838 104.121 248.803C104.891 248.736 105.675 248.611 106.442 248.508C106.697 248.475 106.961 248.494 107.218 248.494C107.309 248.494 107.092 248.569 107.024 248.623C106.395 249.124 105.605 249.662 105.177 250.355C104.956 250.714 104.961 251.424 105.062 251.821C105.273 252.641 105.753 253.358 105.939 254.199C106.073 254.806 106.15 255.877 105.925 256.476C105.73 256.993 105.568 257.391 105.472 257.921C105.434 258.131 105.366 258.381 105.472 258.582C105.601 258.825 105.526 259.262 105.695 259.473C105.819 259.628 105.789 260.278 105.695 260.457C105.632 260.576 105.362 260.562 105.249 260.572C104.29 260.656 103.323 260.651 102.361 260.651C100.945 260.651 99.5305 260.592 98.1147 260.586C97.3429 260.583 96.5891 260.554 95.8299 260.701C95.1887 260.826 94.5554 260.91 93.9043 260.96C93.8296 260.965 93.3451 261.044 93.2792 260.96C93.2526 260.925 94.6936 259.864 94.7162 259.846C96.3742 258.536 97.9146 257.072 99.4079 255.578C100.308 254.679 101.117 253.69 102.03 252.805C102.816 252.045 103.621 251.317 104.308 250.463C104.618 250.078 104.909 249.707 105.163 249.284C105.267 249.111 105.28 248.91 105.4 248.738C105.751 248.237 106.218 247.863 106.636 247.445C106.753 247.328 106.872 246.675 106.909 246.748" stroke="#FBF9BC" stroke-width="11.2754" stroke-linecap="round"/>
<path d="M85.987 285.546C85.1299 285.546 84.212 285.645 83.3899 285.362C82.4587 285.043 81.3831 284.539 80.6735 283.83C80.5952 283.752 80.6262 283.658 80.6138 283.559C80.5856 283.333 80.4365 283.105 80.3248 282.912C80.1653 282.637 79.9274 282.225 79.6916 282.013C79.5805 281.913 79.3129 281.907 79.2327 281.747C79.072 281.425 79.4254 280.827 79.5264 280.563C80.4123 278.247 81.5572 275.93 82.0592 273.492C82.1434 273.083 82.0797 272.606 82.1923 272.212C82.2223 272.107 82.9715 272.092 83.0503 272.088C83.7482 272.052 84.4294 272.204 85.1014 272.368C86.491 272.708 87.8954 272.606 89.2953 272.863C89.9489 272.984 90.6646 272.97 91.328 272.996C92.5482 273.044 93.7083 273.195 94.8703 273.552C95.5634 273.764 96.203 273.857 96.9259 273.735C97.8564 273.579 98.6998 273.175 99.6148 272.992C100.405 272.834 101.184 272.665 101.973 272.496C102.424 272.4 102.887 272.176 103.35 272.166C103.987 272.152 104.678 272.253 105.249 271.918C105.601 271.712 106.042 271.753 106.433 271.753C106.574 271.753 106.8 271.687 106.8 271.877C106.8 272.317 106.788 272.759 106.805 273.198C106.837 274.021 107.045 274.826 107.126 275.639C107.171 276.089 107.286 276.491 107.397 276.938C107.673 278.051 107.814 279.321 108.282 280.375C108.405 280.651 108.452 280.902 108.452 281.201C108.452 281.408 108.347 281.972 108.471 282.141C108.649 282.387 108.704 282.716 108.847 282.986C108.973 283.223 108.993 283.391 109.095 283.646C109.276 284.099 108.84 284.485 109.214 284.784C109.383 284.919 108.894 284.805 108.691 284.803C107.765 284.79 106.761 284.578 105.869 284.344C105.445 284.232 105.062 284.014 104.635 283.912C104.049 283.773 103.436 283.692 102.841 283.605C101.483 283.407 100.088 283.232 98.7154 283.362C97.8647 283.442 97.0619 283.771 96.2239 283.935C95.3872 284.099 94.48 284.185 93.6314 284.096C92.8378 284.013 92.2867 283.799 91.6446 283.394C91.319 283.188 90.9466 283.073 90.6764 282.788C89.9826 282.056 89.4338 281.054 89.1255 280.095C88.8878 279.355 89.763 279.173 90.3369 279.186C91.3196 279.209 92.3283 279.618 93.301 279.764C94.9022 280.005 96.4682 280.003 98.0822 280.012C99.0469 280.018 100.13 280.138 101.065 280.407C101.46 280.52 101.84 280.624 102.194 280.838C102.47 281.006 103.117 281.033 103.24 281.37C103.286 281.497 103.235 281.642 103.286 281.774C103.363 281.975 103.542 282.186 103.662 282.362C103.829 282.605 104.003 282.884 104.116 283.16C104.452 283.981 104.755 284.883 105.52 285.413C105.68 285.524 106.479 285.81 106.479 285.67C106.479 285.64 107.244 285.485 107.296 285.381" stroke="#FFDB55" stroke-width="11.2754" stroke-linecap="round"/>
<path d="M123.7 316.312C123.7 315.65 123.605 314.919 123.73 314.268C123.929 313.225 124.602 312.117 125.1 311.187C125.343 310.731 125.575 310.216 125.914 309.824C126.191 309.505 126.874 308.908 126.9 308.446C126.909 308.278 127.123 307.796 127.003 307.676C126.87 307.543 126.261 307.37 126.085 307.313C124.13 306.685 122.362 305.987 120.641 304.839C119.941 304.372 119.507 303.667 119.034 303.01C118.508 302.28 117.894 301.506 117.3 300.847C116.24 299.668 115.181 298.427 114.167 297.188C113.755 296.684 113.567 296.299 113.567 295.647C113.567 295.584 114.403 294.828 113.767 295.181C113.385 295.393 112.765 295.47 112.368 295.514C110.516 295.72 108.855 296.447 106.961 296.447C105.759 296.447 104.575 296.581 103.368 296.581C102.335 296.581 101.331 296.447 100.309 296.447C99.0864 296.447 97.883 296.314 96.6654 296.314C96.3314 296.314 96.2358 296.29 96.2358 296.647C96.2358 297.062 94.3167 296.842 93.9397 296.877C92.8867 296.974 91.8279 297.219 90.7696 297.247C90.0994 297.265 89.481 297.039 88.8142 296.988C87.9157 296.919 87.1025 296.778 86.2071 296.61C84.8155 296.349 83.3747 296.083 82.0297 295.707C80.8711 295.382 79.5482 295.114 78.3485 295.114C77.4501 295.114 76.1211 294.886 75.3044 294.477C75.1639 294.407 74.6856 294.248 74.6452 294.107C74.5698 293.843 74.6389 294.977 74.6081 295.188C74.1787 298.146 74.1045 301.127 74.1045 304.113C74.1045 306.041 74.178 307.332 75.1711 308.987C76.0467 310.446 77.4579 312.045 78.8004 313.112C80.3415 314.338 82.8662 314.093 84.7109 314.312C88.7335 314.79 92.8229 315.155 96.8727 315.238C99.5964 315.294 102.325 315.246 105.05 315.246C107.293 315.246 109.577 315.372 111.812 315.171C114.402 314.939 116.843 313.878 119.404 313.646C120.214 313.572 119.436 313.19 119.152 312.972C117.915 312.02 116.586 311.198 115.301 310.313C114.278 309.608 113.164 308.767 112.471 307.72C112.06 307.099 111.616 306.343 110.983 305.921C110.824 305.815 111.114 308.842 110.434 308.691C110.185 308.635 109.698 307.944 109.523 307.794C108.592 306.993 107.611 306.237 106.598 305.543C106.361 305.38 104.132 303.638 103.939 304.373C103.851 304.707 103.574 306.486 103.968 306.683C104.111 306.755 104.175 305.863 104.183 305.817C104.317 305.087 104.467 304.314 104.702 303.61C104.999 302.718 106.548 304.084 106.976 304.306C107.189 304.417 110.775 306.094 110.605 306.283C110.479 306.423 109.735 306.294 109.62 306.276C108.178 306.051 106.773 305.335 105.709 304.343C104.907 303.595 104.24 302.699 103.835 301.677C103.774 301.523 103.568 300.477 103.568 301.069C103.568 303.663 103.584 306.553 101.346 308.357C99.7703 309.628 97.429 309.869 95.4877 309.92C92.9655 309.987 91.1471 309.198 89.2957 307.52C88.8592 307.125 85.7184 303.931 88.0439 304.239C91.1139 304.646 94.465 306.424 96.6505 308.609C96.9963 308.955 97.0604 309.158 96.5024 309.246C94.6352 309.54 92.6553 309.64 90.7696 309.602C88.6522 309.558 86.4076 309.28 84.5332 308.224C83.5694 307.681 82.2776 306.836 81.926 305.706C81.2424 303.509 84.8575 303.905 85.9404 304.024C89.6086 304.429 93.0587 305.718 96.532 306.876C97.5787 307.225 98.6667 307.767 99.7021 307.113C100.605 306.543 100.902 305.845 100.902 304.81C100.902 303.961 100.1 304.131 99.4207 304.217C97.9944 304.398 96.6124 304.905 95.1988 305.172C92.8575 305.615 90.5175 305.905 88.1328 305.913C85.3971 305.923 83.0663 305.698 80.7557 304.165C79.6404 303.425 78.4064 302.638 77.4375 301.706C76.1924 300.509 75.4269 299.155 74.9711 297.514C74.7351 296.665 74.7507 295.735 74.4748 294.877C74.3154 294.381 74.2378 293.773 74.2378 293.248C74.2378 293.155 74.695 293.653 74.8007 293.781C75.3601 294.46 76.2462 294.811 76.9783 295.255C78.6867 296.29 80.9129 297.381 82.9703 297.381C83.1642 297.381 83.0967 297.385 82.9185 297.351C82.2514 297.225 81.6094 296.996 80.9779 296.751C79.0445 296.002 76.9474 295.176 75.2599 293.944C74.8186 293.622 75.0603 293.485 74.8748 293.114C74.5346 292.434 74.5747 293.012 74.7859 293.47C75.3481 294.688 76.1863 295.771 76.9635 296.855C77.3048 297.33 78.203 298.838 77.9412 298.314C77.7467 297.925 76.4634 295.758 76.9042 297.277C77.2394 298.431 77.7086 299.533 78.2078 300.625C78.2468 300.71 78.9258 302.045 78.7633 301.314C78.7148 301.095 78.4795 300.874 78.3708 300.684C77.9679 299.979 77.7047 299.229 77.4079 298.477C76.9474 297.31 76.4266 296.075 75.7118 295.048C75.481 294.716 75.2971 294.375 74.9711 294.122C74.2924 293.594 75.1629 294.798 75.2748 294.951C78.032 298.727 82.078 299.445 86.5182 299.78C89.1222 299.977 91.745 299.961 94.3545 300.077C96.846 300.187 99.3767 300.38 101.82 299.788C103.915 299.28 106.681 299.184 108.412 297.84C109.129 297.284 109.528 296.502 110.153 295.877C110.284 295.746 110.486 295.771 110.657 295.788C111.746 295.897 112.844 296.42 113.923 296.64C114.491 296.756 115.037 296.85 115.434 297.247C115.724 297.538 116.081 297.746 116.375 298.04C116.624 298.289 117.277 298.427 117.3 298.847C117.396 300.574 119.031 302.002 120.308 303.047C121.435 303.969 122.732 305.749 121.833 307.246" stroke="#FBF9BC" stroke-width="11.2754" stroke-linecap="round"/>
<path d="M94.5056 335.862C95.4162 335.862 96.3268 335.862 97.2373 335.862C98.0038 335.862 98.8031 335.764 99.4897 336.176C100.52 336.795 100.824 337.533 101.298 338.613C101.962 340.128 102.326 341.879 102.326 343.532C102.326 346.267 102.229 348.976 102.616 351.683C102.695 352.239 102.997 352.815 103.045 353.341C103.155 354.525 104.226 354.745 105.133 355.009C106.335 355.358 107.44 356.22 108.439 356.941C109.547 357.742 110.804 357.706 112.13 357.706C113.205 357.706 114.26 357.461 115.311 357.256C116.124 357.097 116.95 357.04 117.768 356.877C119.298 356.57 120.459 355.933 121.384 354.609C122.251 353.367 123.582 352.637 124.175 351.213C124.715 349.919 125.051 348.565 125.659 347.293C125.946 346.691 126.058 346.359 126.058 345.7C126.058 344.557 125.997 343.395 125.968 342.244C125.946 341.345 125.767 340.393 125.629 339.507C125.519 338.806 125.266 338.082 125.009 337.42C124.718 336.669 124.212 336.006 123.961 335.242C123.766 334.65 124.44 334.053 124.44 333.474C124.44 332.878 124.085 332.264 123.946 331.692C123.764 330.947 123.541 330.275 123.541 329.489C123.541 329.13 123.631 328.834 123.631 328.485C123.631 327.919 123.555 327.529 123.901 327.097C123.985 326.992 124.319 326.915 124.345 326.822C124.428 326.532 124.04 327.013 123.901 327.137C123.256 327.71 122.388 328.136 121.653 328.58C120.776 329.11 119.771 329.839 118.707 329.839C118.466 329.839 118.267 329.831 118.038 329.749C117.208 329.45 116.31 329.459 115.441 329.409C114.443 329.352 113.173 329.068 114.102 327.811C114.233 327.634 115.451 326.985 115.451 327.457C115.451 327.57 115.47 327.705 115.446 327.816C115.434 327.87 115.204 328.113 115.236 328.126C115.539 328.247 116.059 328.254 116.4 328.316C117.292 328.478 118.137 328.49 119.046 328.49C120.445 328.49 122.05 327.789 123.271 327.232C123.54 327.109 123.466 326.803 123.811 326.782C123.857 326.78 124.011 326.658 123.901 326.713C123.605 326.86 123.377 327.109 123.112 327.302C121.615 328.392 120.16 329.573 118.977 331.007C118.922 331.073 118.512 331.559 118.727 331.547C119.316 331.514 120.047 331.012 120.555 330.738C121.3 330.335 121.872 329.851 122.552 329.389C123.238 328.924 123.908 328.309 124.33 327.591C124.485 327.328 125.109 327.16 125.384 327.007C125.613 326.88 124.85 327.402 124.76 327.402C124.692 327.402 124.726 326.952 124.715 326.912C124.621 326.584 124.585 327.123 124.53 327.362C124.06 329.407 124.17 331.564 124.17 333.644C124.17 334.243 124.18 334.843 124.17 335.442C124.161 336.022 123.702 336.542 123.341 336.96C122.228 338.251 120.46 339.053 118.987 339.827C116.337 341.219 113.616 342.684 110.776 343.652C110.19 343.852 109.567 344.031 108.943 344.052C108.696 344.06 108.038 343.935 108.244 343.797C108.346 343.729 108.778 343.894 108.874 343.917C109.403 344.047 109.925 344.2 110.462 344.302C111.521 344.502 112.599 344.469 113.663 344.626C114.014 344.678 114.673 344.789 114.866 345.146C115.189 345.741 115.181 346.478 115.181 347.133C115.181 347.497 115.098 348.112 115.506 348.307C115.952 348.52 116.494 348.536 116.979 348.536C117.197 348.536 117.842 348.423 117.628 348.462C116.841 348.605 116.038 349.153 115.281 349.42C114.148 349.82 112.902 349.773 111.73 349.99C110.799 350.162 109.616 350.68 108.649 350.504C108.177 350.418 108.975 347.688 109.013 347.533C109.804 344.338 110.646 341.156 111.43 337.959C111.686 336.918 112.045 335.83 112.12 334.753C112.161 334.153 111.949 333.578 111.306 333.519C110.784 333.472 110.286 333.426 109.757 333.434C109.187 333.443 108.656 333.704 108.099 333.704C107.709 333.704 108.016 330.32 108.509 329.809C108.627 329.686 109.617 329.614 109.498 329.389C109.419 329.241 108.877 329.154 108.739 329.14C107.852 329.045 106.815 329.043 105.942 329.23C105.13 329.403 104.355 329.645 103.54 329.799C102.378 330.019 101.17 329.929 99.9891 329.929C98.3608 329.929 96.7862 329.421 95.1698 329.304C93.9081 329.213 92.6614 329.218 91.3993 329.299C90.9536 329.328 90.5293 329.407 90.0808 329.384C89.1266 329.337 88.1981 329.128 87.2542 329.01C85.8318 328.832 84.618 327.932 83.189 327.681C82.0921 327.489 80.9829 327.329 79.9129 327.002C78.5759 326.594 77.3971 325.77 75.9976 325.544C74.9584 325.376 73.7227 325.015 72.7564 324.58C72.1031 324.286 72.1376 324.033 72.0273 323.372C71.9888 323.14 71.8819 322.777 71.7077 322.602C71.5781 322.473 71.3797 322.313 71.2233 322.218C70.9862 322.073 71.0586 322.783 71.0435 322.947C70.8604 324.926 70.5693 327.272 71.6527 329.03C71.9551 329.52 72.2736 330.002 72.5317 330.518C72.6601 330.775 72.8863 331.261 72.8214 330.628C72.5665 328.143 70.4728 326.023 69.0858 324.086C69.0038 323.971 67.7791 322.472 68.1219 322.198C68.2922 322.062 68.5338 321.982 68.7412 321.843C68.8314 321.783 68.7961 321.63 68.7961 321.534C68.7961 321.022 68.8636 322.555 68.936 323.062C69.2124 324.997 69.6736 326.746 70.2744 328.605C70.4839 329.254 70.7285 331.268 70.7738 330.588C70.8533 329.395 70.6016 328.105 70.4841 326.922C70.3568 325.64 70.1741 324.259 69.5552 323.107C69.4029 322.823 69.1465 322.342 69.2656 321.998C69.2779 321.963 69.4874 321.615 69.4953 321.629C69.6208 321.838 69.5949 322.345 69.6252 322.567C69.7304 323.342 69.8144 324.115 69.8749 324.895C70.029 326.883 70.141 328.899 70.4542 330.868C70.7041 332.438 71.2804 333.932 71.3831 335.532C71.4242 336.173 71.329 336.488 71.1533 337.05C71.0401 337.413 71.1334 337.944 71.1334 338.319C71.1334 339.101 71.1334 339.883 71.1334 340.666C71.1334 341.899 70.8885 343.051 70.7338 344.267C70.5772 345.498 70.6839 346.792 70.6839 348.027C70.6839 349.15 70.7251 349.738 71.398 350.644C71.6879 351.034 71.7885 351.189 72.292 351.278C73.4911 351.49 74.7448 351.627 75.9576 351.718C77.9528 351.866 80.1546 351.871 82.0804 351.213C82.5779 351.043 83.0033 350.816 83.5186 350.674C83.6962 350.625 84.1149 350.551 84.2178 350.364C84.4365 349.967 84.1522 349.226 84.068 348.826C83.9504 348.268 84.2518 349.085 84.2977 349.166C84.5589 349.627 84.8499 350.078 85.1367 350.524C85.5294 351.135 85.9328 351.738 86.3053 352.362C86.7503 353.107 86.5156 353.768 87.454 353.98C88.959 354.319 90.5553 353.488 91.8737 352.891C93.9996 351.929 96.1657 351.593 98.4809 351.593C99.0815 351.593 100.624 351.356 99.4397 352.157C97.3676 353.558 94.7735 354.281 92.3881 354.934C91.6247 355.143 90.8581 355.344 90.0908 355.538C89.8774 355.592 89.2521 355.641 89.4566 355.723C89.6475 355.799 90.1342 355.65 90.2956 355.618C91.0558 355.468 91.8088 355.269 92.5529 355.054C93.8105 354.689 95.0238 354.216 96.2335 353.72C96.59 353.574 97.6912 353.375 97.3123 353.306C96.8442 353.221 96.2894 353.236 95.824 353.201C94.0183 353.066 92.2105 352.963 90.4005 352.906C86.0131 352.768 81.6265 353.205 77.2411 353.026C76.8734 353.011 76.7758 352.955 76.8016 352.607C76.8864 351.462 77.6282 350.397 77.9852 349.326C78.4149 348.036 78.5061 346.541 78.6444 345.2C78.871 343.006 78.6863 340.746 79.1339 338.578C79.3713 337.428 79.9163 336.406 80.7519 335.592C82.0805 334.298 83.806 335.727 84.927 336.561C87.0589 338.147 89.1047 339.912 91.4492 341.185C92.2651 341.628 93.1137 341.99 93.9662 342.354C94.1121 342.416 94.5408 342.532 94.6254 342.693C94.7481 342.928 91.9721 344.078 91.8637 344.122C89.7961 344.953 87.7454 345.345 85.5263 345.385C85.0772 345.393 84.598 345.424 84.1529 345.34C84.1366 345.337 83.7875 345.266 83.9781 345.205C85.47 344.734 87.0816 344.539 88.6276 344.361C91.4431 344.039 94.2633 344.042 97.0925 344.042C97.5771 344.042 98.2571 343.95 98.7206 344.182C99.1157 344.379 97.815 345.359 97.7168 345.445C96.7216 346.316 95.5675 346.935 94.3658 347.478C92.7468 348.209 91.0448 348.794 89.2418 348.661C86.9503 348.493 84.6729 347.343 82.9194 345.88C81.774 344.924 82.369 344.219 83.3588 343.353C85.9904 341.049 89.842 340.584 93.2371 340.686C96.0864 340.771 98.8332 341.451 101.647 341.795C102.939 341.952 104.197 342.175 105.503 342.154C107.285 342.126 104.111 340.212 103.825 340.067C102.501 339.396 101.065 339.001 99.7294 338.359C98.9593 337.988 98.0331 337.514 97.1624 337.48C96.1376 337.44 95.1304 337.545 94.1161 337.679C91.573 338.017 89.0473 338.109 86.4851 338.109C84.5589 338.109 82.1423 338.463 81.1115 336.401" stroke="#F0F0F1" stroke-width="11.2754" stroke-linecap="round"/>
<path d="M81.5927 379.237C81.5363 378.786 81.2955 378.326 81.1366 377.905C80.8389 377.117 80.46 376.379 80.261 375.555C79.8292 373.767 79.5946 371.646 80.0379 369.829C80.1938 369.19 80.4657 368.581 80.7071 367.971C80.8298 367.66 80.9848 367.29 81.2098 367.039C81.3024 366.935 81.4445 366.73 81.5927 366.712C81.7545 366.693 81.7087 366.809 81.7658 366.999C82.5207 369.515 83.3093 371.985 83.4837 374.629C83.5523 375.671 83.5103 376.725 83.5103 377.769C83.5103 378.132 83.4504 378.489 83.4504 378.847C83.4504 379.048 83.4629 379.686 83.2706 379.237" stroke="#EEB297" stroke-width="11.2754" stroke-linecap="round"/>
<path d="M77.2164 396.795C75.5021 396.795 73.8015 396.932 72.0894 396.968C70.6478 396.998 69.1404 397.087 67.7381 396.695C66.8137 396.437 65.9412 396.074 65.0913 395.633C64.0241 395.079 62.6543 394.52 62.6543 393.139C62.6543 392.955 62.6422 392.918 62.8042 392.826C63.6804 392.334 64.6854 392.01 65.6273 391.668C67.6689 390.927 69.6453 390.008 71.8497 389.967C72.5915 389.953 73.3385 389.947 74.0803 389.967C74.7853 389.985 75.4503 390.134 76.1444 390.23C77.6664 390.439 79.2574 390.344 80.7121 390.892C81.7081 391.268 82.5628 391.861 82.956 392.886C83.1498 393.392 83.2105 393.935 83.2556 394.471C83.2977 394.971 83.2367 395.146 82.7962 395.443C80.2457 397.165 77.0413 397.708 74.0203 397.804C71.1472 397.895 68.2638 397.736 65.391 397.69C63.8484 397.666 62.2606 397.403 60.7966 396.915C60.4996 396.816 59.3584 396.653 59.3584 396.209C59.3584 396.061 59.4408 395.932 59.5249 395.816C59.85 395.369 60.2543 394.954 60.6568 394.578C61.6747 393.626 62.9463 392.844 64.2923 392.46C65.5832 392.092 66.9556 392.061 68.2874 392.061" stroke="#7FDBE0" stroke-width="11.2754" stroke-linecap="round"/>
<path d="M121.386 392.434C120.15 392.434 118.914 392.434 117.678 392.434C117.214 392.434 116.738 392.463 116.276 392.411C116.09 392.389 115.682 392.169 115.504 392.244C115.175 392.382 115.043 392.599 114.66 392.654C114.502 392.677 113.953 392.863 113.905 393.028C113.829 393.297 113.92 393.484 113.685 393.718C113.401 394.002 113.868 394.025 114.137 394.276C115.472 395.519 117.946 395.964 119.675 395.964C121.021 395.964 122.376 396.024 123.715 395.857C125.408 395.645 127.043 395.31 128.718 394.995C130.199 394.716 131.828 394.45 133.198 393.801C134.259 393.298 135.301 392.748 136.359 392.244C136.604 392.127 136.638 392.01 136.674 391.686C136.755 390.962 136.257 390.658 135.646 390.402C134.355 389.862 132.876 389.778 131.499 389.654C129.305 389.455 127.119 389.333 124.915 389.333C122.363 389.333 119.872 389.02 117.536 390.188C116.423 390.744 115.766 391.356 114.981 392.315C114.325 393.117 113.084 394.135 113.579 395.298C113.995 396.277 115.21 396.743 116.139 397.021C117.255 397.356 118.502 397.259 119.651 397.241C121.136 397.219 122.488 396.916 123.923 396.564C126.681 395.887 129.503 395.803 132.248 395.055C133.347 394.755 134.917 394.781 135.824 394.039C136.245 393.695 136.962 393.392 137.47 393.189C137.654 393.116 137.093 393.306 136.9 393.349C135.551 393.652 134.182 393.884 132.824 394.146C129.385 394.808 125.977 395.108 122.479 395.108C121.515 395.108 120.582 395.197 119.675 394.894" stroke="#7FDBE0" stroke-width="11.2754" stroke-linecap="round"/>
<path d="M113.372 370.965C113.045 370.965 112.526 370.685 112.454 370.339C112.431 370.225 113.565 370.31 113.631 370.312C114.463 370.33 115.315 370.259 116.143 370.339C116.551 370.378 116.92 370.446 117.248 370.701C117.621 370.991 117.928 371.378 118.054 371.838C118.309 372.771 117.642 373.564 117.101 374.269C116.346 375.252 115.599 376.217 114.688 377.062C113.847 377.843 112.791 378.762 111.568 378.772C110.92 378.777 110.676 378.01 110.619 377.496C110.529 376.689 110.62 375.964 111.281 375.433C112.165 374.723 113.536 374.645 114.598 374.936C115.187 375.097 116.118 375.664 115.986 376.404C115.838 377.23 114.637 377.794 113.936 378.029C113.722 378.101 113.29 378.269 113.099 378.051C112.765 377.672 112.874 376.933 112.947 376.498C113.076 375.718 113.369 374.241 114.307 373.991C114.987 373.811 115.546 374.263 115.937 374.766C116.232 375.146 116.572 375.907 116.371 376.395C116.294 376.582 115.822 377.481 115.507 377.326C115.302 377.225 115.319 376.806 115.315 376.632C115.303 376.195 115.346 375.765 115.57 375.379C115.946 374.732 116.496 374.433 117.235 374.627C117.828 374.783 118.233 375.344 118.341 375.93C118.377 376.129 118.367 376.742 118.367 376.538C118.367 376.208 118.357 375.83 118.529 375.536C118.701 375.24 118.95 375.371 119.075 375.621C119.199 375.87 119.317 376.292 119.048 376.485C118.554 376.84 117.948 376.644 117.512 376.301C117.298 376.133 116.788 375.567 117.333 375.446C117.957 375.308 118.736 375.499 119.146 376.01C119.35 376.264 119.492 376.676 119.097 376.816C118.322 377.091 117.466 377.06 116.675 376.928" stroke="#EEB297" stroke-width="11.2754" stroke-linecap="round"/>
<path d="M43.165 319.156C43.165 318.937 43.3696 319.544 43.4831 319.731C44.0417 320.654 44.4308 321.68 44.6776 322.729C44.9016 323.681 45.0516 324.547 44.1531 325.125C43.7553 325.381 43.0927 324.989 42.7725 324.759C42.0579 324.246 41.7362 323.208 41.3986 322.438C41.1555 321.883 40.9102 321.325 40.7185 320.75C40.6809 320.637 40.5641 320.368 40.6136 320.232C40.7388 319.888 43.3594 320.742 43.6523 321.085C43.8714 321.341 43.8959 321.653 43.8959 321.975C43.8959 322.296 43.601 322.387 43.3545 322.563C43.0624 322.772 41.8413 323.484 42.0957 322.533C42.1966 322.156 42.623 321.84 42.9958 321.788C43.617 321.702 43.7534 322.287 44.0177 322.749" stroke="#EEB297" stroke-width="11.2754" stroke-linecap="round"/>
<path d="M74.162 266.334C74.162 266.88 77.143 259.981 77.143 258.398C77.0857 259.195 74.9164 263.665 74.9164 263.665C74.1295 265.086 72.5964 264.915 71.8062 266.334C71.0104 267.763 70.2711 269.136 69.2787 270.452C68.8336 271.042 68.4633 271.753 68.145 272.41C67.5842 273.566 67.4891 274.833 67.0061 276.01C66.7851 276.549 66.3987 277.002 66.1376 277.522C65.8562 278.082 65.8904 278.409 65.3472 278.789C64.541 279.354 63.6167 279.823 62.8717 280.463C62.2122 281.03 62.0244 281.797 61.6288 282.522C60.8768 283.902 59.8008 285.078 59.0338 286.447C58.1407 288.042 57.6945 289.834 57.3696 291.61C57.2539 292.243 56.9332 292.714 56.6208 293.274C55.9549 294.467 55.6204 295.736 55.3258 297.057C55.1081 298.034 55.0294 298.985 55.0294 299.978C55.0294 300.304 55.0604 300.647 55.0294 300.972C55.0091 301.186 54.1786 301.315 53.9841 301.413C53.1927 301.816 52.0906 302.478 51.7531 303.356C51.5716 303.828 51.369 304.272 51.1083 304.71C51.0224 304.854 50.827 305.057 50.817 305.232C50.7855 305.785 50.4601 306.182 50.557 306.784C50.7033 307.693 51.0201 308.179 51.4515 308.975C51.8329 309.679 52.3392 310.288 52.71 310.983C52.8976 311.335 53.0841 311.667 53.2509 312.033C53.3446 312.239 53.8518 312.338 54.0413 312.49C54.6419 312.969 55.0791 313.621 55.4507 314.265C55.7186 314.729 55.2889 315.236 55.5443 315.685C55.6131 315.806 55.6235 316.168 55.7783 316.187C55.863 316.197 56.1262 316.371 56.2047 316.42C56.6724 316.71 57.0704 316.948 57.6505 316.917C57.9776 316.899 58.4547 316.419 58.7166 316.243C58.9823 316.063 59.0921 315.801 59.3042 315.558C59.4802 315.356 60.1779 314.877 60.1779 314.589C60.1779 314.343 60.4165 313.977 60.5523 313.773C60.877 313.284 61.1303 312.437 61.5612 312.059C61.8381 311.816 62.4986 311.21 62.6065 310.841C62.74 310.386 62.8262 310.319 63.2202 310.02C63.4316 309.859 63.6921 309.874 63.4334 309.705C62.7769 309.279 62.1969 308.54 61.9097 307.829C60.9697 305.502 61.5362 302.954 61.8108 300.582C61.8593 300.163 61.8436 299.748 61.8733 299.329C61.9591 298.116 62.3272 296.949 62.6429 295.779C62.9338 294.701 63.0671 293.748 63.1942 292.645C63.2613 292.062 63.6414 291.514 63.6414 290.946C63.6414 290.455 63.8271 289.904 63.9222 289.419C64.0688 288.673 64.274 287.948 64.4735 287.218C64.5219 287.041 64.4839 286.808 64.4839 286.63C64.4839 286.137 64.5864 285.718 64.6503 285.24C64.7115 284.783 64.6679 284.273 64.7699 283.825C64.7786 283.788 64.8629 283.625 64.8531 283.658C64.7054 284.162 64.4403 284.651 64.2447 285.139C63.5835 286.788 63.5074 288.592 63.0746 290.302C62.8809 291.067 62.4903 291.75 62.2581 292.503C61.9617 293.464 61.8901 294.501 61.868 295.5C61.8453 296.532 61.8628 297.566 61.8628 298.599C61.8628 300.149 62.1095 301.482 62.7053 302.935C63.1748 304.079 63.9822 305.119 64.2551 306.338C64.3284 306.665 64.4638 307.113 64.3851 307.459C64.306 307.806 63.6165 308.329 63.3034 308.143C61.2018 306.896 59.5054 304.932 59.1482 302.494" stroke="#FBF9BC" stroke-width="11.2754" stroke-linecap="round"/>
<path d="M114.158 169.161V169.518" stroke="#7FDBE0" stroke-width="14.0942" stroke-linecap="round"/>
<path d="M64.5118 116.982C60.3235 116.982 55.8567 119.395 53.1055 122.74C52.4381 123.551 47.3491 132.962 47.5841 133.15C48.0791 133.546 55.6739 128.003 55.8481 127.896C64.1672 122.822 72.7048 118.163 81.1125 113.26C81.9446 112.775 82.9122 112.062 83.8188 111.69C84.6588 111.345 82.535 113.044 81.8209 113.628C75.8844 118.489 70.3711 123.93 65.2746 129.777C62.0187 133.512 58.5347 137.452 56.3385 142.029C56.2187 142.278 54.6803 145.408 55.3577 144.937C60.5799 141.301 65.1755 136.569 70.2149 132.646C73.3991 130.167 76.6877 127.769 79.9683 125.434C84.9455 121.893 71.248 134.18 67.0182 138.694C66.1194 139.654 65.1608 140.535 64.2212 141.447C63.8587 141.799 62.7868 142.649 63.2767 142.649C64.2252 142.649 66.553 140.473 67.3452 139.974C73.85 135.876 79.6982 130.069 86.8883 127.722C87.8998 127.392 88.9458 127.057 89.9396 126.675C90.6942 126.385 87.1336 126.404 86.9246 126.404C81.1769 126.404 75.1485 126.983 69.452 126.093C68.3438 125.92 61.9625 124.529 62.2051 122.371C62.4532 120.165 69.4314 119.101 70.8324 118.727C77.7532 116.88 84.8456 115.139 91.9012 113.997C94.0161 113.654 96.1399 113.493 98.2764 113.493C100.969 113.493 92.9139 114.029 90.2302 114.268C88.5957 114.413 67.5099 116.97 67.4541 114.888C67.4007 112.893 70.399 111.7 71.6679 111.031C76.5024 108.479 81.8199 107.145 87.0699 105.971C87.6987 105.83 98.7692 103.9 98.567 105.195C98.4519 105.932 97.4964 106.533 96.9868 106.863C93.8539 108.89 90.2848 110.372 86.8883 111.787C80.5253 114.437 73.9277 116.403 67.3452 118.32C67.1764 118.369 63.5257 119.499 63.5855 119.211C63.8928 117.735 67.5301 115.925 68.5802 115.237C77.5634 109.357 87.2926 106.827 97.677 105.971C100.936 105.702 104.478 105.587 107.63 106.669C111.398 107.961 114.643 111.82 117.22 114.85C118.412 116.251 121.021 118.643 121.652 120.471C121.719 120.666 110.214 119.28 109.991 119.25C100.39 117.969 71.4329 115.765 81.0944 116.323C87.4342 116.689 93.8521 117.987 99.9655 119.774C103.636 120.846 107.967 121.609 111.335 123.593C111.563 123.727 112.811 124.331 112.062 124.484C106.74 125.577 100.739 125.125 95.3521 125.279C90.6497 125.414 85.9441 125.706 81.2397 125.706C79.0648 125.706 82.1574 125.752 82.6019 125.783C91.9478 126.431 102.001 126.911 110.918 130.242C113.042 131.035 112.065 130.94 110.391 130.94C104.319 130.94 98.2461 130.94 92.1737 130.94C89.5659 130.94 86.8971 131.094 84.291 130.921C83.0233 130.836 84.0665 130.591 84.6724 130.591C91.0769 130.591 97.4769 130.94 103.889 130.94C108.566 130.94 112.595 131.817 116.893 133.887C117.658 134.255 122.418 137.527 122.705 137.221" stroke="#7FDBE0" stroke-width="14.0942" stroke-linecap="round"/>
<path d="M115.496 135.728C119.545 135.728 122.242 137.105 125.394 139.938C127.706 142.016 129.259 144.614 131.31 146.888C133.679 149.514 135.173 153.066 137.524 155.665C138.469 156.709 138.286 155.128 138.194 154.434C136.997 145.386 130.715 137.775 125.431 131.101C121.685 126.37 117.933 121.635 114.324 116.784C112.951 114.938 111.027 112.783 110.268 110.489C109.997 109.669 111.973 110.532 112.668 110.985C116.614 113.557 120.474 116.313 124.296 119.087C132.838 125.287 141.009 131.915 147.571 140.514C148.782 142.1 150.669 144.221 151.329 146.233C151.391 146.421 150.942 146.189 150.79 146.074C148.954 144.682 147.213 143.125 145.413 141.685C136.545 134.594 127.179 128.254 118.324 121.152C117.878 120.795 112.245 116.785 114.454 116.506C121.988 115.553 130.466 120.039 136.743 123.932C140.192 126.072 143.452 128.664 146.566 131.32C147.864 132.426 149.509 133.737 150.399 135.291C150.772 135.944 149.008 134.863 148.39 134.477C144.917 132.307 141.571 129.938 138.194 127.606C129.71 121.747 120.454 116.732 112.612 109.873C112.342 109.637 107.761 105.673 109.245 105.385C112.981 104.66 117.941 107.931 121.338 109.218C122.51 109.662 123.731 110.151 124.817 110.806C125.896 111.457 122.343 110.559 121.133 110.27C114.324 108.642 107.032 107.475 100.445 105.008C94.9122 102.936 103.076 101.357 104.891 101.056C110.718 100.091 115.743 101.375 121.338 102.923C127.279 104.567 132.293 108.787 137.115 112.673C141.945 116.566 145.838 121.825 149.283 127.11C150.727 129.326 152.2 131.367 153.004 133.941" stroke="#7FDBE0" stroke-width="14.0942" stroke-linecap="round"/>
<path d="M148.654 121.789C150.597 121.789 151.095 122.739 152.002 124.648C154.128 129.122 156.13 133.647 157.956 138.271C158.297 139.134 159.433 141.666 158.998 140.852C157.96 138.913 156.195 137.19 154.83 135.53C149.228 128.717 140.277 123.831 136.3 115.672C135.464 113.957 133.268 108.411 136.895 110.033C141.114 111.92 145.127 115.033 148.542 118.214C153.127 122.486 155.711 128.008 158.217 133.823C160.656 139.483 162.985 145.258 164.989 151.099C165.509 152.616 165.406 154.021 165.807 155.468C166.255 157.081 167.162 159.837 167.072 161.465C167.022 162.379 159.543 156.496 158.924 155.904C157.325 154.379 156.034 152.541 154.7 150.761C154.37 150.321 153.805 148.924 153.677 149.471C153.158 151.685 155.253 156.24 156.17 158.248C156.534 159.044 156.924 159.629 155.686 159.022C152.206 157.315 148.83 155.112 145.528 153.045C144.163 152.19 142.099 150.038 140.505 149.729C140.201 149.67 141.748 153.463 141.881 153.8C142.605 155.626 143.42 157.244 144.43 158.903C144.756 159.437 144.97 159.754 144.97 160.392C144.97 161.62 144.609 161.465 143.556 161.465C141.962 161.465 140.968 162.486 139.612 163.252C137.38 164.513 135.439 165.755 132.914 166.389C130.247 167.059 127.912 167.899 125.137 167.899C122.552 167.899 119.841 167.541 117.435 167.541C116.566 167.541 115.698 167.541 114.83 167.541C114.407 167.541 114.097 167.541 114.755 167.541C116.745 167.541 118.689 167.412 120.672 167.263C129.583 166.594 138.668 166.184 147.5 164.761C151.091 164.182 155.066 164.682 158.7 164.682C161.142 164.682 165.288 165.414 167.767 165.414" stroke="#7FDBE0" stroke-width="14.0942" stroke-linecap="round"/>
<path d="M86.0295 166.468C83.7969 166.468 81.5643 166.468 79.3317 166.468C76.1915 166.468 73.4399 165.854 70.3641 165.316C67.3804 164.794 64.5241 163.242 61.657 162.258C60.8478 161.98 57.5009 161.496 57.2477 160.55C56.2876 156.964 58.3683 152.887 60.2059 150.085C60.5466 149.566 60.7581 148.96 61.1733 148.516C61.968 147.668 59.7619 150.403 58.9035 151.177C57.2196 152.696 55.4048 154 53.6011 155.347C52.5446 156.137 51.8767 157.304 50.8662 158.167C49.2878 159.515 48.0206 158.798 47.8708 156.4C47.6734 153.239 47.9766 150.746 49.3778 147.96C50.2528 146.221 51.1357 144.483 52.0011 142.738C53.3266 140.065 44.9021 138.343 43.5359 136.641C43.3212 136.374 42.494 135.058 42.494 135.37C42.494 136.637 42.5645 137.849 42.0847 139.044C40.4725 143.059 37.0777 146.661 36.0567 150.899C35.6611 152.541 35.3729 154.046 35.4614 155.745C35.5553 157.55 38.652 157.911 39.7963 158.445C41.1279 159.067 49.1573 163.682 49.8615 162.179" stroke="#7FDBE0" stroke-width="14.0942" stroke-linecap="round"/>
<path d="M65.6331 146.027C65.6331 146.338 65.7434 145.907 65.7977 145.808C66.2436 144.996 66.8651 144.332 67.4716 143.64C69.047 141.842 70.2737 140.44 72.3009 139.113C76.7035 136.231 82.0156 134.314 87.2282 133.68C89.6347 133.387 92.0357 133.54 94.4448 133.378C97.8255 133.151 101.238 133.073 104.625 133.241C107.741 133.395 110.151 134.662 112.857 136.094C114.771 137.108 116.781 137.906 118.592 139.113C121.093 140.78 123.833 142.016 126.343 143.668C126.894 144.03 128.432 145.279 127.921 144.861C125.261 142.685 121.995 140.763 118.866 139.36C115.978 138.064 112.86 137.431 109.811 136.643C107.419 136.025 105.101 135.143 102.704 134.53C98.4515 133.443 93.6199 133.443 89.245 133.693C85.864 133.887 82.3863 135.797 79.5588 137.521C76.7186 139.253 73.9458 140.935 71.1896 142.817C68.6419 144.557 66.3608 146.288 64.1651 148.483C63.486 149.162 62.8376 149.965 62.0796 150.555C61.0309 151.371 63.6473 148.389 64.6178 147.482C70.4627 142.017 76.682 136.977 84.5391 134.722C92.2146 132.52 100.239 131.956 108.11 133.323C115.161 134.548 123.359 135.481 129.184 140.087C130.935 141.471 133.753 143.742 134.534 145.89C134.847 146.75 135.525 147.511 136.263 148.003" stroke="#7FDBE0" stroke-width="9.86597" stroke-linecap="round"/>
<path d="M139.474 168.993C139.56 169.685 150.042 169.24 151.204 169.24C154.153 169.24 157.339 169.172 159.724 167.265" stroke="#7FDBE0" stroke-width="9.86597" stroke-linecap="round"/>
<path d="M168.628 175.095C172.663 175.095 172.663 168.775 168.628 168.775C164.467 168.775 164.467 175.095 168.628 175.095Z" fill="#F879C6"/>
<path d="M98.4888 99.3575C99.2453 97.8409 100.38 96.4506 101.767 95.4394C105.928 92.4061 110.089 96.0714 112.989 99.2311C115.763 102.265 120.176 97.7145 117.402 94.8075C112.989 90.0047 106.811 85.9602 100.254 89.1199C97.2279 90.5102 94.58 93.2908 93.0669 96.3242C91.0494 99.8631 96.5974 103.023 98.4888 99.3575Z" fill="#F879C6"/>
<path d="M127.493 157.876C129.511 156.865 126.863 157.623 125.224 157.497C122.702 157.497 120.306 157.37 117.784 157.37C110.597 157.118 103.284 156.865 96.0964 156.486C86.0092 156.106 76.048 155.601 65.9607 155.095C66.9694 156.486 67.9781 157.749 68.9868 159.14C71.6348 151.683 80.5872 146.248 88.7832 145.11C97.7356 143.973 107.697 145.742 115.767 149.661C117.658 150.545 127.871 156.106 126.484 158.887C124.593 162.426 130.015 165.712 131.906 162.047C134.68 156.738 129.889 151.556 125.98 148.523C117.28 141.698 105.427 138.791 94.5833 138.538C81.722 138.159 67.4738 144.479 62.9345 157.497C62.1779 159.519 64.0693 161.415 65.9607 161.541C76.8045 162.047 87.7744 162.552 98.6183 163.058C105.805 163.311 112.993 163.69 120.18 163.816C123.08 163.943 127.998 164.827 130.645 163.437C134.302 161.415 131.15 155.98 127.493 157.876Z" fill="#F879C6"/>
<path d="M93.948 174.435C94.2002 170.39 94.3263 166.346 94.7046 162.301C94.7046 161.922 94.8307 161.416 94.8307 161.037C94.9568 160.405 94.9568 161.543 94.8307 160.911L94.9568 160.532C95.0829 160.279 94.9568 160.405 94.7046 161.164C90.2914 159.521 88.5261 159.521 89.2827 161.164C91.174 164.703 96.5959 161.543 94.7046 158.004C93.0654 154.844 89.2827 156.74 88.7783 159.394C87.7696 164.197 87.8957 169.632 87.6435 174.561C87.5174 178.605 93.8219 178.605 93.948 174.435Z" fill="#F879C6"/>
<path d="M110.34 175.192C110.592 170.137 110.971 165.081 111.223 160.152C111.475 156.107 105.171 156.107 104.918 160.152C104.666 165.207 104.288 170.263 104.036 175.192C103.784 179.363 110.088 179.363 110.34 175.192Z" fill="#F879C6"/>
<path d="M177.169 166.217C185.995 159.771 196.209 153.705 206.8 150.798C209.826 149.913 213.105 149.281 216.383 149.534C216.888 149.534 219.662 149.787 219.914 150.419C219.788 150.039 219.662 149.66 219.662 150.545C219.535 153.831 212.853 158.255 210.709 159.898C202.513 166.596 193.308 172.41 183.978 177.34C181.708 178.604 180.825 178.73 178.051 179.615C176.917 179.994 169.729 180.626 169.225 181.384C169.351 181.131 170.612 183.154 170.234 183.28C170.486 183.154 170.738 182.269 170.99 182.142C171.495 181.89 171.999 181.005 172.377 180.626C175.404 177.845 170.864 173.422 167.964 176.202C164.181 179.741 161.407 186.819 168.847 187.704C178.682 188.841 189.147 182.016 197.217 176.96C206.296 171.273 218.022 164.701 224.075 155.474C230.758 145.363 218.527 142.33 210.583 143.467C197.469 145.363 184.608 152.946 174.143 160.656C170.738 163.058 173.89 168.619 177.169 166.217Z" fill="#F879C6"/>
<path d="M43.3846 183.66C35.3147 183.66 26.2361 188.337 29.1362 197.816C32.1624 207.548 43.5106 208.812 51.9587 206.031C55.7415 204.768 54.1023 198.701 50.3196 199.965C45.6542 201.481 38.0887 202.24 35.5669 196.931C32.919 191.497 39.2236 189.98 43.3846 189.98C47.4195 189.98 47.4195 183.66 43.3846 183.66Z" fill="#F879C6"/>
<path d="M89.4337 234.372C89.5597 236.015 89.5598 237.658 89.6858 239.301C89.6858 240.186 83.8961 243.598 84.6526 244.23C86.8542 244.483 90.0774 238.247 86.9993 240.72C86.1167 241.478 83.3918 244.736 82.6352 245.621C76.7089 252.825 68.9631 259.352 63.289 266.809C56.4801 275.783 51.6168 285.686 46.0688 295.418C42.6643 301.232 38.6294 307.805 41.7817 314.377C44.4296 319.812 48.5906 329.544 56.03 329.038C60.8214 328.785 69.5217 322.845 70.4044 317.916C71.1609 313.998 67.1841 308.305 66.4275 312.349C64.1579 323.724 58.804 342.815 62.965 354.063C65.4868 360.762 72.9262 362.911 79.3568 363.922C85.6614 364.933 93.7312 365.944 99.9097 363.922C103.819 362.658 102.179 356.591 98.2705 357.855C93.2269 359.498 86.1657 358.613 80.996 357.855C74.5654 356.844 69.0174 355.327 68.0086 348.376C66.6216 338.517 68.3869 327.774 70.2783 318.042C68.2608 317.537 68.3189 312.981 66.3014 312.476C66.0492 313.866 60.9475 319.938 59.9388 320.57C56.9126 322.719 54.643 323.098 51.995 320.064C49.9776 317.789 46.8253 312.987 46.447 310.08C46.1949 307.552 48.4645 303.886 49.5993 301.738C55.0212 291.374 60.3889 280.965 67.3239 271.612C73.2502 263.776 81.3743 256.869 87.6789 249.286C88.9398 247.769 90.4529 246.379 90.8311 244.483C96.8731 242.967 95.7382 238.164 95.6121 234.372C95.6121 230.328 89.3076 230.328 89.4337 234.372Z" fill="#F879C6"/>
<path d="M107.945 231.055C107.567 235.1 107.315 239.144 106.936 243.189C106.558 247.233 112.863 247.233 113.241 243.189C113.619 239.144 113.871 235.1 114.25 231.055C114.502 226.884 108.197 227.011 107.945 231.055Z" fill="#F879C6"/>
<path d="M45.1927 312.735C42.2926 313.114 39.3925 313.999 36.9968 315.894C32.8358 319.307 33.088 324.742 35.3576 329.165C38.0056 334.221 43.1753 338.013 48.7233 334.727C51.6234 332.957 54.0191 329.797 55.5322 326.764C57.4236 323.099 51.8756 319.939 50.1103 323.604C49.2276 325.247 48.2189 326.89 46.958 328.154C46.3276 328.786 45.1928 329.924 44.184 329.797C42.5448 329.671 41.41 327.27 40.7795 326.006C39.6447 323.604 39.5186 321.582 41.7883 320.192C42.6709 319.686 43.1753 319.56 44.3101 319.181C44.8145 319.054 46.7058 318.801 45.1927 318.928C49.2277 318.549 49.2277 312.229 45.1927 312.735Z" fill="#F879C6"/>
<path d="M123.994 319.307C125.254 323.604 126.263 328.154 127.146 332.577C128.281 338.771 130.803 348.755 127.902 354.822C125.128 360.636 109.241 364.049 103.819 361.015C98.9014 358.235 100.541 344.585 100.793 339.403C100.919 335.358 94.6144 335.358 94.4883 339.403C94.2361 346.48 92.5969 360.383 98.9015 365.439C106.467 371.506 122.859 367.461 129.92 362.279C136.729 357.35 135.594 346.733 134.711 339.403C133.829 332.072 132.316 324.741 130.298 317.663C128.911 313.745 122.859 315.388 123.994 319.307Z" fill="#F879C6"/>
<path d="M119.828 362.027C119.702 369.231 119.576 376.435 119.45 383.513C119.45 385.156 120.963 386.799 122.602 386.673C126.889 386.546 141.138 386.42 139.372 393.624C137.985 399.564 128.024 398.553 123.359 398.553C119.576 398.553 115.541 398.553 111.758 397.921C110.75 397.795 109.363 397.668 108.606 397.163C109.867 397.921 108.606 398.048 108.858 396.531C109.111 395.141 108.732 393.498 108.732 391.981C108.732 383.007 109.489 373.907 110.371 364.933C110.75 360.889 104.445 360.889 104.067 364.933C103.563 370.621 103.184 376.309 102.806 382.123C102.554 387.052 100.41 397.542 104.067 401.713C106.337 404.241 111.002 404.241 114.028 404.494C119.828 405.126 125.755 405.125 131.555 404.367C138.994 403.482 146.055 400.702 146.055 391.981C145.929 381.364 130.168 380.1 122.602 380.353C123.611 381.364 124.746 382.502 125.755 383.513C125.881 376.309 126.007 369.104 126.133 362.027C126.133 357.982 119.828 357.982 119.828 362.027Z" fill="#F879C6"/>
<path d="M72.4182 360.889C72.166 364.428 72.0399 368.093 71.9138 371.758C71.7877 375.55 71.1572 380.227 72.166 384.018C73.3008 387.936 79.3532 386.293 78.2184 382.375C77.4618 379.595 78.0923 374.286 78.2184 370.874C78.3445 367.588 78.4705 364.301 78.5966 361.015C78.9749 356.844 72.6703 356.844 72.4182 360.889Z" fill="#F879C6"/>
<path d="M84.5251 362.911C86.1643 373.022 89.0644 386.293 86.5426 396.404C85.786 399.438 84.7773 399.69 81.8772 399.943C79.7337 400.196 77.464 400.322 75.3205 400.449C70.7812 400.701 65.4854 401.333 60.9461 400.07C57.2894 399.058 58.1721 395.519 59.8113 392.613C62.7114 387.683 70.1507 386.546 75.3205 386.167C79.6076 385.914 84.5251 386.293 86.1643 390.843C86.6687 391.981 86.6687 393.244 86.6687 394.508C86.6687 394.888 86.4165 396.531 86.6687 395.646C86.0382 399.564 92.0906 401.333 92.7211 397.289C93.7298 391.096 91.5862 384.524 85.9121 381.49C77.2118 376.94 60.5678 380.1 54.8937 388.568C49.8501 396.025 51.4892 404.746 60.82 406.389C66.4941 407.4 72.2943 406.895 77.9684 406.389C82.0033 406.01 87.6774 406.768 90.4514 403.229C94.9907 397.415 93.3515 386.293 92.8471 379.594C92.3428 373.401 91.5862 367.208 90.5775 361.015C89.947 357.223 83.8947 358.866 84.5251 362.911Z" fill="#F879C6"/>
<path d="M121.595 379.597C114.786 380.735 102.555 383.515 102.177 392.11C101.924 396.66 108.985 396.66 109.238 392.11C109.364 390.088 114.912 388.571 116.551 388.065C118.821 387.307 121.09 386.802 123.486 386.422C127.899 385.664 126.008 378.839 121.595 379.597Z" fill="#F879C6"/>
<path d="M86.291 241.577C82.0039 249.16 78.2211 257.249 74.8167 265.338C69.6469 277.725 63.9728 291.88 64.7294 305.53C66.3686 332.578 102.178 327.143 120.336 323.351C122.857 322.846 126.262 322.593 128.532 321.203C133.701 318.169 135.593 309.701 136.601 304.519C137.358 300.601 131.306 298.832 130.549 302.876C129.792 306.542 129.036 310.46 127.018 313.619C126.388 314.504 124.244 316.4 126.136 315.515C124.244 316.4 121.596 316.653 119.579 317.158C109.744 319.307 99.5305 320.824 89.4432 320.065C78.095 319.181 70.7818 314.251 71.16 302.244C71.5383 290.237 76.3297 277.977 80.9951 267.108C84.1474 259.651 87.678 252.194 91.7129 244.99C93.7303 241.198 88.3084 238.038 86.291 241.577Z" fill="#F879C6"/>
<path d="M90.1981 247.517C93.3504 247.264 96.3766 247.264 99.5289 247.264C102.051 247.264 110.625 246.885 111.886 248.654C114.282 251.941 119.703 248.781 117.308 245.495C114.282 241.45 108.103 241.324 103.564 241.071C99.1506 240.818 94.7374 240.945 90.3242 241.197C86.1632 241.45 86.1632 247.77 90.1981 247.517Z" fill="#F879C6"/>
<path d="M126.638 239.681C100.033 237.28 111.633 284.17 119.073 296.809C125.629 308.058 139.373 310.08 148.2 299.716C156.144 290.49 156.017 277.472 153.117 266.349C149.587 253.205 141.391 240.692 126.638 239.681C122.603 239.428 122.603 245.748 126.638 246.001C139.499 246.885 145.426 260.03 147.695 271.152C149.839 281.516 147.948 300.854 133.321 300.348C120.712 299.843 117.812 275.45 117.055 266.476C116.299 258.134 115.164 244.99 126.638 246.001C130.673 246.38 130.673 240.06 126.638 239.681Z" fill="#F879C6"/>
<path d="M117.941 242.716C117.941 242.463 117.814 242.21 117.814 241.957C119.832 241.452 121.723 240.946 123.741 240.314C124.497 241.705 123.615 239.556 123.489 238.924C123.236 237.66 122.984 236.396 123.11 235.259C123.362 232.731 124.497 233.236 126.767 232.984C127.271 232.857 125.884 232.984 126.893 232.984C127.271 232.984 127.65 232.984 128.028 232.984C127.271 232.857 128.532 232.984 128.028 232.984C128.28 232.984 128.532 233.11 128.658 233.11C128.406 232.984 129.163 233.363 129.289 233.489C131.306 235.385 130.676 240.441 130.171 243.474C129.415 247.392 135.467 249.162 136.224 245.117C137.233 239.935 137.989 232.984 133.702 228.939C131.306 226.664 128.406 226.664 125.254 226.791C124.371 226.917 122.48 226.917 120.967 227.675C118.823 228.813 117.562 230.835 117.058 233.11C116.427 236.143 116.68 240.82 118.319 243.6C120.084 246.507 123.867 244.864 124.245 241.957C124.245 241.705 124.119 241.199 124.119 241.073C123.11 237.028 117.058 238.671 117.941 242.716Z" fill="#F879C6"/>
<path d="M77.5946 267.991C89.5732 269.761 102.687 271.53 114.665 268.876C118.574 267.991 116.935 261.925 113.026 262.809C102.308 265.084 90.0776 263.441 79.3599 261.924C75.3249 261.293 73.5597 267.359 77.5946 267.991Z" fill="#F879C6"/>
<path d="M69.7344 289.983C85.3374 292.89 102.798 294.912 118.401 290.994C122.24 289.983 120.63 283.916 116.791 284.928C102.303 288.466 85.9565 286.571 71.468 283.916C67.5053 283.158 65.7717 289.225 69.7344 289.983Z" fill="#F879C6"/>
<ellipse cx="100.991" cy="196.37" rx="14.9607" ry="7.26576" fill="#FFA074"/>
<ellipse cx="71.8064" cy="208.452" rx="14.9607" ry="7.26576" fill="#FFA074"/>
<ellipse cx="132.872" cy="209.527" rx="14.9607" ry="7.26576" fill="#FFA074"/>
<path d="M82.2287 201.604C88.2811 201.604 88.2811 192.125 82.2287 192.125C76.1764 192.125 76.1764 201.604 82.2287 201.604Z" fill="#C84896"/>
<path d="M120.055 203.248C126.107 203.248 126.107 193.769 120.055 193.769C114.003 193.769 114.003 203.248 120.055 203.248Z" fill="#C84896"/>
<path d="M104.921 213.36C104.921 215.256 104.291 218.542 101.769 218.795C99.3733 219.048 98.1124 215.888 97.9863 213.866C97.8602 211.97 98.7429 208.684 101.139 208.431C103.534 208.178 104.669 211.338 104.921 213.36C105.3 217.152 111.226 217.152 110.848 213.36C110.343 208.052 107.065 202.364 101.139 202.491C95.3384 202.617 91.9339 208.557 92.06 213.866C92.1861 219.048 95.8428 224.609 101.391 224.735C107.443 224.862 110.848 218.795 110.848 213.36C110.848 209.442 104.921 209.442 104.921 213.36Z" fill="#C84896"/>
<path d="M69.033 206.031C68.8888 206.68 67.7997 207.187 67.3992 207.688C66.8641 208.357 66.6233 208.987 65.9482 209.527" stroke="#FF7D7D" stroke-width="3.80545" stroke-linecap="round"/>
<path d="M130.099 207.107C129.955 207.756 128.866 208.264 128.466 208.764C127.931 209.433 127.69 210.063 127.015 210.603" stroke="#FF7D7D" stroke-width="3.80545" stroke-linecap="round"/>
<path d="M77.6684 206.854C77.561 207.337 76.752 207.952 76.4344 208.34C75.7613 209.162 75.1299 210.01 74.3779 210.762" stroke="#FF7D7D" stroke-width="3.80545" stroke-linecap="round"/>
<path d="M138.732 207.929C138.625 208.412 137.815 209.026 137.498 209.414C136.825 210.237 136.193 211.084 135.441 211.836" stroke="#FF7D7D" stroke-width="3.80545" stroke-linecap="round"/>
<path d="M69.3613 205.959C69.4625 206.566 70.1274 207.014 70.4934 207.464C71.1247 208.241 71.6782 208.955 72.4807 209.56C72.9691 209.928 73.372 210.512 73.8055 210.945" stroke="#FF7D7D" stroke-width="3.80545" stroke-linecap="round"/>
<path d="M130.429 207.033C130.53 207.64 131.195 208.088 131.561 208.538C132.192 209.314 132.746 210.028 133.548 210.634C134.036 211.002 134.439 211.585 134.873 212.019" stroke="#FF7D7D" stroke-width="3.80545" stroke-linecap="round"/>
<path d="M29.8992 172.789C42.8864 187.829 63.6913 190.736 79.7047 178.982C78.3177 178.603 76.8047 178.224 75.4177 177.844C88.4049 195.286 112.866 192.127 129.889 183.406C128.628 183.279 127.367 183.026 126.106 182.9C131.276 187.45 137.958 190.736 144.767 191.874C158.763 194.149 169.229 185.175 175.911 173.674C177.929 170.135 172.507 166.975 170.49 170.514C164.563 180.625 155.485 188.461 143.254 185.175C138.715 183.911 134.049 181.636 130.519 178.476C129.384 177.465 127.997 177.339 126.736 177.971C115.893 183.532 103.031 186.945 91.305 182.015C88.405 180.751 85.757 179.108 83.3613 177.086C82.7309 176.581 80.3352 173.926 80.8395 174.685C79.9569 173.421 78.0656 172.41 76.5525 173.547C62.6826 183.785 45.6604 181.383 34.4384 168.365C31.6644 165.332 27.2513 169.756 29.8992 172.789Z" fill="#F879C6"/>
<path d="M47.9343 183.915C40.3689 179.239 44.9082 193.394 45.6647 195.164C49.3213 203.885 54.6171 211.974 61.5521 218.546C80.3395 236.367 111.61 239.779 134.81 228.404C149.689 221.2 158.011 206.539 159.524 190.361C159.902 186.316 153.598 186.316 153.219 190.361C150.572 216.903 129.136 227.646 104.927 228.278C83.4917 228.783 64.9565 217.914 54.6171 199.208C53.104 196.428 51.717 193.521 50.5822 190.361C50.33 189.476 50.0779 188.339 49.6996 187.454C49.5735 187.201 49.6996 186.696 49.4474 186.443C49.1952 186.19 49.5735 186.948 49.4474 186.822V186.696C49.4474 184.926 47.9343 185.684 44.7821 189.223C48.1865 191.625 51.3387 186.064 47.9343 183.915Z" fill="#F879C6"/>
<path d="M159.391 189.596C163.048 189.47 171.117 189.722 171.622 194.525C172.63 202.867 159.643 203.499 154.347 201.856C150.438 200.718 148.799 206.785 152.708 207.923C162.417 210.83 177.548 207.417 177.926 195.157C178.178 185.552 166.956 183.024 159.391 183.276C155.356 183.403 155.356 189.722 159.391 189.596Z" fill="#F879C6"/>
<ellipse cx="107.238" cy="111.122" rx="36.9081" ry="10.2951" transform="rotate(3.31262 107.238 111.122)" fill="#28D0D9"/>
<path d="M85.8105 111.23C88.2189 110.909 90.3577 109.141 92.464 108.088" stroke="#7FDBE0" stroke-width="4.69807" stroke-linecap="round"/>
<path d="M101.333 113.078C104.038 112.016 106.257 109.965 108.911 108.828" stroke="#7FDBE0" stroke-width="4.69807" stroke-linecap="round"/>
<path d="M118.34 114.373C119.708 113.149 121.728 112.308 123.299 111.344C123.974 110.93 124.612 110.372 125.363 110.122" stroke="#7FDBE0" stroke-width="4.69807" stroke-linecap="round"/>
<path d="M172.634 169.502C134.302 175.063 94.8362 173.42 56.757 167.101C51.0829 166.216 45.535 165.205 39.987 164.067C38.2218 163.688 36.3304 163.436 34.5652 162.93C32.5477 162.172 32.5477 162.677 32.5477 160.655C32.4216 154.462 36.3304 146.12 38.9783 140.685C50.4525 116.798 73.1487 103.274 99.2493 100.999C123.837 98.9767 145.903 108.709 159.016 129.816C164.186 138.158 167.716 147.258 169.86 156.863C170.616 160.149 171.121 163.436 171.247 166.722C171.247 167.733 170.995 169.123 171.247 170.134C171.499 171.145 170.49 170.64 172.003 169.881C168.347 171.651 171.625 177.212 175.156 175.316C179.064 173.294 177.551 165.458 177.173 162.298C176.038 153.324 173.39 144.73 169.608 136.514C159.394 113.764 139.598 97.3336 114.38 94.8058C85.1273 91.8988 54.7395 103.779 38.4739 128.805C33.3042 136.767 29.5215 145.867 27.2519 155.22C26.4954 158.127 25.2345 162.298 26.6215 165.205C28.6389 169.502 35.3217 169.755 39.3566 170.513C83.6142 179.487 129.637 182.268 174.399 175.822C178.308 174.937 176.543 168.87 172.634 169.502Z" fill="#F879C6"/>
</svg>
