<svg width="46" height="46" viewBox="0 0 46 46" fill="none" xmlns="http://www.w3.org/2000/svg">
<circle cx="23" cy="22.5176" r="22.5" fill="#2084FF"/>
<mask id="path-2-inside-1_654_3373" fill="white">
<path fill-rule="evenodd" clip-rule="evenodd" d="M15.272 11.4302C15.272 10.8622 15.7324 10.4019 16.3003 10.4019H29.1431C30.0184 10.4019 30.728 11.1115 30.728 11.9868L30.728 12.4585C30.728 12.4585 30.728 12.4585 30.728 12.4585C30.728 12.4585 30.728 12.4585 30.728 12.4585L28.597 28.958C28.3622 30.7754 26.8146 32.136 24.982 32.136H23H23H21.0181C19.1855 32.136 17.6378 30.7754 17.4031 28.958L15.272 12.4585C15.272 12.4585 15.272 12.4585 15.272 12.4585C15.272 12.4585 15.272 12.4585 15.272 12.4585V11.4302ZM28.159 33.6955C28.159 32.8343 27.4608 32.1361 26.5996 32.1361H19.4431C18.5819 32.1361 17.8837 32.8343 17.8837 33.6955C17.8837 34.5567 18.5819 35.2549 19.4431 35.2549H26.5996C27.4608 35.2549 28.159 34.5567 28.159 33.6955Z"/>
</mask>
<path d="M15.272 12.4585L13.826 12.6453L15.272 12.4585ZM28.597 28.958L27.151 28.7712L28.597 28.958ZM30.728 12.4585L32.174 12.6453L30.728 12.4585ZM30.728 12.4585L32.186 12.4585L30.728 12.4585ZM29.1431 8.94386H16.3003V11.8599H29.1431V8.94386ZM32.186 12.4585L32.186 11.9868L29.27 11.9868L29.27 12.4585L32.186 12.4585ZM30.0429 29.1447L32.174 12.6453L29.282 12.2717L27.151 28.7712L30.0429 29.1447ZM23 33.594H24.982V30.678H23V33.594ZM23 33.594H23V30.678H23V33.594ZM21.0181 33.594H23V30.678H21.0181V33.594ZM13.826 12.6453L15.9571 29.1447L18.8491 28.7712L16.718 12.2717L13.826 12.6453ZM13.814 11.4302V12.4585H16.73V11.4302H13.814ZM19.4431 33.5941H26.5996V30.6781H19.4431V33.5941ZM26.5996 33.7969H19.4431V36.7129H26.5996V33.7969ZM26.5996 36.7129C28.266 36.7129 29.617 35.362 29.617 33.6955H26.701C26.701 33.7515 26.6556 33.7969 26.5996 33.7969V36.7129ZM19.4431 30.6781C17.7767 30.6781 16.4257 32.029 16.4257 33.6955H19.3417C19.3417 33.6395 19.3871 33.5941 19.4431 33.5941V30.6781ZM15.272 11.0005C16.0828 11.0005 16.73 11.6588 16.73 12.4585H13.814C13.814 13.2581 14.4612 13.9165 15.272 13.9165V11.0005ZM16.718 12.2717C16.6241 11.5447 16.005 11.0005 15.272 11.0005V13.9165C14.539 13.9165 13.9199 13.3722 13.826 12.6453L16.718 12.2717ZM21.0181 30.678C19.9185 30.678 18.9899 29.8617 18.8491 28.7712L15.9571 29.1447C16.2857 31.6892 18.4524 33.594 21.0181 33.594V30.678ZM27.151 28.7712C27.0101 29.8617 26.0815 30.678 24.982 30.678V33.594C27.5476 33.594 29.7143 31.6892 30.0429 29.1447L27.151 28.7712ZM29.5073 11.6613C29.392 11.8378 29.3113 12.0453 29.282 12.2717L32.174 12.6453C32.1448 12.8717 32.064 13.0792 31.9488 13.2557L29.5073 11.6613ZM29.27 12.4585C29.27 12.1753 29.3525 11.8983 29.5073 11.6613L31.9488 13.2557C32.1036 13.0186 32.186 12.7416 32.186 12.4585L29.27 12.4585ZM16.4257 33.6955C16.4257 35.362 17.7767 36.7129 19.4431 36.7129V33.7969C19.3871 33.7969 19.3417 33.7515 19.3417 33.6955H16.4257ZM16.3003 8.94386C14.9271 8.94386 13.814 10.057 13.814 11.4302H16.73C16.73 11.6675 16.5376 11.8599 16.3003 11.8599V8.94386ZM26.5996 33.5941C26.6556 33.5941 26.701 33.6395 26.701 33.6955H29.617C29.617 32.029 28.266 30.6781 26.5996 30.6781V33.5941ZM29.1431 11.8599C29.2132 11.8599 29.27 11.9167 29.27 11.9868L32.186 11.9868C32.186 10.3062 30.8237 8.94386 29.1431 8.94386V11.8599Z" fill="white" mask="url(#path-2-inside-1_654_3373)"/>
<path d="M23 13.0781L23 14.0855" stroke="white" stroke-width="1.53" stroke-linecap="round"/>
<path d="M23 22.5171L23 21.5097" stroke="white" stroke-width="1.53" stroke-linecap="round"/>
<path d="M27.7197 17.7976L26.7124 17.7976" stroke="white" stroke-width="1.53" stroke-linecap="round"/>
<path d="M18.2808 17.7976L19.2881 17.7976" stroke="white" stroke-width="1.53" stroke-linecap="round"/>
<path d="M26.3374 14.4604L25.6251 15.1728" stroke="white" stroke-width="1.53" stroke-linecap="round"/>
<path d="M19.6631 21.1348L20.3754 20.4224" stroke="white" stroke-width="1.53" stroke-linecap="round"/>
<path d="M26.3374 21.1348L25.6251 20.4224" stroke="white" stroke-width="1.53" stroke-linecap="round"/>
<path d="M19.6631 14.4604L20.3754 15.1728" stroke="white" stroke-width="1.53" stroke-linecap="round"/>
<circle cx="23.0002" cy="17.7975" r="2.01989" fill="white" stroke="white" stroke-width="0.9"/>
</svg>
