<svg width="155" height="58" viewBox="0 0 155 58" fill="none" xmlns="http://www.w3.org/2000/svg">
<g filter="url(#filter0_di_683_2296)">
<rect width="154.737" height="53.6213" rx="26.8107" fill="#5AA4FF"/>
</g>
<circle cx="48.169" cy="26.8106" r="7.77549" fill="white" stroke="white"/>
<mask id="path-3-inside-1_683_2296" fill="white">
<path fill-rule="evenodd" clip-rule="evenodd" d="M35.5474 17.6139C35.1805 17.2464 35.2647 16.5669 35.7357 16.0959C36.2069 15.6248 36.8867 15.5406 37.2541 15.9081C37.2621 15.916 37.2699 15.9242 37.2774 15.9324L40.0101 18.6651L40.0098 18.6654L40.0174 18.6728C40.3848 19.0403 40.3007 19.7201 39.8295 20.1913C39.3583 20.6624 38.6785 20.7465 38.3111 20.3791L38.3036 20.3715L38.3035 20.3716L35.5466 17.6148L35.5474 17.6139Z"/>
</mask>
<path fill-rule="evenodd" clip-rule="evenodd" d="M35.5474 17.6139C35.1805 17.2464 35.2647 16.5669 35.7357 16.0959C36.2069 15.6248 36.8867 15.5406 37.2541 15.9081C37.2621 15.916 37.2699 15.9242 37.2774 15.9324L40.0101 18.6651L40.0098 18.6654L40.0174 18.6728C40.3848 19.0403 40.3007 19.7201 39.8295 20.1913C39.3583 20.6624 38.6785 20.7465 38.3111 20.3791L38.3036 20.3715L38.3035 20.3716L35.5466 17.6148L35.5474 17.6139Z" fill="white"/>
<path d="M35.5474 17.6139L36.2545 18.321L36.9611 17.6145L36.2551 16.9074L35.5474 17.6139ZM37.2774 15.9324L36.5391 16.6069L36.5544 16.6236L36.5703 16.6395L37.2774 15.9324ZM40.0101 18.6651L40.7172 19.3722L41.4243 18.6651L40.7172 17.958L40.0101 18.6651ZM40.0098 18.6654L39.3027 17.9582L38.5905 18.6704L39.3077 19.3775L40.0098 18.6654ZM40.0174 18.6728L40.7245 17.9657L40.7194 17.9607L40.0174 18.6728ZM38.3111 20.3791L37.5989 21.0812L37.604 21.0862L38.3111 20.3791ZM38.3036 20.3715L39.0157 19.6695L38.3086 18.9523L37.5965 19.6644L38.3036 20.3715ZM38.3035 20.3716L37.5964 21.0787L38.3035 21.7859L39.0106 21.0787L38.3035 20.3716ZM35.5466 17.6148L34.8395 16.9077L34.1324 17.6148L34.8395 18.3219L35.5466 17.6148ZM36.2551 16.9074C36.2887 16.9411 36.307 16.9781 36.3147 17.004C36.3216 17.0274 36.3177 17.0331 36.3197 17.0168C36.3243 16.9804 36.3521 16.8938 36.4428 16.803L35.0286 15.3888C34.3409 16.0766 33.9295 17.4088 34.8398 18.3205L36.2551 16.9074ZM36.4428 16.803C36.5336 16.7123 36.6202 16.6845 36.6566 16.68C36.6729 16.6779 36.6671 16.6818 36.6437 16.6749C36.6177 16.6671 36.5807 16.6488 36.547 16.6152L37.9612 15.201C37.0497 14.2894 35.7165 14.701 35.0286 15.3888L36.4428 16.803ZM36.547 16.6152C36.5444 16.6125 36.5417 16.6098 36.5391 16.6069L38.0157 15.2579C37.998 15.2386 37.9799 15.2196 37.9612 15.201L36.547 16.6152ZM40.7172 17.958L37.9845 15.2253L36.5703 16.6395L39.303 19.3722L40.7172 17.958ZM40.7169 19.3725L40.7172 19.3722L39.303 17.958L39.3027 17.9582L40.7169 19.3725ZM40.7194 17.9607L40.7118 17.9532L39.3077 19.3775L39.3153 19.385L40.7194 17.9607ZM40.5366 20.8984C41.2245 20.2105 41.6361 18.8773 40.7245 17.9657L39.3103 19.38C39.2766 19.3463 39.2583 19.3092 39.2506 19.2833C39.2436 19.2599 39.2475 19.2541 39.2455 19.2703C39.241 19.3067 39.2132 19.3934 39.1224 19.4841L40.5366 20.8984ZM37.604 21.0862C38.5156 21.9978 39.8487 21.5862 40.5366 20.8984L39.1224 19.4841C39.0316 19.5749 38.945 19.6027 38.9086 19.6072C38.8923 19.6092 38.8981 19.6054 38.9215 19.6123C38.9475 19.62 38.9845 19.6383 39.0182 19.672L37.604 21.0862ZM37.5915 21.0736L37.599 21.0812L39.0232 19.6771L39.0157 19.6695L37.5915 21.0736ZM39.0106 21.0787L39.0107 21.0786L37.5965 19.6644L37.5964 19.6645L39.0106 21.0787ZM34.8395 18.3219L37.5964 21.0787L39.0106 19.6645L36.2537 16.9077L34.8395 18.3219ZM34.8403 16.9068L34.8395 16.9077L36.2537 18.3219L36.2545 18.321L34.8403 16.9068Z" fill="white" mask="url(#path-3-inside-1_683_2296)"/>
<mask id="path-5-inside-2_683_2296" fill="white">
<path fill-rule="evenodd" clip-rule="evenodd" d="M35.0497 35.4591C34.6824 35.8266 34.7666 36.5063 35.2377 36.9774C35.7089 37.4486 36.3887 37.5327 36.7561 37.1653C36.7574 37.164 36.7586 37.1627 36.7599 37.1615L39.5128 34.4085L39.5125 34.4083L39.5201 34.4008C39.8875 34.0333 39.8034 33.3535 39.3323 32.8824C38.8611 32.4112 38.1813 32.3271 37.8138 32.6945L37.8064 32.7021L37.8062 32.702L35.0494 35.4588L35.0497 35.4591Z"/>
</mask>
<path fill-rule="evenodd" clip-rule="evenodd" d="M35.0497 35.4591C34.6824 35.8266 34.7666 36.5063 35.2377 36.9774C35.7089 37.4486 36.3887 37.5327 36.7561 37.1653C36.7574 37.164 36.7586 37.1627 36.7599 37.1615L39.5128 34.4085L39.5125 34.4083L39.5201 34.4008C39.8875 34.0333 39.8034 33.3535 39.3323 32.8824C38.8611 32.4112 38.1813 32.3271 37.8138 32.6945L37.8064 32.7021L37.8062 32.702L35.0494 35.4588L35.0497 35.4591Z" fill="white"/>
<path d="M35.0497 35.4591L35.7568 34.752L36.4637 35.459L35.7569 36.1661L35.0497 35.4591ZM36.7599 37.1615L36.0477 36.4595L36.0528 36.4543L36.7599 37.1615ZM39.5128 34.4085L40.2199 33.7014L40.927 34.4085L40.2199 35.1156L39.5128 34.4085ZM39.5125 34.4083L38.8054 35.1154L38.0933 34.4032L38.8105 33.6961L39.5125 34.4083ZM39.5201 34.4008L40.2273 35.1079L40.2222 35.1129L39.5201 34.4008ZM37.8138 32.6945L37.1017 31.9924L37.1067 31.9874L37.8138 32.6945ZM37.8064 32.7021L38.5185 33.4041L37.8114 34.1213L37.0992 33.4092L37.8064 32.7021ZM37.8062 32.702L37.0991 31.9949L37.8062 31.2877L38.5133 31.9949L37.8062 32.702ZM35.0494 35.4588L34.3423 36.1659L33.6352 35.4588L34.3423 34.7517L35.0494 35.4588ZM35.7569 36.1661C35.7906 36.1324 35.8089 36.0954 35.8166 36.0694C35.8235 36.046 35.8197 36.0402 35.8217 36.0565C35.8262 36.0929 35.854 36.1795 35.9448 36.2703L34.5306 37.6845C33.8427 36.9967 33.4312 35.6638 34.3424 34.7522L35.7569 36.1661ZM35.9448 36.2703C36.0356 36.3611 36.1222 36.3889 36.1586 36.3934C36.1749 36.3954 36.1691 36.3916 36.1457 36.3985C36.1197 36.4062 36.0827 36.4245 36.049 36.4582L37.4632 37.8724C36.5516 38.784 35.2185 38.3724 34.5306 37.6845L35.9448 36.2703ZM36.049 36.4582C36.0486 36.4586 36.0481 36.4591 36.0477 36.4595L37.4721 37.8634C37.4691 37.8664 37.4662 37.8694 37.4632 37.8724L36.049 36.4582ZM40.2199 35.1156L37.467 37.8686L36.0528 36.4543L38.8057 33.7014L40.2199 35.1156ZM40.2196 33.7011L40.2199 33.7014L38.8057 35.1156L38.8054 35.1154L40.2196 33.7011ZM40.2222 35.1129L40.2146 35.1204L38.8105 33.6961L38.8181 33.6886L40.2222 35.1129ZM40.0394 32.1752C40.7272 32.8631 41.1388 34.1963 40.2272 35.1079L38.813 33.6937C38.7793 33.7273 38.761 33.7644 38.7533 33.7903C38.7464 33.8138 38.7502 33.8195 38.7482 33.8033C38.7437 33.7669 38.7159 33.6803 38.6251 33.5895L40.0394 32.1752ZM37.1067 31.9874C38.0183 31.0758 39.3515 31.4874 40.0394 32.1752L38.6251 33.5895C38.5344 33.4987 38.4477 33.4709 38.4113 33.4664C38.3951 33.4644 38.4009 33.4682 38.4243 33.4613C38.4502 33.4536 38.4873 33.4353 38.521 33.4016L37.1067 31.9874ZM37.0942 32L37.1017 31.9924L38.526 33.3965L38.5185 33.4041L37.0942 32ZM38.5133 31.9949L38.5135 31.995L37.0992 33.4092L37.0991 33.4091L38.5133 31.9949ZM34.3423 34.7517L37.0991 31.9949L38.5133 33.4091L35.7565 36.1659L34.3423 34.7517ZM34.3426 36.1662L34.3423 36.1659L35.7565 34.7517L35.7568 34.752L34.3426 36.1662Z" fill="white" mask="url(#path-5-inside-2_683_2296)"/>
<mask id="path-7-inside-3_683_2296" fill="white">
<path fill-rule="evenodd" clip-rule="evenodd" d="M48.1353 11.0386C47.4689 11.0386 46.9287 11.4598 46.9287 11.9794L46.9288 11.9904L46.9283 11.9904L46.9283 15.8892L46.9287 15.8892C46.9287 16.4087 47.4689 16.83 48.1352 16.83C48.8015 16.83 49.3417 16.4087 49.3417 15.8892L49.3418 15.8892L49.3418 11.9904L49.3417 11.9904L49.3418 11.9794C49.3418 11.4598 48.8016 11.0386 48.1353 11.0386Z"/>
</mask>
<path fill-rule="evenodd" clip-rule="evenodd" d="M48.1353 11.0386C47.4689 11.0386 46.9287 11.4598 46.9287 11.9794L46.9288 11.9904L46.9283 11.9904L46.9283 15.8892L46.9287 15.8892C46.9287 16.4087 47.4689 16.83 48.1352 16.83C48.8015 16.83 49.3417 16.4087 49.3417 15.8892L49.3418 15.8892L49.3418 11.9904L49.3417 11.9904L49.3418 11.9794C49.3418 11.4598 48.8016 11.0386 48.1353 11.0386Z" fill="white"/>
<path d="M46.9287 11.9794L45.9287 11.9867L45.9287 11.9794L46.9287 11.9794ZM46.9288 11.9904L47.9288 11.983L47.9362 12.9904L46.9288 12.9904L46.9288 11.9904ZM46.9283 11.9904L45.9283 11.9904L45.9283 10.9904L46.9283 10.9904L46.9283 11.9904ZM46.9283 15.8892L46.9283 16.8892L45.9283 16.8892L45.9283 15.8892L46.9283 15.8892ZM46.9287 15.8892L46.9287 14.8892L47.9286 14.8892L47.9287 15.8891L46.9287 15.8892ZM49.3417 15.8892L48.3417 15.8891L48.3418 14.8892L49.3417 14.8892L49.3417 15.8892ZM49.3418 15.8892L50.3418 15.8892L50.3418 16.8892L49.3418 16.8892L49.3418 15.8892ZM49.3418 11.9904L49.3418 10.9904L50.3418 10.9904L50.3418 11.9904L49.3418 11.9904ZM49.3417 11.9904L49.3417 12.9904L48.3344 12.9904L48.3417 11.9831L49.3417 11.9904ZM49.3418 11.9794L50.3418 11.9794L50.3418 11.9867L49.3418 11.9794ZM45.9287 11.9794C45.9287 10.6903 47.1625 10.0386 48.1353 10.0386L48.1353 12.0386C48.0069 12.0386 47.926 12.0802 47.8971 12.1027C47.8841 12.1128 47.8909 12.1115 47.9026 12.09C47.9155 12.0662 47.9287 12.0271 47.9287 11.9794L45.9287 11.9794ZM45.9289 11.9977L45.9288 11.9867L47.9287 11.9721L47.9288 11.983L45.9289 11.9977ZM46.9283 10.9904L46.9288 10.9904L46.9288 12.9904L46.9283 12.9904L46.9283 10.9904ZM45.9283 15.8892L45.9283 11.9904L47.9283 11.9904L47.9283 15.8892L45.9283 15.8892ZM46.9287 16.8892L46.9283 16.8892L46.9283 14.8892L46.9287 14.8892L46.9287 16.8892ZM47.9287 15.8891C47.9287 15.8415 47.9154 15.8024 47.9025 15.7785C47.8909 15.7571 47.884 15.7557 47.897 15.7658C47.9259 15.7884 48.0068 15.83 48.1352 15.83L48.1352 17.83C47.1624 17.83 45.9287 17.1783 45.9287 15.8892L47.9287 15.8891ZM48.1352 15.83C48.2636 15.83 48.3445 15.7884 48.3734 15.7658C48.3864 15.7557 48.3795 15.7571 48.3679 15.7785C48.355 15.8024 48.3417 15.8415 48.3417 15.8891L50.3417 15.8892C50.3417 17.1783 49.108 17.83 48.1352 17.83L48.1352 15.83ZM49.3418 16.8892L49.3417 16.8892L49.3417 14.8892L49.3418 14.8892L49.3418 16.8892ZM50.3418 11.9904L50.3418 15.8892L48.3418 15.8892L48.3418 11.9904L50.3418 11.9904ZM49.3417 10.9904L49.3418 10.9904L49.3418 12.9904L49.3417 12.9904L49.3417 10.9904ZM50.3418 11.9867L50.3417 11.9977L48.3417 11.9831L48.3418 11.9721L50.3418 11.9867ZM48.1353 10.0386C49.1081 10.0386 50.3418 10.6903 50.3418 11.9794L48.3418 11.9794C48.3418 12.0271 48.355 12.0662 48.368 12.09C48.3796 12.1115 48.3864 12.1128 48.3735 12.1027C48.3446 12.0802 48.2637 12.0386 48.1353 12.0386L48.1353 10.0386Z" fill="white" mask="url(#path-7-inside-3_683_2296)"/>
<mask id="path-9-inside-4_683_2296" fill="white">
<path fill-rule="evenodd" clip-rule="evenodd" d="M48.1353 36.7912C47.4689 36.7912 46.9287 37.2124 46.9287 37.732L46.9288 37.7429L46.9283 37.7429L46.9283 41.6417L46.9287 41.6417C46.9287 42.1613 47.4689 42.5825 48.1352 42.5825C48.8015 42.5825 49.3417 42.1613 49.3417 41.6417L49.3418 41.6417L49.3418 37.7429L49.3417 37.7429L49.3418 37.732C49.3418 37.2124 48.8016 36.7912 48.1353 36.7912Z"/>
</mask>
<path fill-rule="evenodd" clip-rule="evenodd" d="M48.1353 36.7912C47.4689 36.7912 46.9287 37.2124 46.9287 37.732L46.9288 37.7429L46.9283 37.7429L46.9283 41.6417L46.9287 41.6417C46.9287 42.1613 47.4689 42.5825 48.1352 42.5825C48.8015 42.5825 49.3417 42.1613 49.3417 41.6417L49.3418 41.6417L49.3418 37.7429L49.3417 37.7429L49.3418 37.732C49.3418 37.2124 48.8016 36.7912 48.1353 36.7912Z" fill="white"/>
<path d="M46.9287 37.732L45.9287 37.7393L45.9287 37.732L46.9287 37.732ZM46.9288 37.7429L47.9288 37.7356L47.9362 38.7429L46.9288 38.7429L46.9288 37.7429ZM46.9283 37.7429L45.9283 37.7429L45.9283 36.7429L46.9283 36.7429L46.9283 37.7429ZM46.9283 41.6417L46.9283 42.6417L45.9283 42.6417L45.9283 41.6417L46.9283 41.6417ZM46.9287 41.6417L46.9287 40.6417L47.9286 40.6417L47.9287 41.6417L46.9287 41.6417ZM49.3417 41.6417L48.3417 41.6417L48.3418 40.6417L49.3417 40.6417L49.3417 41.6417ZM49.3418 41.6417L50.3418 41.6417L50.3418 42.6417L49.3418 42.6417L49.3418 41.6417ZM49.3418 37.7429L49.3418 36.7429L50.3418 36.7429L50.3418 37.7429L49.3418 37.7429ZM49.3417 37.7429L49.3417 38.7429L48.3344 38.7429L48.3417 37.7356L49.3417 37.7429ZM49.3418 37.732L50.3418 37.732L50.3418 37.7393L49.3418 37.732ZM45.9287 37.732C45.9287 36.4428 47.1625 35.7912 48.1353 35.7912L48.1353 37.7912C48.0069 37.7912 47.926 37.8328 47.8971 37.8553C47.8841 37.8654 47.8909 37.864 47.9026 37.8426C47.9155 37.8188 47.9287 37.7796 47.9287 37.732L45.9287 37.732ZM45.9289 37.7502L45.9288 37.7393L47.9287 37.7247L47.9288 37.7356L45.9289 37.7502ZM46.9283 36.7429L46.9288 36.7429L46.9288 38.7429L46.9283 38.7429L46.9283 36.7429ZM45.9283 41.6417L45.9283 37.7429L47.9283 37.7429L47.9283 41.6417L45.9283 41.6417ZM46.9287 42.6417L46.9283 42.6417L46.9283 40.6417L46.9287 40.6417L46.9287 42.6417ZM47.9287 41.6417C47.9287 41.5941 47.9154 41.5549 47.9025 41.5311C47.8909 41.5097 47.884 41.5083 47.897 41.5184C47.9259 41.5409 48.0068 41.5825 48.1352 41.5825L48.1352 43.5825C47.1624 43.5825 45.9287 42.9309 45.9287 41.6418L47.9287 41.6417ZM48.1352 41.5825C48.2636 41.5825 48.3445 41.5409 48.3734 41.5184C48.3864 41.5083 48.3795 41.5097 48.3679 41.5311C48.355 41.5549 48.3417 41.5941 48.3417 41.6417L50.3417 41.6418C50.3417 42.9309 49.108 43.5825 48.1352 43.5825L48.1352 41.5825ZM49.3418 42.6417L49.3417 42.6417L49.3417 40.6417L49.3418 40.6417L49.3418 42.6417ZM50.3418 37.7429L50.3418 41.6417L48.3418 41.6417L48.3418 37.7429L50.3418 37.7429ZM49.3417 36.7429L49.3418 36.7429L49.3418 38.7429L49.3417 38.7429L49.3417 36.7429ZM50.3418 37.7393L50.3417 37.7502L48.3417 37.7356L48.3418 37.7247L50.3418 37.7393ZM48.1353 35.7912C49.1081 35.7912 50.3418 36.4428 50.3418 37.732L48.3418 37.732C48.3418 37.7796 48.355 37.8188 48.368 37.8426C48.3796 37.864 48.3864 37.8654 48.3735 37.8553C48.3446 37.8328 48.2637 37.7912 48.1353 37.7912L48.1353 35.7912Z" fill="white" mask="url(#path-9-inside-4_683_2296)"/>
<mask id="path-11-inside-5_683_2296" fill="white">
<path fill-rule="evenodd" clip-rule="evenodd" d="M32.9136 27.7431C32.9135 27.7431 32.9135 27.7431 32.9135 27.7431C32.3939 27.7431 31.9727 27.2029 31.9727 26.5366C31.9727 25.8703 32.3939 25.3301 32.9135 25.3301C32.9146 25.3301 32.9156 25.3301 32.9167 25.3301H36.8124V25.3302L36.8235 25.3301C37.3431 25.3301 37.7643 25.8703 37.7643 26.5366C37.7643 27.203 37.3431 27.7431 36.8235 27.7431L36.8124 27.7431V27.7436H32.9136V27.7431Z"/>
</mask>
<path fill-rule="evenodd" clip-rule="evenodd" d="M32.9136 27.7431C32.9135 27.7431 32.9135 27.7431 32.9135 27.7431C32.3939 27.7431 31.9727 27.2029 31.9727 26.5366C31.9727 25.8703 32.3939 25.3301 32.9135 25.3301C32.9146 25.3301 32.9156 25.3301 32.9167 25.3301H36.8124V25.3302L36.8235 25.3301C37.3431 25.3301 37.7643 25.8703 37.7643 26.5366C37.7643 27.203 37.3431 27.7431 36.8235 27.7431L36.8124 27.7431V27.7436H32.9136V27.7431Z" fill="white"/>
<path d="M32.9136 27.7431H33.9136V26.7431H32.9136V27.7431ZM32.9167 25.3301L32.9124 26.3301H32.9167V25.3301ZM36.8124 25.3301H37.8124V24.3301H36.8124V25.3301ZM36.8124 25.3302H35.8124V26.3376L36.8198 26.3301L36.8124 25.3302ZM36.8235 25.3301V24.3301L36.8161 24.3301L36.8235 25.3301ZM36.8235 27.7431L36.8161 28.7431H36.8235V27.7431ZM36.8124 27.7431L36.8198 26.7431L35.8124 26.7356V27.7431H36.8124ZM36.8124 27.7436V28.7436H37.8124V27.7436H36.8124ZM32.9136 27.7436H31.9136V28.7436H32.9136V27.7436ZM32.9136 26.7431C32.9136 26.7431 32.9136 26.7431 32.9136 26.7431C32.9136 26.7431 32.9136 26.7431 32.9136 26.7431C32.9136 26.7431 32.9136 26.7431 32.9136 26.7431C32.9136 26.7431 32.9136 26.7431 32.9136 26.7431C32.9136 26.7431 32.9136 26.7431 32.9136 26.7431C32.9136 26.7431 32.9136 26.7431 32.9136 26.7431C32.9136 26.7431 32.9136 26.7431 32.9136 26.7431C32.9136 26.7431 32.9136 26.7431 32.9136 26.7431C32.9136 26.7431 32.9136 26.7431 32.9136 26.7431C32.9136 26.7431 32.9136 26.7431 32.9136 26.7431C32.9136 26.7431 32.9136 26.7431 32.9136 26.7431C32.9136 26.7431 32.9136 26.7431 32.9136 26.7431C32.9136 26.7431 32.9136 26.7431 32.9136 26.7431C32.9136 26.7431 32.9136 26.7431 32.9136 26.7431C32.9136 26.7431 32.9136 26.7431 32.9136 26.7431C32.9136 26.7431 32.9136 26.7431 32.9136 26.7431C32.9136 26.7431 32.9136 26.7431 32.9136 26.7431C32.9136 26.7431 32.9136 26.7431 32.9136 26.7431C32.9136 26.7431 32.9136 26.7431 32.9136 26.7431C32.9136 26.7431 32.9136 26.7431 32.9136 26.7431C32.9136 26.7431 32.9136 26.7431 32.9136 26.7431C32.9136 26.7431 32.9136 26.7431 32.9136 26.7431C32.9136 26.7431 32.9136 26.7431 32.9136 26.7431C32.9136 26.7431 32.9136 26.7431 32.9136 26.7431C32.9136 26.7431 32.9136 26.7431 32.9136 26.7431C32.9136 26.7431 32.9136 26.7431 32.9136 26.7431C32.9136 26.7431 32.9136 26.7431 32.9136 26.7431C32.9136 26.7431 32.9136 26.7431 32.9136 26.7431C32.9136 26.7431 32.9136 26.7431 32.9136 26.7431C32.9136 26.7431 32.9136 26.7431 32.9136 26.7431C32.9136 26.7431 32.9136 26.7431 32.9136 26.7431C32.9136 26.7431 32.9136 26.7431 32.9136 26.7431C32.9136 26.7431 32.9136 26.7431 32.9136 26.7431C32.9136 26.7431 32.9136 26.7431 32.9136 26.7431C32.9136 26.7431 32.9136 26.7431 32.9136 26.7431C32.9136 26.7431 32.9136 26.7431 32.9136 26.7431C32.9136 26.7431 32.9136 26.7431 32.9136 26.7431C32.9136 26.7431 32.9136 26.7431 32.9136 26.7431C32.9136 26.7431 32.9136 26.7431 32.9136 26.7431C32.9136 26.7431 32.9136 26.7431 32.9136 26.7431C32.9136 26.7431 32.9136 26.7431 32.9136 26.7431C32.9136 26.7431 32.9136 26.7431 32.9136 26.7431C32.9136 26.7431 32.9136 26.7431 32.9136 26.7431C32.9136 26.7431 32.9136 26.7431 32.9136 26.7431C32.9136 26.7431 32.9136 26.7431 32.9136 26.7431C32.9136 26.7431 32.9136 26.7431 32.9136 26.7431C32.9136 26.7431 32.9136 26.7431 32.9136 26.7431C32.9136 26.7431 32.9136 26.7431 32.9136 26.7431C32.9136 26.7431 32.9136 26.7431 32.9136 26.7431C32.9136 26.7431 32.9136 26.7431 32.9136 26.7431C32.9136 26.7431 32.9136 26.7431 32.9136 26.7431C32.9136 26.7431 32.9136 26.7431 32.9136 26.7431C32.9136 26.7431 32.9136 26.7431 32.9136 26.7431C32.9136 26.7431 32.9136 26.7431 32.9136 26.7431C32.9136 26.7431 32.9136 26.7431 32.9136 26.7431C32.9136 26.7431 32.9136 26.7431 32.9136 26.7431C32.9136 26.7431 32.9136 26.7431 32.9136 26.7431C32.9136 26.7431 32.9136 26.7431 32.9136 26.7431C32.9136 26.7431 32.9136 26.7431 32.9136 26.7431C32.9136 26.7431 32.9136 26.7431 32.9136 26.7431C32.9136 26.7431 32.9136 26.7431 32.9136 26.7431C32.9136 26.7431 32.9136 26.7431 32.9136 26.7431C32.9136 26.7431 32.9136 26.7431 32.9136 26.7431C32.9136 26.7431 32.9136 26.7431 32.9136 26.7431C32.9136 26.7431 32.9136 26.7431 32.9136 26.7431C32.9136 26.7431 32.9136 26.7431 32.9136 26.7431C32.9136 26.7431 32.9136 26.7431 32.9136 26.7431C32.9136 26.7431 32.9136 26.7431 32.9136 26.7431C32.9136 26.7431 32.9136 26.7431 32.9136 26.7431C32.9136 26.7431 32.9136 26.7431 32.9136 26.7431C32.9136 26.7431 32.9136 26.7431 32.9136 26.7431C32.9136 26.7431 32.9136 26.7431 32.9136 26.7431C32.9136 26.7431 32.9136 26.7431 32.9136 26.7431C32.9136 26.7431 32.9136 26.7431 32.9136 26.7431C32.9136 26.7431 32.9136 26.7431 32.9136 26.7431C32.9136 26.7431 32.9136 26.7431 32.9136 26.7431C32.9136 26.7431 32.9136 26.7431 32.9136 26.7431C32.9136 26.7431 32.9136 26.7431 32.9136 26.7431C32.9136 26.7431 32.9136 26.7431 32.9136 26.7431C32.9136 26.7431 32.9136 26.7431 32.9136 26.7431C32.9136 26.7431 32.9136 26.7431 32.9136 26.7431C32.9136 26.7431 32.9136 26.7431 32.9136 26.7431C32.9136 26.7431 32.9136 26.7431 32.9136 26.7431C32.9136 26.7431 32.9136 26.7431 32.9136 26.7431C32.9136 26.7431 32.9136 26.7431 32.9136 26.7431C32.9136 26.7431 32.9136 26.7431 32.9136 26.7431C32.9136 26.7431 32.9136 26.7431 32.9136 26.7431C32.9136 26.7431 32.9136 26.7431 32.9136 26.7431C32.9136 26.7431 32.9136 26.7431 32.9136 26.7431C32.9136 26.7431 32.9136 26.7431 32.9136 26.7431C32.9136 26.7431 32.9136 26.7431 32.9136 26.7431C32.9136 26.7431 32.9136 26.7431 32.9136 26.7431C32.9136 26.7431 32.9136 26.7431 32.9136 26.7431C32.9136 26.7431 32.9136 26.7431 32.9136 26.7431C32.9136 26.7431 32.9136 26.7431 32.9136 26.7431C32.9136 26.7431 32.9136 26.7431 32.9136 26.7431C32.9136 26.7431 32.9136 26.7431 32.9136 26.7431C32.9136 26.7431 32.9136 26.7431 32.9136 26.7431C32.9136 26.7431 32.9136 26.7431 32.9136 26.7431C32.9136 26.7431 32.9136 26.7431 32.9136 26.7431C32.9136 26.7431 32.9136 26.7431 32.9136 26.7431C32.9136 26.7431 32.9136 26.7431 32.9136 26.7431C32.9136 26.7431 32.9136 26.7431 32.9136 26.7431C32.9136 26.7431 32.9136 26.7431 32.9136 26.7431C32.9136 26.7431 32.9136 26.7431 32.9136 26.7431C32.9136 26.7431 32.9136 26.7431 32.9136 26.7431C32.9136 26.7431 32.9136 26.7431 32.9136 26.7431C32.9136 26.7431 32.9136 26.7431 32.9136 26.7431C32.9136 26.7431 32.9136 26.7431 32.9136 26.7431C32.9136 26.7431 32.9136 26.7431 32.9136 26.7431C32.9136 26.7431 32.9136 26.7431 32.9135 26.7431C32.9135 26.7431 32.9135 26.7431 32.9135 26.7431C32.9135 26.7431 32.9135 26.7431 32.9135 26.7431C32.9135 26.7431 32.9135 26.7431 32.9135 26.7431C32.9135 26.7431 32.9135 26.7431 32.9135 26.7431C32.9135 26.7431 32.9135 26.7431 32.9135 26.7431C32.9135 26.7431 32.9135 26.7431 32.9135 26.7431C32.9135 26.7431 32.9135 26.7431 32.9135 26.7431C32.9135 26.7431 32.9135 26.7431 32.9135 26.7431C32.9135 26.7431 32.9135 26.7431 32.9135 26.7431C32.9135 26.7431 32.9135 26.7431 32.9135 26.7431C32.9135 26.7431 32.9135 26.7431 32.9135 26.7431C32.9135 26.7431 32.9135 26.7431 32.9135 26.7431C32.9135 26.7431 32.9135 26.7431 32.9135 26.7431C32.9135 26.7431 32.9135 26.7431 32.9135 26.7431C32.9135 26.7431 32.9135 26.7431 32.9135 26.7431C32.9135 26.7431 32.9135 26.7431 32.9135 26.7431C32.9135 26.7431 32.9135 26.7431 32.9135 26.7431C32.9135 26.7431 32.9135 26.7431 32.9135 26.7431C32.9135 26.7431 32.9135 26.7431 32.9135 26.7431C32.9135 26.7431 32.9135 26.7431 32.9135 26.7431C32.9135 26.7431 32.9135 26.7431 32.9135 26.7431C32.9135 26.7431 32.9135 26.7431 32.9135 26.7431C32.9135 26.7431 32.9135 26.7431 32.9135 26.7431C32.9135 26.7431 32.9135 26.7431 32.9135 26.7431C32.9135 26.7431 32.9135 26.7431 32.9135 26.7431C32.9135 26.7431 32.9135 26.7431 32.9135 26.7431C32.9135 26.7431 32.9135 26.7431 32.9135 26.7431C32.9135 26.7431 32.9135 26.7431 32.9135 26.7431C32.9135 26.7431 32.9135 26.7431 32.9135 26.7431C32.9135 26.7431 32.9135 26.7431 32.9135 26.7431C32.9135 26.7431 32.9135 26.7431 32.9135 26.7431C32.9135 26.7431 32.9135 26.7431 32.9135 26.7431C32.9135 26.7431 32.9135 26.7431 32.9135 26.7431C32.9135 26.7431 32.9135 26.7431 32.9135 26.7431C32.9135 26.7431 32.9135 26.7431 32.9135 26.7431C32.9135 26.7431 32.9135 26.7431 32.9135 26.7431C32.9135 26.7431 32.9135 26.7431 32.9135 26.7431C32.9135 26.7431 32.9135 26.7431 32.9135 26.7431C32.9135 26.7431 32.9135 26.7431 32.9135 26.7431C32.9135 26.7431 32.9135 26.7431 32.9135 26.7431C32.9135 26.7431 32.9135 26.7431 32.9135 26.7431C32.9135 26.7431 32.9135 26.7431 32.9135 26.7431C32.9135 26.7431 32.9135 26.7431 32.9135 26.7431C32.9135 26.7431 32.9135 26.7431 32.9135 26.7431C32.9135 26.7431 32.9135 26.7431 32.9135 26.7431C32.9135 26.7431 32.9135 26.7431 32.9135 26.7431C32.9135 26.7431 32.9135 26.7431 32.9135 26.7431C32.9135 26.7431 32.9135 26.7431 32.9135 26.7431C32.9135 26.7431 32.9135 26.7431 32.9135 26.7431C32.9135 26.7431 32.9135 26.7431 32.9135 26.7431C32.9135 26.7431 32.9135 26.7431 32.9135 26.7431C32.9135 26.7431 32.9135 26.7431 32.9135 26.7431C32.9135 26.7431 32.9135 26.7431 32.9135 26.7431C32.9135 26.7431 32.9135 26.7431 32.9135 26.7431C32.9135 26.7431 32.9135 26.7431 32.9135 26.7431C32.9135 26.7431 32.9135 26.7431 32.9135 26.7431C32.9135 26.7431 32.9135 26.7431 32.9135 26.7431C32.9135 26.7431 32.9135 26.7431 32.9135 26.7431C32.9135 26.7431 32.9135 26.7431 32.9135 26.7431C32.9135 26.7431 32.9135 26.7431 32.9135 26.7431C32.9135 26.7431 32.9135 26.7431 32.9135 26.7431C32.9135 26.7431 32.9135 26.7431 32.9135 26.7431C32.9135 26.7431 32.9135 26.7431 32.9135 26.7431C32.9135 26.7431 32.9135 26.7431 32.9135 26.7431C32.9135 26.7431 32.9135 26.7431 32.9135 26.7431C32.9135 26.7431 32.9135 26.7431 32.9135 26.7431C32.9135 26.7431 32.9135 26.7431 32.9135 26.7431C32.9135 26.7431 32.9135 26.7431 32.9135 26.7431C32.9135 26.7431 32.9135 26.7431 32.9135 26.7431C32.9135 26.7431 32.9135 26.7431 32.9135 26.7431C32.9135 26.7431 32.9135 26.7431 32.9135 26.7431C32.9135 26.7431 32.9135 26.7431 32.9135 26.7431C32.9135 26.7431 32.9135 26.7431 32.9135 26.7431C32.9135 26.7431 32.9135 26.7431 32.9135 26.7431C32.9135 26.7431 32.9135 26.7431 32.9135 26.7431C32.9135 26.7431 32.9135 26.7431 32.9135 26.7431C32.9135 26.7431 32.9135 26.7431 32.9135 26.7431C32.9135 26.7431 32.9135 26.7431 32.9135 26.7431C32.9135 26.7431 32.9135 26.7431 32.9135 26.7431C32.9135 26.7431 32.9135 26.7431 32.9135 26.7431C32.9135 26.7431 32.9135 26.7431 32.9135 26.7431C32.9135 26.7431 32.9135 26.7431 32.9135 26.7431C32.9135 26.7431 32.9135 26.7431 32.9135 26.7431C32.9135 26.7431 32.9135 26.7431 32.9135 26.7431C32.9135 26.7431 32.9135 26.7431 32.9135 26.7431C32.9135 26.7431 32.9135 26.7431 32.9135 26.7431C32.9135 26.7431 32.9135 26.7431 32.9135 26.7431C32.9135 26.7431 32.9135 26.7431 32.9135 26.7431C32.9135 26.7431 32.9135 26.7431 32.9135 26.7431C32.9135 26.7431 32.9135 26.7431 32.9135 26.7431C32.9135 26.7431 32.9135 26.7431 32.9135 26.7431C32.9135 26.7431 32.9135 26.7431 32.9135 26.7431C32.9135 26.7431 32.9135 26.7431 32.9135 26.7431C32.9135 26.7431 32.9135 26.7431 32.9135 26.7431C32.9135 26.7431 32.9135 26.7431 32.9135 26.7431C32.9135 26.7431 32.9135 26.7431 32.9135 26.7431C32.9135 26.7431 32.9135 26.7431 32.9135 26.7431C32.9135 26.7431 32.9135 26.7431 32.9135 26.7431C32.9135 26.7431 32.9135 26.7431 32.9135 26.7431C32.9135 26.7431 32.9135 26.7431 32.9135 26.7431C32.9135 26.7431 32.9135 26.7431 32.9135 26.7431C32.9135 26.7431 32.9135 26.7431 32.9135 26.7431C32.9135 26.7431 32.9135 26.7431 32.9135 26.7431C32.9135 26.7431 32.9135 26.7431 32.9135 26.7431C32.9135 26.7431 32.9135 26.7431 32.9135 26.7431C32.9135 26.7431 32.9135 26.7431 32.9135 26.7431C32.9135 26.7431 32.9135 26.7431 32.9135 26.7431C32.9135 26.7431 32.9135 26.7431 32.9135 26.7431C32.9135 26.7431 32.9135 26.7431 32.9135 26.7431C32.9135 26.7431 32.9135 26.7431 32.9135 26.7431C32.9135 26.7431 32.9135 26.7431 32.9135 26.7431C32.9135 26.7431 32.9135 26.7431 32.9135 26.7431C32.9135 26.7431 32.9135 26.7431 32.9135 26.7431C32.9135 26.7431 32.9135 26.7431 32.9135 26.7431C32.9135 26.7431 32.9135 26.7431 32.9135 26.7431C32.9135 26.7431 32.9135 26.7431 32.9135 26.7431C32.9135 26.7431 32.9135 26.7431 32.9135 26.7431C32.9135 26.7431 32.9135 26.7431 32.9135 26.7431C32.9135 26.7431 32.9135 26.7431 32.9135 26.7431C32.9135 26.7431 32.9135 26.7431 32.9135 26.7431C32.9135 26.7431 32.9135 26.7431 32.9135 26.7431C32.9135 26.7431 32.9135 26.7431 32.9135 26.7431C32.9135 26.7431 32.9135 26.7431 32.9135 26.7431C32.9135 26.7431 32.9135 26.7431 32.9135 26.7431C32.9135 26.7431 32.9135 26.7431 32.9135 26.7431C32.9135 26.7431 32.9135 26.7431 32.9135 26.7431C32.9135 26.7431 32.9135 26.7431 32.9135 26.7431C32.9135 26.7431 32.9135 26.7431 32.9135 26.7431C32.9135 26.7431 32.9135 26.7431 32.9135 26.7431C32.9135 26.7431 32.9135 26.7431 32.9135 26.7431C32.9135 26.7431 32.9135 26.7431 32.9135 26.7431C32.9135 26.7431 32.9135 26.7431 32.9135 26.7431C32.9135 26.7431 32.9135 26.7431 32.9135 26.7431C32.9135 26.7431 32.9135 26.7431 32.9135 26.7431C32.9135 26.7431 32.9135 26.7431 32.9135 26.7431C32.9135 26.7431 32.9135 26.7431 32.9135 26.7431C32.9135 26.7431 32.9135 26.7431 32.9135 26.7431C32.9135 26.7431 32.9135 26.7431 32.9135 26.7431C32.9135 26.7431 32.9135 26.7431 32.9135 26.7431C32.9135 26.7431 32.9135 26.7431 32.9135 26.7431C32.9135 26.7431 32.9135 26.7431 32.9135 26.7431C32.9135 26.7431 32.9135 26.7431 32.9135 26.7431C32.9135 26.7431 32.9135 26.7431 32.9135 26.7431C32.9135 26.7431 32.9135 26.7431 32.9135 26.7431C32.9135 26.7431 32.9135 26.7431 32.9135 26.7431C32.9135 26.7431 32.9135 26.7431 32.9135 26.7431C32.9135 26.7431 32.9135 26.7431 32.9135 26.7431C32.9135 26.7431 32.9135 26.7431 32.9135 26.7431C32.9135 26.7431 32.9135 26.7431 32.9135 26.7431C32.9135 26.7431 32.9135 26.7431 32.9135 26.7431C32.9135 26.7431 32.9135 26.7431 32.9135 26.7431C32.9135 26.7431 32.9135 26.7431 32.9135 26.7431C32.9135 26.7431 32.9135 26.7431 32.9135 26.7431C32.9135 26.7431 32.9135 26.7431 32.9135 26.7431C32.9135 26.7431 32.9135 26.7431 32.9135 26.7431C32.9135 26.7431 32.9135 26.7431 32.9135 26.7431C32.9135 26.7431 32.9135 26.7431 32.9135 26.7431C32.9135 26.7431 32.9135 26.7431 32.9135 26.7431C32.9135 26.7431 32.9135 26.7431 32.9135 26.7431C32.9135 26.7431 32.9135 26.7431 32.9135 26.7431C32.9135 26.7431 32.9135 26.7431 32.9135 26.7431C32.9135 26.7431 32.9135 26.7431 32.9135 26.7431C32.9135 26.7431 32.9135 26.7431 32.9135 26.7431C32.9135 26.7431 32.9135 26.7431 32.9135 26.7431C32.9135 26.7431 32.9135 26.7431 32.9135 26.7431C32.9135 26.7431 32.9135 26.7431 32.9135 26.7431C32.9135 26.7431 32.9135 26.7431 32.9135 26.7431C32.9135 26.7431 32.9135 26.7431 32.9135 26.7431C32.9135 26.7431 32.9135 26.7431 32.9135 26.7431C32.9135 26.7431 32.9135 26.7431 32.9135 26.7431C32.9135 26.7431 32.9135 26.7431 32.9135 26.7431C32.9135 26.7431 32.9135 26.7431 32.9135 26.7431C32.9135 26.7431 32.9135 26.7431 32.9135 26.7431C32.9135 26.7431 32.9135 26.7431 32.9135 26.7431C32.9135 26.7431 32.9135 26.7431 32.9135 26.7431C32.9135 26.7431 32.9135 26.7431 32.9135 26.7431C32.9135 26.7431 32.9135 26.7431 32.9135 26.7431C32.9135 26.7431 32.9135 26.7431 32.9135 26.7431C32.9135 26.7431 32.9135 26.7431 32.9135 26.7431C32.9135 26.7431 32.9135 26.7431 32.9135 26.7431C32.9135 26.7431 32.9135 26.7431 32.9135 26.7431C32.9135 26.7431 32.9135 26.7431 32.9135 26.7431C32.9135 26.7431 32.9135 26.7431 32.9135 26.7431C32.9135 26.7431 32.9135 26.7431 32.9135 26.7431C32.9135 26.7431 32.9135 26.7431 32.9135 26.7431C32.9135 26.7431 32.9135 26.7431 32.9135 26.7431C32.9135 26.7431 32.9135 26.7431 32.9135 26.7431C32.9135 26.7431 32.9135 26.7431 32.9135 26.7431C32.9135 26.7431 32.9135 26.7431 32.9135 26.7431C32.9135 26.7431 32.9135 26.7431 32.9135 26.7431C32.9135 26.7431 32.9135 26.7431 32.9135 26.7431C32.9135 26.7431 32.9135 26.7431 32.9135 26.7431C32.9135 26.7431 32.9135 26.7431 32.9135 26.7431C32.9135 26.7431 32.9135 26.7431 32.9135 26.7431C32.9135 26.7431 32.9135 26.7431 32.9135 26.7431C32.9135 26.7431 32.9135 26.7431 32.9135 26.7431C32.9135 26.7431 32.9135 26.7431 32.9135 26.7431C32.9135 26.7431 32.9135 26.7431 32.9135 26.7431C32.9135 26.7431 32.9135 26.7431 32.9135 26.7431C32.9135 26.7431 32.9135 26.7431 32.9135 26.7431C32.9135 26.7431 32.9135 26.7431 32.9135 26.7431C32.9135 26.7431 32.9135 26.7431 32.9135 26.7431C32.9135 26.7431 32.9135 26.7431 32.9135 26.7431C32.9135 26.7431 32.9135 26.7431 32.9135 26.7431C32.9135 26.7431 32.9135 26.7431 32.9135 26.7431C32.9135 26.7431 32.9135 26.7431 32.9135 26.7431C32.9135 26.7431 32.9135 26.7431 32.9135 26.7431C32.9135 26.7431 32.9135 26.7431 32.9135 26.7431C32.9135 26.7431 32.9135 26.7431 32.9135 26.7431C32.9135 26.7431 32.9135 26.7431 32.9135 26.7431C32.9135 26.7431 32.9135 26.7431 32.9135 26.7431C32.9135 26.7431 32.9135 26.7431 32.9135 26.7431C32.9135 26.7431 32.9135 26.7431 32.9135 26.7431C32.9135 26.7431 32.9135 26.7431 32.9135 26.7431C32.9135 26.7431 32.9135 26.7431 32.9135 26.7431C32.9135 26.7431 32.9135 26.7431 32.9135 26.7431C32.9135 26.7431 32.9135 26.7431 32.9135 26.7431C32.9135 26.7431 32.9135 26.7431 32.9135 26.7431C32.9135 26.7431 32.9135 26.7431 32.9135 26.7431C32.9135 26.7431 32.9135 26.7431 32.9135 26.7431C32.9135 26.7431 32.9135 26.7431 32.9135 26.7431C32.9135 26.7431 32.9135 26.7431 32.9135 26.7431C32.9135 26.7431 32.9135 26.7431 32.9135 26.7431C32.9135 26.7431 32.9135 26.7431 32.9135 26.7431C32.9135 26.7431 32.9135 26.7431 32.9135 26.7431C32.9135 26.7431 32.9135 26.7431 32.9135 26.7431C32.9135 26.7431 32.9135 26.7431 32.9135 26.7431C32.9135 26.7431 32.9135 26.7431 32.9135 26.7431C32.9135 26.7431 32.9135 26.7431 32.9135 26.7431C32.9135 26.7431 32.9135 26.7431 32.9135 26.7431C32.9135 26.7431 32.9135 26.7431 32.9135 26.7431C32.9135 26.7431 32.9135 26.7431 32.9135 26.7431C32.9135 26.7431 32.9135 26.7431 32.9135 26.7431C32.9135 26.7431 32.9135 26.7431 32.9135 26.7431C32.9135 26.7431 32.9135 26.7431 32.9135 26.7431C32.9135 26.7431 32.9135 26.7431 32.9135 26.7431C32.9135 26.7431 32.9135 26.7431 32.9135 26.7431C32.9135 26.7431 32.9135 26.7431 32.9135 26.7431C32.9135 26.7431 32.9135 26.7431 32.9135 26.7431C32.9135 26.7431 32.9135 26.7431 32.9135 26.7431C32.9135 26.7431 32.9135 26.7431 32.9135 26.7431C32.9135 26.7431 32.9135 26.7431 32.9135 26.7431C32.9135 26.7431 32.9135 26.7431 32.9135 26.7431C32.9135 26.7431 32.9135 26.7431 32.9135 26.7431C32.9135 26.7431 32.9135 26.7431 32.9135 26.7431C32.9135 26.7431 32.9135 26.7431 32.9135 26.7431C32.9135 26.7431 32.9135 26.7431 32.9135 26.7431C32.9135 26.7431 32.9135 26.7431 32.9135 26.7431C32.9135 26.7431 32.9135 26.7431 32.9135 26.7431C32.9135 26.7431 32.9135 26.7431 32.9135 26.7431C32.9135 26.7431 32.9135 26.7431 32.9135 26.7431C32.9135 26.7431 32.9135 26.7431 32.9135 26.7431C32.9135 26.7431 32.9135 26.7431 32.9135 26.7431C32.9135 26.7431 32.9135 26.7431 32.9135 26.7431C32.9135 26.7431 32.9135 26.7431 32.9135 26.7431C32.9135 26.7431 32.9135 26.7431 32.9135 26.7431C32.9135 26.7431 32.9135 26.7431 32.9135 26.7431C32.9135 26.7431 32.9135 26.7431 32.9135 26.7431C32.9135 26.7431 32.9135 26.7431 32.9135 26.7431C32.9135 26.7431 32.9135 26.7431 32.9135 26.7431C32.9135 26.7431 32.9135 26.7431 32.9135 26.7431C32.9135 26.7431 32.9135 26.7431 32.9135 26.7431C32.9135 26.7431 32.9135 26.7431 32.9135 26.7431C32.9135 26.7431 32.9135 26.7431 32.9135 26.7431C32.9135 26.7431 32.9135 26.7431 32.9135 26.7431C32.9135 26.7431 32.9135 26.7431 32.9135 26.7431C32.9135 26.7431 32.9135 26.7431 32.9135 26.7431C32.9135 26.7431 32.9135 26.7431 32.9135 26.7431C32.9135 26.7431 32.9135 26.7431 32.9135 26.7431C32.9135 26.7431 32.9135 26.7431 32.9135 26.7431C32.9135 26.7431 32.9135 26.7431 32.9135 26.7431C32.9135 26.7431 32.9135 26.7431 32.9135 26.7431C32.9135 26.7431 32.9135 26.7431 32.9135 26.7431C32.9135 26.7431 32.9135 26.7431 32.9135 26.7431C32.9135 26.7431 32.9135 26.7431 32.9135 26.7431C32.9135 26.7431 32.9135 26.7431 32.9135 26.7431C32.9135 26.7431 32.9135 26.7431 32.9135 26.7431C32.9135 26.7431 32.9135 26.7431 32.9135 26.7431C32.9135 26.7431 32.9135 26.7431 32.9135 26.7431C32.9135 26.7431 32.9135 26.7431 32.9135 26.7431C32.9135 26.7431 32.9135 26.7431 32.9135 26.7431C32.9135 26.7431 32.9135 26.7431 32.9135 26.7431C32.9135 26.7431 32.9135 26.7431 32.9135 26.7431C32.9135 26.7431 32.9135 26.7431 32.9135 26.7431C32.9135 26.7431 32.9135 26.7431 32.9135 26.7431C32.9135 26.7431 32.9135 26.7431 32.9135 26.7431C32.9135 26.7431 32.9135 26.7431 32.9135 26.7431C32.9135 26.7431 32.9135 26.7431 32.9135 26.7431C32.9135 26.7431 32.9135 26.7431 32.9135 26.7431C32.9135 26.7431 32.9135 26.7431 32.9135 26.7431C32.9135 26.7431 32.9135 26.7431 32.9135 26.7431C32.9135 26.7431 32.9135 26.7431 32.9135 26.7431C32.9135 26.7431 32.9135 26.7431 32.9135 26.7431C32.9135 26.7431 32.9135 26.7431 32.9135 26.7431C32.9135 26.7431 32.9135 26.7431 32.9135 26.7431C32.9135 26.7431 32.9135 26.7431 32.9135 26.7431C32.9135 26.7431 32.9135 26.7431 32.9135 26.7431C32.9135 26.7431 32.9135 26.7431 32.9135 26.7431C32.9135 26.7431 32.9135 26.7431 32.9135 26.7431C32.9135 26.7431 32.9135 26.7431 32.9135 26.7431C32.9135 26.7431 32.9135 26.7431 32.9135 26.7431C32.9135 26.7431 32.9135 26.7431 32.9135 26.7431C32.9135 26.7431 32.9135 26.7431 32.9135 26.7431C32.9135 26.7431 32.9135 26.7431 32.9135 26.7431C32.9135 26.7431 32.9135 26.7431 32.9135 26.7431C32.9135 26.7431 32.9135 26.7431 32.9135 26.7431C32.9135 26.7431 32.9135 26.7431 32.9135 26.7431C32.9135 26.7431 32.9135 26.7431 32.9135 26.7431C32.9135 26.7431 32.9135 26.7431 32.9135 26.7431C32.9135 26.7431 32.9135 26.7431 32.9135 26.7431C32.9135 26.7431 32.9135 26.7431 32.9135 26.7431C32.9135 26.7431 32.9135 26.7431 32.9135 26.7431C32.9135 26.7431 32.9135 26.7431 32.9135 26.7431C32.9135 26.7431 32.9135 26.7431 32.9135 26.7431C32.9135 26.7431 32.9135 26.7431 32.9135 26.7431C32.9135 26.7431 32.9135 26.7431 32.9135 26.7431C32.9135 26.7431 32.9135 26.7431 32.9135 26.7431C32.9135 26.7431 32.9135 26.7431 32.9135 26.7431C32.9135 26.7431 32.9135 26.7431 32.9135 26.7431C32.9135 26.7431 32.9135 26.7431 32.9135 26.7431C32.9135 26.7431 32.9135 26.7431 32.9135 26.7431C32.9135 26.7431 32.9135 26.7431 32.9135 26.7431C32.9135 26.7431 32.9135 26.7431 32.9135 26.7431C32.9135 26.7431 32.9135 26.7431 32.9135 26.7431C32.9135 26.7431 32.9135 26.7431 32.9135 26.7431C32.9135 26.7431 32.9135 26.7431 32.9135 26.7431C32.9135 26.7431 32.9135 26.7431 32.9135 26.7431C32.9135 26.7431 32.9135 26.7431 32.9135 26.7431C32.9135 26.7431 32.9135 26.7431 32.9135 26.7431C32.9135 26.7431 32.9135 26.7431 32.9135 26.7431C32.9135 26.7431 32.9135 26.7431 32.9135 26.7431C32.9135 26.7431 32.9135 26.7431 32.9135 26.7431C32.9135 26.7431 32.9135 26.7431 32.9135 26.7431C32.9135 26.7431 32.9135 26.7431 32.9135 26.7431C32.9135 26.7431 32.9135 26.7431 32.9135 26.7431C32.9135 26.7431 32.9135 26.7431 32.9135 26.7431C32.9135 26.7431 32.9135 26.7431 32.9135 26.7431C32.9135 26.7431 32.9135 26.7431 32.9135 26.7431C32.9135 26.7431 32.9135 26.7431 32.9135 26.7431C32.9135 26.7431 32.9135 26.7431 32.9135 26.7431C32.9135 26.7431 32.9135 26.7431 32.9135 26.7431C32.9135 26.7431 32.9135 26.7431 32.9135 26.7431C32.9135 26.7431 32.9135 26.7431 32.9135 26.7431C32.9135 26.7431 32.9135 26.7431 32.9135 26.7431C32.9135 26.7431 32.9135 26.7431 32.9135 26.7431C32.9135 26.7431 32.9135 26.7431 32.9135 26.7431C32.9135 26.7431 32.9135 26.7431 32.9135 26.7431C32.9135 26.7431 32.9135 26.7431 32.9135 26.7431C32.9135 26.7431 32.9135 26.7431 32.9135 26.7431C32.9135 26.7431 32.9135 26.7431 32.9135 26.7431C32.9135 26.7431 32.9135 26.7431 32.9135 26.7431C32.9135 26.7431 32.9135 26.7431 32.9135 26.7431C32.9135 26.7431 32.9135 26.7431 32.9135 26.7431C32.9135 26.7431 32.9135 26.7431 32.9135 26.7431C32.9135 26.7431 32.9135 26.7431 32.9135 26.7431C32.9135 26.7431 32.9135 26.7431 32.9135 26.7431C32.9135 26.7431 32.9135 26.7431 32.9135 26.7431C32.9135 26.7431 32.9135 26.7431 32.9135 26.7431C32.9135 26.7431 32.9135 26.7431 32.9135 26.7431C32.9135 26.7431 32.9135 26.7431 32.9135 26.7431C32.9135 26.7431 32.9135 26.7431 32.9135 26.7431C32.9135 26.7431 32.9135 26.7431 32.9135 26.7431C32.9135 26.7431 32.9135 26.7431 32.9135 26.7431C32.9135 26.7431 32.9135 26.7431 32.9135 26.7431C32.9135 26.7431 32.9135 26.7431 32.9135 26.7431C32.9135 26.7431 32.9135 26.7431 32.9135 26.7431C32.9135 26.7431 32.9135 26.7431 32.9135 26.7431C32.9135 26.7431 32.9135 26.7431 32.9135 26.7431C32.9135 26.7431 32.9135 26.7431 32.9135 26.7431C32.9135 26.7431 32.9135 26.7431 32.9135 26.7431C32.9135 26.7431 32.9135 26.7431 32.9135 26.7431C32.9135 26.7431 32.9135 26.7431 32.9135 26.7431C32.9135 26.7431 32.9135 26.7431 32.9135 26.7431C32.9135 26.7431 32.9135 26.7431 32.9135 26.7431C32.9135 26.7431 32.9135 26.7431 32.9135 26.7431C32.9135 26.7431 32.9135 26.7431 32.9135 26.7431C32.9135 26.7431 32.9135 26.7431 32.9135 26.7431C32.9135 26.7431 32.9135 26.7431 32.9135 26.7431C32.9135 26.7431 32.9135 26.7431 32.9135 26.7431C32.9135 26.7431 32.9135 26.7431 32.9135 26.7431C32.9135 26.7431 32.9135 26.7431 32.9135 26.7431C32.9135 26.7431 32.9135 26.7431 32.9135 26.7431C32.9135 26.7431 32.9135 26.7431 32.9135 26.7431C32.9135 26.7431 32.9135 26.7431 32.9135 26.7431C32.9135 26.7431 32.9135 26.7431 32.9135 26.7431C32.9135 26.7431 32.9135 26.7431 32.9135 26.7431C32.9135 26.7431 32.9135 26.7431 32.9135 26.7431C32.9135 26.7431 32.9135 26.7431 32.9135 26.7431C32.9135 26.7431 32.9135 26.7431 32.9135 26.7431C32.9135 26.7431 32.9135 26.7431 32.9135 26.7431C32.9135 26.7431 32.9135 26.7431 32.9135 26.7431C32.9135 26.7431 32.9135 26.7431 32.9135 26.7431C32.9135 26.7431 32.9135 26.7431 32.9135 26.7431C32.9135 26.7431 32.9135 26.7431 32.9135 26.7431C32.9135 26.7431 32.9135 26.7431 32.9135 26.7431C32.9135 26.7431 32.9135 26.7431 32.9135 26.7431C32.9135 26.7431 32.9135 26.7431 32.9135 26.7431C32.9135 26.7431 32.9135 26.7431 32.9135 26.7431C32.9135 26.7431 32.9135 26.7431 32.9135 26.7431C32.9135 26.7431 32.9135 26.7431 32.9135 26.7431C32.9135 26.7431 32.9135 26.7431 32.9135 26.7431V28.7431C32.9135 28.7431 32.9135 28.7431 32.9135 28.7431C32.9135 28.7431 32.9135 28.7431 32.9135 28.7431C32.9135 28.7431 32.9135 28.7431 32.9135 28.7431C32.9135 28.7431 32.9135 28.7431 32.9135 28.7431C32.9135 28.7431 32.9135 28.7431 32.9135 28.7431C32.9135 28.7431 32.9135 28.7431 32.9135 28.7431C32.9135 28.7431 32.9135 28.7431 32.9135 28.7431C32.9135 28.7431 32.9135 28.7431 32.9135 28.7431C32.9135 28.7431 32.9135 28.7431 32.9135 28.7431C32.9135 28.7431 32.9135 28.7431 32.9135 28.7431C32.9135 28.7431 32.9135 28.7431 32.9135 28.7431C32.9135 28.7431 32.9135 28.7431 32.9135 28.7431C32.9135 28.7431 32.9135 28.7431 32.9135 28.7431C32.9135 28.7431 32.9135 28.7431 32.9135 28.7431C32.9135 28.7431 32.9135 28.7431 32.9135 28.7431C32.9135 28.7431 32.9135 28.7431 32.9135 28.7431C32.9135 28.7431 32.9135 28.7431 32.9135 28.7431C32.9135 28.7431 32.9135 28.7431 32.9135 28.7431C32.9135 28.7431 32.9135 28.7431 32.9135 28.7431C32.9135 28.7431 32.9135 28.7431 32.9135 28.7431C32.9135 28.7431 32.9135 28.7431 32.9135 28.7431C32.9135 28.7431 32.9135 28.7431 32.9135 28.7431C32.9135 28.7431 32.9135 28.7431 32.9135 28.7431C32.9135 28.7431 32.9135 28.7431 32.9135 28.7431C32.9135 28.7431 32.9135 28.7431 32.9135 28.7431C32.9135 28.7431 32.9135 28.7431 32.9135 28.7431C32.9135 28.7431 32.9135 28.7431 32.9135 28.7431C32.9135 28.7431 32.9135 28.7431 32.9135 28.7431C32.9135 28.7431 32.9135 28.7431 32.9135 28.7431C32.9135 28.7431 32.9135 28.7431 32.9135 28.7431C32.9135 28.7431 32.9135 28.7431 32.9135 28.7431C32.9135 28.7431 32.9135 28.7431 32.9135 28.7431C32.9135 28.7431 32.9135 28.7431 32.9135 28.7431C32.9135 28.7431 32.9135 28.7431 32.9135 28.7431C32.9135 28.7431 32.9135 28.7431 32.9135 28.7431C32.9135 28.7431 32.9135 28.7431 32.9135 28.7431C32.9135 28.7431 32.9135 28.7431 32.9135 28.7431C32.9135 28.7431 32.9135 28.7431 32.9135 28.7431C32.9135 28.7431 32.9135 28.7431 32.9135 28.7431C32.9135 28.7431 32.9135 28.7431 32.9135 28.7431C32.9135 28.7431 32.9135 28.7431 32.9135 28.7431C32.9135 28.7431 32.9135 28.7431 32.9135 28.7431C32.9135 28.7431 32.9135 28.7431 32.9135 28.7431C32.9135 28.7431 32.9135 28.7431 32.9135 28.7431C32.9135 28.7431 32.9135 28.7431 32.9135 28.7431C32.9135 28.7431 32.9135 28.7431 32.9135 28.7431C32.9135 28.7431 32.9135 28.7431 32.9135 28.7431C32.9135 28.7431 32.9135 28.7431 32.9135 28.7431C32.9135 28.7431 32.9135 28.7431 32.9135 28.7431C32.9135 28.7431 32.9135 28.7431 32.9135 28.7431C32.9135 28.7431 32.9135 28.7431 32.9135 28.7431C32.9135 28.7431 32.9135 28.7431 32.9135 28.7431C32.9135 28.7431 32.9135 28.7431 32.9135 28.7431C32.9135 28.7431 32.9135 28.7431 32.9135 28.7431C32.9135 28.7431 32.9135 28.7431 32.9135 28.7431C32.9135 28.7431 32.9135 28.7431 32.9135 28.7431C32.9135 28.7431 32.9135 28.7431 32.9135 28.7431C32.9135 28.7431 32.9135 28.7431 32.9135 28.7431C32.9135 28.7431 32.9135 28.7431 32.9135 28.7431C32.9135 28.7431 32.9135 28.7431 32.9135 28.7431C32.9135 28.7431 32.9135 28.7431 32.9135 28.7431C32.9135 28.7431 32.9135 28.7431 32.9135 28.7431C32.9135 28.7431 32.9135 28.7431 32.9135 28.7431C32.9135 28.7431 32.9135 28.7431 32.9135 28.7431C32.9135 28.7431 32.9135 28.7431 32.9135 28.7431C32.9135 28.7431 32.9135 28.7431 32.9135 28.7431C32.9135 28.7431 32.9135 28.7431 32.9135 28.7431C32.9135 28.7431 32.9135 28.7431 32.9135 28.7431C32.9135 28.7431 32.9135 28.7431 32.9135 28.7431C32.9135 28.7431 32.9135 28.7431 32.9135 28.7431C32.9135 28.7431 32.9135 28.7431 32.9135 28.7431C32.9135 28.7431 32.9135 28.7431 32.9135 28.7431C32.9135 28.7431 32.9135 28.7431 32.9135 28.7431C32.9135 28.7431 32.9135 28.7431 32.9135 28.7431C32.9135 28.7431 32.9135 28.7431 32.9135 28.7431C32.9135 28.7431 32.9135 28.7431 32.9135 28.7431C32.9135 28.7431 32.9135 28.7431 32.9135 28.7431C32.9135 28.7431 32.9135 28.7431 32.9135 28.7431C32.9135 28.7431 32.9135 28.7431 32.9135 28.7431C32.9135 28.7431 32.9135 28.7431 32.9135 28.7431C32.9135 28.7431 32.9135 28.7431 32.9135 28.7431C32.9135 28.7431 32.9135 28.7431 32.9135 28.7431C32.9135 28.7431 32.9135 28.7431 32.9135 28.7431C32.9135 28.7431 32.9135 28.7431 32.9135 28.7431C32.9135 28.7431 32.9135 28.7431 32.9135 28.7431C32.9135 28.7431 32.9135 28.7431 32.9135 28.7431C32.9135 28.7431 32.9135 28.7431 32.9135 28.7431C32.9135 28.7431 32.9135 28.7431 32.9135 28.7431C32.9135 28.7431 32.9135 28.7431 32.9135 28.7431C32.9135 28.7431 32.9135 28.7431 32.9135 28.7431C32.9135 28.7431 32.9135 28.7431 32.9135 28.7431C32.9135 28.7431 32.9135 28.7431 32.9135 28.7431C32.9135 28.7431 32.9135 28.7431 32.9135 28.7431C32.9135 28.7431 32.9135 28.7431 32.9135 28.7431C32.9135 28.7431 32.9135 28.7431 32.9135 28.7431C32.9135 28.7431 32.9135 28.7431 32.9135 28.7431C32.9135 28.7431 32.9135 28.7431 32.9135 28.7431C32.9135 28.7431 32.9135 28.7431 32.9135 28.7431C32.9135 28.7431 32.9135 28.7431 32.9135 28.7431C32.9135 28.7431 32.9135 28.7431 32.9135 28.7431C32.9135 28.7431 32.9135 28.7431 32.9135 28.7431C32.9135 28.7431 32.9135 28.7431 32.9135 28.7431C32.9135 28.7431 32.9135 28.7431 32.9135 28.7431C32.9135 28.7431 32.9135 28.7431 32.9135 28.7431C32.9135 28.7431 32.9135 28.7431 32.9135 28.7431C32.9135 28.7431 32.9135 28.7431 32.9135 28.7431C32.9135 28.7431 32.9135 28.7431 32.9135 28.7431C32.9135 28.7431 32.9135 28.7431 32.9135 28.7431C32.9135 28.7431 32.9135 28.7431 32.9135 28.7431C32.9135 28.7431 32.9135 28.7431 32.9135 28.7431C32.9135 28.7431 32.9135 28.7431 32.9135 28.7431C32.9135 28.7431 32.9135 28.7431 32.9135 28.7431C32.9135 28.7431 32.9135 28.7431 32.9135 28.7431C32.9135 28.7431 32.9135 28.7431 32.9135 28.7431C32.9135 28.7431 32.9135 28.7431 32.9135 28.7431C32.9135 28.7431 32.9135 28.7431 32.9135 28.7431C32.9135 28.7431 32.9135 28.7431 32.9135 28.7431C32.9135 28.7431 32.9135 28.7431 32.9135 28.7431C32.9135 28.7431 32.9135 28.7431 32.9135 28.7431C32.9135 28.7431 32.9135 28.7431 32.9135 28.7431C32.9135 28.7431 32.9135 28.7431 32.9135 28.7431C32.9135 28.7431 32.9135 28.7431 32.9135 28.7431C32.9135 28.7431 32.9135 28.7431 32.9135 28.7431C32.9135 28.7431 32.9135 28.7431 32.9135 28.7431C32.9135 28.7431 32.9135 28.7431 32.9135 28.7431C32.9135 28.7431 32.9135 28.7431 32.9135 28.7431C32.9135 28.7431 32.9135 28.7431 32.9135 28.7431C32.9135 28.7431 32.9135 28.7431 32.9135 28.7431C32.9135 28.7431 32.9135 28.7431 32.9135 28.7431C32.9135 28.7431 32.9135 28.7431 32.9135 28.7431C32.9135 28.7431 32.9135 28.7431 32.9135 28.7431C32.9135 28.7431 32.9135 28.7431 32.9135 28.7431C32.9135 28.7431 32.9135 28.7431 32.9135 28.7431C32.9135 28.7431 32.9135 28.7431 32.9135 28.7431C32.9135 28.7431 32.9135 28.7431 32.9135 28.7431C32.9135 28.7431 32.9135 28.7431 32.9135 28.7431C32.9135 28.7431 32.9135 28.7431 32.9135 28.7431C32.9135 28.7431 32.9135 28.7431 32.9135 28.7431C32.9135 28.7431 32.9135 28.7431 32.9135 28.7431C32.9135 28.7431 32.9135 28.7431 32.9135 28.7431C32.9135 28.7431 32.9135 28.7431 32.9135 28.7431C32.9135 28.7431 32.9135 28.7431 32.9135 28.7431C32.9135 28.7431 32.9135 28.7431 32.9135 28.7431C32.9135 28.7431 32.9135 28.7431 32.9135 28.7431C32.9135 28.7431 32.9135 28.7431 32.9135 28.7431C32.9135 28.7431 32.9135 28.7431 32.9135 28.7431C32.9135 28.7431 32.9135 28.7431 32.9135 28.7431C32.9135 28.7431 32.9135 28.7431 32.9135 28.7431C32.9135 28.7431 32.9135 28.7431 32.9135 28.7431C32.9135 28.7431 32.9135 28.7431 32.9135 28.7431C32.9135 28.7431 32.9135 28.7431 32.9135 28.7431C32.9135 28.7431 32.9135 28.7431 32.9135 28.7431C32.9135 28.7431 32.9135 28.7431 32.9135 28.7431C32.9135 28.7431 32.9135 28.7431 32.9135 28.7431C32.9135 28.7431 32.9135 28.7431 32.9135 28.7431C32.9135 28.7431 32.9135 28.7431 32.9135 28.7431C32.9135 28.7431 32.9135 28.7431 32.9135 28.7431C32.9135 28.7431 32.9135 28.7431 32.9135 28.7431C32.9135 28.7431 32.9135 28.7431 32.9135 28.7431C32.9135 28.7431 32.9135 28.7431 32.9135 28.7431C32.9135 28.7431 32.9135 28.7431 32.9135 28.7431C32.9135 28.7431 32.9135 28.7431 32.9135 28.7431C32.9135 28.7431 32.9135 28.7431 32.9135 28.7431C32.9135 28.7431 32.9135 28.7431 32.9135 28.7431C32.9135 28.7431 32.9135 28.7431 32.9135 28.7431C32.9135 28.7431 32.9135 28.7431 32.9135 28.7431C32.9135 28.7431 32.9135 28.7431 32.9135 28.7431C32.9135 28.7431 32.9135 28.7431 32.9135 28.7431C32.9135 28.7431 32.9135 28.7431 32.9135 28.7431C32.9135 28.7431 32.9135 28.7431 32.9135 28.7431C32.9135 28.7431 32.9135 28.7431 32.9135 28.7431C32.9135 28.7431 32.9135 28.7431 32.9135 28.7431C32.9135 28.7431 32.9135 28.7431 32.9135 28.7431C32.9135 28.7431 32.9135 28.7431 32.9135 28.7431C32.9135 28.7431 32.9135 28.7431 32.9135 28.7431C32.9135 28.7431 32.9135 28.7431 32.9135 28.7431C32.9135 28.7431 32.9135 28.7431 32.9135 28.7431C32.9135 28.7431 32.9135 28.7431 32.9135 28.7431C32.9135 28.7431 32.9135 28.7431 32.9135 28.7431C32.9135 28.7431 32.9135 28.7431 32.9135 28.7431C32.9135 28.7431 32.9135 28.7431 32.9135 28.7431C32.9135 28.7431 32.9135 28.7431 32.9135 28.7431C32.9135 28.7431 32.9135 28.7431 32.9135 28.7431C32.9135 28.7431 32.9135 28.7431 32.9135 28.7431C32.9135 28.7431 32.9135 28.7431 32.9135 28.7431C32.9135 28.7431 32.9135 28.7431 32.9135 28.7431C32.9135 28.7431 32.9135 28.7431 32.9135 28.7431C32.9135 28.7431 32.9135 28.7431 32.9135 28.7431C32.9135 28.7431 32.9135 28.7431 32.9135 28.7431C32.9135 28.7431 32.9135 28.7431 32.9135 28.7431C32.9135 28.7431 32.9135 28.7431 32.9135 28.7431C32.9135 28.7431 32.9135 28.7431 32.9135 28.7431C32.9135 28.7431 32.9135 28.7431 32.9135 28.7431C32.9135 28.7431 32.9135 28.7431 32.9135 28.7431C32.9135 28.7431 32.9135 28.7431 32.9135 28.7431C32.9135 28.7431 32.9135 28.7431 32.9135 28.7431C32.9135 28.7431 32.9135 28.7431 32.9135 28.7431C32.9135 28.7431 32.9135 28.7431 32.9135 28.7431C32.9135 28.7431 32.9135 28.7431 32.9135 28.7431C32.9135 28.7431 32.9135 28.7431 32.9135 28.7431C32.9135 28.7431 32.9135 28.7431 32.9135 28.7431C32.9135 28.7431 32.9135 28.7431 32.9135 28.7431C32.9135 28.7431 32.9135 28.7431 32.9135 28.7431C32.9135 28.7431 32.9135 28.7431 32.9135 28.7431C32.9135 28.7431 32.9135 28.7431 32.9135 28.7431C32.9135 28.7431 32.9135 28.7431 32.9135 28.7431C32.9135 28.7431 32.9135 28.7431 32.9135 28.7431C32.9135 28.7431 32.9135 28.7431 32.9135 28.7431C32.9135 28.7431 32.9135 28.7431 32.9135 28.7431C32.9135 28.7431 32.9135 28.7431 32.9135 28.7431C32.9135 28.7431 32.9135 28.7431 32.9135 28.7431C32.9135 28.7431 32.9135 28.7431 32.9135 28.7431C32.9135 28.7431 32.9135 28.7431 32.9135 28.7431C32.9135 28.7431 32.9135 28.7431 32.9135 28.7431C32.9135 28.7431 32.9135 28.7431 32.9135 28.7431C32.9135 28.7431 32.9135 28.7431 32.9135 28.7431C32.9135 28.7431 32.9135 28.7431 32.9135 28.7431C32.9135 28.7431 32.9135 28.7431 32.9135 28.7431C32.9135 28.7431 32.9135 28.7431 32.9135 28.7431C32.9135 28.7431 32.9135 28.7431 32.9135 28.7431C32.9135 28.7431 32.9135 28.7431 32.9135 28.7431C32.9135 28.7431 32.9135 28.7431 32.9135 28.7431C32.9135 28.7431 32.9135 28.7431 32.9135 28.7431C32.9135 28.7431 32.9135 28.7431 32.9135 28.7431C32.9135 28.7431 32.9135 28.7431 32.9135 28.7431C32.9135 28.7431 32.9135 28.7431 32.9135 28.7431C32.9135 28.7431 32.9135 28.7431 32.9135 28.7431C32.9135 28.7431 32.9135 28.7431 32.9135 28.7431C32.9135 28.7431 32.9135 28.7431 32.9135 28.7431C32.9135 28.7431 32.9135 28.7431 32.9135 28.7431C32.9135 28.7431 32.9135 28.7431 32.9135 28.7431C32.9135 28.7431 32.9135 28.7431 32.9135 28.7431C32.9135 28.7431 32.9135 28.7431 32.9135 28.7431C32.9135 28.7431 32.9135 28.7431 32.9135 28.7431C32.9135 28.7431 32.9135 28.7431 32.9135 28.7431C32.9135 28.7431 32.9135 28.7431 32.9135 28.7431C32.9135 28.7431 32.9135 28.7431 32.9135 28.7431C32.9135 28.7431 32.9135 28.7431 32.9135 28.7431C32.9135 28.7431 32.9135 28.7431 32.9135 28.7431C32.9135 28.7431 32.9135 28.7431 32.9135 28.7431C32.9135 28.7431 32.9135 28.7431 32.9135 28.7431C32.9135 28.7431 32.9135 28.7431 32.9135 28.7431C32.9135 28.7431 32.9135 28.7431 32.9135 28.7431C32.9135 28.7431 32.9135 28.7431 32.9135 28.7431C32.9135 28.7431 32.9135 28.7431 32.9135 28.7431C32.9135 28.7431 32.9135 28.7431 32.9135 28.7431C32.9135 28.7431 32.9135 28.7431 32.9135 28.7431C32.9135 28.7431 32.9135 28.7431 32.9135 28.7431C32.9135 28.7431 32.9135 28.7431 32.9135 28.7431C32.9135 28.7431 32.9135 28.7431 32.9135 28.7431C32.9135 28.7431 32.9135 28.7431 32.9135 28.7431C32.9135 28.7431 32.9135 28.7431 32.9135 28.7431C32.9135 28.7431 32.9135 28.7431 32.9135 28.7431C32.9135 28.7431 32.9135 28.7431 32.9135 28.7431C32.9135 28.7431 32.9135 28.7431 32.9135 28.7431C32.9135 28.7431 32.9135 28.7431 32.9135 28.7431C32.9135 28.7431 32.9135 28.7431 32.9135 28.7431C32.9135 28.7431 32.9135 28.7431 32.9135 28.7431C32.9135 28.7431 32.9135 28.7431 32.9135 28.7431C32.9135 28.7431 32.9135 28.7431 32.9135 28.7431C32.9135 28.7431 32.9135 28.7431 32.9135 28.7431C32.9135 28.7431 32.9135 28.7431 32.9135 28.7431C32.9135 28.7431 32.9135 28.7431 32.9135 28.7431C32.9135 28.7431 32.9135 28.7431 32.9135 28.7431C32.9135 28.7431 32.9135 28.7431 32.9135 28.7431C32.9135 28.7431 32.9135 28.7431 32.9135 28.7431C32.9135 28.7431 32.9135 28.7431 32.9135 28.7431C32.9135 28.7431 32.9135 28.7431 32.9135 28.7431C32.9135 28.7431 32.9135 28.7431 32.9135 28.7431C32.9135 28.7431 32.9135 28.7431 32.9135 28.7431C32.9135 28.7431 32.9135 28.7431 32.9135 28.7431C32.9135 28.7431 32.9135 28.7431 32.9135 28.7431C32.9135 28.7431 32.9135 28.7431 32.9135 28.7431C32.9135 28.7431 32.9135 28.7431 32.9135 28.7431C32.9135 28.7431 32.9135 28.7431 32.9135 28.7431C32.9135 28.7431 32.9135 28.7431 32.9135 28.7431C32.9135 28.7431 32.9135 28.7431 32.9135 28.7431C32.9135 28.7431 32.9135 28.7431 32.9135 28.7431C32.9135 28.7431 32.9135 28.7431 32.9135 28.7431C32.9135 28.7431 32.9135 28.7431 32.9135 28.7431C32.9135 28.7431 32.9135 28.7431 32.9135 28.7431C32.9135 28.7431 32.9135 28.7431 32.9135 28.7431C32.9135 28.7431 32.9135 28.7431 32.9135 28.7431C32.9135 28.7431 32.9135 28.7431 32.9135 28.7431C32.9135 28.7431 32.9135 28.7431 32.9135 28.7431C32.9135 28.7431 32.9135 28.7431 32.9135 28.7431C32.9135 28.7431 32.9135 28.7431 32.9135 28.7431C32.9135 28.7431 32.9135 28.7431 32.9135 28.7431C32.9135 28.7431 32.9135 28.7431 32.9135 28.7431C32.9135 28.7431 32.9135 28.7431 32.9135 28.7431C32.9135 28.7431 32.9135 28.7431 32.9135 28.7431C32.9135 28.7431 32.9135 28.7431 32.9135 28.7431C32.9135 28.7431 32.9135 28.7431 32.9135 28.7431C32.9135 28.7431 32.9135 28.7431 32.9135 28.7431C32.9135 28.7431 32.9135 28.7431 32.9135 28.7431C32.9135 28.7431 32.9135 28.7431 32.9135 28.7431C32.9135 28.7431 32.9135 28.7431 32.9135 28.7431C32.9135 28.7431 32.9135 28.7431 32.9135 28.7431C32.9135 28.7431 32.9135 28.7431 32.9135 28.7431C32.9135 28.7431 32.9135 28.7431 32.9135 28.7431C32.9135 28.7431 32.9135 28.7431 32.9135 28.7431C32.9135 28.7431 32.9135 28.7431 32.9135 28.7431C32.9135 28.7431 32.9135 28.7431 32.9135 28.7431C32.9135 28.7431 32.9135 28.7431 32.9135 28.7431C32.9135 28.7431 32.9135 28.7431 32.9135 28.7431C32.9135 28.7431 32.9135 28.7431 32.9135 28.7431C32.9135 28.7431 32.9135 28.7431 32.9135 28.7431C32.9135 28.7431 32.9135 28.7431 32.9135 28.7431C32.9135 28.7431 32.9135 28.7431 32.9135 28.7431C32.9135 28.7431 32.9135 28.7431 32.9135 28.7431C32.9135 28.7431 32.9135 28.7431 32.9135 28.7431C32.9135 28.7431 32.9135 28.7431 32.9135 28.7431C32.9135 28.7431 32.9135 28.7431 32.9135 28.7431C32.9135 28.7431 32.9135 28.7431 32.9135 28.7431C32.9135 28.7431 32.9135 28.7431 32.9135 28.7431C32.9135 28.7431 32.9135 28.7431 32.9135 28.7431C32.9135 28.7431 32.9135 28.7431 32.9135 28.7431C32.9135 28.7431 32.9135 28.7431 32.9135 28.7431C32.9135 28.7431 32.9135 28.7431 32.9135 28.7431C32.9135 28.7431 32.9135 28.7431 32.9135 28.7431C32.9135 28.7431 32.9135 28.7431 32.9135 28.7431C32.9135 28.7431 32.9135 28.7431 32.9135 28.7431C32.9135 28.7431 32.9135 28.7431 32.9135 28.7431C32.9135 28.7431 32.9135 28.7431 32.9135 28.7431C32.9135 28.7431 32.9135 28.7431 32.9135 28.7431C32.9135 28.7431 32.9135 28.7431 32.9135 28.7431C32.9135 28.7431 32.9135 28.7431 32.9135 28.7431C32.9135 28.7431 32.9135 28.7431 32.9135 28.7431C32.9135 28.7431 32.9135 28.7431 32.9135 28.7431C32.9135 28.7431 32.9135 28.7431 32.9135 28.7431C32.9135 28.7431 32.9135 28.7431 32.9135 28.7431C32.9135 28.7431 32.9135 28.7431 32.9135 28.7431C32.9135 28.7431 32.9135 28.7431 32.9135 28.7431C32.9135 28.7431 32.9135 28.7431 32.9135 28.7431C32.9135 28.7431 32.9135 28.7431 32.9135 28.7431C32.9135 28.7431 32.9135 28.7431 32.9135 28.7431C32.9135 28.7431 32.9135 28.7431 32.9135 28.7431C32.9135 28.7431 32.9135 28.7431 32.9135 28.7431C32.9135 28.7431 32.9135 28.7431 32.9135 28.7431C32.9135 28.7431 32.9135 28.7431 32.9135 28.7431C32.9135 28.7431 32.9135 28.7431 32.9135 28.7431C32.9135 28.7431 32.9135 28.7431 32.9135 28.7431C32.9135 28.7431 32.9135 28.7431 32.9135 28.7431C32.9135 28.7431 32.9135 28.7431 32.9135 28.7431C32.9135 28.7431 32.9135 28.7431 32.9135 28.7431C32.9135 28.7431 32.9135 28.7431 32.9135 28.7431C32.9135 28.7431 32.9135 28.7431 32.9135 28.7431C32.9135 28.7431 32.9135 28.7431 32.9135 28.7431C32.9135 28.7431 32.9135 28.7431 32.9135 28.7431C32.9135 28.7431 32.9135 28.7431 32.9135 28.7431C32.9135 28.7431 32.9135 28.7431 32.9135 28.7431C32.9135 28.7431 32.9135 28.7431 32.9135 28.7431C32.9135 28.7431 32.9135 28.7431 32.9135 28.7431C32.9135 28.7431 32.9135 28.7431 32.9135 28.7431C32.9135 28.7431 32.9135 28.7431 32.9135 28.7431C32.9135 28.7431 32.9135 28.7431 32.9135 28.7431C32.9135 28.7431 32.9135 28.7431 32.9135 28.7431C32.9135 28.7431 32.9135 28.7431 32.9135 28.7431C32.9135 28.7431 32.9135 28.7431 32.9135 28.7431C32.9135 28.7431 32.9135 28.7431 32.9135 28.7431C32.9135 28.7431 32.9135 28.7431 32.9135 28.7431C32.9135 28.7431 32.9135 28.7431 32.9135 28.7431C32.9135 28.7431 32.9135 28.7431 32.9135 28.7431C32.9135 28.7431 32.9135 28.7431 32.9135 28.7431C32.9135 28.7431 32.9135 28.7431 32.9135 28.7431C32.9135 28.7431 32.9135 28.7431 32.9135 28.7431C32.9135 28.7431 32.9135 28.7431 32.9135 28.7431C32.9135 28.7431 32.9135 28.7431 32.9135 28.7431C32.9135 28.7431 32.9135 28.7431 32.9135 28.7431C32.9135 28.7431 32.9135 28.7431 32.9135 28.7431C32.9135 28.7431 32.9135 28.7431 32.9135 28.7431C32.9135 28.7431 32.9135 28.7431 32.9135 28.7431C32.9135 28.7431 32.9135 28.7431 32.9135 28.7431C32.9135 28.7431 32.9135 28.7431 32.9135 28.7431C32.9135 28.7431 32.9135 28.7431 32.9135 28.7431C32.9135 28.7431 32.9135 28.7431 32.9135 28.7431C32.9135 28.7431 32.9135 28.7431 32.9135 28.7431C32.9135 28.7431 32.9135 28.7431 32.9135 28.7431C32.9135 28.7431 32.9135 28.7431 32.9135 28.7431C32.9135 28.7431 32.9135 28.7431 32.9135 28.7431C32.9135 28.7431 32.9135 28.7431 32.9135 28.7431C32.9135 28.7431 32.9135 28.7431 32.9135 28.7431C32.9135 28.7431 32.9135 28.7431 32.9135 28.7431C32.9135 28.7431 32.9135 28.7431 32.9135 28.7431C32.9135 28.7431 32.9135 28.7431 32.9135 28.7431C32.9135 28.7431 32.9135 28.7431 32.9135 28.7431C32.9135 28.7431 32.9135 28.7431 32.9135 28.7431C32.9135 28.7431 32.9135 28.7431 32.9135 28.7431C32.9135 28.7431 32.9135 28.7431 32.9135 28.7431C32.9135 28.7431 32.9135 28.7431 32.9135 28.7431C32.9135 28.7431 32.9135 28.7431 32.9135 28.7431C32.9135 28.7431 32.9135 28.7431 32.9135 28.7431C32.9135 28.7431 32.9135 28.7431 32.9135 28.7431C32.9135 28.7431 32.9135 28.7431 32.9135 28.7431C32.9135 28.7431 32.9135 28.7431 32.9135 28.7431C32.9135 28.7431 32.9135 28.7431 32.9135 28.7431C32.9135 28.7431 32.9135 28.7431 32.9135 28.7431C32.9135 28.7431 32.9135 28.7431 32.9135 28.7431C32.9135 28.7431 32.9135 28.7431 32.9135 28.7431C32.9135 28.7431 32.9135 28.7431 32.9135 28.7431C32.9135 28.7431 32.9135 28.7431 32.9135 28.7431C32.9136 28.7431 32.9136 28.7431 32.9136 28.7431C32.9136 28.7431 32.9136 28.7431 32.9136 28.7431C32.9136 28.7431 32.9136 28.7431 32.9136 28.7431C32.9136 28.7431 32.9136 28.7431 32.9136 28.7431C32.9136 28.7431 32.9136 28.7431 32.9136 28.7431C32.9136 28.7431 32.9136 28.7431 32.9136 28.7431C32.9136 28.7431 32.9136 28.7431 32.9136 28.7431C32.9136 28.7431 32.9136 28.7431 32.9136 28.7431C32.9136 28.7431 32.9136 28.7431 32.9136 28.7431C32.9136 28.7431 32.9136 28.7431 32.9136 28.7431C32.9136 28.7431 32.9136 28.7431 32.9136 28.7431C32.9136 28.7431 32.9136 28.7431 32.9136 28.7431C32.9136 28.7431 32.9136 28.7431 32.9136 28.7431C32.9136 28.7431 32.9136 28.7431 32.9136 28.7431C32.9136 28.7431 32.9136 28.7431 32.9136 28.7431C32.9136 28.7431 32.9136 28.7431 32.9136 28.7431C32.9136 28.7431 32.9136 28.7431 32.9136 28.7431C32.9136 28.7431 32.9136 28.7431 32.9136 28.7431C32.9136 28.7431 32.9136 28.7431 32.9136 28.7431C32.9136 28.7431 32.9136 28.7431 32.9136 28.7431C32.9136 28.7431 32.9136 28.7431 32.9136 28.7431C32.9136 28.7431 32.9136 28.7431 32.9136 28.7431C32.9136 28.7431 32.9136 28.7431 32.9136 28.7431C32.9136 28.7431 32.9136 28.7431 32.9136 28.7431C32.9136 28.7431 32.9136 28.7431 32.9136 28.7431C32.9136 28.7431 32.9136 28.7431 32.9136 28.7431C32.9136 28.7431 32.9136 28.7431 32.9136 28.7431C32.9136 28.7431 32.9136 28.7431 32.9136 28.7431C32.9136 28.7431 32.9136 28.7431 32.9136 28.7431C32.9136 28.7431 32.9136 28.7431 32.9136 28.7431C32.9136 28.7431 32.9136 28.7431 32.9136 28.7431C32.9136 28.7431 32.9136 28.7431 32.9136 28.7431C32.9136 28.7431 32.9136 28.7431 32.9136 28.7431C32.9136 28.7431 32.9136 28.7431 32.9136 28.7431C32.9136 28.7431 32.9136 28.7431 32.9136 28.7431C32.9136 28.7431 32.9136 28.7431 32.9136 28.7431C32.9136 28.7431 32.9136 28.7431 32.9136 28.7431C32.9136 28.7431 32.9136 28.7431 32.9136 28.7431C32.9136 28.7431 32.9136 28.7431 32.9136 28.7431C32.9136 28.7431 32.9136 28.7431 32.9136 28.7431C32.9136 28.7431 32.9136 28.7431 32.9136 28.7431C32.9136 28.7431 32.9136 28.7431 32.9136 28.7431C32.9136 28.7431 32.9136 28.7431 32.9136 28.7431C32.9136 28.7431 32.9136 28.7431 32.9136 28.7431C32.9136 28.7431 32.9136 28.7431 32.9136 28.7431C32.9136 28.7431 32.9136 28.7431 32.9136 28.7431C32.9136 28.7431 32.9136 28.7431 32.9136 28.7431C32.9136 28.7431 32.9136 28.7431 32.9136 28.7431C32.9136 28.7431 32.9136 28.7431 32.9136 28.7431C32.9136 28.7431 32.9136 28.7431 32.9136 28.7431C32.9136 28.7431 32.9136 28.7431 32.9136 28.7431C32.9136 28.7431 32.9136 28.7431 32.9136 28.7431C32.9136 28.7431 32.9136 28.7431 32.9136 28.7431C32.9136 28.7431 32.9136 28.7431 32.9136 28.7431C32.9136 28.7431 32.9136 28.7431 32.9136 28.7431C32.9136 28.7431 32.9136 28.7431 32.9136 28.7431C32.9136 28.7431 32.9136 28.7431 32.9136 28.7431C32.9136 28.7431 32.9136 28.7431 32.9136 28.7431C32.9136 28.7431 32.9136 28.7431 32.9136 28.7431C32.9136 28.7431 32.9136 28.7431 32.9136 28.7431C32.9136 28.7431 32.9136 28.7431 32.9136 28.7431C32.9136 28.7431 32.9136 28.7431 32.9136 28.7431C32.9136 28.7431 32.9136 28.7431 32.9136 28.7431C32.9136 28.7431 32.9136 28.7431 32.9136 28.7431C32.9136 28.7431 32.9136 28.7431 32.9136 28.7431C32.9136 28.7431 32.9136 28.7431 32.9136 28.7431C32.9136 28.7431 32.9136 28.7431 32.9136 28.7431C32.9136 28.7431 32.9136 28.7431 32.9136 28.7431C32.9136 28.7431 32.9136 28.7431 32.9136 28.7431C32.9136 28.7431 32.9136 28.7431 32.9136 28.7431C32.9136 28.7431 32.9136 28.7431 32.9136 28.7431C32.9136 28.7431 32.9136 28.7431 32.9136 28.7431C32.9136 28.7431 32.9136 28.7431 32.9136 28.7431C32.9136 28.7431 32.9136 28.7431 32.9136 28.7431C32.9136 28.7431 32.9136 28.7431 32.9136 28.7431C32.9136 28.7431 32.9136 28.7431 32.9136 28.7431C32.9136 28.7431 32.9136 28.7431 32.9136 28.7431C32.9136 28.7431 32.9136 28.7431 32.9136 28.7431C32.9136 28.7431 32.9136 28.7431 32.9136 28.7431C32.9136 28.7431 32.9136 28.7431 32.9136 28.7431C32.9136 28.7431 32.9136 28.7431 32.9136 28.7431C32.9136 28.7431 32.9136 28.7431 32.9136 28.7431C32.9136 28.7431 32.9136 28.7431 32.9136 28.7431C32.9136 28.7431 32.9136 28.7431 32.9136 28.7431C32.9136 28.7431 32.9136 28.7431 32.9136 28.7431C32.9136 28.7431 32.9136 28.7431 32.9136 28.7431C32.9136 28.7431 32.9136 28.7431 32.9136 28.7431C32.9136 28.7431 32.9136 28.7431 32.9136 28.7431C32.9136 28.7431 32.9136 28.7431 32.9136 28.7431C32.9136 28.7431 32.9136 28.7431 32.9136 28.7431C32.9136 28.7431 32.9136 28.7431 32.9136 28.7431C32.9136 28.7431 32.9136 28.7431 32.9136 28.7431C32.9136 28.7431 32.9136 28.7431 32.9136 28.7431C32.9136 28.7431 32.9136 28.7431 32.9136 28.7431C32.9136 28.7431 32.9136 28.7431 32.9136 28.7431C32.9136 28.7431 32.9136 28.7431 32.9136 28.7431C32.9136 28.7431 32.9136 28.7431 32.9136 28.7431C32.9136 28.7431 32.9136 28.7431 32.9136 28.7431C32.9136 28.7431 32.9136 28.7431 32.9136 28.7431C32.9136 28.7431 32.9136 28.7431 32.9136 28.7431C32.9136 28.7431 32.9136 28.7431 32.9136 28.7431C32.9136 28.7431 32.9136 28.7431 32.9136 28.7431C32.9136 28.7431 32.9136 28.7431 32.9136 28.7431C32.9136 28.7431 32.9136 28.7431 32.9136 28.7431C32.9136 28.7431 32.9136 28.7431 32.9136 28.7431C32.9136 28.7431 32.9136 28.7431 32.9136 28.7431C32.9136 28.7431 32.9136 28.7431 32.9136 28.7431C32.9136 28.7431 32.9136 28.7431 32.9136 28.7431C32.9136 28.7431 32.9136 28.7431 32.9136 28.7431C32.9136 28.7431 32.9136 28.7431 32.9136 28.7431C32.9136 28.7431 32.9136 28.7431 32.9136 28.7431V26.7431ZM32.9135 26.7431C32.9611 26.7431 33.0002 26.7564 33.0241 26.7693C33.0455 26.7809 33.0469 26.7878 33.0368 26.7748C33.0142 26.7459 32.9727 26.665 32.9727 26.5366H30.9727C30.9727 27.5094 31.6243 28.7431 32.9135 28.7431V26.7431ZM32.9727 26.5366C32.9727 26.4082 33.0142 26.3273 33.0368 26.2984C33.0469 26.2854 33.0455 26.2923 33.0241 26.3039C33.0002 26.3168 32.9611 26.3301 32.9135 26.3301V24.3301C31.6243 24.3301 30.9727 25.5638 30.9727 26.5366H32.9727ZM32.9135 26.3301C32.9131 26.3301 32.9128 26.3301 32.9124 26.3301L32.921 24.3301C32.9185 24.3301 32.916 24.3301 32.9135 24.3301V26.3301ZM36.8124 24.3301H32.9167V26.3301H36.8124V24.3301ZM37.8124 25.3302V25.3301H35.8124V25.3302H37.8124ZM36.8161 24.3301L36.805 24.3302L36.8198 26.3301L36.8309 26.3301L36.8161 24.3301ZM38.7643 26.5366C38.7643 25.5638 38.1127 24.3301 36.8235 24.3301V26.3301C36.7759 26.3301 36.7367 26.3168 36.7129 26.3039C36.6914 26.2923 36.6901 26.2855 36.7002 26.2984C36.7227 26.3273 36.7643 26.4082 36.7643 26.5366H38.7643ZM36.8235 28.7431C38.1127 28.7431 38.7643 27.5094 38.7643 26.5366H36.7643C36.7643 26.665 36.7227 26.7459 36.7002 26.7748C36.6901 26.7878 36.6914 26.7809 36.7129 26.7693C36.7367 26.7564 36.7759 26.7431 36.8235 26.7431V28.7431ZM36.805 28.743L36.8161 28.7431L36.8309 26.7432L36.8198 26.7431L36.805 28.743ZM37.8124 27.7436V27.7431H35.8124V27.7436H37.8124ZM32.9136 28.7436H36.8124V26.7436H32.9136V28.7436ZM31.9136 27.7431V27.7436H33.9136V27.7431H31.9136Z" fill="white" mask="url(#path-11-inside-5_683_2296)"/>
<mask id="path-13-inside-6_683_2296" fill="white">
<path fill-rule="evenodd" clip-rule="evenodd" d="M58.8463 37.7838L56.0895 35.027L56.0897 35.0267L56.0822 35.0193C55.7147 34.6519 55.7989 33.972 56.27 33.5009C56.7412 33.0297 57.421 32.9456 57.7884 33.313L57.7959 33.3205L57.796 33.3204L60.5529 36.0773L60.5527 36.0774C60.5528 36.0775 60.5528 36.0775 60.5529 36.0776C60.9203 36.445 60.8362 37.1248 60.365 37.596C59.8938 38.0671 59.214 38.1513 58.8466 37.7838C58.8465 37.7838 58.8465 37.7838 58.8464 37.7837L58.8463 37.7838Z"/>
</mask>
<path fill-rule="evenodd" clip-rule="evenodd" d="M58.8463 37.7838L56.0895 35.027L56.0897 35.0267L56.0822 35.0193C55.7147 34.6519 55.7989 33.972 56.27 33.5009C56.7412 33.0297 57.421 32.9456 57.7884 33.313L57.7959 33.3205L57.796 33.3204L60.5529 36.0773L60.5527 36.0774C60.5528 36.0775 60.5528 36.0775 60.5529 36.0776C60.9203 36.445 60.8362 37.1248 60.365 37.596C59.8938 38.0671 59.214 38.1513 58.8466 37.7838C58.8465 37.7838 58.8465 37.7838 58.8464 37.7837L58.8463 37.7838Z" fill="white"/>
<path d="M56.0895 35.027L55.3824 34.3199L54.6753 35.027L55.3824 35.7341L56.0895 35.027ZM58.8463 37.7838L58.1392 38.4909L58.8463 39.198L59.5534 38.4909L58.8463 37.7838ZM56.0897 35.0267L56.7968 35.7338L57.5089 35.0217L56.7918 34.3146L56.0897 35.0267ZM56.0822 35.0193L55.375 35.7264L55.3801 35.7314L56.0822 35.0193ZM57.7884 33.313L58.5005 32.6109L58.4955 32.6059L57.7884 33.313ZM57.7959 33.3205L57.0838 34.0226L57.7909 34.7398L58.503 34.0277L57.7959 33.3205ZM57.796 33.3204L58.5032 32.6133L57.796 31.9062L57.0889 32.6133L57.796 33.3204ZM60.5529 36.0773L61.26 36.7844L61.9671 36.0773L61.26 35.3701L60.5529 36.0773ZM60.5527 36.0774L59.8456 35.3703L59.1385 36.0774L59.8456 36.7845L60.5527 36.0774ZM58.8464 37.7837L59.5537 37.0768L58.8466 36.3694L58.1393 37.0766L58.8464 37.7837ZM55.3824 35.7341L58.1392 38.4909L59.5534 37.0767L56.7966 34.3199L55.3824 35.7341ZM55.3826 34.3196L55.3824 34.3199L56.7966 35.7341L56.7968 35.7338L55.3826 34.3196ZM55.3801 35.7314L55.3876 35.7388L56.7918 34.3146L56.7842 34.3072L55.3801 35.7314ZM55.5629 32.7938C54.875 33.4816 54.4635 34.8148 55.375 35.7264L56.7893 34.3122C56.8229 34.3458 56.8412 34.3829 56.8489 34.4089C56.8559 34.4323 56.852 34.4381 56.854 34.4218C56.8586 34.3854 56.8863 34.2988 56.9771 34.208L55.5629 32.7938ZM58.4955 32.6059C57.584 31.6943 56.2508 32.1059 55.5629 32.7938L56.9771 34.208C57.0679 34.1172 57.1545 34.0894 57.1909 34.0849C57.2072 34.0829 57.2014 34.0867 57.178 34.0798C57.152 34.0721 57.115 34.0538 57.0813 34.0201L58.4955 32.6059ZM58.508 32.6185L58.5005 32.6109L57.0763 34.0151L57.0838 34.0226L58.508 32.6185ZM57.0889 32.6133L57.0888 32.6134L58.503 34.0277L58.5032 34.0275L57.0889 32.6133ZM61.26 35.3701L58.5032 32.6133L57.0889 34.0275L59.8458 36.7844L61.26 35.3701ZM61.2598 36.7845L61.26 36.7844L59.8458 35.3701L59.8456 35.3703L61.2598 36.7845ZM59.8456 36.7845C59.8456 36.7846 59.8457 36.7846 59.8457 36.7846C59.8457 36.7846 59.8457 36.7846 59.8457 36.7847L61.26 35.3705C61.2599 35.3704 61.2599 35.3704 61.2599 35.3704C61.2599 35.3704 61.2599 35.3704 61.2598 35.3703L59.8456 36.7845ZM59.8457 36.7847C59.8121 36.751 59.7938 36.714 59.7861 36.688C59.7791 36.6646 59.783 36.6588 59.781 36.6751C59.7764 36.7115 59.7487 36.7981 59.6579 36.8889L61.0721 38.3031C61.76 37.6152 62.1715 36.282 61.26 35.3705L59.8457 36.7847ZM59.6579 36.8889C59.5671 36.9797 59.4805 37.0074 59.4441 37.0119C59.4278 37.014 59.4336 37.0101 59.457 37.017C59.483 37.0248 59.52 37.0431 59.5537 37.0767L58.1395 38.491C59.051 39.4025 60.3842 38.991 61.0721 38.3031L59.6579 36.8889ZM59.5537 37.0767L59.5537 37.0768L58.1392 38.4907C58.1393 38.4908 58.1394 38.4909 58.1395 38.491L59.5537 37.0767ZM59.5534 38.4909L59.5536 38.4908L58.1393 37.0766L58.1392 37.0767L59.5534 38.4909Z" fill="white" mask="url(#path-13-inside-6_683_2296)"/>
<mask id="path-15-inside-7_683_2296" fill="white">
<path fill-rule="evenodd" clip-rule="evenodd" d="M56.7666 20.8102C57.2378 21.2813 57.9176 21.3655 58.285 20.998L58.2932 20.9897L58.2941 20.9906L61.051 18.2337L61.0504 18.2331C61.4174 17.8656 61.3332 17.1861 60.8622 16.7151C60.391 16.2439 59.7112 16.1598 59.3438 16.5272C59.338 16.533 59.3323 16.5388 59.3268 16.5447L56.6026 19.2689C56.5945 19.2763 56.5865 19.2839 56.5787 19.2918C56.2113 19.6592 56.2954 20.339 56.7666 20.8102Z"/>
</mask>
<path fill-rule="evenodd" clip-rule="evenodd" d="M56.7666 20.8102C57.2378 21.2813 57.9176 21.3655 58.285 20.998L58.2932 20.9897L58.2941 20.9906L61.051 18.2337L61.0504 18.2331C61.4174 17.8656 61.3332 17.1861 60.8622 16.7151C60.391 16.2439 59.7112 16.1598 59.3438 16.5272C59.338 16.533 59.3323 16.5388 59.3268 16.5447L56.6026 19.2689C56.5945 19.2763 56.5865 19.2839 56.5787 19.2918C56.2113 19.6592 56.2954 20.339 56.7666 20.8102Z" fill="white"/>
<path d="M58.285 20.998L58.9977 21.6996L58.9921 21.7052L58.285 20.998ZM58.2932 20.9897L57.5806 20.2881L58.2877 19.5699L59.0004 20.2826L58.2932 20.9897ZM58.2941 20.9906L59.0012 21.6977L58.2941 22.4048L57.587 21.6977L58.2941 20.9906ZM61.051 18.2337L61.7581 17.5266L62.4652 18.2337L61.7581 18.9408L61.051 18.2337ZM61.0504 18.2331L60.3433 18.9402L59.6367 18.2336L60.3428 17.5265L61.0504 18.2331ZM59.3268 16.5447L60.0566 17.2284L60.0454 17.2403L60.0339 17.2518L59.3268 16.5447ZM56.6026 19.2689L57.3097 19.976L57.2941 19.9917L57.2778 20.0066L56.6026 19.2689ZM58.9921 21.7052C58.0805 22.6167 56.7474 22.2052 56.0595 21.5173L57.4737 20.1031C57.5645 20.1939 57.6511 20.2216 57.6875 20.2261C57.7038 20.2282 57.698 20.2243 57.6746 20.2312C57.6486 20.239 57.6116 20.2573 57.5779 20.2909L58.9921 21.7052ZM59.0059 21.6912L58.9976 21.6996L57.5724 20.2965L57.5806 20.2881L59.0059 21.6912ZM57.587 21.6977L57.5861 21.6968L59.0004 20.2826L59.0012 20.2834L57.587 21.6977ZM61.7581 18.9408L59.0012 21.6977L57.587 20.2834L60.3439 17.5266L61.7581 18.9408ZM61.7575 17.526L61.7581 17.5266L60.3439 18.9408L60.3433 18.9402L61.7575 17.526ZM60.3428 17.5265C60.3092 17.5602 60.2909 17.5972 60.2832 17.6231C60.2763 17.6465 60.2802 17.6523 60.2781 17.636C60.2736 17.5995 60.2458 17.5129 60.1551 17.4222L61.5693 16.008C62.257 16.6957 62.6684 18.028 61.758 18.9397L60.3428 17.5265ZM60.1551 17.4222C60.0643 17.3314 59.9777 17.3036 59.9413 17.2991C59.925 17.2971 59.9308 17.3009 59.9542 17.294C59.9802 17.2863 60.0172 17.268 60.0509 17.2343L58.6367 15.8201C59.5482 14.9085 60.8814 15.3201 61.5693 16.008L60.1551 17.4222ZM60.0509 17.2343C60.0528 17.2324 60.0547 17.2304 60.0566 17.2284L58.597 15.8611C58.61 15.8472 58.6232 15.8335 58.6367 15.8201L60.0509 17.2343ZM55.8955 18.5618L58.6197 15.8376L60.0339 17.2518L57.3097 19.976L55.8955 18.5618ZM55.8716 18.5847C55.8899 18.5664 55.9085 18.5486 55.9274 18.5313L57.2778 20.0066C57.2805 20.0041 57.2832 20.0015 57.2858 19.9989L55.8716 18.5847ZM56.0595 21.5173C55.3716 20.8294 54.96 19.4962 55.8716 18.5847L57.2858 19.9989C57.3195 19.9652 57.3378 19.9282 57.3455 19.9022C57.3525 19.8788 57.3486 19.873 57.3506 19.8893C57.3551 19.9257 57.3829 20.0123 57.4737 20.1031L56.0595 21.5173Z" fill="white" mask="url(#path-15-inside-7_683_2296)"/>
<mask id="path-17-inside-8_683_2296" fill="white">
<path fill-rule="evenodd" clip-rule="evenodd" d="M63.1865 25.9491C63.1867 25.9491 63.1869 25.9491 63.1871 25.9491C63.7067 25.9491 64.1279 26.4893 64.1279 27.1557C64.1279 27.822 63.7067 28.3622 63.1871 28.3622C63.1831 28.3622 63.1792 28.3622 63.1753 28.3621H59.2877V28.362L59.2766 28.3621C58.757 28.3621 58.3357 27.8219 58.3357 27.1556C58.3357 26.4892 58.757 25.949 59.2766 25.949L59.2877 25.9491V25.9486H63.1865V25.9491Z"/>
</mask>
<path fill-rule="evenodd" clip-rule="evenodd" d="M63.1865 25.9491C63.1867 25.9491 63.1869 25.9491 63.1871 25.9491C63.7067 25.9491 64.1279 26.4893 64.1279 27.1557C64.1279 27.822 63.7067 28.3622 63.1871 28.3622C63.1831 28.3622 63.1792 28.3622 63.1753 28.3621H59.2877V28.362L59.2766 28.3621C58.757 28.3621 58.3357 27.8219 58.3357 27.1556C58.3357 26.4892 58.757 25.949 59.2766 25.949L59.2877 25.9491V25.9486H63.1865V25.9491Z" fill="white"/>
<path d="M63.1865 25.9491H62.1865V26.9491H63.1865V25.9491ZM63.1753 28.3621L63.1911 27.3622L63.1832 27.3621H63.1753V28.3621ZM59.2877 28.3621H58.2877V29.3621H59.2877V28.3621ZM59.2877 28.362H60.2877V27.3546L59.2803 27.362L59.2877 28.362ZM59.2766 28.3621V29.3621L59.284 29.3621L59.2766 28.3621ZM59.2766 25.949L59.284 24.949H59.2766V25.949ZM59.2877 25.9491L59.2803 26.9491L60.2877 26.9566V25.9491H59.2877ZM59.2877 25.9486V24.9486H58.2877V25.9486H59.2877ZM63.1865 25.9486H64.1865V24.9486H63.1865V25.9486ZM63.1865 26.9491L63.1871 26.9491V24.9491L63.1865 24.9491V26.9491ZM63.1871 26.9491C63.1395 26.9491 63.1004 26.9359 63.0765 26.923C63.0551 26.9113 63.0537 26.9045 63.0638 26.9174C63.0863 26.9464 63.1279 27.0273 63.1279 27.1557H65.1279C65.1279 26.1828 64.4763 24.9491 63.1871 24.9491V26.9491ZM63.1279 27.1557C63.1279 27.2841 63.0863 27.3649 63.0638 27.3939C63.0537 27.4068 63.0551 27.4 63.0765 27.3884C63.1004 27.3754 63.1395 27.3622 63.1871 27.3622V29.3622C64.4763 29.3622 65.1279 28.1285 65.1279 27.1557H63.1279ZM63.1871 27.3622C63.1884 27.3622 63.1898 27.3622 63.1911 27.3622L63.1594 29.362C63.1686 29.3621 63.1779 29.3622 63.1871 29.3622V27.3622ZM59.2877 29.3621H63.1753V27.3621H59.2877V29.3621ZM58.2877 28.362V28.3621H60.2877V28.362H58.2877ZM59.284 29.3621L59.2951 29.362L59.2803 27.362L59.2691 27.3621L59.284 29.3621ZM57.3357 27.1556C57.3357 28.1284 57.9874 29.3621 59.2766 29.3621V27.3621C59.3242 27.3621 59.3633 27.3753 59.3871 27.3883C59.4086 27.3999 59.41 27.4067 59.3999 27.3938C59.3773 27.3649 59.3357 27.284 59.3357 27.1556H57.3357ZM59.2766 24.949C57.9874 24.949 57.3357 26.1828 57.3357 27.1556H59.3357C59.3357 27.0272 59.3773 26.9463 59.3999 26.9173C59.41 26.9044 59.4086 26.9112 59.3871 26.9229C59.3633 26.9358 59.3242 26.949 59.2766 26.949V24.949ZM59.2951 24.9491L59.284 24.9491L59.2692 26.949L59.2803 26.9491L59.2951 24.9491ZM58.2877 25.9486V25.9491H60.2877V25.9486H58.2877ZM63.1865 24.9486H59.2877V26.9486H63.1865V24.9486ZM64.1865 25.9491V25.9486H62.1865V25.9491H64.1865Z" fill="white" mask="url(#path-17-inside-8_683_2296)"/>
<mask id="path-19-inside-9_683_2296" fill="white">
<path d="M81.7837 25.637H85.2677V30.707H81.7837V25.637ZM83.5517 15.003C87.3477 15.003 90.1817 17.473 90.1817 20.931C90.1817 24.389 87.3477 26.859 83.5517 26.859C79.7817 26.859 76.8957 24.389 76.8957 20.931C76.8957 17.473 79.7817 15.003 83.5517 15.003ZM83.5517 17.967C81.7057 17.967 80.3017 19.033 80.3017 20.931C80.3017 22.803 81.7057 23.921 83.5517 23.921C85.3977 23.921 86.8017 22.803 86.8017 20.931C86.8017 19.033 85.3977 17.967 83.5517 17.967ZM92.4437 13.573H95.9017V37.727H92.4437V13.573ZM76.3237 32.891L75.9077 30.109C80.1457 30.109 86.0477 30.057 91.1177 29.303L91.3777 31.799C86.1517 32.839 80.4837 32.891 76.3237 32.891ZM108.874 25.845H112.332V29.329H108.874V25.845ZM99.7736 23.817H121.458V26.339H99.7736V23.817ZM108.874 13.573H112.306V16.485H108.874V13.573ZM108.666 16.641H111.708V17.109C111.708 20.567 108.198 22.855 101.542 23.219L100.58 20.645C106.456 20.411 108.666 18.773 108.666 17.109V16.641ZM109.472 16.641H112.514V17.109C112.514 18.773 114.724 20.411 120.574 20.645L119.612 23.219C112.982 22.855 109.472 20.567 109.472 17.109V16.641ZM101.802 15.471H119.404V17.993H101.802V15.471ZM102.218 27.795H118.858V33.749H105.65V36.037H102.244V31.435H115.452V30.291H102.218V27.795ZM102.244 34.997H119.482V37.519H102.244V34.997Z"/>
</mask>
<path d="M81.7837 25.637H85.2677V30.707H81.7837V25.637ZM83.5517 15.003C87.3477 15.003 90.1817 17.473 90.1817 20.931C90.1817 24.389 87.3477 26.859 83.5517 26.859C79.7817 26.859 76.8957 24.389 76.8957 20.931C76.8957 17.473 79.7817 15.003 83.5517 15.003ZM83.5517 17.967C81.7057 17.967 80.3017 19.033 80.3017 20.931C80.3017 22.803 81.7057 23.921 83.5517 23.921C85.3977 23.921 86.8017 22.803 86.8017 20.931C86.8017 19.033 85.3977 17.967 83.5517 17.967ZM92.4437 13.573H95.9017V37.727H92.4437V13.573ZM76.3237 32.891L75.9077 30.109C80.1457 30.109 86.0477 30.057 91.1177 29.303L91.3777 31.799C86.1517 32.839 80.4837 32.891 76.3237 32.891ZM108.874 25.845H112.332V29.329H108.874V25.845ZM99.7736 23.817H121.458V26.339H99.7736V23.817ZM108.874 13.573H112.306V16.485H108.874V13.573ZM108.666 16.641H111.708V17.109C111.708 20.567 108.198 22.855 101.542 23.219L100.58 20.645C106.456 20.411 108.666 18.773 108.666 17.109V16.641ZM109.472 16.641H112.514V17.109C112.514 18.773 114.724 20.411 120.574 20.645L119.612 23.219C112.982 22.855 109.472 20.567 109.472 17.109V16.641ZM101.802 15.471H119.404V17.993H101.802V15.471ZM102.218 27.795H118.858V33.749H105.65V36.037H102.244V31.435H115.452V30.291H102.218V27.795ZM102.244 34.997H119.482V37.519H102.244V34.997Z" fill="white"/>
<path d="M81.7837 25.637V24.637H80.7837V25.637H81.7837ZM85.2677 25.637H86.2677V24.637H85.2677V25.637ZM85.2677 30.707V31.707H86.2677V30.707H85.2677ZM81.7837 30.707H80.7837V31.707H81.7837V30.707ZM92.4437 13.573V12.573H91.4437V13.573H92.4437ZM95.9017 13.573H96.9017V12.573H95.9017V13.573ZM95.9017 37.727V38.727H96.9017V37.727H95.9017ZM92.4437 37.727H91.4437V38.727H92.4437V37.727ZM76.3237 32.891L75.3347 33.0389L75.4621 33.891H76.3237V32.891ZM75.9077 30.109V29.109H74.747L74.9187 30.2569L75.9077 30.109ZM91.1177 29.303L92.1123 29.1994L92.004 28.1601L90.9706 28.3138L91.1177 29.303ZM91.3777 31.799L91.5729 32.7797L92.4667 32.6018L92.3723 31.6954L91.3777 31.799ZM81.7837 26.637H85.2677V24.637H81.7837V26.637ZM84.2677 25.637V30.707H86.2677V25.637H84.2677ZM85.2677 29.707H81.7837V31.707H85.2677V29.707ZM82.7837 30.707V25.637H80.7837V30.707H82.7837ZM83.5517 16.003C86.9111 16.003 89.1817 18.1342 89.1817 20.931H91.1817C91.1817 16.8117 87.7843 14.003 83.5517 14.003V16.003ZM89.1817 20.931C89.1817 23.7277 86.9111 25.859 83.5517 25.859V27.859C87.7843 27.859 91.1817 25.0502 91.1817 20.931H89.1817ZM83.5517 25.859C80.2101 25.859 77.8957 23.7205 77.8957 20.931H75.8957C75.8957 25.0574 79.3532 27.859 83.5517 27.859V25.859ZM77.8957 20.931C77.8957 18.1414 80.2101 16.003 83.5517 16.003V14.003C79.3532 14.003 75.8957 16.8045 75.8957 20.931H77.8957ZM83.5517 16.967C82.4434 16.967 81.3811 17.2874 80.5798 17.9812C79.7611 18.6902 79.3017 19.716 79.3017 20.931H81.3017C81.3017 20.2479 81.5443 19.7917 81.889 19.4932C82.2512 19.1795 82.8139 18.967 83.5517 18.967V16.967ZM79.3017 20.931C79.3017 22.135 79.7621 23.1622 80.5727 23.8777C81.3693 24.5809 82.4316 24.921 83.5517 24.921V22.921C82.8257 22.921 82.263 22.702 81.8962 22.3782C81.5432 22.0667 81.3017 21.5989 81.3017 20.931H79.3017ZM83.5517 24.921C84.6717 24.921 85.734 24.5809 86.5307 23.8777C87.3412 23.1622 87.8017 22.135 87.8017 20.931H85.8017C85.8017 21.5989 85.5601 22.0667 85.2072 22.3782C84.8403 22.702 84.2776 22.921 83.5517 22.921V24.921ZM87.8017 20.931C87.8017 19.716 87.3423 18.6902 86.5235 17.9812C85.7222 17.2874 84.6599 16.967 83.5517 16.967V18.967C84.2894 18.967 84.8521 19.1795 85.2143 19.4932C85.5591 19.7917 85.8017 20.2479 85.8017 20.931H87.8017ZM92.4437 14.573H95.9017V12.573H92.4437V14.573ZM94.9017 13.573V37.727H96.9017V13.573H94.9017ZM95.9017 36.727H92.4437V38.727H95.9017V36.727ZM93.4437 37.727V13.573H91.4437V37.727H93.4437ZM77.3127 32.7431L76.8967 29.9611L74.9187 30.2569L75.3347 33.0389L77.3127 32.7431ZM75.9077 31.109C80.1406 31.109 86.112 31.0584 91.2648 30.2921L90.9706 28.3138C85.9833 29.0555 80.1508 29.109 75.9077 29.109V31.109ZM90.1231 29.4066L90.3831 31.9026L92.3723 31.6954L92.1123 29.1994L90.1231 29.4066ZM91.1825 30.8182C86.065 31.8366 80.4884 31.891 76.3237 31.891V33.891C80.4789 33.891 86.2384 33.8413 91.5729 32.7797L91.1825 30.8182ZM108.874 25.845V24.845H107.874V25.845H108.874ZM112.332 25.845H113.332V24.845H112.332V25.845ZM112.332 29.329V30.329H113.332V29.329H112.332ZM108.874 29.329H107.874V30.329H108.874V29.329ZM99.7736 23.817V22.817H98.7736V23.817H99.7736ZM121.458 23.817H122.458V22.817H121.458V23.817ZM121.458 26.339V27.339H122.458V26.339H121.458ZM99.7736 26.339H98.7736V27.339H99.7736V26.339ZM108.874 13.573V12.573H107.874V13.573H108.874ZM112.306 13.573H113.306V12.573H112.306V13.573ZM112.306 16.485V17.485H113.306V16.485H112.306ZM108.874 16.485H107.874V17.485H108.874V16.485ZM108.666 16.641V15.641H107.666V16.641H108.666ZM111.708 16.641H112.708V15.641H111.708V16.641ZM101.542 23.219L100.605 23.569L100.862 24.2576L101.596 24.2175L101.542 23.219ZM100.58 20.645L100.54 19.6458L99.1592 19.7007L99.6429 20.995L100.58 20.645ZM109.472 16.641V15.641H108.472V16.641H109.472ZM112.514 16.641H113.514V15.641H112.514V16.641ZM120.574 20.645L121.51 20.995L121.994 19.701L120.614 19.6458L120.574 20.645ZM119.612 23.219L119.557 24.2175L120.291 24.2578L120.548 23.569L119.612 23.219ZM101.802 15.471V14.471H100.802V15.471H101.802ZM119.404 15.471H120.404V14.471H119.404V15.471ZM119.404 17.993V18.993H120.404V17.993H119.404ZM101.802 17.993H100.802V18.993H101.802V17.993ZM102.218 27.795V26.795H101.218V27.795H102.218ZM118.858 27.795H119.858V26.795H118.858V27.795ZM118.858 33.749V34.749H119.858V33.749H118.858ZM105.65 33.749V32.749H104.65V33.749H105.65ZM105.65 36.037V37.037H106.65V36.037H105.65ZM102.244 36.037H101.244V37.037H102.244V36.037ZM102.244 31.435V30.435H101.244V31.435H102.244ZM115.452 31.435V32.435H116.452V31.435H115.452ZM115.452 30.291H116.452V29.291H115.452V30.291ZM102.218 30.291H101.218V31.291H102.218V30.291ZM102.244 34.997V33.997H101.244V34.997H102.244ZM119.482 34.997H120.482V33.997H119.482V34.997ZM119.482 37.519V38.519H120.482V37.519H119.482ZM102.244 37.519H101.244V38.519H102.244V37.519ZM108.874 26.845H112.332V24.845H108.874V26.845ZM111.332 25.845V29.329H113.332V25.845H111.332ZM112.332 28.329H108.874V30.329H112.332V28.329ZM109.874 29.329V25.845H107.874V29.329H109.874ZM99.7736 24.817H121.458V22.817H99.7736V24.817ZM120.458 23.817V26.339H122.458V23.817H120.458ZM121.458 25.339H99.7736V27.339H121.458V25.339ZM100.774 26.339V23.817H98.7736V26.339H100.774ZM108.874 14.573H112.306V12.573H108.874V14.573ZM111.306 13.573V16.485H113.306V13.573H111.306ZM112.306 15.485H108.874V17.485H112.306V15.485ZM109.874 16.485V13.573H107.874V16.485H109.874ZM108.666 17.641H111.708V15.641H108.666V17.641ZM110.708 16.641V17.109H112.708V16.641H110.708ZM110.708 17.109C110.708 18.4316 110.064 19.5712 108.597 20.4721C107.087 21.3995 104.733 22.0429 101.487 22.2205L101.596 24.2175C105.006 24.031 107.735 23.3484 109.644 22.1764C111.596 20.9777 112.708 19.2443 112.708 17.109H110.708ZM102.478 22.8689L101.516 20.2949L99.6429 20.995L100.605 23.569L102.478 22.8689ZM100.619 21.6442C103.624 21.5245 105.807 21.0445 107.275 20.3067C108.749 19.5662 109.666 18.4627 109.666 17.109H107.666C107.666 17.4192 107.477 17.9668 106.377 18.5197C105.271 19.0754 103.411 19.5314 100.54 19.6458L100.619 21.6442ZM109.666 17.109V16.641H107.666V17.109H109.666ZM109.472 17.641H112.514V15.641H109.472V17.641ZM111.514 16.641V17.109H113.514V16.641H111.514ZM111.514 17.109C111.514 18.4621 112.43 19.5655 113.9 20.3063C115.365 21.0443 117.542 21.5245 120.534 21.6442L120.614 19.6458C117.755 19.5314 115.902 19.0756 114.8 18.5201C113.703 17.9674 113.514 17.4198 113.514 17.109H111.514ZM119.637 20.2949L118.675 22.8689L120.548 23.569L121.51 20.995L119.637 20.2949ZM119.666 22.2205C116.434 22.043 114.087 21.3997 112.579 20.4725C111.115 19.5717 110.472 18.4319 110.472 17.109H108.472C108.472 19.244 109.583 20.9772 111.531 22.1759C113.437 23.3482 116.159 24.0309 119.557 24.2175L119.666 22.2205ZM110.472 17.109V16.641H108.472V17.109H110.472ZM101.802 16.471H119.404V14.471H101.802V16.471ZM118.404 15.471V17.993H120.404V15.471H118.404ZM119.404 16.993H101.802V18.993H119.404V16.993ZM102.802 17.993V15.471H100.802V17.993H102.802ZM102.218 28.795H118.858V26.795H102.218V28.795ZM117.858 27.795V33.749H119.858V27.795H117.858ZM118.858 32.749H105.65V34.749H118.858V32.749ZM104.65 33.749V36.037H106.65V33.749H104.65ZM105.65 35.037H102.244V37.037H105.65V35.037ZM103.244 36.037V31.435H101.244V36.037H103.244ZM102.244 32.435H115.452V30.435H102.244V32.435ZM116.452 31.435V30.291H114.452V31.435H116.452ZM115.452 29.291H102.218V31.291H115.452V29.291ZM103.218 30.291V27.795H101.218V30.291H103.218ZM102.244 35.997H119.482V33.997H102.244V35.997ZM118.482 34.997V37.519H120.482V34.997H118.482ZM119.482 36.519H102.244V38.519H119.482V36.519ZM103.244 37.519V34.997H101.244V37.519H103.244Z" fill="white" mask="url(#path-19-inside-9_683_2296)"/>
<defs>
<filter id="filter0_di_683_2296" x="0" y="0" width="154.737" height="57.6213" filterUnits="userSpaceOnUse" color-interpolation-filters="sRGB">
<feFlood flood-opacity="0" result="BackgroundImageFix"/>
<feColorMatrix in="SourceAlpha" type="matrix" values="0 0 0 0 0 0 0 0 0 0 0 0 0 0 0 0 0 0 127 0" result="hardAlpha"/>
<feOffset dy="4"/>
<feComposite in2="hardAlpha" operator="out"/>
<feColorMatrix type="matrix" values="0 0 0 0 0 0 0 0 0 0 0 0 0 0 0 0 0 0 0.1 0"/>
<feBlend mode="normal" in2="BackgroundImageFix" result="effect1_dropShadow_683_2296"/>
<feBlend mode="normal" in="SourceGraphic" in2="effect1_dropShadow_683_2296" result="shape"/>
<feColorMatrix in="SourceAlpha" type="matrix" values="0 0 0 0 0 0 0 0 0 0 0 0 0 0 0 0 0 0 127 0" result="hardAlpha"/>
<feOffset dy="2"/>
<feGaussianBlur stdDeviation="5"/>
<feComposite in2="hardAlpha" operator="arithmetic" k2="-1" k3="1"/>
<feColorMatrix type="matrix" values="0 0 0 0 0.609196 0 0 0 0 0.783525 0 0 0 0 1 0 0 0 1 0"/>
<feBlend mode="normal" in2="shape" result="effect2_innerShadow_683_2296"/>
</filter>
</defs>
</svg>
