<svg width="29" height="48" viewBox="0 0 29 48" fill="none" xmlns="http://www.w3.org/2000/svg">
<mask id="path-1-inside-1_630_6470" fill="white">
<path fill-rule="evenodd" clip-rule="evenodd" d="M28.0625 2.06637C28.0625 1.03868 27.2294 0.205566 26.2017 0.205566H1.95455C0.92686 0.205566 0.09375 1.03868 0.09375 2.06637V3.92714C0.09375 3.92716 0.0937658 3.92717 0.0937854 3.92717C0.0938032 3.92717 0.0938182 3.92719 0.0938205 3.9272L4.4466 37.6277C4.58745 38.7182 5.51604 39.5345 6.61558 39.5345H14.0781C14.0781 39.5345 14.0781 39.5346 14.0781 39.5346C14.0781 39.5346 14.0781 39.5346 14.0782 39.5346H21.5406C22.6402 39.5346 23.5688 38.7183 23.7096 37.6278L28.0624 3.9272C28.0624 3.92718 28.0624 3.92717 28.0625 3.92717C28.0625 3.92717 28.0625 3.92716 28.0625 3.92714V2.06637Z"/>
</mask>
<path d="M28.0624 3.9272L25.583 3.60696L28.0624 3.9272ZM4.4466 37.6277L1.9672 37.9479L4.4466 37.6277ZM0.0938205 3.9272L2.57322 3.60696L0.0938205 3.9272ZM1.95455 2.70557H26.2017V-2.29443H1.95455V2.70557ZM2.59375 3.92714V2.06637H-2.40625V3.92714H2.59375ZM-2.38558 4.24745L1.9672 37.9479L6.926 37.3074L2.57322 3.60696L-2.38558 4.24745ZM6.61558 42.0345H14.0781V37.0345H6.61558V42.0345ZM14.0782 42.0346H21.5406V37.0346H14.0782V42.0346ZM26.189 37.948L30.5418 4.24744L25.583 3.60696L21.2302 37.3075L26.189 37.948ZM25.5625 2.06637V3.92714H30.5625V2.06637H25.5625ZM28.0625 6.42717C29.4338 6.42717 30.5625 5.31728 30.5625 3.92714H25.5625C25.5625 2.53703 26.6912 1.42717 28.0625 1.42717V6.42717ZM30.5418 4.24744C30.4571 4.90379 30.1147 5.50351 29.5845 5.91042C29.083 6.29529 28.5251 6.42717 28.0625 6.42717V1.42717C27.112 1.42717 25.7804 2.07863 25.583 3.60696L30.5418 4.24744ZM21.5406 42.0346C23.8971 42.0346 25.8872 40.2851 26.189 37.948L21.2302 37.3075C21.2504 37.1515 21.3833 37.0346 21.5406 37.0346V42.0346ZM11.6159 39.1014C11.3467 40.6319 12.5242 42.0346 14.0782 42.0346V37.0346C15.6321 37.0346 16.8095 38.4373 16.5403 39.9678L11.6159 39.1014ZM14.0781 42.0345C12.5476 42.0345 11.3426 40.6549 11.6159 39.1014L16.5403 39.9678C16.8136 38.4142 15.6086 37.0345 14.0781 37.0345V42.0345ZM1.9672 37.9479C2.26905 40.285 4.25913 42.0345 6.61558 42.0345V37.0345C6.77294 37.0345 6.90584 37.1514 6.926 37.3074L1.9672 37.9479ZM0.0937854 6.42717C-1.16311 6.42717 -2.22458 5.49398 -2.38558 4.24745L2.57322 3.60696C2.41222 2.36039 1.35071 1.42717 0.0937854 1.42717V6.42717ZM-2.40625 3.92714C-2.40625 5.30787 -1.28695 6.42717 0.0937854 6.42717V1.42717C1.47448 1.42717 2.59375 2.54645 2.59375 3.92714H-2.40625ZM26.2017 2.70557C25.8487 2.70557 25.5625 2.41939 25.5625 2.06637H30.5625C30.5625 -0.342035 28.6101 -2.29443 26.2017 -2.29443V2.70557ZM1.95455 -2.29443C-0.453854 -2.29443 -2.40625 -0.342033 -2.40625 2.06637H2.59375C2.59375 2.41939 2.30757 2.70557 1.95455 2.70557V-2.29443Z" fill="#F9A2D7" mask="url(#path-1-inside-1_630_6470)"/>
<mask id="path-3-inside-2_630_6470" fill="white">
<rect x="4.78125" y="37.5578" width="18.5937" height="10.0435" rx="2.19"/>
</mask>
<rect x="4.78125" y="37.5578" width="18.5937" height="10.0435" rx="2.19" stroke="#F9A2D7" stroke-width="5" mask="url(#path-3-inside-2_630_6470)"/>
<path d="M14.0781 5.3789L14.0781 7.1081" stroke="#F9A2D7" stroke-width="2.5" stroke-linecap="round"/>
<path d="M14.0781 21.5811L14.0781 19.8519" stroke="#F9A2D7" stroke-width="2.5" stroke-linecap="round"/>
<path d="M22.1797 13.4808L20.4505 13.4808" stroke="#F9A2D7" stroke-width="2.5" stroke-linecap="round"/>
<path d="M5.97656 13.4808L7.70576 13.4808" stroke="#F9A2D7" stroke-width="2.5" stroke-linecap="round"/>
<path d="M19.8066 7.75131L18.5839 8.97404" stroke="#F9A2D7" stroke-width="2.5" stroke-linecap="round"/>
<path d="M8.34961 19.2086L9.57234 17.9859" stroke="#F9A2D7" stroke-width="2.5" stroke-linecap="round"/>
<path d="M19.8066 19.2086L18.5839 17.9859" stroke="#F9A2D7" stroke-width="2.5" stroke-linecap="round"/>
<path d="M8.34961 7.75138L9.57234 8.97411" stroke="#F9A2D7" stroke-width="2.5" stroke-linecap="round"/>
<circle cx="14.0782" cy="13.4805" r="3.17096" fill="#F9A2D7" stroke="#F9A2D7" stroke-width="2"/>
</svg>
